<svg xmlns="http://www.w3.org/2000/svg" viewBox="0 0 52 282"><defs><style>.cls-1{fill:#828c7a;}.cls-2{fill:none;stroke:#828c7a;stroke-miterlimit:10;stroke-width:2px;opacity:0.8;}</style></defs><g id="Capa_2" data-name="Capa 2"><g id="Capa_1-2" data-name="Capa 1"><path class="cls-1" d="M31.69,228.77a3.39,3.39,0,0,0-2.94-1.42,3.7,3.7,0,0,0-2.36.74,3.77,3.77,0,0,0-1.28,2,3.46,3.46,0,0,0-3.29-2A3.27,3.27,0,0,0,19,229.55a6.54,6.54,0,0,0-1,3.9l0,6.59,14.7-.07,0-7A7.11,7.11,0,0,0,31.69,228.77Zm-11.92,9.16,0-4.3a4.37,4.37,0,0,1,.58-2.49,2,2,0,0,1,1.75-.88,2,2,0,0,1,1.76.86,4.34,4.34,0,0,1,.61,2.48l0,4.31Zm6.4,0,0-4.83q0-3.58,2.44-3.6a2,2,0,0,1,1.85.89,4.89,4.89,0,0,1,.6,2.69l0,4.83Z"/><path class="cls-1" d="M31.18,221.73a7.08,7.08,0,0,0,0-9.16A6.63,6.63,0,0,0,26.3,211l-8.36,0v2l8.27,0a5.11,5.11,0,0,1,3.57,1.05A4,4,0,0,1,31,217.13q0,4.14-4.71,4.16l-8.27,0v2.1l8.36,0A6.63,6.63,0,0,0,31.18,221.73Z"/><polygon class="cls-1" points="32.6 202.44 32.59 200.37 27.5 200.39 17.86 194.6 17.87 196.68 25.64 201.36 17.91 206.11 17.93 208.35 27.47 202.47 32.6 202.44"/><path class="cls-1" d="M32.51,185.14l-3.68-1.6,0-7.81,3.67-1.64v-2.2l-14.67,6.75v2.08l14.73,6.58Zm-12.58-5.46,7.19-3.21,0,6.34Z"/><path class="cls-1" d="M21.19,162.61a7.81,7.81,0,0,0,7.72,0,7.15,7.15,0,0,0,2.67-2.81,8.18,8.18,0,0,0,1-4,9.24,9.24,0,0,0-.5-3,7.81,7.81,0,0,0-1.39-2.54l-5.74,0v2l4.79,0a6.26,6.26,0,0,1,1,3.43,6,6,0,0,1-.72,3,5.37,5.37,0,0,1-2,2.1,5.61,5.61,0,0,1-2.88.77,5.68,5.68,0,0,1-2.91-.74,5.34,5.34,0,0,1-2-2.08,6.24,6.24,0,0,1-.74-3,5.93,5.93,0,0,1,1.68-4.27l-1.3-1.3a6.55,6.55,0,0,0-1.68,2.45,8.69,8.69,0,0,0-.57,3.21,8.45,8.45,0,0,0,1,4A7.13,7.13,0,0,0,21.19,162.61Z"/><rect class="cls-1" x="17.62" y="143.26" width="14.7" height="2.1" transform="translate(-0.69 0.12) rotate(-0.27)"/><polygon class="cls-1" points="26.3 128.53 24.49 128.54 24.53 135.91 19.41 135.94 19.36 127.66 17.54 127.67 17.59 138.05 32.29 137.98 32.28 135.88 26.33 135.9 26.3 128.53"/><polygon class="cls-1" points="19.36 125.88 19.33 120.84 32.2 120.78 32.2 118.7 19.32 118.76 19.3 113.72 17.47 113.73 17.53 125.89 19.36 125.88"/><path class="cls-1" d="M20.92,104.28a7.9,7.9,0,0,0,7.71,0,7.12,7.12,0,0,0,2.67-2.8,8,8,0,0,0,1-4,8.31,8.31,0,0,0-.6-3.16,6.57,6.57,0,0,0-1.74-2.44l-1.31,1.37a5.51,5.51,0,0,1,1.78,4.13,5.94,5.94,0,0,1-.72,3,5.29,5.29,0,0,1-2,2.07,6,6,0,0,1-5.77,0,5.38,5.38,0,0,1-2-2.06,6.08,6.08,0,0,1-.75-3,5.49,5.49,0,0,1,1.73-4.14l-1.33-1.36a6.41,6.41,0,0,0-1.7,2.44,8.3,8.3,0,0,0-.56,3.16,8,8,0,0,0,1,4A7.15,7.15,0,0,0,20.92,104.28Z"/><path class="cls-1" d="M17.33,84,32.06,90.6V88.44l-3.68-1.6,0-7.81L32,77.39v-2.2L17.32,81.94Zm9.32-4.24,0,6.34L19.47,83Z"/><path class="cls-1" d="M25.24,61.17a4.93,4.93,0,0,0-2.9-.83A4.61,4.61,0,0,0,18.59,62a6.79,6.79,0,0,0-1.35,4.5l0,5.73L32,72.16v-2.1l-4.47,0,0-3.64c0-.22,0-.53,0-.92l4.5-3.19V60.05L27,63.56A4.7,4.7,0,0,0,25.24,61.17Zm-6.15,9,0-3.58a4.65,4.65,0,0,1,.84-3,3,3,0,0,1,2.44-1.07,3,3,0,0,1,2.46,1,4.71,4.71,0,0,1,.88,3v3.57Z"/><path class="cls-1" d="M31.86,49.86a8.88,8.88,0,0,0-.94-4.13,6.77,6.77,0,0,0-2.61-2.79,7.26,7.26,0,0,0-3.83-1,7.34,7.34,0,0,0-3.83,1,6.78,6.78,0,0,0-2.58,2.82,9.07,9.07,0,0,0-.91,4.14l0,6.2,14.7-.07ZM19,54l0-4a6.82,6.82,0,0,1,.68-3.14,5,5,0,0,1,1.93-2.1,5.51,5.51,0,0,1,2.89-.75,5.52,5.52,0,0,1,2.89.72,5.09,5.09,0,0,1,1.95,2.08A6.82,6.82,0,0,1,30,50l0,4Z"/><path class="cls-2" d="M11,1H51a0,0,0,0,1,0,0V281a0,0,0,0,1,0,0H11A10,10,0,0,1,1,271V11A10,10,0,0,1,11,1Z"/></g></g></svg>