<svg id="Capa_1" data-name="Capa 1" xmlns="http://www.w3.org/2000/svg" viewBox="0 0 573.6 101.28"><defs><style>.cls-1{stroke:#000;stroke-miterlimit:10;}</style></defs><path class="cls-1" d="M9,7.92H57v8.4H17.4v43.2H50.88v8.4H17.4v24H9Z"/><path class="cls-1" d="M98.28,7.92l4.56,10.8,30.72,73.2h-9.12l-5.28-12.6H77.28L72,91.92H62.88Zm0,21.6-17.4,41.4h34.8Z"/><path class="cls-1" d="M126.36,7.92h9.12l26.28,62.4,26.16-62.4H197l-30.72,73.2-4.56,10.8Z"/><path class="cls-1" d="M250.68,7.92a40.23,40.23,0,0,1,29,11.76,41,41,0,0,1,12.72,28.44v1.8a40.64,40.64,0,0,1-11.76,29.16A39.8,39.8,0,0,1,252.6,91.92h-1.92a40.09,40.09,0,0,1-28.92-11.76A41,41,0,0,1,209,51.72v-1.8A40.64,40.64,0,0,1,220.8,20.76,39.8,39.8,0,0,1,248.88,7.92Zm0,8.4a31.9,31.9,0,0,0-24,10.32,32.87,32.87,0,0,0-9.24,23.28,32.17,32.17,0,0,0,10.32,24.24,33.05,33.05,0,0,0,47-1A32.87,32.87,0,0,0,284,49.92a32.17,32.17,0,0,0-10.32-24.24A32.09,32.09,0,0,0,250.68,16.32Z"/><path class="cls-1" d="M322.56,7.92h19.56a29.74,29.74,0,0,1,22.44,9.6,29,29,0,0,1,8.16,20.4,28.8,28.8,0,0,1-9.72,22,32,32,0,0,1-11.88,6.72l21.6,25.32h-11l-20.52-24H324.72v24h-8.4v-84Zm2.16,8.4v43.2H343.2A21.25,21.25,0,0,0,360,50.76a20.89,20.89,0,0,0,4.32-12.84,20.46,20.46,0,0,0-8-16.68,22.26,22.26,0,0,0-14.16-4.92Z"/><path class="cls-1" d="M396.72,7.92h8.4v84h-8.4Z"/><path class="cls-1" d="M429.12,7.92h56.4v8.4h-24v75.6h-8.4V16.32h-24Z"/><path class="cls-1" d="M511.8,7.92h48v8.4H520.2v43.2h33.48v8.4H520.2v15.6h39.6v8.4h-48Z"/></svg>