<svg id="Capa_1" data-name="Capa 1" xmlns="http://www.w3.org/2000/svg" viewBox="0 0 559.2 116.16"><defs><style>.cls-1{fill:#1d1d1b;}</style></defs><path class="cls-1" d="M45.73,47.59a3.94,3.94,0,0,1,1.78,1.06,5.65,5.65,0,0,1,1,1.65,7.44,7.44,0,0,1,.48,2,21.11,21.11,0,0,1,.12,2.23c0,.58,0,1.18,0,1.82s0,1.27,0,1.86a6.88,6.88,0,0,1-1.38,4.18,12.92,12.92,0,0,1-3.58,3.27,18.09,18.09,0,0,1-4.67,2.07,17.38,17.38,0,0,1-4.59.7,17.77,17.77,0,0,1-9.38-2.53,24.46,24.46,0,0,1-7.13-6.59,31.8,31.8,0,0,1-4.57-9,31.08,31.08,0,0,1-1.62-9.68,31.25,31.25,0,0,1,1.34-8.86,28.85,28.85,0,0,1,3.93-8.26,21.9,21.9,0,0,1,6.34-6.06,15.83,15.83,0,0,1,8.53-2.32,17.42,17.42,0,0,1,5.76,1,23.43,23.43,0,0,1,5.32,2.66A29.24,29.24,0,0,1,48,22.67a37.17,37.17,0,0,1,3.79,4.57l.91,1.3V18.72l-.18-.15A19.4,19.4,0,0,0,48.41,16a29.25,29.25,0,0,0-4.76-1.71,35.62,35.62,0,0,0-5-.93,42.52,42.52,0,0,0-4.78-.28,29.3,29.3,0,0,0-11.31,2.2,28.44,28.44,0,0,0-9.2,6.06,28.92,28.92,0,0,0-6.19,9.12,29.24,29.24,0,0,0,0,22.64,28.92,28.92,0,0,0,26.7,17.46,22.67,22.67,0,0,0,7.44-1.19,61.23,61.23,0,0,0,6.83-2.85l.8-.32a2,2,0,0,1,1.93.27,6.59,6.59,0,0,1,1.27,1.12,12.2,12.2,0,0,1,1.11,1.46c.35.53.65,1,.92,1.43L55.1,72V53a7.23,7.23,0,0,1,.83-3.33,4.15,4.15,0,0,1,2.51-2.12l2.92-1H42.62Z"/><path class="cls-1" d="M98.92,66.86a2.46,2.46,0,0,1-2.47-1.28,7.23,7.23,0,0,1-.71-3.18V42.16c0-4.22-1-7.45-2.93-9.62s-5.15-3.28-9.49-3.28a17.6,17.6,0,0,0-4.25.65,22.75,22.75,0,0,0-4.82,1.89,15.49,15.49,0,0,0-4,3,5.77,5.77,0,0,0-1.74,4,4,4,0,0,0,.83,2.51,3,3,0,0,0,2.47,1.11c2.32,0,3.54-1.2,3.54-3.46a7.58,7.58,0,0,0-.21-1.8,6.12,6.12,0,0,1-.19-1.56,2.67,2.67,0,0,1,.74-1.94,6.1,6.1,0,0,1,2-1.36,12.49,12.49,0,0,1,2.58-.81,12.17,12.17,0,0,1,2.34-.27,6.41,6.41,0,0,1,3.6,1,7.72,7.72,0,0,1,2.37,2.49,10.5,10.5,0,0,1,1.3,3.44,19.43,19.43,0,0,1,.39,3.82v4.25a7.42,7.42,0,0,1-2.59,1.1c-1.38.38-3,.75-4.69,1.12s-3.62.85-5.48,1.41a23.51,23.51,0,0,0-5.23,2.25,12.76,12.76,0,0,0-4,3.66,9.61,9.61,0,0,0-1.61,5.65,8.41,8.41,0,0,0,.94,4,8.73,8.73,0,0,0,2.46,2.89A10.47,10.47,0,0,0,73.55,70a14.92,14.92,0,0,0,4,.54,20,20,0,0,0,6.56-1,14.61,14.61,0,0,0,5.55-3.6L89,65.1A13.91,13.91,0,0,1,84.87,67a17.39,17.39,0,0,1-4.59.62,7.23,7.23,0,0,1-5.1-1.79A6.3,6.3,0,0,1,73.26,61,8.32,8.32,0,0,1,75,55.48,13.88,13.88,0,0,1,79.35,52a30.06,30.06,0,0,1,5.74-2.16c1.86-.49,3.59-1,5.17-1.45v14a19.69,19.69,0,0,0,.21,2.95,7.28,7.28,0,0,0,.86,2.58,5,5,0,0,0,1.9,1.86,6.25,6.25,0,0,0,3.13.71A7.25,7.25,0,0,0,100,69.35a5.31,5.31,0,0,0,2.5-3l.47-1.57-1.27,1A4.23,4.23,0,0,1,98.92,66.86Z"/><path class="cls-1" d="M115.72,23.94a3.63,3.63,0,0,0,2.67-1,3.59,3.59,0,0,0,1-2.67,3.52,3.52,0,0,0-3.7-3.7,3.73,3.73,0,0,0-2.7,1,3.53,3.53,0,0,0-1.08,2.68A3.53,3.53,0,0,0,113,22.92,3.73,3.73,0,0,0,115.72,23.94Z"/><path class="cls-1" d="M119.54,67.11a9.38,9.38,0,0,1-.76-3.83V28.88l-9.29,6.5h1.59a1.42,1.42,0,0,1,1,.37,2.94,2.94,0,0,1,.68,1.13,6.78,6.78,0,0,1,.33,1.52c0,.55.08,1,.08,1.44V63.28a9.77,9.77,0,0,1-.72,3.84,4.05,4.05,0,0,1-2.77,2.24l-3.15,1h18.73l-3-1A4.12,4.12,0,0,1,119.54,67.11Z"/><path class="cls-1" d="M164,66.86a2.46,2.46,0,0,1-2.47-1.28,7.23,7.23,0,0,1-.71-3.18V42.16c0-4.22-1-7.45-2.93-9.62s-5.15-3.28-9.49-3.28a17.6,17.6,0,0,0-4.25.65,22.75,22.75,0,0,0-4.82,1.89,15.49,15.49,0,0,0-4,3,5.77,5.77,0,0,0-1.74,4,4,4,0,0,0,.83,2.51,3,3,0,0,0,2.47,1.11c2.32,0,3.54-1.2,3.54-3.46a7.58,7.58,0,0,0-.21-1.8,6.12,6.12,0,0,1-.19-1.56,2.69,2.69,0,0,1,.74-1.94,6.1,6.1,0,0,1,2-1.36,12.49,12.49,0,0,1,2.58-.81,12.17,12.17,0,0,1,2.34-.27,6.41,6.41,0,0,1,3.6,1,7.79,7.79,0,0,1,2.37,2.48A10.73,10.73,0,0,1,155,38.1a19.5,19.5,0,0,1,.39,3.82v4.24a7.22,7.22,0,0,1-2.59,1.11c-1.38.38-3,.75-4.69,1.12s-3.61.85-5.48,1.41a23.51,23.51,0,0,0-5.23,2.25,12.65,12.65,0,0,0-4,3.66,9.61,9.61,0,0,0-1.61,5.65,8.41,8.41,0,0,0,.94,4,8.62,8.62,0,0,0,2.46,2.89A10.47,10.47,0,0,0,138.67,70a14.92,14.92,0,0,0,4,.54,20,20,0,0,0,6.56-1,14.61,14.61,0,0,0,5.55-3.6l-.63-.77A13.79,13.79,0,0,1,150,67a17.39,17.39,0,0,1-4.59.62,7.23,7.23,0,0,1-5.1-1.79A6.3,6.3,0,0,1,138.38,61a8.3,8.3,0,0,1,1.72-5.48A13.88,13.88,0,0,1,144.47,52a30.06,30.06,0,0,1,5.74-2.16c1.86-.5,3.6-1,5.17-1.45v14a19.88,19.88,0,0,0,.21,2.95,7.28,7.28,0,0,0,.86,2.58,5.07,5.07,0,0,0,1.9,1.86,6.25,6.25,0,0,0,3.13.71,7.25,7.25,0,0,0,3.66-1.15,5.31,5.31,0,0,0,2.5-3l.47-1.57-1.27,1A4.23,4.23,0,0,1,164,66.86Z"/><path class="cls-1" d="M204.18,67.09a4,4,0,0,1-2.77,2.27l-3.15,1h39l3.37-13.82-1.88,3.56a14.85,14.85,0,0,1-5.89,6.2,16.74,16.74,0,0,1-8.31,2.1H211.34v-26h8.94a10.12,10.12,0,0,1,4.42.95,5.33,5.33,0,0,1,2.71,3.35l1,2.91V33.08l-1,2.92a5.47,5.47,0,0,1-2.71,3.39,9.73,9.73,0,0,1-4.42,1h-8.94V15.3H224.6c6.15,0,10.58,2.71,13.56,8.29l1.75,3.3-3.07-13.55H198.26l3.15,1a4,4,0,0,1,2.77,2.2,9.28,9.28,0,0,1,.72,3.72v43A9.94,9.94,0,0,1,204.18,67.09Z"/><path class="cls-1" d="M282.1,35.71a9.8,9.8,0,0,1,2.55-3.5,7.73,7.73,0,0,1,3.87-1.88l-.08-1H276.2l-.08,1a3.53,3.53,0,0,1,2.54,1.61,5.77,5.77,0,0,1,.88,3.1,5.4,5.4,0,0,1-.28,1.8l-10.9,24.65L256.5,35.09a4,4,0,0,1-.21-.78,4.53,4.53,0,0,1-.07-.79,4.13,4.13,0,0,1,.5-2,2.49,2.49,0,0,1,1.48-1.2l2.91-1H243.29l2.32,1a7.66,7.66,0,0,1,3.31,2.43,19.27,19.27,0,0,1,2.1,3.79l15.34,34.71Z"/><path class="cls-1" d="M327.44,64.39a21.25,21.25,0,0,0,4.38-6.56,20.14,20.14,0,0,0,1.6-8,20.59,20.59,0,0,0-6-14.6,21.19,21.19,0,0,0-6.55-4.42,20,20,0,0,0-8-1.64,19.74,19.74,0,0,0-8,1.64,20.86,20.86,0,0,0-6.52,4.47,21.79,21.79,0,0,0-4.42,6.55,19.74,19.74,0,0,0-1.64,8,20,20,0,0,0,1.64,8,20.86,20.86,0,0,0,11,11,20,20,0,0,0,8,1.64,19.74,19.74,0,0,0,8-1.64A21,21,0,0,0,327.44,64.39Zm0-13a22.12,22.12,0,0,1-.86,6.06A18.1,18.1,0,0,1,324,63a13.76,13.76,0,0,1-4.21,3.94A11.17,11.17,0,0,1,314,68.38a12.44,12.44,0,0,1-6.73-1.85,17.2,17.2,0,0,1-5-4.74,22.89,22.89,0,0,1-3.13-6.5,23.9,23.9,0,0,1-1.1-7,22.14,22.14,0,0,1,.86-6.07,18.21,18.21,0,0,1,2.57-5.45,13.64,13.64,0,0,1,4.25-3.93,11.25,11.25,0,0,1,5.82-1.49,12.8,12.8,0,0,1,6.74,1.8,16.65,16.65,0,0,1,5,4.74,23.69,23.69,0,0,1,3.13,6.5A24,24,0,0,1,327.46,51.44Z"/><path class="cls-1" d="M343.63,66.91a4.87,4.87,0,0,1-3,2.46l-2.65,1h18.36l-2.65-1a4.82,4.82,0,0,1-3-2.46,9.6,9.6,0,0,1-.8-4L349.9,9.26l-9.39,6.84H342a1.56,1.56,0,0,1,1.17.41,3.1,3.1,0,0,1,.72,1.21,9.9,9.9,0,0,1,.38,1.63,12.5,12.5,0,0,1,.11,1.53v42A9.79,9.79,0,0,1,343.63,66.91Z"/><path class="cls-1" d="M398.79,63.56a3.18,3.18,0,0,1-.72-1.2,8.77,8.77,0,0,1-.37-1.63,11,11,0,0,1-.12-1.53V28.81L388.35,36l1.35.07a1.92,1.92,0,0,1,1.88,1,6.07,6.07,0,0,1,.52,2.56V61.09l-2.77,2.2a26.23,26.23,0,0,1-5,3.1,13.19,13.19,0,0,1-5.63,1.27,7.71,7.71,0,0,1-3.8-.86,7.22,7.22,0,0,1-2.5-2.32A10,10,0,0,1,371,61.09a18.15,18.15,0,0,1-.43-4V28.81L361.31,36l1.35.07a1.91,1.91,0,0,1,1.88,1.06,6.15,6.15,0,0,1,.52,2.52V56.16a21.5,21.5,0,0,0,.66,5.36,13.64,13.64,0,0,0,2.07,4.61,10.67,10.67,0,0,0,3.69,3.23,11.41,11.41,0,0,0,5.44,1.22,15.33,15.33,0,0,0,7.28-1.86A19.49,19.49,0,0,0,390,64l2.08-2.51v9.33L401.5,64H400A1.57,1.57,0,0,1,398.79,63.56Z"/><path class="cls-1" d="M429,66.5a8,8,0,0,1-6.81.29,6.63,6.63,0,0,1-2.2-1.71,8.21,8.21,0,0,1-1.39-2.52,9.59,9.59,0,0,1-.49-3V31.38h7.2v-2h-7.2V13.12l-.67.25a6.67,6.67,0,0,0-3.75,3.15,9.85,9.85,0,0,0-1.14,4.68v8.14h-3.28v2h3.28V57.92a20.13,20.13,0,0,0,.53,4.67,11,11,0,0,0,1.81,4,9.18,9.18,0,0,0,3.21,2.75,10.05,10.05,0,0,0,4.71,1,12.52,12.52,0,0,0,3-.38,13.18,13.18,0,0,0,2.91-1.08,12.22,12.22,0,0,0,2.54-1.75A6.89,6.89,0,0,0,433,64.59l1.34-3.24-2.19,2.74A8.58,8.58,0,0,1,429,66.5Z"/><path class="cls-1" d="M448.58,67.11a9.22,9.22,0,0,1-.76-3.83V28.88l-9.29,6.5h1.59a1.39,1.39,0,0,1,1,.37,3,3,0,0,1,.69,1.13,6.78,6.78,0,0,1,.33,1.52c.05.55.08,1,.08,1.44V63.28a9.77,9.77,0,0,1-.72,3.84,4.05,4.05,0,0,1-2.77,2.24l-3.15,1h18.73l-3-1A4.12,4.12,0,0,1,448.58,67.11Z"/><path class="cls-1" d="M444.76,23.94a3.53,3.53,0,0,0,3.7-3.7,3.67,3.67,0,0,0-1-2.68,3.63,3.63,0,0,0-2.67-1,3.77,3.77,0,0,0-2.71,1A3.55,3.55,0,0,0,441,20.24a3.55,3.55,0,0,0,1.07,2.68A3.77,3.77,0,0,0,444.76,23.94Z"/><path class="cls-1" d="M496.31,35.24a21.31,21.31,0,0,0-6.55-4.42,20,20,0,0,0-8-1.64,19.74,19.74,0,0,0-8,1.64,20.86,20.86,0,0,0-6.52,4.47,21.61,21.61,0,0,0-4.42,6.55,19.74,19.74,0,0,0-1.64,8,20,20,0,0,0,1.64,8,20.76,20.76,0,0,0,11,11,20,20,0,0,0,8,1.64,19.74,19.74,0,0,0,8-1.64,20.94,20.94,0,0,0,10.9-11,20.14,20.14,0,0,0,1.6-8,20.59,20.59,0,0,0-6-14.6Zm0,16.2a22.12,22.12,0,0,1-.86,6.06A18.34,18.34,0,0,1,492.91,63a13.76,13.76,0,0,1-4.21,3.94,11.19,11.19,0,0,1-5.86,1.49,12.5,12.5,0,0,1-6.74-1.85,17.29,17.29,0,0,1-5-4.74,22.63,22.63,0,0,1-3.13-6.5,23.9,23.9,0,0,1-1.1-7,22.14,22.14,0,0,1,.86-6.07,18.21,18.21,0,0,1,2.57-5.45,13.5,13.5,0,0,1,4.24-3.93,11.31,11.31,0,0,1,5.83-1.49,12.85,12.85,0,0,1,6.74,1.8,16.77,16.77,0,0,1,5,4.74,23.69,23.69,0,0,1,3.13,6.5A24,24,0,0,1,496.34,51.44Z"/><path class="cls-1" d="M539.62,66.92a4.51,4.51,0,0,1-2.94,2.44l-2.93,1h19l-2.92-1a4.68,4.68,0,0,1-3-2.41,9.58,9.58,0,0,1-.83-4.07V43.52a21.64,21.64,0,0,0-.66-5.37,13.35,13.35,0,0,0-2.12-4.61,10.61,10.61,0,0,0-9.08-4.44A15.38,15.38,0,0,0,526.76,31a19.51,19.51,0,0,0-5.83,4.72l-1.73,2.1,0-8.92-9.4,6.84h1.54a1.54,1.54,0,0,1,1.16.41,3,3,0,0,1,.72,1.21,8.22,8.22,0,0,1,.38,1.63,10.9,10.9,0,0,1,.12,1.53v22.4a9.63,9.63,0,0,1-.8,4A4.82,4.82,0,0,1,510,69.37l-2.65,1h18.35l-2.64-1a4.87,4.87,0,0,1-3-2.46,9.76,9.76,0,0,1-.79-4l-.06-24.56,2.43-1.93a25.74,25.74,0,0,1,5-3.1A13.19,13.19,0,0,1,532.28,32a7.78,7.78,0,0,1,3.79.85,7.35,7.35,0,0,1,2.51,2.32A10,10,0,0,1,540,38.58a19,19,0,0,1,.43,4V62.88A10,10,0,0,1,539.62,66.92Z"/><path class="cls-1" d="M203.59,88.81a6.76,6.76,0,0,1,4.95,2.08l1.23-1.22a2.73,2.73,0,0,0-.23-.25,8.44,8.44,0,0,0-5.95-2.36,6.41,6.41,0,0,0-4.45,1.58,5.1,5.1,0,0,0,.28,7.92,11.15,11.15,0,0,0,4,1.53l.08,0c1.9.42,3,.7,3.42.85a3,3,0,0,1,.88.55,1.38,1.38,0,0,1,.22.7,2.17,2.17,0,0,1-1.2,1.78,6.09,6.09,0,0,1-3.32.85,6.66,6.66,0,0,1-4.95-2.08L197.27,102a1.47,1.47,0,0,0,.25.25,8.36,8.36,0,0,0,5.95,2.35,8,8,0,0,0,4.25-1.1.63.63,0,0,1,.12-.1,3.69,3.69,0,0,0,1.9-3.18,2.79,2.79,0,0,0-.67-1.85,4.09,4.09,0,0,0-1.53-1,6.5,6.5,0,0,0-.67-.23c-.24-.08-1.27-.32-3.1-.72a9.78,9.78,0,0,1-3.33-1.25l-.12-.08a3.08,3.08,0,0,1-1.18-2.62,3.56,3.56,0,0,1,.35-1.55C200.17,89.51,201.54,88.81,203.59,88.81Z"/><path class="cls-1" d="M218.89,87.09h-5.37v17.5h1.75v-5h3.62a6.29,6.29,0,0,0,4.35-1.67,6.17,6.17,0,0,0,.33-8.83A6.22,6.22,0,0,0,218.89,87.09Zm3.6,9.08a4.46,4.46,0,0,1-3.6,1.67h-3.62v-9h3.62a4.66,4.66,0,0,1,3,1,4.26,4.26,0,0,1,1.68,3.48A4.39,4.39,0,0,1,222.49,96.17Z"/><path class="cls-1" d="M237.17,87.44a6.92,6.92,0,0,0-2-.35H235a7.63,7.63,0,0,0-.8,0,6.22,6.22,0,0,0-4.37,2.55l1.4,1a5.08,5.08,0,0,1,1.25-1.15,4.53,4.53,0,0,1,4.07-.5,5.48,5.48,0,0,1,1.53.85,4.73,4.73,0,0,1,1.75,3.65,6.33,6.33,0,0,0-4.53-2.1,1.66,1.66,0,0,0-.32,0,6.47,6.47,0,0,0-4.2,1.63,6.26,6.26,0,0,0-2.28,4.67,6.58,6.58,0,0,0,1.6,4.6,6.28,6.28,0,0,0,4.6,2.28h.45a6.28,6.28,0,0,0,4.68-2.1v2h1.75V93.67a6.52,6.52,0,0,0-.73-3A6.37,6.37,0,0,0,237.17,87.44Zm2.7,10.87a5,5,0,0,1-1.28,3,4.55,4.55,0,0,1-3.75,1.55,4.73,4.73,0,0,1-3-1.25,4.62,4.62,0,0,1-1.58-3.8,4.87,4.87,0,0,1,1.1-2.88A4.53,4.53,0,0,1,235,93.21l.25,0a4.82,4.82,0,0,1,4.6,5Z"/><path class="cls-1" d="M266.47,97.84h-1.75a5.22,5.22,0,0,1-.9,2.85l-2.63-2.8c-1-1-1.72-1.86-2.25-2.47a13.67,13.67,0,0,0,1.88-1.71,4.36,4.36,0,0,0,1.2-2.85,4.06,4.06,0,0,0-1.13-2.9,3.36,3.36,0,0,0-2.15-.9h-.32a3.77,3.77,0,0,0-1.88.68,4,4,0,0,0-1.65,3.4,6.85,6.85,0,0,0,1.4,3.72l.2.28a9.56,9.56,0,0,0-1.27,1.3,5.14,5.14,0,0,0-1.15,3.15,4.64,4.64,0,0,0,1.12,3,5.55,5.55,0,0,0,4.5,2,6.63,6.63,0,0,0,4.1-1.38l1.28,1.38h2.4L265,102A6.82,6.82,0,0,0,266.47,97.84Zm-9.68-7.7a1.79,1.79,0,0,1,1.7-1.33h.18a1.53,1.53,0,0,1,1,.43,2.29,2.29,0,0,1,.58,1.62,2.85,2.85,0,0,1-.75,1.7A14.12,14.12,0,0,1,257.84,94l-.12-.18a5.1,5.1,0,0,1-1.08-2.72A4.89,4.89,0,0,1,256.79,90.14Zm2.9,12.7a4.52,4.52,0,0,1-2.47-.65,3,3,0,0,1-1.4-2.6,3.34,3.34,0,0,1,.77-2.08,10.35,10.35,0,0,1,1-1c.52.62,1.29,1.48,2.33,2.58l2.67,2.85A5,5,0,0,1,259.69,102.84Z"/><path class="cls-1" d="M286.29,88.81a6.76,6.76,0,0,1,4.95,2.08l1.23-1.22a2.73,2.73,0,0,0-.23-.25,8.44,8.44,0,0,0-5.95-2.36,6.41,6.41,0,0,0-4.45,1.58,5.1,5.1,0,0,0,.28,7.92,11.15,11.15,0,0,0,4,1.53l.08,0c1.89.42,3,.7,3.42.85a3,3,0,0,1,.88.55,1.38,1.38,0,0,1,.22.7,2.17,2.17,0,0,1-1.2,1.78,6.09,6.09,0,0,1-3.32.85,6.66,6.66,0,0,1-4.95-2.08L280,102a1.47,1.47,0,0,0,.25.25,8.36,8.36,0,0,0,5.95,2.35,8,8,0,0,0,4.25-1.1.63.63,0,0,1,.12-.1,3.69,3.69,0,0,0,1.9-3.18,2.79,2.79,0,0,0-.67-1.85,4.09,4.09,0,0,0-1.53-1,6.73,6.73,0,0,0-.68-.23q-.35-.12-3.09-.72a9.78,9.78,0,0,1-3.33-1.25.62.62,0,0,1-.12-.08,3.08,3.08,0,0,1-1.18-2.62,3.56,3.56,0,0,1,.35-1.55C282.87,89.51,284.24,88.81,286.29,88.81Z"/><path class="cls-1" d="M304.37,87.44a6.92,6.92,0,0,0-2-.35h-.1a7.63,7.63,0,0,0-.8,0,6.26,6.26,0,0,0-4.38,2.55l1.41,1a4.91,4.91,0,0,1,1.25-1.15,4.53,4.53,0,0,1,4.07-.5,5.29,5.29,0,0,1,1.52.85,4.67,4.67,0,0,1,1.75,3.65,6.29,6.29,0,0,0-4.52-2.1,1.66,1.66,0,0,0-.32,0,6.47,6.47,0,0,0-4.2,1.63,6.26,6.26,0,0,0-2.28,4.67,6.54,6.54,0,0,0,1.6,4.6,6.28,6.28,0,0,0,4.6,2.28h.45a6.24,6.24,0,0,0,4.67-2.1v2h1.75V93.67a6.51,6.51,0,0,0-.72-3A6.37,6.37,0,0,0,304.37,87.44Zm2.69,10.87a5,5,0,0,1-1.27,3,4.55,4.55,0,0,1-3.75,1.55,4.78,4.78,0,0,1-3-1.25,4.64,4.64,0,0,1-1.57-3.8,4.87,4.87,0,0,1,1.1-2.88,4.53,4.53,0,0,1,3.63-1.75l.25,0a4.68,4.68,0,0,1,3,1.2,4.61,4.61,0,0,1,1.62,3.8Z"/><polygon class="cls-1" points="314.76 87.09 313.01 87.09 313.01 104.59 313.54 104.59 314.76 104.59 323.01 104.59 323.01 102.84 314.76 102.84 314.76 87.09"/><path class="cls-1" d="M333,87.09h-.41a8.28,8.28,0,0,0-5.84,2.67,8.45,8.45,0,0,0-2.45,6.08v.37a8.48,8.48,0,0,0,2.65,5.93,8.37,8.37,0,0,0,6.05,2.45h.37a8.3,8.3,0,0,0,5.85-2.67,8.51,8.51,0,0,0,2.45-6.08v-.38A8.52,8.52,0,0,0,339,89.54,8.35,8.35,0,0,0,333,87.09Zm5,13.6a6.95,6.95,0,0,1-12-4.85A6.86,6.86,0,0,1,327.94,91a6.95,6.95,0,0,1,11.95,4.85A6.86,6.86,0,0,1,338,100.69Z"/><path class="cls-1" d="M351.61,87.09a6.44,6.44,0,0,0-4.5,1.8v-1.8h-1.75v17.5h1.75V93a3.86,3.86,0,0,1,.95-2.55,4.42,4.42,0,0,1,3.55-1.6,4.59,4.59,0,0,1,2.85,1,3.81,3.81,0,0,1,1.65,3.2v11.6h1.75V93a5.6,5.6,0,0,0-1.62-4A6.21,6.21,0,0,0,351.61,87.09Z"/></svg>