<svg xmlns="http://www.w3.org/2000/svg" width="100" height="100" viewBox="0 0 100 100">
  <path id="Icon_awesome-instagram" data-name="Icon awesome-instagram" d="M50.006,26.6A25.639,25.639,0,1,0,75.639,52.238,25.6,25.6,0,0,0,50.006,26.6Zm0,42.307A16.669,16.669,0,1,1,66.671,52.238,16.7,16.7,0,0,1,50.006,68.906ZM82.666,25.55a5.979,5.979,0,1,1-5.979-5.98A5.966,5.966,0,0,1,82.666,25.55ZM99.643,31.62c-.379-8.011-2.209-15.107-8.076-20.953C85.723,4.821,78.628,2.991,70.619,2.589c-8.254-.469-32.995-.469-41.249,0C21.383,2.968,14.289,4.8,8.422,10.644S.748,23.587.346,31.6c-.468,8.256-.468,33,0,41.259.379,8.011,2.209,15.107,8.076,20.953s12.939,7.676,20.948,8.078c8.254.469,32.995.469,41.249,0,8.009-.379,15.1-2.209,20.948-8.078,5.845-5.846,7.674-12.942,8.076-20.953.468-8.256.468-32.98,0-41.236ZM88.98,81.714a16.874,16.874,0,0,1-9.5,9.506c-6.581,2.611-22.2,2.008-29.47,2.008s-22.911.58-29.47-2.008a16.874,16.874,0,0,1-9.5-9.506c-2.61-6.583-2.008-22.2-2.008-29.477s-.58-22.916,2.008-29.477a16.874,16.874,0,0,1,9.5-9.506c6.581-2.611,22.2-2.008,29.47-2.008s22.911-.58,29.47,2.008a16.874,16.874,0,0,1,9.5,9.506c2.61,6.583,2.008,22.2,2.008,29.477S91.59,75.154,88.98,81.714Z" transform="translate(0.005 -2.238)" fill="#2c2c2c"/>
</svg>
