<svg id="Capa_1" data-name="Capa 1" xmlns="http://www.w3.org/2000/svg" viewBox="0 0 270 270"><polygon points="149.85 22.76 151 4.04 149.05 3.92 148.11 19.11 136.99 3.18 135.35 3.08 134.2 21.8 136.18 21.93 137.12 6.74 148.22 22.66 149.85 22.76"/><path d="M172.6,28.05,169,7.74l-1.89-.49-13,16,2,.51,3.43-4.28,10.12,2.61.92,5.41Zm-12-9.93,6.88-8.63,1.84,10.88Z"/><polygon points="194.5 17.25 180.6 11.2 179.92 12.77 185.96 15.4 179.15 31.02 180.97 31.81 187.78 16.19 193.82 18.82 194.5 17.25"/><path d="M193.21,35.8a7.59,7.59,0,0,0,3.6,4.87A7.56,7.56,0,0,0,202.7,42a8.44,8.44,0,0,0,5-4l5.89-9L212,28l-5.85,8.91a7.05,7.05,0,0,1-3.91,3.27,5.53,5.53,0,0,1-4.46-1,5.47,5.47,0,0,1-2.68-3.68,7,7,0,0,1,1.44-4.89l5.85-8.91-1.65-1.09-5.9,9A8.37,8.37,0,0,0,193.21,35.8Z"/><path d="M210.28,50.69l4.14-4.27L218,49.93a14.55,14.55,0,0,0,1.13,1l-1.12,7.31,1.56,1.51,1.18-7.81a6.21,6.21,0,0,0,3.8.65A6.12,6.12,0,0,0,228,50.69a5.85,5.85,0,0,0,1.82-4.81A8.46,8.46,0,0,0,227,40.74l-5-4.89-13,13.46Zm11.86-12.23,3.58,3.47a6.53,6.53,0,0,1,2.21,3.84,4.28,4.28,0,0,1-1.38,3.54,4.23,4.23,0,0,1-3.46,1.45,6.49,6.49,0,0,1-3.92-2.08l-3.57-3.47Z"/><path d="M222.61,63.34,228,62.26l6.08,8.5-2.77,4.75,1.21,1.7,10.28-17.88-1.14-1.59-20.24,3.92Zm17.93-3.62L235,69.24l-5.23-7.32Z"/><polygon points="239.91 92.41 241.44 91.66 236.84 82.22 252.15 74.75 251.28 72.97 234.43 81.19 239.91 92.41"/><rect x="250.7" y="101.93" width="1.66" height="7.02" transform="translate(-18.18 64.9) rotate(-14.19)"/><path d="M248.92,128.26a10.88,10.88,0,0,0,.15,10.07,9.11,9.11,0,0,0,3.47,3.47,9.59,9.59,0,0,0,4.91,1.21,9.46,9.46,0,0,0,4.87-1.37,9.12,9.12,0,0,0,3.36-3.58A10.85,10.85,0,0,0,265.5,128a9,9,0,0,0-3.47-3.48,10,10,0,0,0-9.75.16A9.15,9.15,0,0,0,248.92,128.26Zm8.25-3a7.81,7.81,0,0,1,4,1A7.36,7.36,0,0,1,264,129a8.15,8.15,0,0,1,1.07,4,8,8,0,0,1-.94,4,7.25,7.25,0,0,1-2.74,2.86,8.29,8.29,0,0,1-7.95.13,7.27,7.27,0,0,1-2.84-2.77,8.56,8.56,0,0,1-.13-8.05,7.37,7.37,0,0,1,2.74-2.88A7.76,7.76,0,0,1,257.17,125.27Z"/><path d="M247,150.68l5.85,1.06-.9,4.95a13.42,13.42,0,0,0-.18,1.49l-6.7,3.15-.39,2.13,7.15-3.36a5.82,5.82,0,0,0,5,5.27,5.82,5.82,0,0,0,5-1.16,8.51,8.51,0,0,0,2.7-5.24l1.25-6.9-18.46-3.34Zm6.62,6.26.89-4.9,9.25,1.67-.88,4.91a6.55,6.55,0,0,1-2,4,4.83,4.83,0,0,1-6.84-1.24A6.44,6.44,0,0,1,253.57,156.94Z"/><path d="M256.47,173.62a9.94,9.94,0,0,0-9.12-3.52,9.2,9.2,0,0,0-4.47,2.07,10.44,10.44,0,0,0-3,4.28,11.48,11.48,0,0,0-.78,3.75,9.12,9.12,0,0,0,.53,3.53l6.67,2.58.69-1.78-5.9-2.27a8.19,8.19,0,0,1,.41-5.1A8.36,8.36,0,0,1,244,173.7a7.55,7.55,0,0,1,7.71-1.21,7.74,7.74,0,0,1,3.33,2.4,7.34,7.34,0,0,1,1.56,3.69,8.31,8.31,0,0,1-.54,4.2,7.7,7.7,0,0,1-4.08,4.49l.73,1.6a7.84,7.84,0,0,0,3-2.1,10.92,10.92,0,0,0,2.06-3.43,10.37,10.37,0,0,0,.68-5.19A9.07,9.07,0,0,0,256.47,173.62Z"/><path d="M234.94,188.16l3.07,4.55-5.51,8.88-5.45-.73-1.1,1.77,20.45,2.62,1-1.66L236,186.41Zm10.24,15.16-10.94-1.5,4.75-7.64Z"/><polygon points="221.85 207.42 233.02 217.76 213.66 216.26 212.55 217.46 226.31 230.21 227.64 228.77 216.48 218.43 235.85 219.91 236.96 218.71 223.2 205.96 221.85 207.42"/><rect x="210.89" y="220.75" width="1.98" height="18.76" transform="translate(-97.59 184.5) rotate(-38.98)"/><path d="M202,231.72a9.06,9.06,0,0,0-4.77-1.09,10.41,10.41,0,0,0-4.94,1.56,10.61,10.61,0,0,0-2.93,2.62,8.18,8.18,0,0,0-1.51,3.32l1.73.42a7.36,7.36,0,0,1,3.57-4.8,8,8,0,0,1,4-1.24,7.47,7.47,0,0,1,3.89.9,7.58,7.58,0,0,1,2.94,2.85,7.65,7.65,0,0,1,1.18,3.92,7.43,7.43,0,0,1-1,3.86,8.2,8.2,0,0,1-2.93,3,7.45,7.45,0,0,1-5.89,1l-.42,1.73a7.87,7.87,0,0,0,3.62.18,10.59,10.59,0,0,0,3.66-1.41,10.45,10.45,0,0,0,3.66-3.67,9.09,9.09,0,0,0,1.23-4.75,9.48,9.48,0,0,0-1.46-4.84A9.64,9.64,0,0,0,202,231.72Z"/><rect x="170.04" y="248.05" width="7.02" height="1.66" transform="translate(-70.56 68.69) rotate(-18.68)"/><polygon points="146.31 247.38 140.08 266.92 142.07 266.7 147.51 249.73 156.41 265.15 158.54 264.92 148.26 247.17 146.31 247.38"/><polygon points="120.73 249 131.99 249.67 131.57 256.63 121.89 256.05 121.79 257.74 131.47 258.31 131.08 264.97 120.22 264.32 120.12 266.04 132.96 266.8 134.07 248.08 120.83 247.29 120.73 249"/><path d="M111.77,246.71a10.42,10.42,0,0,0-4.63-2.4,11.22,11.22,0,0,0-3.81-.3,9.21,9.21,0,0,0-3.44,1l-1.71,7,1.85.45,1.51-6.14a8.94,8.94,0,0,1,8.84,1.73,7.49,7.49,0,0,1,2.12,3.39,7.59,7.59,0,0,1,.07,4.1,7.67,7.67,0,0,1-2,3.62,7.45,7.45,0,0,1-3.46,2,8.42,8.42,0,0,1-4.23,0,7.68,7.68,0,0,1-5-3.48l-1.5.93a8,8,0,0,0,2.46,2.69,11.25,11.25,0,0,0,3.66,1.6,10.33,10.33,0,0,0,5.24,0,9.1,9.1,0,0,0,4.25-2.47,10,10,0,0,0,2.33-9.5A9.15,9.15,0,0,0,111.77,246.71Z"/><path d="M94.9,240.87l-4.13,3.62-9.5-4.34,0-5.49-1.9-.87v20.62l1.78.81,15.6-13.49ZM81.16,253l.1-11,8.19,3.75Z"/><polygon points="65.29 242.71 64.34 223.32 63.01 222.37 52.1 237.62 53.69 238.76 62.54 226.38 63.52 245.79 64.85 246.74 75.76 231.48 74.14 230.33 65.29 242.71"/><rect x="43.85" y="210.79" width="1.66" height="7.02" transform="translate(-130.34 82.81) rotate(-41.3)"/><path d="M32.82,184.74a8,8,0,0,0-3.24-1.66l-.5,1.71a7.39,7.39,0,0,1,4.64,3.78,8.07,8.07,0,0,1,1.05,4,7.36,7.36,0,0,1-1.07,3.84,8.13,8.13,0,0,1-7,3.81,7.43,7.43,0,0,1-3.82-1.16A8.2,8.2,0,0,1,20.1,196a7.42,7.42,0,0,1-.72-5.93l-1.71-.5a8,8,0,0,0-.34,3.61,10.94,10.94,0,0,0,4.75,7.55,8.94,8.94,0,0,0,4.68,1.44,9.53,9.53,0,0,0,4.9-1.24,9.46,9.46,0,0,0,3.68-3.46,9.1,9.1,0,0,0,1.31-4.72,10.86,10.86,0,0,0-3.83-8Z"/><path d="M29.2,174.85l-5.65,1.87L22,171.94a11,11,0,0,0-.55-1.4l4.38-6-.68-2.07-4.67,6.37a6.15,6.15,0,0,0-3.07-2.33,6.07,6.07,0,0,0-3.87.11,5.83,5.83,0,0,0-3.84,3.41A8.47,8.47,0,0,0,9.81,176l2.2,6.67,17.81-5.88ZM13,180.2l-1.57-4.73a6.51,6.51,0,0,1-.17-4.43,4.27,4.27,0,0,1,2.85-2.5,4.27,4.27,0,0,1,3.75.32,6.42,6.42,0,0,1,2.5,3.66L22,177.25Z"/><path d="M21.81,155.44a8.73,8.73,0,0,0-1.45-11.25A8.4,8.4,0,0,0,14.07,143L3.42,144.33l.24,1.91,10.58-1.36a7,7,0,0,1,5,.84,6.49,6.49,0,0,1,1.09,8.48,7,7,0,0,1-4.64,2.08L5.13,157.64l.25,2L16,158.24A8.39,8.39,0,0,0,21.81,155.44Z"/><polygon points="22.63 121.48 20.92 121.39 20.31 132.66 13.35 132.28 13.88 122.59 12.19 122.5 11.67 132.19 5.01 131.83 5.59 120.97 3.88 120.88 3.19 133.72 21.91 134.73 22.63 121.48"/><polygon points="26.28 103.39 24.61 103.03 22.37 113.29 5.72 109.66 5.3 111.6 23.63 115.59 26.28 103.39"/><polygon points="12.54 91.34 28.55 97.18 29.23 95.32 13.22 89.47 15.49 83.28 13.88 82.69 8.67 96.94 10.28 97.53 12.54 91.34"/><polygon points="35.61 81.31 36.56 79.6 30.88 76.47 23.77 63.97 22.81 65.7 28.92 76.42 16.59 76.96 15.57 78.81 29.94 78.18 35.61 81.31"/><polygon points="43.83 68.26 37.55 63.36 43.52 55.72 42.17 54.66 36.2 62.3 30.4 57.77 37.09 49.2 35.74 48.14 27.82 58.28 42.61 69.82 43.83 68.26"/><path d="M55.7,54.46l-4-4.41,3.73-3.38c.38-.35.73-.71,1.05-1.07l7.23,1.59,1.61-1.46L57.61,44a5.8,5.8,0,0,0-.78-7.24,5.88,5.88,0,0,0-4.68-2.13,8.54,8.54,0,0,0-5.32,2.51l-5.2,4.72,12.6,13.89ZM44.25,41.84l3.69-3.35a6.54,6.54,0,0,1,4-2,4.84,4.84,0,0,1,4.67,5.15,6.45,6.45,0,0,1-2.33,3.77L50.57,48.8Z"/><polygon points="81.18 35.42 80.27 33.97 70.72 39.97 67.01 34.08 75.22 28.91 74.32 27.48 66.11 32.65 62.56 27 71.77 21.21 70.85 19.76 59.97 26.61 69.95 42.48 81.18 35.42"/><polygon points="98.77 27.75 98.12 26.16 87.69 30.46 85.03 24.02 94 20.33 93.36 18.77 84.39 22.46 81.85 16.3 91.9 12.15 91.25 10.56 79.36 15.47 86.51 32.81 98.77 27.75"/><rect x="110.36" y="15.83" width="7.02" height="1.66" transform="translate(-1.16 20.21) rotate(-10.09)"/></svg>