<svg id="Capa_1" data-name="Capa 1" xmlns="http://www.w3.org/2000/svg" viewBox="0 0 655.56 81.6"><defs><style>.cls-1,.cls-2{fill:#2c2c2c;}.cls-2{stroke:#2c2c2c;stroke-miterlimit:10;stroke-width:0.5px;}</style></defs><path class="cls-1" d="M142.09,47.59a3.94,3.94,0,0,1,1.78,1.06,5.65,5.65,0,0,1,1,1.65,7.44,7.44,0,0,1,.48,2,21.11,21.11,0,0,1,.12,2.23c0,.58,0,1.18,0,1.82s0,1.27,0,1.86A6.88,6.88,0,0,1,144,62.42a12.92,12.92,0,0,1-3.58,3.27,18.09,18.09,0,0,1-4.67,2.07,17.38,17.38,0,0,1-4.59.7,17.77,17.77,0,0,1-9.38-2.53,24.46,24.46,0,0,1-7.13-6.59,31.8,31.8,0,0,1-4.57-9,31.38,31.38,0,0,1-1.62-9.68,31.25,31.25,0,0,1,1.34-8.86,28.85,28.85,0,0,1,3.93-8.26,21.9,21.9,0,0,1,6.34-6.06,15.83,15.83,0,0,1,8.53-2.32,17.42,17.42,0,0,1,5.76,1,23.43,23.43,0,0,1,5.32,2.66,29.24,29.24,0,0,1,4.64,3.9,37.17,37.17,0,0,1,3.79,4.57l.91,1.3V18.72l-.18-.15A19.4,19.4,0,0,0,144.77,16,29.25,29.25,0,0,0,140,14.31a35.62,35.62,0,0,0-5-.93,42.52,42.52,0,0,0-4.78-.28,29.3,29.3,0,0,0-11.31,2.2,28.44,28.44,0,0,0-9.2,6.06,28.92,28.92,0,0,0-6.19,9.12,29.24,29.24,0,0,0,0,22.64,28.92,28.92,0,0,0,26.7,17.46,22.67,22.67,0,0,0,7.44-1.19,61.23,61.23,0,0,0,6.83-2.85l.8-.32a2,2,0,0,1,1.93.27,6.59,6.59,0,0,1,1.27,1.12,12.2,12.2,0,0,1,1.11,1.46c.35.53.65,1,.92,1.43l.92,1.47V53a7.23,7.23,0,0,1,.83-3.33,4.15,4.15,0,0,1,2.51-2.12l2.92-1H139Z"/><path class="cls-1" d="M195.28,66.86a2.46,2.46,0,0,1-2.47-1.28,7.23,7.23,0,0,1-.71-3.18V42.16c0-4.22-1-7.45-2.93-9.62s-5.15-3.28-9.49-3.28a17.6,17.6,0,0,0-4.25.65,22.75,22.75,0,0,0-4.82,1.89,15.49,15.49,0,0,0-4,3,5.77,5.77,0,0,0-1.74,4,4,4,0,0,0,.83,2.51,3,3,0,0,0,2.47,1.11c2.32,0,3.54-1.2,3.54-3.46a7.58,7.58,0,0,0-.21-1.8,6.12,6.12,0,0,1-.19-1.56,2.67,2.67,0,0,1,.74-1.94,6.1,6.1,0,0,1,2-1.36,12.49,12.49,0,0,1,2.58-.81,12.17,12.17,0,0,1,2.34-.27,6.41,6.41,0,0,1,3.6,1,7.72,7.72,0,0,1,2.37,2.49,10.5,10.5,0,0,1,1.3,3.44,19.43,19.43,0,0,1,.39,3.82v4.25a7.42,7.42,0,0,1-2.59,1.1c-1.38.38-3,.75-4.69,1.12s-3.62.85-5.48,1.41a23.51,23.51,0,0,0-5.23,2.25,12.76,12.76,0,0,0-4,3.66A9.61,9.61,0,0,0,163,61.36a8.41,8.41,0,0,0,.94,4,8.73,8.73,0,0,0,2.46,2.89A10.47,10.47,0,0,0,169.91,70a14.92,14.92,0,0,0,4,.54,20,20,0,0,0,6.56-1,14.61,14.61,0,0,0,5.55-3.6l-.63-.77A13.91,13.91,0,0,1,181.23,67a17.39,17.39,0,0,1-4.59.62,7.23,7.23,0,0,1-5.1-1.79A6.3,6.3,0,0,1,169.62,61a8.32,8.32,0,0,1,1.72-5.48A13.88,13.88,0,0,1,175.71,52a30.06,30.06,0,0,1,5.74-2.16c1.86-.49,3.59-1,5.17-1.45v14a19.69,19.69,0,0,0,.21,2.95,7.28,7.28,0,0,0,.86,2.58,5,5,0,0,0,1.9,1.86,6.25,6.25,0,0,0,3.13.71,7.25,7.25,0,0,0,3.66-1.15,5.31,5.31,0,0,0,2.5-3l.47-1.57-1.27,1A4.23,4.23,0,0,1,195.28,66.86Z"/><path class="cls-1" d="M212.08,23.94a3.63,3.63,0,0,0,2.67-1,3.59,3.59,0,0,0,1-2.67,3.52,3.52,0,0,0-3.7-3.7,3.73,3.73,0,0,0-2.7,1,3.53,3.53,0,0,0-1.08,2.68,3.53,3.53,0,0,0,1.08,2.68A3.73,3.73,0,0,0,212.08,23.94Z"/><path class="cls-1" d="M215.9,67.11a9.38,9.38,0,0,1-.76-3.83V28.88l-9.29,6.5h1.59a1.42,1.42,0,0,1,1.05.37,2.94,2.94,0,0,1,.68,1.13,6.78,6.78,0,0,1,.33,1.52c.05.55.08,1,.08,1.44V63.28a9.77,9.77,0,0,1-.72,3.84,4.05,4.05,0,0,1-2.77,2.24l-3.15,1h18.73l-3-1A4.12,4.12,0,0,1,215.9,67.11Z"/><path class="cls-1" d="M260.4,66.86a2.46,2.46,0,0,1-2.47-1.28,7.23,7.23,0,0,1-.71-3.18V42.16c0-4.22-1-7.45-2.93-9.62s-5.15-3.28-9.49-3.28a17.6,17.6,0,0,0-4.25.65,22.75,22.75,0,0,0-4.82,1.89,15.49,15.49,0,0,0-4,3,5.77,5.77,0,0,0-1.74,4,4,4,0,0,0,.83,2.51,3,3,0,0,0,2.47,1.11c2.32,0,3.54-1.2,3.54-3.46a7.58,7.58,0,0,0-.21-1.8,6.12,6.12,0,0,1-.19-1.56,2.69,2.69,0,0,1,.74-1.94,6.1,6.1,0,0,1,2-1.36,12.49,12.49,0,0,1,2.58-.81,12.17,12.17,0,0,1,2.34-.27,6.41,6.41,0,0,1,3.6,1,7.79,7.79,0,0,1,2.37,2.48,10.73,10.73,0,0,1,1.3,3.45,19.5,19.5,0,0,1,.39,3.82v4.24a7.22,7.22,0,0,1-2.59,1.11c-1.38.38-3,.75-4.69,1.12s-3.61.85-5.48,1.41a23.51,23.51,0,0,0-5.23,2.25,12.65,12.65,0,0,0-4,3.66,9.61,9.61,0,0,0-1.61,5.65,8.41,8.41,0,0,0,.94,4,8.62,8.62,0,0,0,2.46,2.89A10.47,10.47,0,0,0,235,70a14.92,14.92,0,0,0,4,.54,20,20,0,0,0,6.56-1,14.61,14.61,0,0,0,5.55-3.6l-.63-.77A13.79,13.79,0,0,1,246.35,67a17.39,17.39,0,0,1-4.59.62,7.23,7.23,0,0,1-5.1-1.79A6.3,6.3,0,0,1,234.74,61a8.3,8.3,0,0,1,1.72-5.48A13.88,13.88,0,0,1,240.83,52a30.06,30.06,0,0,1,5.74-2.16c1.86-.5,3.6-1,5.17-1.45v14a19.88,19.88,0,0,0,.21,2.95,7.28,7.28,0,0,0,.86,2.58,5.07,5.07,0,0,0,1.9,1.86,6.25,6.25,0,0,0,3.13.71,7.25,7.25,0,0,0,3.66-1.15,5.31,5.31,0,0,0,2.5-3l.47-1.57-1.27,1A4.23,4.23,0,0,1,260.4,66.86Z"/><path class="cls-1" d="M300.54,67.09a4,4,0,0,1-2.77,2.27l-3.15,1h39L337,56.52l-1.88,3.56a14.85,14.85,0,0,1-5.89,6.2,16.74,16.74,0,0,1-8.31,2.1H307.7v-26h8.94a10.12,10.12,0,0,1,4.42.95,5.33,5.33,0,0,1,2.71,3.35l1,2.91V33.08l-1,2.92a5.47,5.47,0,0,1-2.71,3.39,9.73,9.73,0,0,1-4.42,1H307.7V15.3H321c6.15,0,10.58,2.71,13.56,8.29l1.75,3.3L333.2,13.34H294.62l3.15,1a4,4,0,0,1,2.77,2.2,9.28,9.28,0,0,1,.72,3.72v43A9.94,9.94,0,0,1,300.54,67.09Z"/><path class="cls-1" d="M378.46,35.71a9.8,9.8,0,0,1,2.55-3.5,7.73,7.73,0,0,1,3.87-1.88l-.08-1H372.56l-.08,1A3.53,3.53,0,0,1,375,31.94a5.77,5.77,0,0,1,.88,3.1,5.4,5.4,0,0,1-.28,1.8l-10.9,24.65-11.86-26.4a4,4,0,0,1-.21-.78,4.53,4.53,0,0,1-.07-.79,4.13,4.13,0,0,1,.5-2,2.49,2.49,0,0,1,1.48-1.2l2.91-1H339.65l2.32,1a7.66,7.66,0,0,1,3.31,2.43,19.27,19.27,0,0,1,2.1,3.79l15.34,34.71Z"/><path class="cls-1" d="M423.8,64.39a21.25,21.25,0,0,0,4.38-6.56,20.14,20.14,0,0,0,1.6-8,20.64,20.64,0,0,0-6-14.6,21.35,21.35,0,0,0-6.56-4.42,20,20,0,0,0-8-1.64,19.74,19.74,0,0,0-8,1.64,20.86,20.86,0,0,0-6.52,4.47,21.79,21.79,0,0,0-4.42,6.55,19.74,19.74,0,0,0-1.64,8,20,20,0,0,0,1.64,8,20.86,20.86,0,0,0,11,11,20,20,0,0,0,8,1.64,19.74,19.74,0,0,0,8-1.64A21,21,0,0,0,423.8,64.39Zm0-13A22.12,22.12,0,0,1,423,57.5,18.1,18.1,0,0,1,420.39,63a13.76,13.76,0,0,1-4.21,3.94,11.17,11.17,0,0,1-5.86,1.49,12.44,12.44,0,0,1-6.73-1.85,17.2,17.2,0,0,1-5-4.74,22.89,22.89,0,0,1-3.13-6.5,23.9,23.9,0,0,1-1.1-7,22.14,22.14,0,0,1,.86-6.07,18.21,18.21,0,0,1,2.57-5.45A13.64,13.64,0,0,1,402,32.87a11.25,11.25,0,0,1,5.82-1.49,12.8,12.8,0,0,1,6.74,1.8,16.65,16.65,0,0,1,5,4.74,23.69,23.69,0,0,1,3.13,6.5A24,24,0,0,1,423.82,51.44Z"/><path class="cls-1" d="M440,66.91a4.87,4.87,0,0,1-3,2.46l-2.65,1h18.36l-2.65-1a4.82,4.82,0,0,1-2.95-2.46,9.6,9.6,0,0,1-.8-4l-.08-53.62-9.39,6.84h1.53a1.56,1.56,0,0,1,1.17.41,3.1,3.1,0,0,1,.72,1.21,9.9,9.9,0,0,1,.38,1.63,12.5,12.5,0,0,1,.11,1.53v42A9.79,9.79,0,0,1,440,66.91Z"/><path class="cls-1" d="M495.15,63.56a3.18,3.18,0,0,1-.72-1.2,8.77,8.77,0,0,1-.37-1.63,11,11,0,0,1-.12-1.53V28.81L484.71,36l1.35.07a1.92,1.92,0,0,1,1.88,1,6.07,6.07,0,0,1,.52,2.56V61.09l-2.77,2.2a26.23,26.23,0,0,1-5,3.1A13.19,13.19,0,0,1,475,67.66a7.71,7.71,0,0,1-3.8-.86,7.22,7.22,0,0,1-2.5-2.32,10,10,0,0,1-1.41-3.39,18.78,18.78,0,0,1-.43-4V28.81L457.67,36l1.35.07a1.91,1.91,0,0,1,1.88,1.06,6.15,6.15,0,0,1,.52,2.52V56.16a21.5,21.5,0,0,0,.66,5.36,13.64,13.64,0,0,0,2.07,4.61,10.67,10.67,0,0,0,3.69,3.23,11.41,11.41,0,0,0,5.44,1.22,15.33,15.33,0,0,0,7.28-1.86A19.49,19.49,0,0,0,486.38,64l2.08-2.51v9.33l9.4-6.84h-1.54A1.57,1.57,0,0,1,495.15,63.56Z"/><path class="cls-1" d="M525.31,66.5a8,8,0,0,1-6.81.29,6.63,6.63,0,0,1-2.2-1.71,8.21,8.21,0,0,1-1.39-2.52,9.59,9.59,0,0,1-.49-3V31.38h7.2v-2h-7.2V13.12l-.67.25A6.67,6.67,0,0,0,510,16.52a9.85,9.85,0,0,0-1.14,4.68v8.14h-3.28v2h3.28V57.92a20.13,20.13,0,0,0,.53,4.67,11,11,0,0,0,1.81,4,9.18,9.18,0,0,0,3.21,2.75,10.05,10.05,0,0,0,4.71,1,12.52,12.52,0,0,0,3-.38A13.18,13.18,0,0,0,525,68.88a12.22,12.22,0,0,0,2.54-1.75,6.89,6.89,0,0,0,1.81-2.54l1.34-3.24-2.19,2.74A8.58,8.58,0,0,1,525.31,66.5Z"/><path class="cls-1" d="M544.94,67.11a9.22,9.22,0,0,1-.76-3.83V28.88l-9.29,6.5h1.59a1.39,1.39,0,0,1,1,.37,2.84,2.84,0,0,1,.69,1.13,6.78,6.78,0,0,1,.33,1.52c.05.55.08,1,.08,1.44V63.28a9.77,9.77,0,0,1-.72,3.84,4.05,4.05,0,0,1-2.77,2.24l-3.15,1h18.73l-3-1A4.12,4.12,0,0,1,544.94,67.11Z"/><path class="cls-1" d="M541.12,23.94a3.53,3.53,0,0,0,3.7-3.7,3.67,3.67,0,0,0-1-2.68,3.63,3.63,0,0,0-2.67-1,3.77,3.77,0,0,0-2.71,1,3.55,3.55,0,0,0-1.07,2.68,3.55,3.55,0,0,0,1.07,2.68A3.77,3.77,0,0,0,541.12,23.94Z"/><path class="cls-1" d="M592.67,35.24a21.31,21.31,0,0,0-6.55-4.42,20,20,0,0,0-8-1.64,19.74,19.74,0,0,0-8,1.64,20.86,20.86,0,0,0-6.52,4.47,21.61,21.61,0,0,0-4.42,6.55,19.74,19.74,0,0,0-1.64,8,20,20,0,0,0,1.64,8,20.76,20.76,0,0,0,11,11,20,20,0,0,0,8,1.64,19.74,19.74,0,0,0,8-1.64,20.94,20.94,0,0,0,10.9-11,20.14,20.14,0,0,0,1.6-8,20.59,20.59,0,0,0-6-14.6Zm0,16.2a22.12,22.12,0,0,1-.86,6.06A18.34,18.34,0,0,1,589.27,63a13.76,13.76,0,0,1-4.21,3.94,11.19,11.19,0,0,1-5.86,1.49,12.5,12.5,0,0,1-6.74-1.85,17.29,17.29,0,0,1-5-4.74,22.89,22.89,0,0,1-3.13-6.5,23.9,23.9,0,0,1-1.1-7,22.14,22.14,0,0,1,.86-6.07,18.21,18.21,0,0,1,2.57-5.45,13.5,13.5,0,0,1,4.24-3.93,11.31,11.31,0,0,1,5.83-1.49,12.85,12.85,0,0,1,6.74,1.8,16.77,16.77,0,0,1,5,4.74,23.69,23.69,0,0,1,3.13,6.5A24,24,0,0,1,592.7,51.44Z"/><path class="cls-1" d="M636,66.92A4.51,4.51,0,0,1,633,69.36l-2.93,1h19l-2.92-1a4.68,4.68,0,0,1-3-2.41,9.58,9.58,0,0,1-.83-4.07V43.52a21.64,21.64,0,0,0-.66-5.37,13.35,13.35,0,0,0-2.12-4.61,10.61,10.61,0,0,0-9.08-4.44A15.38,15.38,0,0,0,623.12,31a19.51,19.51,0,0,0-5.83,4.72l-1.73,2.1,0-8.92-9.4,6.84h1.54a1.54,1.54,0,0,1,1.16.41,3,3,0,0,1,.72,1.21,8.22,8.22,0,0,1,.38,1.63,10.9,10.9,0,0,1,.12,1.53v22.4a9.63,9.63,0,0,1-.8,4,4.82,4.82,0,0,1-3,2.46l-2.65,1H622l-2.64-1a4.87,4.87,0,0,1-3-2.46,9.76,9.76,0,0,1-.79-4l-.06-24.56L618,36.39a25.74,25.74,0,0,1,5-3.1A13.19,13.19,0,0,1,628.64,32a7.78,7.78,0,0,1,3.79.85,7.35,7.35,0,0,1,2.51,2.32,10,10,0,0,1,1.41,3.39,19,19,0,0,1,.43,4V62.88A10,10,0,0,1,636,66.92Z"/><path class="cls-2" d="M26.92,22.67A17.53,17.53,0,0,1,33.8,24a17.63,17.63,0,0,1,9.4,9.4,17.94,17.94,0,0,1,0,13.75,17.76,17.76,0,0,1-3.78,5.63A17.65,17.65,0,0,1,26.92,58a17.28,17.28,0,0,1-6.87-1.38,17.46,17.46,0,0,1-5.63-3.77,17.76,17.76,0,0,1-3.78-5.63,17.94,17.94,0,0,1,0-13.75A17.6,17.6,0,0,1,20.05,24,17.45,17.45,0,0,1,26.92,22.67Zm.95,34.8A10.25,10.25,0,0,0,33.42,56a13.73,13.73,0,0,0,4-3.88A18.15,18.15,0,0,0,40,46.82a19.92,19.92,0,0,0,.85-5.65,20.79,20.79,0,0,0-1-6.25,19.72,19.72,0,0,0-2.9-5.8,16,16,0,0,0-4.62-4.25,11.61,11.61,0,0,0-6.13-1.65,10.3,10.3,0,0,0-5.53,1.5,13.77,13.77,0,0,0-4.07,3.87,18.41,18.41,0,0,0-2.5,5.25,19.73,19.73,0,0,0-.85,5.63,20.92,20.92,0,0,0,4,12,16.29,16.29,0,0,0,4.62,4.3A11.23,11.23,0,0,0,27.87,57.47Z"/><path class="cls-2" d="M50.67,53.72V26.82a6.05,6.05,0,0,0-.48-2.45,2.84,2.84,0,0,0-1.92-1.55h21.8l1.35,5.95a9.31,9.31,0,0,0-8.75-5.35h-8.6v16.3H60a6.2,6.2,0,0,0,2.9-.68,3.84,3.84,0,0,0,1.85-2.27v6.45A3.5,3.5,0,0,0,62.87,41a6.66,6.66,0,0,0-2.9-.65h-5.9V53.77a5.83,5.83,0,0,0,.52,2.45,3,3,0,0,0,1.88,1.6h-8.2a2.82,2.82,0,0,0,1.92-1.6A6.44,6.44,0,0,0,50.67,53.72Z"/></svg>