<svg xmlns="http://www.w3.org/2000/svg" width="86.877" height="100" viewBox="0 0 86.877 100">
  <path id="Icon_simple-tiktok" data-name="Icon simple-tiktok" d="M48,.083C53.455,0,58.872.042,64.288,0c.333,6.375,2.625,12.875,7.292,17.375,4.667,4.625,11.25,6.75,17.666,7.458V41.624a44.6,44.6,0,0,1-17.5-4.042A51.48,51.48,0,0,1,65,33.708c-.042,12.167.042,24.333-.083,36.458a31.825,31.825,0,0,1-5.625,16.416A31.042,31.042,0,0,1,34.664,99.957a30.381,30.381,0,0,1-17-4.292A31.42,31.42,0,0,1,2.456,71.874c-.083-2.083-.125-4.167-.042-6.208A31.367,31.367,0,0,1,38.789,37.833c.083,6.167-.167,12.333-.167,18.5a14.3,14.3,0,0,0-18.25,8.833c-.875,2.125-.625,4.458-.583,6.708,1,6.833,7.583,12.583,14.583,11.958a14,14,0,0,0,11.542-6.708,9.614,9.614,0,0,0,1.708-4.417c.417-7.458.25-14.875.292-22.333.042-16.791-.042-33.541.083-50.291Z" transform="translate(-2.369)" fill="#2c2c2c"/>
</svg>
