<svg id="Capa_1" data-name="Capa 1" xmlns="http://www.w3.org/2000/svg" viewBox="0 0 700 120"><path d="M67.18,70.91H23V10.71H11.18v100H23v-28h44.2v28H79v-100H67.18Zm2-58.2H77v96h-7.8v-28H21v28h-7.8v-96H21v60.2h48.2Z"/><path d="M135,9.13,92.15,110.71H105L111.13,96h47.53l6.16,14.7h12.81L141.2,23.92Zm31.19,99.58L160,94H109.8l-6.16,14.7H95.17L135,14.28l4.4,10.41,35.26,84Z"/><path d="M113.16,86.21h43.61L135,34.33Zm3-2L135,39.49l18.8,44.72Z"/><path d="M190.94,110.71h11.8v-100h-11.8Zm2-98h7.8v96h-7.8Z"/><path d="M274.92,62.29a25.45,25.45,0,0,0,5.24-15.58,25,25,0,0,0-9.76-20.25,27.07,27.07,0,0,0-17.14-5.95H232v52.4h22.61A25.87,25.87,0,0,0,274.92,62.29Zm-20.4,8.62H234V22.51h19.3A25.09,25.09,0,0,1,269.15,28a23,23,0,0,1,9,18.68,23.5,23.5,0,0,1-4.84,14.38A23.91,23.91,0,0,1,254.52,70.91Z"/><path d="M278.3,73.06A34.68,34.68,0,0,0,290,46.71a35,35,0,0,0-9.79-24.49,35.81,35.81,0,0,0-26.91-11.51h-31.1v100H234v-28h17.72l23.94,28h15.51L265.49,80.65A38.65,38.65,0,0,0,278.3,73.06Zm8.49,35.65H276.54l-23.94-28H232v28h-7.8v-96h29.1a33.86,33.86,0,0,1,25.45,10.88A33,33,0,0,1,288,46.71a32.79,32.79,0,0,1-11,24.87,36.47,36.47,0,0,1-13.5,7.63l-1.45.45Z"/><path d="M388.6,25.23a38.89,38.89,0,0,1,14-2.86,36.62,36.62,0,0,1,27.28,11.32l.7.71,8.43-8.27-.72-.71-2-2a47.8,47.8,0,0,0-34.29-12.86h0a53.48,53.48,0,0,0-18,3.72,50.61,50.61,0,0,0-17.28,12A48.81,48.81,0,0,0,353.2,60.57a49.79,49.79,0,0,0,5.42,22.71A48.65,48.65,0,0,0,383.91,107a50.65,50.65,0,0,0,19.48,3.88l1.38,0a48.2,48.2,0,0,0,33.44-14.72l.71-.71-8.43-8.26-.7.7a39.3,39.3,0,0,1-11.46,7.92,36.24,36.24,0,0,1-29.87.41A38,38,0,0,1,376.32,88,37.08,37.08,0,0,1,365,60.71a38.74,38.74,0,0,1,3.55-16.24A37.2,37.2,0,0,1,388.6,25.23ZM363,60.71a39,39,0,0,0,11.91,28.71A40,40,0,0,0,387.69,98a38.16,38.16,0,0,0,31.46-.43A41.58,41.58,0,0,0,430.5,90l5.57,5.46a46.1,46.1,0,0,1-31.36,13.42,48.73,48.73,0,0,1-20-3.7,46.65,46.65,0,0,1-24.28-22.77,47.8,47.8,0,0,1-5.21-21.81,46.9,46.9,0,0,1,13-32.91A48.68,48.68,0,0,1,384.8,16.14a51.34,51.34,0,0,1,17.3-3.57A45.84,45.84,0,0,1,435,24.87c.41.42.83.84,1.25,1.25l-5.58,5.46a38.64,38.64,0,0,0-28-11.21,41,41,0,0,0-14.79,3,39.23,39.23,0,0,0-21.1,20.25A40.82,40.82,0,0,0,363,60.71Z"/><path d="M468.61,86.21h43.61l-21.8-51.88Zm3-2,18.8-44.72,18.79,44.72Z"/><path d="M490.42,9.13,447.61,110.71h12.81L466.58,96h47.53l6.16,14.7h12.81L496.66,23.92Zm31.18,99.58L515.44,94H465.25l-6.16,14.7h-8.46l39.79-94.43,4.4,10.41,35.25,84Z"/><path d="M602.54,73.06A34.68,34.68,0,0,0,614.2,46.71a34.93,34.93,0,0,0-9.8-24.49,35.79,35.79,0,0,0-26.9-11.51H546.4v100h11.8v-28h17.72l23.64,27.65.3.35h15.51L589.72,80.65A38.59,38.59,0,0,0,602.54,73.06ZM611,108.71H600.78L577.14,81.06l-.3-.35H556.2v28h-7.8v-96h29.1A33.88,33.88,0,0,1,603,23.59a33,33,0,0,1,9.25,23.12,32.79,32.79,0,0,1-11,24.87,36.47,36.47,0,0,1-13.5,7.63l-1.45.45Z"/><path d="M599.16,62.29a25.45,25.45,0,0,0,5.24-15.58,25,25,0,0,0-9.76-20.25,27.09,27.09,0,0,0-17.14-5.95H556.2v52.4h22.6A25.88,25.88,0,0,0,599.16,62.29Zm-20.4,8.62H558.2V22.51h19.3A25.09,25.09,0,0,1,593.39,28a23,23,0,0,1,9,18.68,23.5,23.5,0,0,1-4.84,14.38A23.93,23.93,0,0,1,578.76,70.91Z"/><path d="M688.82,22.51V10.71h-58v100h58V98.91h-46.2V82.71h39.06V70.91H642.62V22.51Zm-9.14,50.4v7.8H640.62v20.2h46.2v7.8h-54v-96h54v7.8h-46.2v52.4Z"/></svg>