<svg id="Capa_1" data-name="Capa 1" xmlns="http://www.w3.org/2000/svg" viewBox="0 0 700 120"><path d="M47.63,21.66A37,37,0,0,1,74.65,33l.7.7,8.21-8.2-.57-.7a19.41,19.41,0,0,0-1.35-1.5,48.51,48.51,0,0,0-34-13.43c-10.28,0-18.89,3.05-25.58,9.07A28.46,28.46,0,0,0,11.91,41C12,51.25,16,59.29,23.67,64.87c4.94,3.52,12.55,6.45,22.63,8.71l.11,0,.08,0,.23.08c10.54,2.31,16.94,3.9,19,4.7a15.11,15.11,0,0,1,4.53,2.81,6.27,6.27,0,0,1,1,3.27c0,3.36-2.1,6.42-6.25,9.09-4.85,3.06-10.94,4.61-18.09,4.61a36.72,36.72,0,0,1-27-11.32l-.7-.71-8.36,8.19.56.7a10.17,10.17,0,0,0,1.5,1.51,48.16,48.16,0,0,0,34,13.43c9.3,0,17.48-2.12,24.33-6.31l.18-.14a3.18,3.18,0,0,1,.54-.43C79.34,98.27,83.07,92,83.07,84.5a16.68,16.68,0,0,0-4-11,24.32,24.32,0,0,0-8.91-6,30.68,30.68,0,0,0-3.83-1.28c-1.37-.49-7.09-1.83-17.47-4.09-8.42-1.93-14.57-4.23-18.27-6.85l-.14-.08a4.47,4.47,0,0,1-.53-.31c-4.16-3.19-6.19-7.74-6.19-13.91a18.83,18.83,0,0,1,1.86-8.24C29.25,25.28,36.46,21.66,47.63,21.66ZM21.71,41c0,6.74,2.35,11.95,7,15.53.29.19.53.34.74.45,3.92,2.75,10.28,5.15,18.92,7.12,12.67,2.76,16.37,3.71,17.32,4a29.26,29.26,0,0,1,3.64,1.21,22.45,22.45,0,0,1,8.17,5.46,14.7,14.7,0,0,1,3.54,9.72c0,6.89-3.33,12.43-10.19,17a5.58,5.58,0,0,0-.76.59c-6.51,4-14.31,6-23.19,6A46.3,46.3,0,0,1,14.25,95.07c-.23-.2-.45-.39-.65-.59L19.21,89A38.56,38.56,0,0,0,46.93,100.2c7.54,0,14-1.65,19.17-4.92,4.76-3.07,7.17-6.7,7.17-10.84A8.21,8.21,0,0,0,71.82,80l-.1-.12a16.83,16.83,0,0,0-5.24-3.3c-2.21-.86-8.5-2.43-19.22-4.78a2.1,2.1,0,0,0-.6-.18c-9.77-2.2-17.12-5-21.82-8.36C17.68,58.06,14,50.56,13.91,41a26.54,26.54,0,0,1,9.47-20.54c6.32-5.68,14.47-8.56,24.25-8.56A46.53,46.53,0,0,1,80.25,24.73c.21.21.41.42.6.64l-5.5,5.5A38.89,38.89,0,0,0,47.63,19.66c-11.83,0-19.86,4.1-23.86,12.18A20.89,20.89,0,0,0,21.71,41Z"/><path d="M170.87,10H156.05l-44.7,59.47V10H99.55V110h11.8V89.17l10.31-13.79L156.28,110H173L128.89,65.93Zm-2.73,98h-11L121.44,72.34,109.35,88.51V108h-7.8V12h7.8V75.45L157.05,12h9.82L126.25,66.11Z"/><path d="M187.75,110h11.8V10h-11.8Zm2-98h7.8v96h-7.8Z"/><path d="M279.87,79.83l-49.62-58L218.69,8.29V110h11.8V40.17l49.62,58,11.56,13.54V10h-11.8Zm2-67.83h7.8v94.29L228.49,34.75V108h-7.8V13.71l61.18,71.54Z"/><path d="M389.75,24.53a38.9,38.9,0,0,1,14.05-2.87A36.71,36.71,0,0,1,431.08,33l.7.71,8.43-8.26-.71-.72-2-2A47.84,47.84,0,0,0,403.21,9.86h0a53.48,53.48,0,0,0-18,3.72,50.61,50.61,0,0,0-17.28,12,48.83,48.83,0,0,0-13.57,34.28,49.88,49.88,0,0,0,5.42,22.71,48.64,48.64,0,0,0,25.3,23.71,50.39,50.39,0,0,0,19.48,3.88l1.38,0a48.09,48.09,0,0,0,33.43-14.72l.71-.71-8.43-8.26-.7.7a39.3,39.3,0,0,1-11.46,7.92,36.22,36.22,0,0,1-29.86.41,37.92,37.92,0,0,1-12.15-8.19A37.06,37.06,0,0,1,366.15,60a38.77,38.77,0,0,1,3.55-16.24A37.22,37.22,0,0,1,389.75,24.53ZM364.15,60a39,39,0,0,0,11.91,28.71,40,40,0,0,0,12.78,8.61,38.14,38.14,0,0,0,31.47-.43,41.46,41.46,0,0,0,11.34-7.63l5.58,5.46a46.1,46.1,0,0,1-31.37,13.42,48.79,48.79,0,0,1-20-3.7,46.68,46.68,0,0,1-24.28-22.77,47.77,47.77,0,0,1-5.21-21.81,46.86,46.86,0,0,1,13-32.91A48.49,48.49,0,0,1,386,15.43a51.47,51.47,0,0,1,17.29-3.57,45.8,45.8,0,0,1,32.87,12.31l1.25,1.24-5.58,5.47a38.51,38.51,0,0,0-28-11.22,41.07,41.07,0,0,0-14.79,3,39.16,39.16,0,0,0-21.1,20.25A40.74,40.74,0,0,0,364.15,60Z"/><path d="M491.29,8.43,448.48,110h12.81l6.16-14.7H515l6.17,14.7H534L497.53,23.21ZM522.48,108l-6.17-14.7H466.12L460,108H451.5l39.79-94.43L495.69,24,531,108Z"/><path d="M469.48,85.5h43.61l-21.8-51.88Zm3-2,18.8-44.72L510.08,83.5Z"/><path d="M603.13,72.35A34.68,34.68,0,0,0,614.79,46,34.93,34.93,0,0,0,605,21.51,35.79,35.79,0,0,0,578.09,10H547V110h11.8V82h17.72l23.94,28H616L590.31,79.94A38.42,38.42,0,0,0,603.13,72.35ZM611.62,108H601.37L577.43,80H556.79v28H549V12h29.1a33.88,33.88,0,0,1,25.45,10.88A33,33,0,0,1,612.79,46a32.77,32.77,0,0,1-11,24.87,36.47,36.47,0,0,1-13.5,7.63l-1.45.45Z"/><path d="M599.75,61.58A25.45,25.45,0,0,0,605,46a24.92,24.92,0,0,0-9.76-20.24,27,27,0,0,0-17.14-6h-21.3V72.2H579.4A25.85,25.85,0,0,0,599.75,61.58Zm-20.4,8.62H558.79V21.8h19.3A25.09,25.09,0,0,1,594,27.32,23,23,0,0,1,603,46a23.5,23.5,0,0,1-4.84,14.38A23.89,23.89,0,0,1,579.35,70.2Z"/><path d="M689.13,21.8V10h-58V110h58V98.2h-46.2V82H682V70.2H642.93V21.8ZM680,72.2V80H640.93v20.2h46.2V108h-54V12h54v7.8h-46.2V72.2Z"/></svg>