<svg id="Capa_1" data-name="Capa 1" xmlns="http://www.w3.org/2000/svg" viewBox="0 0 120.87 120.87"><defs><style>.cls-1{opacity:0.8;}.cls-2{fill:#191919;}</style></defs><g class="cls-1"><path class="cls-2" d="M60.43,1.33a59.1,59.1,0,1,0,59.1,59.1A59.17,59.17,0,0,0,60.43,1.33Zm0,116.2a57.1,57.1,0,1,1,57.1-57.1A57.16,57.16,0,0,1,60.43,117.53Z"/><path class="cls-2" d="M103.31,58.43H23.63L38.51,43.55a2,2,0,0,0-2.83-2.83L17.38,59a2,2,0,0,0,0,2.83l18.3,18.3a2,2,0,0,0,2.83,0,2,2,0,0,0,0-2.83L23.63,62.43h79.68a2,2,0,0,0,0-4Z"/></g></svg>