<svg id="Capa_1" data-name="Capa 1" xmlns="http://www.w3.org/2000/svg" viewBox="0 0 500.38 182.52"><defs><style>.cls-1{opacity:0.8;}.cls-2{fill:#191919;}</style></defs><g class="cls-1"><path class="cls-2" d="M26.67,18.08a22.58,22.58,0,0,1,8.24-1.68,21.42,21.42,0,0,1,16,6.64l4-3.92L53.79,18a26.66,26.66,0,0,0-19.2-7.2,29.89,29.89,0,0,0-10.08,2.08,28.32,28.32,0,0,0-9.68,6.72,27.24,27.24,0,0,0-7.6,19.2,27.72,27.72,0,0,0,3,12.72A27.08,27.08,0,0,0,24.43,64.8,28.11,28.11,0,0,0,36.11,67a26.86,26.86,0,0,0,18.72-8.24l-4-3.92a22.85,22.85,0,0,1-6.72,4.64,21.17,21.17,0,0,1-17.52.24,22,22,0,0,1-7.12-4.8,21.63,21.63,0,0,1-6.64-16,22.62,22.62,0,0,1,2.08-9.52A21.72,21.72,0,0,1,26.67,18.08Z"/><path class="cls-2" d="M86.59,66.88h1.28a26.52,26.52,0,0,0,18.72-8.56,27.12,27.12,0,0,0,7.84-19.44v-1.2a27.34,27.34,0,0,0-8.48-19,26.81,26.81,0,0,0-19.36-7.84h-1.2a26.52,26.52,0,0,0-18.72,8.56,27.08,27.08,0,0,0-7.84,19.44v1.2a27.3,27.3,0,0,0,8.48,19A26.69,26.69,0,0,0,86.59,66.88Zm-16-43.52A22,22,0,0,1,102,22.72a21.47,21.47,0,0,1,6.88,16.16,21.94,21.94,0,0,1-6.16,15.52A22,22,0,0,1,71.31,55a21.43,21.43,0,0,1-6.88-16.16A21.9,21.9,0,0,1,70.59,23.36Z"/><polygon class="cls-2" points="168.27 19.84 149.95 54.8 131.63 19.76 126.99 10.88 120.75 66.88 126.35 66.88 130.51 29.76 146.83 60.88 149.95 66.88 169.39 29.76 173.47 66.88 179.15 66.88 172.91 10.96 168.27 19.84"/><polygon class="cls-2" points="219.07 61.28 192.66 61.28 192.66 50.88 214.99 50.88 214.99 45.28 192.66 45.28 192.66 16.48 219.07 16.48 219.07 10.88 192.66 10.88 187.07 10.88 187.07 66.88 192.66 66.88 219.07 66.88 219.07 61.28"/><polygon class="cls-2" points="267.06 66.88 272.66 66.88 272.66 16.48 288.66 16.48 288.66 10.88 251.06 10.88 251.06 16.48 267.06 16.48 267.06 66.88"/><path class="cls-2" d="M316.34,10.88h-1.2a26.52,26.52,0,0,0-18.72,8.56,27.12,27.12,0,0,0-7.84,19.44v1.2a27.34,27.34,0,0,0,8.48,19,26.73,26.73,0,0,0,19.28,7.84h1.28a26.52,26.52,0,0,0,18.72-8.56,27.08,27.08,0,0,0,7.84-19.44v-1.2a27.3,27.3,0,0,0-8.48-19A26.79,26.79,0,0,0,316.34,10.88ZM332.42,54.4a22,22,0,0,1-31.36.64,21.47,21.47,0,0,1-6.88-16.16,21.94,21.94,0,0,1,6.16-15.52,22,22,0,0,1,31.36-.64,21.43,21.43,0,0,1,6.88,16.16A21.9,21.9,0,0,1,332.42,54.4Z"/><polygon class="cls-2" points="30.83 155.48 13.31 113.88 7.23 113.88 30.83 169.88 33.87 162.68 54.35 113.88 48.27 113.88 30.83 155.48"/><rect class="cls-2" x="62.11" y="113.88" width="5.6" height="56"/><path class="cls-2" d="M96,119.4A21.62,21.62,0,0,1,111.79,126l3.92-3.92c-.22-.27-.46-.53-.72-.8a27.06,27.06,0,0,0-19-7.52q-8.64,0-14.24,5A15.61,15.61,0,0,0,76.11,131q.08,8.56,6.48,13.2,4.16,3,12.72,4.88a.72.72,0,0,1,.24.08,110.74,110.74,0,0,1,11,2.72,9.06,9.06,0,0,1,2.8,1.76,4.25,4.25,0,0,1,.72,2.24c0,2.13-1.28,4-3.84,5.68a19.63,19.63,0,0,1-10.64,2.72,21.43,21.43,0,0,1-15.84-6.64l-4,3.92a5.49,5.49,0,0,0,.8.8,26.86,26.86,0,0,0,19,7.52,25.55,25.55,0,0,0,13.6-3.52,2.33,2.33,0,0,1,.4-.32q6.08-4,6.08-10.16a8.91,8.91,0,0,0-2.16-5.92,13.32,13.32,0,0,0-4.88-3.28,16.06,16.06,0,0,0-2.16-.72q-1.12-.41-9.92-2.32-7.37-1.68-10.64-4a2.78,2.78,0,0,1-.4-.24q-3.77-2.88-3.76-8.4a11.23,11.23,0,0,1,1.12-5Q86.1,119.4,96,119.4Z"/><rect class="cls-2" x="123.71" y="113.88" width="5.6" height="56"/><polygon class="cls-2" points="137.31 119.48 153.31 119.48 153.31 169.88 158.91 169.88 158.91 119.48 174.91 119.48 174.91 113.88 137.31 113.88 137.31 119.48"/><polygon class="cls-2" points="206.82 119.48 222.82 119.48 222.82 169.88 228.42 169.88 228.42 119.48 244.42 119.48 244.42 113.88 206.82 113.88 206.82 119.48"/><polygon class="cls-2" points="285.94 148.28 259.54 148.28 259.54 113.88 253.94 113.88 253.94 169.88 259.54 169.88 259.54 153.88 285.94 153.88 285.94 169.88 291.54 169.88 291.54 113.88 285.94 113.88 285.94 148.28"/><polygon class="cls-2" points="301.06 113.88 301.06 169.88 306.66 169.88 333.06 169.88 333.06 164.28 306.66 164.28 306.66 153.88 328.98 153.88 328.98 148.28 306.66 148.28 306.66 119.48 333.06 119.48 333.06 113.88 306.66 113.88 301.06 113.88"/><path class="cls-2" d="M385.3,119.4A21.62,21.62,0,0,1,401.14,126l3.92-3.92c-.22-.27-.46-.53-.72-.8a27.06,27.06,0,0,0-19-7.52q-8.64,0-14.24,5a15.61,15.61,0,0,0-5.6,12.16q.07,8.56,6.48,13.2,4.15,3,12.72,4.88a.72.72,0,0,1,.24.08,110.74,110.74,0,0,1,11,2.72,9.06,9.06,0,0,1,2.8,1.76,4.25,4.25,0,0,1,.72,2.24c0,2.13-1.28,4-3.84,5.68a19.63,19.63,0,0,1-10.64,2.72,21.43,21.43,0,0,1-15.84-6.64l-4,3.92a5.49,5.49,0,0,0,.8.8,26.86,26.86,0,0,0,19,7.52,25.55,25.55,0,0,0,13.6-3.52,2.33,2.33,0,0,1,.4-.32q6.08-4,6.08-10.16a8.91,8.91,0,0,0-2.16-5.92,13.32,13.32,0,0,0-4.88-3.28,16.06,16.06,0,0,0-2.16-.72q-1.12-.41-9.92-2.32-7.37-1.68-10.64-4a2.78,2.78,0,0,1-.4-.24q-3.76-2.88-3.76-8.4a11.23,11.23,0,0,1,1.12-5Q375.45,119.4,385.3,119.4Z"/><path class="cls-2" d="M445.22,120.28a19.82,19.82,0,0,0-15-6.4h-17.2v56h5.6v-16h11.6a20.09,20.09,0,0,0,13.92-5.36,19.75,19.75,0,0,0,1-28.24Zm-3.44,22.64a14.21,14.21,0,0,1-11.52,5.36h-11.6v-28.8h11.6a14.84,14.84,0,0,1,9.44,3.28,13.65,13.65,0,0,1,5.36,11.12A13.92,13.92,0,0,1,441.78,142.92Z"/><path class="cls-2" d="M472.5,121.08l-3-7.2-23.6,56h6.08l3.52-8.4h27.92l3.52,8.4H493Zm-14.64,34.8,11.6-27.6,11.6,27.6Z"/></g></svg>