<svg id="Capa_1" data-name="Capa 1" xmlns="http://www.w3.org/2000/svg" viewBox="0 0 1707.56 217.08"><defs><style>.cls-1{fill:#f4f2ef;}</style></defs><path class="cls-1" d="M13.39,130.92h13.2V97.24h47V84.05h-47V24.84H82.15V11.65H13.39ZM14.8,13.05h66V23.43H25.18v62h47V95.84h-47v33.68H14.8Z"/><path class="cls-1" d="M139.38,10.54,89.05,130l-.41,1H103l7.41-17.68h57.83l7.41,17.68h14.32L146.42,27.23Zm37.17,119-7.41-17.68h-59.7L102,129.52H90.76L139.38,14.15l5.75,13.62,42.7,101.75Z"/><path class="cls-1" d="M113.9,101.45h50.95l-25.47-60.6Zm2.12-1.4,23.36-55.58,23.35,55.58Z"/><path class="cls-1" d="M228.45,98.1,192,11.65H177.72L227.8,130.49l.65,1.53L279,11.65H264.69Zm48.45-85L234.2,114.79l-5.75,13.62L179.83,13.05h11.28l37.34,88.67,37.18-88.67Z"/><path class="cls-1" d="M353.23,11.65h-2.56a56.78,56.78,0,0,0-39.88,18.23,57.93,57.93,0,0,0-16.69,41.4v2.56a58.39,58.39,0,0,0,18.06,40.38,57.16,57.16,0,0,0,41.07,16.7H356a56.8,56.8,0,0,0,39.88-18.23,58,58,0,0,0,16.7-41.41V68.73a58.42,58.42,0,0,0-18.07-40.38A57.32,57.32,0,0,0,353.23,11.65Zm57.89,59.63a56.61,56.61,0,0,1-16.3,40.44,55.47,55.47,0,0,1-38.9,17.8h-2.69a55.78,55.78,0,0,1-40.09-16.31,57,57,0,0,1-17.64-39.4V71.28a56.54,56.54,0,0,1,16.31-40.43,55.37,55.37,0,0,1,38.89-17.8h2.53a56,56,0,0,1,40.25,16.3,57,57,0,0,1,17.64,39.41Z"/><path class="cls-1" d="M386,36.76a47.07,47.07,0,0,0-67,1.38,47,47,0,0,0-13.16,33.14,46,46,0,0,0,14.7,34.52,47.08,47.08,0,0,0,67-1.37,47,47,0,0,0,13.16-33.15A46,46,0,0,0,386,36.76Zm.52,66.71a45.68,45.68,0,0,1-65,1.32,44.64,44.64,0,0,1-14.26-33.51A45.6,45.6,0,0,1,320.06,39.1a45.68,45.68,0,0,1,65-1.32,44.62,44.62,0,0,1,14.27,33.5A45.65,45.65,0,0,1,386.56,103.47Z"/><path class="cls-1" d="M507.19,72.88a30.16,30.16,0,0,0,6.2-18.44,29.5,29.5,0,0,0-11.55-23.95,32.08,32.08,0,0,0-20.3-7.06H456.42v62h26.66A30.61,30.61,0,0,0,507.19,72.88ZM483.05,84.05H457.82V24.84h23.72A30.68,30.68,0,0,1,501,31.59a28.15,28.15,0,0,1,11,22.85A28.76,28.76,0,0,1,506.06,72,29.22,29.22,0,0,1,483.05,84.05Z"/><path class="cls-1" d="M511.31,85.77c9.2-8.51,13.87-19.06,13.87-31.33a41.56,41.56,0,0,0-11.65-29.11,42.58,42.58,0,0,0-32-13.68H444.63V130.92h13.19V97.24h22.05l28.79,33.68H526L495.38,95A45.59,45.59,0,0,0,511.31,85.77ZM523,129.52H509.31l-28.8-33.68H456.42v33.68H446V13.05h35.51a41.22,41.22,0,0,1,31,13.25,40.18,40.18,0,0,1,11.26,28.14c0,11.87-4.51,22.06-13.4,30.29A44.31,44.31,0,0,1,494,94l-1,.31Z"/><path class="cls-1" d="M557.45,130.92h13.19V11.65H557.45Zm1.4-117.87h10.39V129.52H558.85Z"/><polygon class="cls-1" points="602.91 24.84 636.59 24.84 636.59 130.92 649.78 130.92 649.78 24.84 683.46 24.84 683.46 11.65 602.91 11.65 602.91 24.84"/><polygon class="cls-1" points="787.68 24.84 787.68 11.65 718.93 11.65 718.93 130.92 787.68 130.92 787.68 117.73 732.12 117.73 732.12 97.24 779.1 97.24 779.1 84.05 732.12 84.05 732.12 24.84 787.68 24.84"/><path class="cls-1" d="M928.42,11.64H891.51V130.92H904.7V97.24h23.72a43.1,43.1,0,0,0,29.77-11.47c9.2-8.52,13.87-19.06,13.87-31.33a41.59,41.59,0,0,0-11.64-29.11A42.62,42.62,0,0,0,928.42,11.64Zm30.45,42.8A28.62,28.62,0,0,1,952.12,73c-6,7.32-14,11-23.7,11H904.7V24.83h23.72a30.74,30.74,0,0,1,19.43,6.75A28.18,28.18,0,0,1,958.87,54.44Z"/><path class="cls-1" d="M1038.24,95a45.75,45.75,0,0,0,15.93-9.26c9.2-8.52,13.87-19.06,13.87-31.33a41.56,41.56,0,0,0-11.65-29.11,42.59,42.59,0,0,0-32-13.69H987.49V130.92h13.19V97.24h22.05l28.79,33.68h17.34Zm16.61-40.59a28.81,28.81,0,0,1-5.92,17.6,29.29,29.29,0,0,1-23,12h-25.23V24.83h23.72a30.74,30.74,0,0,1,19.43,6.75A28.18,28.18,0,0,1,1054.85,54.44Z"/><path class="cls-1" d="M1139.24,11.64h-2.56a56.79,56.79,0,0,0-39.88,18.24,57.93,57.93,0,0,0-16.69,41.4v2.56a58.39,58.39,0,0,0,18.06,40.38,57.16,57.16,0,0,0,41.07,16.7H1142a56.77,56.77,0,0,0,39.88-18.24,57.94,57.94,0,0,0,16.7-41.4V68.72a58.46,58.46,0,0,0-18.07-40.38A57.36,57.36,0,0,0,1139.24,11.64Zm57.89,59.64a56.57,56.57,0,0,1-16.3,40.43,55.39,55.39,0,0,1-38.9,17.8h-2.69a55.77,55.77,0,0,1-40.09-16.3,57,57,0,0,1-17.64-39.4V71.28a56.54,56.54,0,0,1,16.31-40.43,55.37,55.37,0,0,1,38.89-17.8h2.53a56,56,0,0,1,40.26,16.3,57,57,0,0,1,17.63,39.4Z"/><path class="cls-1" d="M1172.05,36.76a47.08,47.08,0,0,0-67,1.37,47,47,0,0,0-13.16,33.15,46,46,0,0,0,14.7,34.52,47.08,47.08,0,0,0,67-1.37,47,47,0,0,0,13.16-33.15A46,46,0,0,0,1172.05,36.76Zm.52,66.7a45.66,45.66,0,0,1-65,1.33,44.65,44.65,0,0,1-14.26-33.51,45.6,45.6,0,0,1,12.77-32.18,45.66,45.66,0,0,1,65-1.33,44.66,44.66,0,0,1,14.27,33.51A45.61,45.61,0,0,1,1172.57,103.46Z"/><path class="cls-1" d="M1235.22,23.43h-9.63v95.7h9.63a45.64,45.64,0,0,0,34.18-14.7,47,47,0,0,0,13.16-33.15A46.29,46.29,0,0,0,1268,36.76,46.84,46.84,0,0,0,1235.22,23.43Zm33.17,80a44.28,44.28,0,0,1-33.17,14.27H1227V24.83h8.22a45.5,45.5,0,0,1,31.85,12.94,45,45,0,0,1,14.1,33.51A45.64,45.64,0,0,1,1268.39,103.46Z"/><path class="cls-1" d="M1235.22,11.64H1213.8V130.92h24a56.77,56.77,0,0,0,39.88-18.24,57.94,57.94,0,0,0,16.7-41.4V68.72a58.49,58.49,0,0,0-18.06-40.38A57.21,57.21,0,0,0,1235.22,11.64ZM1293,71.28a56.55,56.55,0,0,1-16.32,40.43,55.37,55.37,0,0,1-38.89,17.8h-22.53V13.05h20a55.8,55.8,0,0,1,40.09,16.3A57.09,57.09,0,0,1,1293,68.75Z"/><path class="cls-1" d="M1377.14,91.15a25.53,25.53,0,0,1-5.58,16.23,26.24,26.24,0,0,1-21.51,10.35,27.38,27.38,0,0,1-16.91-5.75A25.46,25.46,0,0,1,1323,91.15V11.64h-13.19V91.15a38.63,38.63,0,0,0,10.46,26.74,39.06,39.06,0,0,0,29.81,13,39.85,39.85,0,0,0,27.08-10.29,38.45,38.45,0,0,0,13.2-29.48V11.64h-13.19Zm1.4-78.1h10.38v78.1a37.1,37.1,0,0,1-12.73,28.44,38.48,38.48,0,0,1-26.14,9.92,37.7,37.7,0,0,1-28.78-12.57,37.25,37.25,0,0,1-10.08-25.79V13.05h10.38v78.1a26.78,26.78,0,0,0,10.72,21.94,28.68,28.68,0,0,0,17.76,6,27.61,27.61,0,0,0,22.61-10.87,27,27,0,0,0,5.88-17.11Z"/><path class="cls-1" d="M1447.48,28.15a47.13,47.13,0,0,1,17.08-3.48,44.46,44.46,0,0,1,33.17,13.76l.49.5,9.43-9.24-2.88-2.88a57,57,0,0,0-40.9-15.34h0a63.82,63.82,0,0,0-21.47,4.44,60.35,60.35,0,0,0-20.61,14.31,58.29,58.29,0,0,0-16.19,40.89,59.44,59.44,0,0,0,6.47,27.09,58,58,0,0,0,30.17,28.28,60.31,60.31,0,0,0,23.24,4.63l1.64,0A57.45,57.45,0,0,0,1507,113.53l.5-.5-9.42-9.23-.49.49a47.53,47.53,0,0,1-13.94,9.62,44,44,0,0,1-36.32.5,46.11,46.11,0,0,1-14.76-10,45,45,0,0,1-13.77-33.18,47.25,47.25,0,0,1,4.31-19.74A45.29,45.29,0,0,1,1447.48,28.15Zm-30.1,43.13a46.39,46.39,0,0,0,14.18,34.17,47.23,47.23,0,0,0,15.21,10.26,45.37,45.37,0,0,0,37.44-.52,49.09,49.09,0,0,0,13.86-9.42l7.42,7.27a56,56,0,0,1-38.43,16.64,59,59,0,0,1-24.29-4.49,56.59,56.59,0,0,1-29.45-27.62A58,58,0,0,1,1407,71.11a56.9,56.9,0,0,1,15.81-39.93,59.05,59.05,0,0,1,20.12-14,62.37,62.37,0,0,1,21-4.33,55.54,55.54,0,0,1,39.9,14.95l1.85,1.85L1498.24,37a45.85,45.85,0,0,0-33.7-13.69,48.89,48.89,0,0,0-17.6,3.59A46.66,46.66,0,0,0,1421.82,51,48.62,48.62,0,0,0,1417.38,71.28Z"/><path class="cls-1" d="M1519.25,24.83h33.68V130.92h13.19V24.83h33.68V11.64h-80.55Zm1.41-11.78h77.74V23.43h-33.68V129.51h-10.39V23.43h-33.67Z"/><path class="cls-1" d="M1678.51,80.74a36.13,36.13,0,0,0-4.58-1.53c-1.63-.58-8.49-2.19-21-4.91-10.2-2.33-17.65-5.12-22.25-8.37a7.1,7.1,0,0,1-.72-.43c-5.07-3.88-7.64-9.64-7.64-17.12a23.19,23.19,0,0,1,2.28-10.13c4.46-9,13.54-13.58,27-13.58a45,45,0,0,1,32.85,13.77l.49.49,9.19-9.19-.39-.49a22.15,22.15,0,0,0-1.58-1.76,57.85,57.85,0,0,0-40.56-16c-12.25,0-22.49,3.63-30.44,10.79s-12,15.85-12,26.13c.11,12.19,4.8,21.72,13.93,28.35,5.89,4.18,15,7.68,27.14,10.39l.24.1.16.06c12.7,2.79,20.43,4.7,22.94,5.68a18.8,18.8,0,0,1,5.6,3.47,8.11,8.11,0,0,1,1.39,4.31c0,4.21-2.62,8-7.76,11.36-5.92,3.73-13.33,5.62-22,5.62A44.68,44.68,0,0,1,1618,104l-.49-.5-9.37,9.18.39.5a12.61,12.61,0,0,0,1.75,1.76,57.43,57.43,0,0,0,40.56,16c11.08,0,20.84-2.53,29-7.52l.13-.1a6.2,6.2,0,0,1,.73-.58c8.7-5.73,13.12-13.12,13.12-22A19.5,19.5,0,0,0,1689,87.83,28.61,28.61,0,0,0,1678.51,80.74Zm1.36,40.81a5.75,5.75,0,0,0-.89.7c-7.91,4.82-17.4,7.26-28.19,7.26a56.12,56.12,0,0,1-39.63-15.66,11.45,11.45,0,0,1-1.17-1.11l7.45-7.3a46,46,0,0,0,33.35,13.69c9,0,16.62-2,22.78-5.84,5.57-3.6,8.4-7.82,8.4-12.58a9.45,9.45,0,0,0-1.72-5.17,20,20,0,0,0-6.14-3.87c-2.63-1-10.18-2.9-23.09-5.73a1.78,1.78,0,0,0-.64-.2c-11.84-2.66-20.74-6.08-26.46-10.15-8.75-6.34-13.24-15.5-13.35-27.21,0-9.85,3.89-18.28,11.56-25.07s17.61-10.43,29.5-10.43a56.46,56.46,0,0,1,39.58,15.62c.38.38.74.77,1.06,1.14L1685,37a46.35,46.35,0,0,0-33.34-13.69c-14,0-23.54,4.84-28.25,14.37A24.52,24.52,0,0,0,1621,48.38c0,7.94,2.75,14.08,8.22,18.26a6.06,6.06,0,0,0,.83.5c4.65,3.29,12.27,6.16,22.65,8.53,12.25,2.67,19.25,4.31,20.85,4.88A33.6,33.6,0,0,1,1678,82a27.24,27.24,0,0,1,10,6.71,18.15,18.15,0,0,1,4.38,12C1692.35,109.1,1688.15,116.1,1679.87,121.55Z"/><path class="cls-1" d="M1255.33,187a3,3,0,0,1,1.37.81,4.14,4.14,0,0,1,.78,1.27,5.59,5.59,0,0,1,.38,1.55,16.81,16.81,0,0,1,.09,1.72c0,.44,0,.91,0,1.39s0,1,0,1.43a5.31,5.31,0,0,1-1.06,3.21,10.13,10.13,0,0,1-2.76,2.52,13.84,13.84,0,0,1-3.58,1.58,13.07,13.07,0,0,1-3.52.54,13.72,13.72,0,0,1-7.2-1.94,18.87,18.87,0,0,1-5.48-5.06,24.58,24.58,0,0,1-3.51-6.93,22.92,22.92,0,0,1-.21-14.23,21.68,21.68,0,0,1,3-6.34,16.59,16.59,0,0,1,4.86-4.66,12.2,12.2,0,0,1,6.55-1.78,13.53,13.53,0,0,1,4.42.74,17.6,17.6,0,0,1,4.09,2,22,22,0,0,1,3.56,3,28.49,28.49,0,0,1,2.91,3.51l.7,1v-7.54l-.14-.12a14.8,14.8,0,0,0-3.15-1.95,21.5,21.5,0,0,0-3.66-1.31,28.07,28.07,0,0,0-3.83-.72,34,34,0,0,0-3.67-.22,22.49,22.49,0,0,0-8.68,1.69,21.74,21.74,0,0,0-11.82,11.66,22.45,22.45,0,0,0,0,17.38,22.18,22.18,0,0,0,20.5,13.41,17.41,17.41,0,0,0,5.72-.92,47,47,0,0,0,5.24-2.18l.61-.25a1.55,1.55,0,0,1,1.49.21,4.8,4.8,0,0,1,1,.86,8.67,8.67,0,0,1,.85,1.12l.71,1.1.7,1.13V191.16a5.58,5.58,0,0,1,.64-2.56,3.16,3.16,0,0,1,1.93-1.62l2.24-.75h-14.39Z"/><path class="cls-1" d="M1296.17,201.77a1.88,1.88,0,0,1-1.9-1,5.57,5.57,0,0,1-.54-2.45V182.8c0-3.23-.76-5.71-2.25-7.38s-4-2.52-7.29-2.52a13.49,13.49,0,0,0-3.26.5,17.44,17.44,0,0,0-3.7,1.45,11.86,11.86,0,0,0-3.08,2.28,4.4,4.4,0,0,0-1.34,3.09,3.07,3.07,0,0,0,.64,1.93,2.26,2.26,0,0,0,1.9.85,2.39,2.39,0,0,0,2.71-2.65,5.81,5.81,0,0,0-.16-1.39,5,5,0,0,1-.14-1.19,2,2,0,0,1,.57-1.49,4.84,4.84,0,0,1,1.53-1.05,10.13,10.13,0,0,1,2-.62,9.31,9.31,0,0,1,1.8-.21,4.93,4.93,0,0,1,2.77.74,6.08,6.08,0,0,1,1.81,1.9,8.33,8.33,0,0,1,1,2.65,14.87,14.87,0,0,1,.3,2.93v3.26a5.89,5.89,0,0,1-2,.85c-1.06.29-2.27.58-3.6.86s-2.78.65-4.21,1.08a18.59,18.59,0,0,0-4,1.73,9.51,9.51,0,0,0-3.07,2.81,7.39,7.39,0,0,0-1.24,4.34,6.41,6.41,0,0,0,.72,3.09,6.78,6.78,0,0,0,1.89,2.22,8,8,0,0,0,2.68,1.29,11.67,11.67,0,0,0,3.08.41,15.18,15.18,0,0,0,5-.79,11.18,11.18,0,0,0,4.26-2.76l-.49-.59a10.86,10.86,0,0,1-3.2,1.49,13.51,13.51,0,0,1-3.52.47,5.57,5.57,0,0,1-3.92-1.37,4.83,4.83,0,0,1-1.47-3.77,6.37,6.37,0,0,1,1.32-4.21,10.53,10.53,0,0,1,3.35-2.64,23.28,23.28,0,0,1,4.41-1.66c1.42-.37,2.76-.75,4-1.11v10.72a14.88,14.88,0,0,0,.16,2.27,5.58,5.58,0,0,0,.66,2,3.86,3.86,0,0,0,1.46,1.43,4.82,4.82,0,0,0,2.4.54,5.47,5.47,0,0,0,2.81-.88,4,4,0,0,0,1.92-2.28l.36-1.21-1,.81A3.24,3.24,0,0,1,1296.17,201.77Z"/><path class="cls-1" d="M1309.07,168.82a2.79,2.79,0,0,0,2-.79,3.07,3.07,0,0,0,0-4.11,2.79,2.79,0,0,0-2-.79,2.89,2.89,0,0,0-2.08.79,3,3,0,0,0,0,4.11A2.89,2.89,0,0,0,1309.07,168.82Z"/><path class="cls-1" d="M1312,202a7.16,7.16,0,0,1-.58-2.95V172.61l-7.13,5h1.22a1.05,1.05,0,0,1,.8.29,2.23,2.23,0,0,1,.52.86,5.34,5.34,0,0,1,.26,1.17c0,.42.06.79.06,1.1v18a7.68,7.68,0,0,1-.55,2.95,3.14,3.14,0,0,1-2.13,1.72l-2.42.75h14.38l-2.33-.75A3.18,3.18,0,0,1,1312,202Z"/><path class="cls-1" d="M1346.17,201.77a1.88,1.88,0,0,1-1.9-1,5.6,5.6,0,0,1-.54-2.45V182.8c0-3.23-.76-5.71-2.25-7.38s-4-2.52-7.29-2.52a13.49,13.49,0,0,0-3.26.5,17.73,17.73,0,0,0-3.71,1.45,12,12,0,0,0-3.07,2.28,4.4,4.4,0,0,0-1.34,3.09,3.05,3.05,0,0,0,.64,1.93,2.25,2.25,0,0,0,1.89.85,2.4,2.4,0,0,0,2.72-2.65,5.81,5.81,0,0,0-.16-1.39,4.57,4.57,0,0,1-.14-1.19,2.06,2.06,0,0,1,.56-1.49,5,5,0,0,1,1.54-1.05,10.13,10.13,0,0,1,2-.62,9.22,9.22,0,0,1,1.8-.21,4.87,4.87,0,0,1,2.76.74,6,6,0,0,1,1.82,1.9,8.33,8.33,0,0,1,1,2.65,14.87,14.87,0,0,1,.3,2.93v3.26a5.89,5.89,0,0,1-2,.85c-1.06.29-2.27.58-3.6.86s-2.78.65-4.21,1.08a18.46,18.46,0,0,0-4,1.73,9.58,9.58,0,0,0-3.06,2.81,7.32,7.32,0,0,0-1.24,4.34,6.41,6.41,0,0,0,.72,3.09,6.66,6.66,0,0,0,1.89,2.22,7.94,7.94,0,0,0,2.68,1.29,11.67,11.67,0,0,0,3.08.41,15.18,15.18,0,0,0,5-.79,11.18,11.18,0,0,0,4.26-2.76l-.49-.59a10.86,10.86,0,0,1-3.2,1.49,13.51,13.51,0,0,1-3.52.47,5.57,5.57,0,0,1-3.92-1.37,4.83,4.83,0,0,1-1.47-3.77,6.37,6.37,0,0,1,1.32-4.21,10.53,10.53,0,0,1,3.35-2.64,22.62,22.62,0,0,1,4.41-1.66c1.43-.38,2.76-.75,4-1.11v10.72a14.88,14.88,0,0,0,.16,2.27,5.38,5.38,0,0,0,.66,2,3.86,3.86,0,0,0,1.46,1.43,4.82,4.82,0,0,0,2.4.54,5.47,5.47,0,0,0,2.81-.88,4,4,0,0,0,1.92-2.28l.36-1.21-1,.81A3.26,3.26,0,0,1,1346.17,201.77Z"/><path class="cls-1" d="M1399,201.33a13,13,0,0,1-6.39,1.61h-10.12v-20h6.87a7.8,7.8,0,0,1,3.39.73,4.07,4.07,0,0,1,2.08,2.57l.75,2.24V175.84l-.75,2.24a4.18,4.18,0,0,1-2.08,2.6,7.57,7.57,0,0,1-3.39.76h-6.87V162.18h10.18c4.73,0,8.13,2.08,10.41,6.37l1.35,2.53-2.36-10.4h-29.62l2.42.75a3.14,3.14,0,0,1,2.13,1.69,7.28,7.28,0,0,1,.55,2.85V199a7.56,7.56,0,0,1-.56,2.92,3.09,3.09,0,0,1-2.12,1.75l-2.42.75h29.92l2.59-10.61-1.45,2.74A11.47,11.47,0,0,1,1399,201.33Z"/><path class="cls-1" d="M1432.28,173l-.06.76a2.71,2.71,0,0,1,2,1.24,4.4,4.4,0,0,1,.68,2.38,4.08,4.08,0,0,1-.22,1.38l-8.37,18.93-9.1-20.27a2.63,2.63,0,0,1-.16-.6,3.49,3.49,0,0,1-.06-.61,3.18,3.18,0,0,1,.39-1.54,1.9,1.9,0,0,1,1.13-.92l2.24-.75H1407l1.79.74a5.83,5.83,0,0,1,2.54,1.87,15,15,0,0,1,1.61,2.91l11.78,26.65,12.08-27.27a7.61,7.61,0,0,1,2-2.69,6,6,0,0,1,3-1.45l-.07-.76Z"/><path class="cls-1" d="M1471.62,177.5a16.12,16.12,0,0,0-5-3.4,15.34,15.34,0,0,0-6.17-1.26,15.14,15.14,0,0,0-6.15,1.26,16.14,16.14,0,0,0-5,3.43,16.57,16.57,0,0,0-3.39,5,15.09,15.09,0,0,0-1.26,6.14,15.3,15.3,0,0,0,1.26,6.17,15.81,15.81,0,0,0,8.43,8.43,15.27,15.27,0,0,0,6.17,1.26,15.09,15.09,0,0,0,6.14-1.26,16,16,0,0,0,5-3.43,16.16,16.16,0,0,0,3.37-5,15.58,15.58,0,0,0,1.23-6.14,15.79,15.79,0,0,0-4.6-11.2Zm-.64,17.08a14.15,14.15,0,0,1-2,4.19,10.45,10.45,0,0,1-3.23,3,8.63,8.63,0,0,1-4.5,1.15,9.64,9.64,0,0,1-5.18-1.42,13.36,13.36,0,0,1-3.85-3.64,17.74,17.74,0,0,1-2.4-5,18.44,18.44,0,0,1-.84-5.36,16.85,16.85,0,0,1,.66-4.65,13.91,13.91,0,0,1,2-4.19,10.57,10.57,0,0,1,3.26-3,8.64,8.64,0,0,1,4.47-1.14,9.79,9.79,0,0,1,5.18,1.38,12.94,12.94,0,0,1,3.84,3.64,18.16,18.16,0,0,1,2.41,5,18.43,18.43,0,0,1,.84,5.39A16.85,16.85,0,0,1,1471,194.58Z"/><path class="cls-1" d="M1489.54,201.81a7.52,7.52,0,0,1-.61-3.1l-.06-41.17-7.21,5.26h1.18a1.21,1.21,0,0,1,.89.31,2.22,2.22,0,0,1,.55.93,6,6,0,0,1,.29,1.25,8.67,8.67,0,0,1,.09,1.18v32.24a7.36,7.36,0,0,1-.61,3.1,3.72,3.72,0,0,1-2.27,1.89l-2,.74h14.09l-2-.74A3.72,3.72,0,0,1,1489.54,201.81Z"/><path class="cls-1" d="M1526.41,199.24a2.26,2.26,0,0,1-.55-.93,6.49,6.49,0,0,1-.29-1.25,8.53,8.53,0,0,1-.09-1.17V172.56l-7.09,5.54,1,.05a1.48,1.48,0,0,1,1.44.79,4.61,4.61,0,0,1,.4,2v16.44l-2.13,1.69a19.43,19.43,0,0,1-3.85,2.38,10.2,10.2,0,0,1-4.32,1,6,6,0,0,1-2.92-.65,5.49,5.49,0,0,1-1.92-1.79,7.37,7.37,0,0,1-1.08-2.6,14.11,14.11,0,0,1-.33-3.05V172.56l-7.09,5.54,1,.05a1.48,1.48,0,0,1,1.45.82,4.67,4.67,0,0,1,.4,1.93v12.65a16.91,16.91,0,0,0,.5,4.12,10.7,10.7,0,0,0,1.6,3.54,8.17,8.17,0,0,0,2.83,2.48,8.78,8.78,0,0,0,4.18.94,11.7,11.7,0,0,0,5.58-1.43,14.88,14.88,0,0,0,4.48-3.63l1.59-1.92v7.16l7.22-5.25h-1.18A1.22,1.22,0,0,1,1526.41,199.24Z"/><path class="cls-1" d="M1549.56,201.5a6.19,6.19,0,0,1-5.23.21,4.93,4.93,0,0,1-1.68-1.31,6,6,0,0,1-1.07-1.93,7.26,7.26,0,0,1-.38-2.34v-21.6h5.53V173h-5.53V160.51l-.51.19a5.09,5.09,0,0,0-2.88,2.42,7.63,7.63,0,0,0-.88,3.59V173h-2.51v1.57h2.51V194.9a15.51,15.51,0,0,0,.41,3.6,8.43,8.43,0,0,0,1.39,3.05,7.08,7.08,0,0,0,2.46,2.11,7.77,7.77,0,0,0,3.62.78,9.68,9.68,0,0,0,2.27-.29,10,10,0,0,0,2.24-.83,9.52,9.52,0,0,0,2-1.34,5.46,5.46,0,0,0,1.39-1.95l1-2.49-1.68,2.1A6.73,6.73,0,0,1,1549.56,201.5Z"/><path class="cls-1" d="M1564.63,202a7.32,7.32,0,0,1-.58-2.95V172.61l-7.13,5h1.22a1,1,0,0,1,.8.29,2.24,2.24,0,0,1,.53.86,4.8,4.8,0,0,1,.25,1.17c0,.42.06.79.06,1.1v18a7.49,7.49,0,0,1-.55,2.95,3.12,3.12,0,0,1-2.13,1.72l-2.41.75h14.38l-2.34-.75A3.23,3.23,0,0,1,1564.63,202Z"/><path class="cls-1" d="M1561.7,168.82a2.85,2.85,0,1,0,0-5.69,2.93,2.93,0,0,0-2.08.79,3,3,0,0,0,0,4.11A2.91,2.91,0,0,0,1561.7,168.82Z"/><path class="cls-1" d="M1601.28,177.5a16.12,16.12,0,0,0-5-3.4,15.3,15.3,0,0,0-6.17-1.26,15.09,15.09,0,0,0-6.14,1.26,16.18,16.18,0,0,0-5,3.43,16.75,16.75,0,0,0-3.39,5,15.09,15.09,0,0,0-1.26,6.14,15.3,15.3,0,0,0,1.26,6.17,16.17,16.17,0,0,0,3.4,5,16,16,0,0,0,5,3.39,15.3,15.3,0,0,0,6.17,1.26,15.09,15.09,0,0,0,6.14-1.26,16,16,0,0,0,8.37-8.46,15.41,15.41,0,0,0,1.23-6.14,15.79,15.79,0,0,0-4.6-11.2Zm-.64,17.08a13.91,13.91,0,0,1-2,4.19,10.34,10.34,0,0,1-3.23,3,8.6,8.6,0,0,1-4.5,1.15,9.58,9.58,0,0,1-5.17-1.42,13.24,13.24,0,0,1-3.85-3.64,17.49,17.49,0,0,1-2.41-5,18.44,18.44,0,0,1-.84-5.36,16.85,16.85,0,0,1,.66-4.65,14.15,14.15,0,0,1,2-4.19,10.57,10.57,0,0,1,3.26-3,8.68,8.68,0,0,1,4.48-1.14,9.78,9.78,0,0,1,5.17,1.38,13,13,0,0,1,3.85,3.64,18.78,18.78,0,0,1,3.24,10.38A16.85,16.85,0,0,1,1600.64,194.58Z"/><path class="cls-1" d="M1634.54,201.81a3.45,3.45,0,0,1-2.26,1.88l-2.25.75h14.57l-2.25-.75a3.58,3.58,0,0,1-2.29-1.85,7.26,7.26,0,0,1-.64-3.13V183.85a16.49,16.49,0,0,0-.51-4.12,10.16,10.16,0,0,0-1.62-3.54,8.11,8.11,0,0,0-7-3.41,11.93,11.93,0,0,0-5.65,1.42,14.84,14.84,0,0,0-4.47,3.63l-1.33,1.61,0-6.85-7.21,5.25h1.18a1.21,1.21,0,0,1,.89.32,2.22,2.22,0,0,1,.55.93,6.51,6.51,0,0,1,.3,1.25,10.45,10.45,0,0,1,.08,1.17v17.2a7.36,7.36,0,0,1-.61,3.1,3.72,3.72,0,0,1-2.27,1.89l-2,.74h14.09l-2-.74a3.72,3.72,0,0,1-2.27-1.89,7.52,7.52,0,0,1-.61-3.1l0-18.85,1.86-1.48a19.33,19.33,0,0,1,3.86-2.38,10,10,0,0,1,4.32-1,5.88,5.88,0,0,1,2.91.66,5.59,5.59,0,0,1,1.93,1.78,7.56,7.56,0,0,1,1.08,2.6,14.18,14.18,0,0,1,.33,3.05v15.6A7.79,7.79,0,0,1,1634.54,201.81Z"/><path class="cls-1" d="M1176.68,171.62a13.83,13.83,0,0,0-4.4-3,13.82,13.82,0,0,0-18.1,18.1,13.68,13.68,0,0,0,7.35,7.35,14,14,0,0,0,10.75,0,14,14,0,0,0,4.4-3,14.17,14.17,0,0,0,3-4.4,14.06,14.06,0,0,0,0-10.76A14,14,0,0,0,1176.68,171.62Zm0,14.69a13.63,13.63,0,0,1-1.88,4,10.53,10.53,0,0,1-3,2.91,7.73,7.73,0,0,1-4.13,1.11,8.39,8.39,0,0,1-4.51-1.25,12.47,12.47,0,0,1-3.48-3.24,15,15,0,0,1-2.23-4.4,15.19,15.19,0,0,1-.78-4.68,14.88,14.88,0,0,1,.65-4.25,13.76,13.76,0,0,1,1.88-4,10.19,10.19,0,0,1,3.06-2.9,7.65,7.65,0,0,1,4.11-1.12,8.76,8.76,0,0,1,4.57,1.23,12.07,12.07,0,0,1,3.48,3.2,14.87,14.87,0,0,1,2.19,4.38,16,16,0,0,1,.75,4.72A15,15,0,0,1,1176.68,186.31Z"/><path class="cls-1" d="M1181.64,167.71l1.58.48a2,2,0,0,1,1.32,1.05,4.47,4.47,0,0,1,.35,1.79v20.65a4.72,4.72,0,0,1-.35,1.82,1.9,1.9,0,0,1-1.32,1.09l-1.58.49h9.5l-1.47-.49a2,2,0,0,1-1.29-1.09,4.34,4.34,0,0,1-.38-1.78V181.64h4.28a4.81,4.81,0,0,1,2.12.48,2.45,2.45,0,0,1,1.29,1.57l.49,1.56v-8.08l-.49,1.41a2.67,2.67,0,0,1-1.3,1.61,4.49,4.49,0,0,1-2.11.49H1188v-12h6.35a6.87,6.87,0,0,1,6.5,4l.87,1.65-1.49-6.58Z"/></svg>