<svg id="Capa_1" data-name="Capa 1" xmlns="http://www.w3.org/2000/svg" viewBox="0 0 559.2 121.2"><defs><style>.cls-1{fill:#1d1d1b;}</style></defs><path class="cls-1" d="M45.73,47.59a3.94,3.94,0,0,1,1.78,1.06,5.65,5.65,0,0,1,1,1.65,7.44,7.44,0,0,1,.48,2,21.11,21.11,0,0,1,.12,2.23c0,.58,0,1.18,0,1.82s0,1.27,0,1.86a6.88,6.88,0,0,1-1.38,4.18,12.92,12.92,0,0,1-3.58,3.27,18.09,18.09,0,0,1-4.67,2.07,17.38,17.38,0,0,1-4.59.7,17.77,17.77,0,0,1-9.38-2.53,24.46,24.46,0,0,1-7.13-6.59,31.8,31.8,0,0,1-4.57-9,31.08,31.08,0,0,1-1.62-9.68,31.25,31.25,0,0,1,1.34-8.86,28.85,28.85,0,0,1,3.93-8.26,21.9,21.9,0,0,1,6.34-6.06,15.83,15.83,0,0,1,8.53-2.32,17.42,17.42,0,0,1,5.76,1,23.43,23.43,0,0,1,5.32,2.66A29.24,29.24,0,0,1,48,22.67a37.17,37.17,0,0,1,3.79,4.57l.91,1.3V18.72l-.18-.15A19.4,19.4,0,0,0,48.41,16a29.25,29.25,0,0,0-4.76-1.71,35.62,35.62,0,0,0-5-.93,42.52,42.52,0,0,0-4.78-.28,29.3,29.3,0,0,0-11.31,2.2,28.44,28.44,0,0,0-9.2,6.06,28.92,28.92,0,0,0-6.19,9.12,29.24,29.24,0,0,0,0,22.64,28.92,28.92,0,0,0,26.7,17.46,22.67,22.67,0,0,0,7.44-1.19,61.23,61.23,0,0,0,6.83-2.85l.8-.32a2,2,0,0,1,1.93.27,6.59,6.59,0,0,1,1.27,1.12,12.2,12.2,0,0,1,1.11,1.46c.35.53.65,1,.92,1.43L55.1,72V53a7.23,7.23,0,0,1,.83-3.33,4.15,4.15,0,0,1,2.51-2.12l2.92-1H42.62Z"/><path class="cls-1" d="M98.92,66.86a2.46,2.46,0,0,1-2.47-1.28,7.23,7.23,0,0,1-.71-3.18V42.16c0-4.22-1-7.45-2.93-9.62s-5.15-3.28-9.49-3.28a17.6,17.6,0,0,0-4.25.65,22.75,22.75,0,0,0-4.82,1.89,15.49,15.49,0,0,0-4,3,5.77,5.77,0,0,0-1.74,4,4,4,0,0,0,.83,2.51,3,3,0,0,0,2.47,1.11c2.32,0,3.54-1.2,3.54-3.46a7.58,7.58,0,0,0-.21-1.8,6.12,6.12,0,0,1-.19-1.56,2.67,2.67,0,0,1,.74-1.94,6.1,6.1,0,0,1,2-1.36,12.49,12.49,0,0,1,2.58-.81,12.17,12.17,0,0,1,2.34-.27,6.41,6.41,0,0,1,3.6,1,7.72,7.72,0,0,1,2.37,2.49,10.5,10.5,0,0,1,1.3,3.44,19.43,19.43,0,0,1,.39,3.82v4.25a7.42,7.42,0,0,1-2.59,1.1c-1.38.38-3,.75-4.69,1.12s-3.62.85-5.48,1.41a23.51,23.51,0,0,0-5.23,2.25,12.76,12.76,0,0,0-4,3.66,9.61,9.61,0,0,0-1.61,5.65,8.41,8.41,0,0,0,.94,4,8.73,8.73,0,0,0,2.46,2.89A10.47,10.47,0,0,0,73.55,70a14.92,14.92,0,0,0,4,.54,20,20,0,0,0,6.56-1,14.61,14.61,0,0,0,5.55-3.6L89,65.1A13.91,13.91,0,0,1,84.87,67a17.39,17.39,0,0,1-4.59.62,7.23,7.23,0,0,1-5.1-1.79A6.3,6.3,0,0,1,73.26,61,8.32,8.32,0,0,1,75,55.48,13.88,13.88,0,0,1,79.35,52a30.06,30.06,0,0,1,5.74-2.16c1.86-.49,3.59-1,5.17-1.45v14a19.69,19.69,0,0,0,.21,2.95,7.28,7.28,0,0,0,.86,2.58,5,5,0,0,0,1.9,1.86,6.25,6.25,0,0,0,3.13.71A7.25,7.25,0,0,0,100,69.35a5.31,5.31,0,0,0,2.5-3l.47-1.57-1.27,1A4.23,4.23,0,0,1,98.92,66.86Z"/><path class="cls-1" d="M115.72,23.94a3.63,3.63,0,0,0,2.67-1,3.59,3.59,0,0,0,1-2.67,3.52,3.52,0,0,0-3.7-3.7,3.73,3.73,0,0,0-2.7,1,3.53,3.53,0,0,0-1.08,2.68A3.53,3.53,0,0,0,113,22.92,3.73,3.73,0,0,0,115.72,23.94Z"/><path class="cls-1" d="M119.54,67.11a9.38,9.38,0,0,1-.76-3.83V28.88l-9.29,6.5h1.59a1.42,1.42,0,0,1,1,.37,2.94,2.94,0,0,1,.68,1.13,6.78,6.78,0,0,1,.33,1.52c0,.55.08,1,.08,1.44V63.28a9.77,9.77,0,0,1-.72,3.84,4.05,4.05,0,0,1-2.77,2.24l-3.15,1h18.73l-3-1A4.12,4.12,0,0,1,119.54,67.11Z"/><path class="cls-1" d="M164,66.86a2.46,2.46,0,0,1-2.47-1.28,7.23,7.23,0,0,1-.71-3.18V42.16c0-4.22-1-7.45-2.93-9.62s-5.15-3.28-9.49-3.28a17.6,17.6,0,0,0-4.25.65,22.75,22.75,0,0,0-4.82,1.89,15.49,15.49,0,0,0-4,3,5.77,5.77,0,0,0-1.74,4,4,4,0,0,0,.83,2.51,3,3,0,0,0,2.47,1.11c2.32,0,3.54-1.2,3.54-3.46a7.58,7.58,0,0,0-.21-1.8,6.12,6.12,0,0,1-.19-1.56,2.69,2.69,0,0,1,.74-1.94,6.1,6.1,0,0,1,2-1.36,12.49,12.49,0,0,1,2.58-.81,12.17,12.17,0,0,1,2.34-.27,6.41,6.41,0,0,1,3.6,1,7.79,7.79,0,0,1,2.37,2.48A10.73,10.73,0,0,1,155,38.1a19.5,19.5,0,0,1,.39,3.82v4.24a7.22,7.22,0,0,1-2.59,1.11c-1.38.38-3,.75-4.69,1.12s-3.61.85-5.48,1.41a23.51,23.51,0,0,0-5.23,2.25,12.65,12.65,0,0,0-4,3.66,9.61,9.61,0,0,0-1.61,5.65,8.41,8.41,0,0,0,.94,4,8.62,8.62,0,0,0,2.46,2.89A10.47,10.47,0,0,0,138.67,70a14.92,14.92,0,0,0,4,.54,20,20,0,0,0,6.56-1,14.61,14.61,0,0,0,5.55-3.6l-.63-.77A13.79,13.79,0,0,1,150,67a17.39,17.39,0,0,1-4.59.62,7.23,7.23,0,0,1-5.1-1.79A6.3,6.3,0,0,1,138.38,61a8.3,8.3,0,0,1,1.72-5.48A13.88,13.88,0,0,1,144.47,52a30.06,30.06,0,0,1,5.74-2.16c1.86-.5,3.6-1,5.17-1.45v14a19.88,19.88,0,0,0,.21,2.95,7.28,7.28,0,0,0,.86,2.58,5.07,5.07,0,0,0,1.9,1.86,6.25,6.25,0,0,0,3.13.71,7.25,7.25,0,0,0,3.66-1.15,5.31,5.31,0,0,0,2.5-3l.47-1.57-1.27,1A4.23,4.23,0,0,1,164,66.86Z"/><path class="cls-1" d="M204.18,67.09a4,4,0,0,1-2.77,2.27l-3.15,1h39l3.37-13.82-1.88,3.56a14.85,14.85,0,0,1-5.89,6.2,16.74,16.74,0,0,1-8.31,2.1H211.34v-26h8.94a10.12,10.12,0,0,1,4.42.95,5.33,5.33,0,0,1,2.71,3.35l1,2.91V33.08l-1,2.92a5.47,5.47,0,0,1-2.71,3.39,9.73,9.73,0,0,1-4.42,1h-8.94V15.3H224.6c6.15,0,10.58,2.71,13.56,8.29l1.75,3.3-3.07-13.55H198.26l3.15,1a4,4,0,0,1,2.77,2.2,9.28,9.28,0,0,1,.72,3.72v43A9.94,9.94,0,0,1,204.18,67.09Z"/><path class="cls-1" d="M282.1,35.71a9.8,9.8,0,0,1,2.55-3.5,7.73,7.73,0,0,1,3.87-1.88l-.08-1H276.2l-.08,1a3.53,3.53,0,0,1,2.54,1.61,5.77,5.77,0,0,1,.88,3.1,5.4,5.4,0,0,1-.28,1.8l-10.9,24.65L256.5,35.09a4,4,0,0,1-.21-.78,4.53,4.53,0,0,1-.07-.79,4.13,4.13,0,0,1,.5-2,2.49,2.49,0,0,1,1.48-1.2l2.91-1H243.29l2.32,1a7.66,7.66,0,0,1,3.31,2.43,19.27,19.27,0,0,1,2.1,3.79l15.34,34.71Z"/><path class="cls-1" d="M327.44,64.39a21.25,21.25,0,0,0,4.38-6.56,20.14,20.14,0,0,0,1.6-8,20.59,20.59,0,0,0-6-14.6,21.19,21.19,0,0,0-6.55-4.42,20,20,0,0,0-8-1.64,19.74,19.74,0,0,0-8,1.64,20.86,20.86,0,0,0-6.52,4.47,21.79,21.79,0,0,0-4.42,6.55,19.74,19.74,0,0,0-1.64,8,20,20,0,0,0,1.64,8,20.86,20.86,0,0,0,11,11,20,20,0,0,0,8,1.64,19.74,19.74,0,0,0,8-1.64A21,21,0,0,0,327.44,64.39Zm0-13a22.12,22.12,0,0,1-.86,6.06A18.1,18.1,0,0,1,324,63a13.76,13.76,0,0,1-4.21,3.94A11.17,11.17,0,0,1,314,68.38a12.44,12.44,0,0,1-6.73-1.85,17.2,17.2,0,0,1-5-4.74,22.89,22.89,0,0,1-3.13-6.5,23.9,23.9,0,0,1-1.1-7,22.14,22.14,0,0,1,.86-6.07,18.21,18.21,0,0,1,2.57-5.45,13.64,13.64,0,0,1,4.25-3.93,11.25,11.25,0,0,1,5.82-1.49,12.8,12.8,0,0,1,6.74,1.8,16.65,16.65,0,0,1,5,4.74,23.69,23.69,0,0,1,3.13,6.5A24,24,0,0,1,327.46,51.44Z"/><path class="cls-1" d="M343.63,66.91a4.87,4.87,0,0,1-3,2.46l-2.65,1h18.36l-2.65-1a4.82,4.82,0,0,1-3-2.46,9.6,9.6,0,0,1-.8-4L349.9,9.26l-9.39,6.84H342a1.56,1.56,0,0,1,1.17.41,3.1,3.1,0,0,1,.72,1.21,9.9,9.9,0,0,1,.38,1.63,12.5,12.5,0,0,1,.11,1.53v42A9.79,9.79,0,0,1,343.63,66.91Z"/><path class="cls-1" d="M398.79,63.56a3.18,3.18,0,0,1-.72-1.2,8.77,8.77,0,0,1-.37-1.63,11,11,0,0,1-.12-1.53V28.81L388.35,36l1.35.07a1.92,1.92,0,0,1,1.88,1,6.07,6.07,0,0,1,.52,2.56V61.09l-2.77,2.2a26.23,26.23,0,0,1-5,3.1,13.19,13.19,0,0,1-5.63,1.27,7.71,7.71,0,0,1-3.8-.86,7.22,7.22,0,0,1-2.5-2.32A10,10,0,0,1,371,61.09a18.15,18.15,0,0,1-.43-4V28.81L361.31,36l1.35.07a1.91,1.91,0,0,1,1.88,1.06,6.15,6.15,0,0,1,.52,2.52V56.16a21.5,21.5,0,0,0,.66,5.36,13.64,13.64,0,0,0,2.07,4.61,10.67,10.67,0,0,0,3.69,3.23,11.41,11.41,0,0,0,5.44,1.22,15.33,15.33,0,0,0,7.28-1.86A19.49,19.49,0,0,0,390,64l2.08-2.51v9.33L401.5,64H400A1.57,1.57,0,0,1,398.79,63.56Z"/><path class="cls-1" d="M429,66.5a8,8,0,0,1-6.81.29,6.63,6.63,0,0,1-2.2-1.71,8.21,8.21,0,0,1-1.39-2.52,9.59,9.59,0,0,1-.49-3V31.38h7.2v-2h-7.2V13.12l-.67.25a6.67,6.67,0,0,0-3.75,3.15,9.85,9.85,0,0,0-1.14,4.68v8.14h-3.28v2h3.28V57.92a20.13,20.13,0,0,0,.53,4.67,11,11,0,0,0,1.81,4,9.18,9.18,0,0,0,3.21,2.75,10.05,10.05,0,0,0,4.71,1,12.52,12.52,0,0,0,3-.38,13.18,13.18,0,0,0,2.91-1.08,12.22,12.22,0,0,0,2.54-1.75A6.89,6.89,0,0,0,433,64.59l1.34-3.24-2.19,2.74A8.58,8.58,0,0,1,429,66.5Z"/><path class="cls-1" d="M448.58,67.11a9.22,9.22,0,0,1-.76-3.83V28.88l-9.29,6.5h1.59a1.39,1.39,0,0,1,1,.37,3,3,0,0,1,.69,1.13,6.78,6.78,0,0,1,.33,1.52c.05.55.08,1,.08,1.44V63.28a9.77,9.77,0,0,1-.72,3.84,4.05,4.05,0,0,1-2.77,2.24l-3.15,1h18.73l-3-1A4.12,4.12,0,0,1,448.58,67.11Z"/><path class="cls-1" d="M444.76,23.94a3.53,3.53,0,0,0,3.7-3.7,3.67,3.67,0,0,0-1-2.68,3.63,3.63,0,0,0-2.67-1,3.77,3.77,0,0,0-2.71,1A3.55,3.55,0,0,0,441,20.24a3.55,3.55,0,0,0,1.07,2.68A3.77,3.77,0,0,0,444.76,23.94Z"/><path class="cls-1" d="M496.31,35.24a21.31,21.31,0,0,0-6.55-4.42,20,20,0,0,0-8-1.64,19.74,19.74,0,0,0-8,1.64,20.86,20.86,0,0,0-6.52,4.47,21.61,21.61,0,0,0-4.42,6.55,19.74,19.74,0,0,0-1.64,8,20,20,0,0,0,1.64,8,20.76,20.76,0,0,0,11,11,20,20,0,0,0,8,1.64,19.74,19.74,0,0,0,8-1.64,20.94,20.94,0,0,0,10.9-11,20.14,20.14,0,0,0,1.6-8,20.59,20.59,0,0,0-6-14.6Zm0,16.2a22.12,22.12,0,0,1-.86,6.06A18.34,18.34,0,0,1,492.91,63a13.76,13.76,0,0,1-4.21,3.94,11.19,11.19,0,0,1-5.86,1.49,12.5,12.5,0,0,1-6.74-1.85,17.29,17.29,0,0,1-5-4.74,22.63,22.63,0,0,1-3.13-6.5,23.9,23.9,0,0,1-1.1-7,22.14,22.14,0,0,1,.86-6.07,18.21,18.21,0,0,1,2.57-5.45,13.5,13.5,0,0,1,4.24-3.93,11.31,11.31,0,0,1,5.83-1.49,12.85,12.85,0,0,1,6.74,1.8,16.77,16.77,0,0,1,5,4.74,23.69,23.69,0,0,1,3.13,6.5A24,24,0,0,1,496.34,51.44Z"/><path class="cls-1" d="M539.62,66.92a4.51,4.51,0,0,1-2.94,2.44l-2.93,1h19l-2.92-1a4.68,4.68,0,0,1-3-2.41,9.58,9.58,0,0,1-.83-4.07V43.52a21.64,21.64,0,0,0-.66-5.37,13.35,13.35,0,0,0-2.12-4.61,10.61,10.61,0,0,0-9.08-4.44A15.38,15.38,0,0,0,526.76,31a19.51,19.51,0,0,0-5.83,4.72l-1.73,2.1,0-8.92-9.4,6.84h1.54a1.54,1.54,0,0,1,1.16.41,3,3,0,0,1,.72,1.21,8.22,8.22,0,0,1,.38,1.63,10.9,10.9,0,0,1,.12,1.53v22.4a9.63,9.63,0,0,1-.8,4A4.82,4.82,0,0,1,510,69.37l-2.65,1h18.35l-2.64-1a4.87,4.87,0,0,1-3-2.46,9.76,9.76,0,0,1-.79-4l-.06-24.56,2.43-1.93a25.74,25.74,0,0,1,5-3.1A13.19,13.19,0,0,1,532.28,32a7.78,7.78,0,0,1,3.79.85,7.35,7.35,0,0,1,2.51,2.32A10,10,0,0,1,540,38.58a19,19,0,0,1,.43,4V62.88A10,10,0,0,1,539.62,66.92Z"/><path class="cls-1" d="M166.62,89.18a10.23,10.23,0,0,1,7.5,3.15L176,90.47a3.88,3.88,0,0,0-.34-.38,12.8,12.8,0,0,0-9-3.56,9.71,9.71,0,0,0-6.74,2.39,7.74,7.74,0,0,0,.42,12,17.22,17.22,0,0,0,6,2.31.21.21,0,0,1,.11,0q4.32.95,5.19,1.28a4.42,4.42,0,0,1,1.33.84,2,2,0,0,1,.34,1.06,3.27,3.27,0,0,1-1.82,2.68,9.25,9.25,0,0,1-5,1.29,10.17,10.17,0,0,1-7.49-3.14l-1.89,1.85a2.2,2.2,0,0,0,.37.38,12.69,12.69,0,0,0,9,3.56,12.11,12.11,0,0,0,6.44-1.66.77.77,0,0,1,.19-.16,5.59,5.59,0,0,0,2.88-4.8,4.21,4.21,0,0,0-1-2.81,6.35,6.35,0,0,0-2.31-1.55,8.69,8.69,0,0,0-1-.34c-.35-.12-1.92-.49-4.69-1.1a14.92,14.92,0,0,1-5-1.89l-.19-.11a4.73,4.73,0,0,1-1.78-4,5.22,5.22,0,0,1,.54-2.34Q162,89.18,166.62,89.18Z"/><path class="cls-1" d="M189.79,86.57h-8.14v26.5h2.65V105.5h5.49a9.5,9.5,0,0,0,6.59-2.54,9.33,9.33,0,0,0,.49-13.36A9.39,9.39,0,0,0,189.79,86.57Zm5.45,13.74a6.71,6.71,0,0,1-5.45,2.54H184.3V89.22h5.49a7,7,0,0,1,4.47,1.55,6.69,6.69,0,0,1,1,9.54Z"/><path class="cls-1" d="M217.46,87.1a10.45,10.45,0,0,0-3.06-.53h-.15a10.37,10.37,0,0,0-1.21.08,9.47,9.47,0,0,0-6.63,3.86l2.12,1.59a7.84,7.84,0,0,1,1.89-1.74,6.87,6.87,0,0,1,6.17-.76,8,8,0,0,1,2.31,1.29,7.1,7.1,0,0,1,2.65,5.52,9.61,9.61,0,0,0-6.85-3.18,3.68,3.68,0,0,0-.49,0,9.77,9.77,0,0,0-6.36,2.46,9.53,9.53,0,0,0-3.45,7.08,9.88,9.88,0,0,0,2.43,7,9.48,9.48,0,0,0,7,3.45h.68a9.51,9.51,0,0,0,7.08-3.18v3.1h2.65V96.53A9.87,9.87,0,0,0,223.11,92,9.64,9.64,0,0,0,217.46,87.1Zm4.09,16.47a7.53,7.53,0,0,1-1.93,4.58,6.89,6.89,0,0,1-5.68,2.35,7.14,7.14,0,0,1-4.5-1.9,7,7,0,0,1-2.39-5.75,7.3,7.3,0,0,1,1.67-4.35,6.8,6.8,0,0,1,5.49-2.65l.38,0a7.13,7.13,0,0,1,4.5,1.82,7,7,0,0,1,2.46,5.76Z"/><path class="cls-1" d="M261.83,102.85h-2.65a7.83,7.83,0,0,1-1.36,4.32l-4-4.24c-1.46-1.57-2.6-2.82-3.4-3.75a21.12,21.12,0,0,0,2.84-2.58,6.54,6.54,0,0,0,1.81-4.31,6,6,0,0,0-1.7-4.39,5,5,0,0,0-3.26-1.37h-.49a5.74,5.74,0,0,0-2.84,1,6,6,0,0,0-2.5,5.14,10.46,10.46,0,0,0,2.12,5.64s.13.17.31.42a14.7,14.7,0,0,0-1.93,2,7.74,7.74,0,0,0-1.74,4.77,7,7,0,0,0,1.7,4.58,8.41,8.41,0,0,0,6.81,3,10,10,0,0,0,6.21-2.08l1.93,2.08h3.64l-3.68-3.94A10.15,10.15,0,0,0,261.83,102.85ZM247.18,91.19a2.72,2.72,0,0,1,2.58-2H250a2.32,2.32,0,0,1,1.55.65,3.4,3.4,0,0,1,.87,2.46,4.26,4.26,0,0,1-1.13,2.57,23.07,23.07,0,0,1-2.54,2.24,1.19,1.19,0,0,0-.19-.27A7.73,7.73,0,0,1,247,92.7,7.48,7.48,0,0,1,247.18,91.19Zm4.39,19.23a6.94,6.94,0,0,1-3.75-1,4.51,4.51,0,0,1-2.11-3.94,5.07,5.07,0,0,1,1.17-3.14,14.13,14.13,0,0,1,1.51-1.52c.78.94,2,2.24,3.52,3.9l4.05,4.32A7.51,7.51,0,0,1,251.57,110.42Z"/><path class="cls-1" d="M291.85,89.18a10.24,10.24,0,0,1,7.5,3.15l1.85-1.86a3.88,3.88,0,0,0-.34-.38,12.8,12.8,0,0,0-9-3.56,9.71,9.71,0,0,0-6.74,2.39,7.74,7.74,0,0,0,.42,12,17.22,17.22,0,0,0,6,2.31.24.24,0,0,1,.11,0q4.32.95,5.19,1.28a4.23,4.23,0,0,1,1.32.84,1.91,1.91,0,0,1,.34,1.06,3.26,3.26,0,0,1-1.81,2.68,9.28,9.28,0,0,1-5,1.29,10.15,10.15,0,0,1-7.49-3.14l-1.9,1.85a2.27,2.27,0,0,0,.38.38,12.69,12.69,0,0,0,9,3.56,12.11,12.11,0,0,0,6.44-1.66.77.77,0,0,1,.19-.16,5.58,5.58,0,0,0,2.87-4.8,4.25,4.25,0,0,0-1-2.81,6.35,6.35,0,0,0-2.31-1.55,8.69,8.69,0,0,0-1-.34c-.35-.12-1.92-.49-4.69-1.1a14.83,14.83,0,0,1-5-1.89l-.19-.11a4.73,4.73,0,0,1-1.78-4,5.35,5.35,0,0,1,.53-2.34Q287.2,89.18,291.85,89.18Z"/><path class="cls-1" d="M319.22,87.1a10.45,10.45,0,0,0-3.06-.53H316a10.66,10.66,0,0,0-1.21.08,9.45,9.45,0,0,0-6.62,3.86l2.12,1.59a7.84,7.84,0,0,1,1.89-1.74,6.87,6.87,0,0,1,6.17-.76,8.23,8.23,0,0,1,2.31,1.29,7.1,7.1,0,0,1,2.65,5.52,9.63,9.63,0,0,0-6.85-3.18,3.79,3.79,0,0,0-.49,0,9.77,9.77,0,0,0-6.36,2.46,9.53,9.53,0,0,0-3.45,7.08,9.91,9.91,0,0,0,2.42,7,9.52,9.52,0,0,0,7,3.45h.68a9.53,9.53,0,0,0,7.08-3.18v3.1H326V96.53a9.88,9.88,0,0,0-1.1-4.54A9.59,9.59,0,0,0,319.22,87.1Zm4.09,16.47a7.59,7.59,0,0,1-1.93,4.58,6.9,6.9,0,0,1-5.68,2.35,7.09,7.09,0,0,1-4.5-1.9,7,7,0,0,1-2.39-5.75,7.3,7.3,0,0,1,1.67-4.35A6.8,6.8,0,0,1,316,95.85a2.31,2.31,0,0,1,.37,0,7.16,7.16,0,0,1,4.51,1.82,7,7,0,0,1,2.46,5.76Z"/><polygon class="cls-1" points="334.97 86.57 332.32 86.57 332.32 113.07 333.12 113.07 334.97 113.07 347.46 113.07 347.46 110.42 334.97 110.42 334.97 86.57"/><path class="cls-1" d="M362.53,86.57h-.61a12.53,12.53,0,0,0-8.85,4.05,12.8,12.8,0,0,0-3.71,9.2v.57a12.88,12.88,0,0,0,4,9,12.7,12.7,0,0,0,9.16,3.71h.57a12.57,12.57,0,0,0,8.86-4,12.83,12.83,0,0,0,3.71-9.2v-.57a12.91,12.91,0,0,0-4-9A12.66,12.66,0,0,0,362.53,86.57Zm7.57,20.6A10.52,10.52,0,0,1,352,99.82a10.38,10.38,0,0,1,2.91-7.34A10.52,10.52,0,0,1,373,99.82,10.4,10.4,0,0,1,370.1,107.17Z"/><path class="cls-1" d="M390.77,86.57A9.72,9.72,0,0,0,384,89.3V86.57h-2.65v26.5H384V95.51a5.89,5.89,0,0,1,1.43-3.87,6.72,6.72,0,0,1,5.38-2.42,7,7,0,0,1,4.32,1.44,5.77,5.77,0,0,1,2.49,4.85v17.56h2.65V95.51a8.42,8.42,0,0,0-2.46-6A9.35,9.35,0,0,0,390.77,86.57Z"/></svg>