<svg id="Capa_1" data-name="Capa 1" xmlns="http://www.w3.org/2000/svg" viewBox="0 0 62.64 292.32"><defs><style>.cls-1{fill:#828c7a;opacity:0.8;}</style></defs><path class="cls-1" d="M37,233.93a3.39,3.39,0,0,0-2.94-1.42,3.7,3.7,0,0,0-2.36.74,3.77,3.77,0,0,0-1.28,2,3.46,3.46,0,0,0-3.29-2,3.27,3.27,0,0,0-2.79,1.39,6.54,6.54,0,0,0-1,3.9l0,6.59,14.7-.07,0-7A7.11,7.11,0,0,0,37,233.93Zm-11.92,9.16,0-4.3a4.37,4.37,0,0,1,.58-2.49,2.21,2.21,0,0,1,3.51,0,4.34,4.34,0,0,1,.61,2.48l0,4.31Zm6.4,0,0-4.83q0-3.58,2.44-3.6a2,2,0,0,1,1.85.89,4.89,4.89,0,0,1,.6,2.69l0,4.83Z"/><path class="cls-1" d="M31.62,216.12l-8.36,0v2l8.27,0a5.11,5.11,0,0,1,3.57,1.05,4,4,0,0,1,1.18,3.08q0,4.14-4.71,4.16l-8.27,0v2.1l8.36,0a6.63,6.63,0,0,0,4.82-1.66,7.08,7.08,0,0,0,0-9.16A6.63,6.63,0,0,0,31.62,216.12Z"/><polygon class="cls-1" points="23.18 199.76 23.19 201.84 30.96 206.53 23.23 211.27 23.25 213.51 32.79 207.63 37.92 207.6 37.91 205.53 32.83 205.55 23.18 199.76"/><path class="cls-1" d="M37.83,190.3l-3.68-1.6,0-7.81,3.67-1.64v-2.2L23.1,183.8v2.08l14.73,6.58Zm-12.58-5.46,7.19-3.21,0,6.34Z"/><path class="cls-1" d="M36,155.34l-5.74,0v2l4.79,0a6.26,6.26,0,0,1,1,3.43,6,6,0,0,1-.72,3,5.37,5.37,0,0,1-2,2.1,5.61,5.61,0,0,1-2.88.77,5.68,5.68,0,0,1-2.91-.74,5.34,5.34,0,0,1-2-2.08,6.24,6.24,0,0,1-.74-3,5.93,5.93,0,0,1,1.68-4.27l-1.3-1.3a6.55,6.55,0,0,0-1.68,2.45,8.69,8.69,0,0,0-.57,3.21,8.45,8.45,0,0,0,1,4,7.13,7.13,0,0,0,2.7,2.8,7.81,7.81,0,0,0,7.72,0,7.15,7.15,0,0,0,2.67-2.81,8.18,8.18,0,0,0,1-4,9.24,9.24,0,0,0-.5-3A7.81,7.81,0,0,0,36,155.34Z"/><rect class="cls-1" x="22.94" y="148.42" width="14.7" height="2.1" transform="translate(-0.71 0.15) rotate(-0.27)"/><polygon class="cls-1" points="31.62 133.69 29.81 133.7 29.85 141.07 24.73 141.1 24.68 132.82 22.86 132.83 22.91 143.21 37.61 143.14 37.6 141.04 31.65 141.06 31.62 133.69"/><polygon class="cls-1" points="37.52 123.86 24.64 123.92 24.62 118.88 22.79 118.89 22.85 131.05 24.68 131.04 24.65 126 37.52 125.94 37.52 123.86"/><path class="cls-1" d="M35.24,97,33.93,98.4a5.51,5.51,0,0,1,1.78,4.13,5.94,5.94,0,0,1-.72,3,5.29,5.29,0,0,1-2,2.07,6,6,0,0,1-5.77,0,5.38,5.38,0,0,1-2-2.06,6.07,6.07,0,0,1-.75-3,5.49,5.49,0,0,1,1.73-4.15l-1.33-1.36a6.41,6.41,0,0,0-1.7,2.44,8.3,8.3,0,0,0-.56,3.16,8,8,0,0,0,1,4,7.15,7.15,0,0,0,2.7,2.78,7.9,7.9,0,0,0,7.71,0,7.12,7.12,0,0,0,2.67-2.8,8,8,0,0,0,1-4,8.31,8.31,0,0,0-.6-3.16A6.57,6.57,0,0,0,35.24,97Z"/><path class="cls-1" d="M22.65,89.17l14.73,6.59V93.6L33.69,92l0-7.81,3.67-1.64v-2.2L22.64,87.1ZM32,84.93l0,6.34-7.21-3.14Z"/><path class="cls-1" d="M30.56,66.33a4.93,4.93,0,0,0-2.9-.83,4.61,4.61,0,0,0-3.75,1.66,6.79,6.79,0,0,0-1.35,4.5l0,5.73,14.7-.07v-2.1l-4.47,0,0-3.64c0-.22,0-.53,0-.92l4.5-3.19V65.21l-4.92,3.51A4.7,4.7,0,0,0,30.56,66.33Zm-6.15,9,0-3.58a4.65,4.65,0,0,1,.84-3,3,3,0,0,1,2.44-1.07,3,3,0,0,1,2.46,1,4.71,4.71,0,0,1,.88,3v3.57Z"/><path class="cls-1" d="M37.21,61.22l0-6.2a8.88,8.88,0,0,0-.94-4.13,6.77,6.77,0,0,0-2.61-2.79,7.26,7.26,0,0,0-3.83-1,7.34,7.34,0,0,0-3.83,1A6.78,6.78,0,0,0,23.39,51a9.07,9.07,0,0,0-.91,4.14l0,6.2ZM25,52.07A5,5,0,0,1,26.92,50a6,6,0,0,1,5.78,0A5.09,5.09,0,0,1,34.65,52a6.82,6.82,0,0,1,.71,3.14l0,4-11.05,0,0-4A6.82,6.82,0,0,1,25,52.07Z"/><path class="cls-1" d="M16.32,5.16a11,11,0,0,0-11,11v260a11,11,0,0,0,11,11h41V5.16Zm39,280h-39a9,9,0,0,1-9-9v-260a9,9,0,0,1,9-9h39Z"/></svg>