<svg id="Capa_1" data-name="Capa 1" xmlns="http://www.w3.org/2000/svg" viewBox="0 0 270 270"><polygon points="93.69 238.63 86.77 253.52 82.03 233.22 80.98 232.73 73.01 249.87 74.26 250.45 81.18 235.56 85.94 255.88 86.97 256.35 94.94 239.21 93.69 238.63"/><path d="M107.35,242.92l-13,16.22,1.44.36,3.62-4.57L110,257.6l1.06,5.75,1.44.36-3.83-20.45Zm-7.16,11,7.45-9.38,2.16,11.79Z"/><polygon points="117.43 246.54 124.2 247.15 122.62 264.74 123.99 264.86 125.58 247.27 132.35 247.89 132.47 246.65 117.54 245.3 117.43 246.54"/><path d="M151.41,245.46l-1.38.11.87,10.79a7.42,7.42,0,0,1-1.17,5.32,7,7,0,0,1-9.17.74,7.48,7.48,0,0,1-2-5.07l-.87-10.79-1.37.12.87,10.84c.22,2.66,1,4.62,2.47,5.9a8.55,8.55,0,0,0,11.13-.9q1.82-2.24,1.5-6.22Z"/><path d="M174,250.3a6.13,6.13,0,0,0,.09-3.94,5.75,5.75,0,0,0-3.2-4,8.47,8.47,0,0,0-5.84-.13l-6.53,1.81,5.06,18.21,1.33-.36-1.66-6,5.2-1.45a13.18,13.18,0,0,0,1.74-.62l6,4.88,1.51-.42-6.32-5.11A6.12,6.12,0,0,0,174,250.3Zm-5.87,3-5.2,1.45-2.75-9.89,5.2-1.44a7,7,0,0,1,4.81,0,5.31,5.31,0,0,1,2,7.31A7,7,0,0,1,168.15,253.34Z"/><path d="M182.93,235.56l.4,20.8,1.34-.65-.16-5.83,9.87-4.78,4.5,3.73,1.34-.65L184.17,235Zm10.49,8.72-8.93,4.32-.3-12Z"/><polygon points="206.95 242.19 196.76 227.77 195.64 228.57 206.54 244 216.56 236.93 215.84 235.91 206.95 242.19"/><rect x="221.64" y="218.22" width="6.94" height="1.22" transform="translate(-88.43 234.69) rotate(-47.08)"/><path d="M245,186a9.57,9.57,0,0,0-4.91-1.3,9.2,9.2,0,0,0-4.72,1.38,10.77,10.77,0,0,0-4.93,8.76,9.3,9.3,0,0,0,1.27,4.76,9.91,9.91,0,0,0,8.51,4.8A9.15,9.15,0,0,0,245,203a10.08,10.08,0,0,0,3.56-3.76,10.27,10.27,0,0,0,1.39-5,9.19,9.19,0,0,0-1.26-4.76A9.44,9.44,0,0,0,245,186Zm2.41,12.65a8.78,8.78,0,0,1-3.06,3.22,7.89,7.89,0,0,1-4.09,1.17,8.69,8.69,0,0,1-7.41-4.18,7.87,7.87,0,0,1-1.1-4.11,9.08,9.08,0,0,1,4.22-7.49,8,8,0,0,1,4.09-1.16,8.24,8.24,0,0,1,4.24,1.12,8.33,8.33,0,0,1,3.17,3.06,8,8,0,0,1,1.11,4.1A8.59,8.59,0,0,1,247.41,198.64Z"/><path d="M252.53,166.72a6.14,6.14,0,0,0-3.22-2.27,5.78,5.78,0,0,0-5.08.44,8.47,8.47,0,0,0-3.36,4.77l-2.14,6.44,17.93,6,.44-1.3-5.87-1.95,1.7-5.13a12.47,12.47,0,0,0,.45-1.78l7.42-2.29.5-1.48-7.77,2.39A6.15,6.15,0,0,0,252.53,166.72Zm-.75,6.57-1.7,5.13-9.74-3.24,1.7-5.12a7,7,0,0,1,2.73-4,5.31,5.31,0,0,1,7.2,2.39A7,7,0,0,1,251.78,173.29Z"/><path d="M262.93,144.17l-7-.93-.17,1.31,6.45.86a8.24,8.24,0,0,1,1,5.55,8.69,8.69,0,0,1-1.66,4.19,8,8,0,0,1-3.37,2.64,8.16,8.16,0,0,1-4.34.56,8.34,8.34,0,0,1-4.07-1.66,7.86,7.86,0,0,1-2.55-3.43,8.88,8.88,0,0,1-.49-4.49,9.42,9.42,0,0,1,.95-3.16,7.1,7.1,0,0,1,2.05-2.41l-.8-1a8.22,8.22,0,0,0-2.31,2.71,10.56,10.56,0,0,0-1.15,3.7,10.4,10.4,0,0,0,.55,5.21,9.22,9.22,0,0,0,2.94,4,9.61,9.61,0,0,0,4.7,1.91,9.49,9.49,0,0,0,5-.62,9.11,9.11,0,0,0,3.87-3.06,10.25,10.25,0,0,0,1.89-4.85,10.92,10.92,0,0,0-.12-3.79A8.09,8.09,0,0,0,262.93,144.17Z"/><path d="M246.29,129.52l19.36,7.62-.09-1.48-5.44-2.1-.62-10.94,5.18-2.73-.09-1.48-18.38,9.74Zm12.08-6.33.56,9.9-11.17-4.32Z"/><polygon points="241.48 101.69 257.4 97.67 244.63 114.15 244.91 115.28 263.24 110.65 262.9 109.31 246.99 113.33 259.75 96.83 259.47 95.73 241.15 100.36 241.48 101.69"/><rect x="237.26" y="88.23" width="18.9" height="1.38" transform="translate(-15.26 100.81) rotate(-22.42)"/><path d="M234.06,81.57a9.21,9.21,0,0,0,4.73,1.33A10.05,10.05,0,0,0,247.3,78a9.18,9.18,0,0,0,1.21-4.76,10,10,0,0,0-1.43-5,10.27,10.27,0,0,0-2.47-2.93,7.91,7.91,0,0,0-3.18-1.57L241.09,65A8,8,0,0,1,246,68.85a8.75,8.75,0,0,1,1.22,4.29,7.74,7.74,0,0,1-1.06,4.13,8.69,8.69,0,0,1-7.36,4.26,8,8,0,0,1-4.11-1.15,8.9,8.9,0,0,1-3.1-3.2,8,8,0,0,1-1-6.15l-1.2-.3a7.59,7.59,0,0,0-.22,3.52,10.52,10.52,0,0,0,1.31,3.61A10.14,10.14,0,0,0,234.06,81.57Z"/><rect x="224.87" y="48.1" width="1.22" height="6.94" transform="translate(24.67 166.37) rotate(-42.64)"/><polygon points="192.43 39.22 208.48 29.54 204.97 47.95 206.22 48.82 210.09 28.49 208.97 27.7 191.25 38.41 192.43 39.22"/><polygon points="195.63 19.52 183.82 13.99 183.29 15.11 193.85 20.07 190.56 27.08 181.45 22.8 180.93 23.9 190.05 28.18 186.88 34.93 176.69 30.14 176.16 31.27 187.6 36.63 195.63 19.52"/><path d="M162.46,27.17a10.48,10.48,0,0,0,5.24.1,9.12,9.12,0,0,0,4.3-2.41,9.55,9.55,0,0,0,2.5-4.42,9.63,9.63,0,0,0,0-5.08A9.17,9.17,0,0,0,172,11.14a10.39,10.39,0,0,0-4.58-2.5,11.29,11.29,0,0,0-3.77-.35,8.11,8.11,0,0,0-3.37,1l-1.82,6.84,1.28.34,1.67-6.29A8.23,8.23,0,0,1,167,9.86,8.74,8.74,0,0,1,171,12a8.13,8.13,0,0,1,2.2,3.69,8.31,8.31,0,0,1,0,4.37A8.43,8.43,0,0,1,171,23.92,7.88,7.88,0,0,1,167.28,26a8.9,8.9,0,0,1-4.52-.08,9.51,9.51,0,0,1-3-1.34,7.07,7.07,0,0,1-2.13-2.34l-1.07.66a8.22,8.22,0,0,0,2.39,2.64A10.84,10.84,0,0,0,162.46,27.17Z"/><path d="M149.38,10.7l-10.93-.78-2-5.48-1.48-.1,7.32,19.47,1.38.1,10-18.24-1.48-.1Zm-6.33,11.65-4.17-11.23,9.88.7Z"/><polygon points="128.15 23.6 129.3 23.46 127.02 4.7 125.65 4.86 127.64 21.16 112.87 6.42 111.74 6.55 114.03 25.32 115.39 25.15 113.41 8.86 128.15 23.6"/><rect x="89.19" y="18.86" width="6.94" height="1.22" transform="translate(-1.05 33.02) rotate(-20.09)"/><path d="M77,38.55a9.17,9.17,0,0,0,1.1-4.78,10.07,10.07,0,0,0-5.31-8.27,9.1,9.1,0,0,0-4.81-1,10.17,10.17,0,0,0-4.88,1.66,10.48,10.48,0,0,0-2.81,2.6A7.9,7.9,0,0,0,58.85,32l1.21.28a7.89,7.89,0,0,1,3.66-5,8.76,8.76,0,0,1,4.22-1.43,8,8,0,0,1,4.18.87,8.75,8.75,0,0,1,4.59,7.15A7.84,7.84,0,0,1,75.76,38a8.7,8.7,0,0,1-3.06,3.24,7.87,7.87,0,0,1-6.09,1.25l-.25,1.22a7.78,7.78,0,0,0,3.53.06,10.44,10.44,0,0,0,3.54-1.49A10.09,10.09,0,0,0,77,38.55Z"/><path d="M49.51,36.51,53.74,41,49.8,44.71a14,14,0,0,0-1.24,1.35l-7.62-1.52L39.8,45.61l8,1.59A6.1,6.1,0,0,0,46.85,51a6,6,0,0,0,1.74,3.54,5.75,5.75,0,0,0,4.68,2A8.51,8.51,0,0,0,58.5,54l4.94-4.63L50.52,35.56ZM61.59,49.39l-3.94,3.69a7,7,0,0,1-4.28,2.19,5.31,5.31,0,0,1-5.19-5.54,6.94,6.94,0,0,1,2.45-4.13l3.94-3.7Z"/><path d="M31.51,69.41l8.81,6.37.81-1.11-8.77-6.35A7.4,7.4,0,0,1,29.07,64a5.92,5.92,0,0,1,1.28-4.73,6,6,0,0,1,4.11-2.73,7.45,7.45,0,0,1,5.16,1.76l8.77,6.34.81-1.11-8.82-6.38q-3.24-2.34-6.09-2a7.33,7.33,0,0,0-4.95,3.3,7.42,7.42,0,0,0-1.59,5.75A8.48,8.48,0,0,0,31.51,69.41Z"/><polygon points="20.19 75.89 27.2 79.2 22.9 88.31 24 88.83 28.3 79.72 35.04 82.9 30.24 93.08 31.36 93.61 36.75 82.18 19.66 74.12 14.09 85.91 15.22 86.44 20.19 75.89"/><polygon points="11.9 96.13 28.86 101.04 29.24 99.72 11.09 94.46 7.67 106.23 8.87 106.58 11.9 96.13"/><polygon points="22.44 125.97 23.67 126.16 25.87 111.33 24.64 111.15 23.64 117.88 6.18 115.29 5.97 116.65 23.44 119.24 22.44 125.97"/><polygon points="23.64 144.04 23.63 142.6 12.46 135.85 23.53 128.94 23.52 127.43 11.18 135.13 4.67 135.18 4.68 136.56 11.19 136.51 23.64 144.04"/><polygon points="15.7 161.08 16.93 160.87 15.27 150.94 23.23 149.61 25.08 160.72 26.31 160.51 24.23 148.05 5.59 151.16 5.82 152.51 14.04 151.14 15.7 161.08"/><path d="M22.53,181.54a6.1,6.1,0,0,0,3.94-.16,5.8,5.8,0,0,0,3.75-3.46,8.48,8.48,0,0,0-.26-5.83l-2.24-6.4L9.89,171.93l.45,1.3,5.84-2,1.78,5.1a14.38,14.38,0,0,0,.73,1.69l-4.47,6.34.52,1.48,4.68-6.65A6.09,6.09,0,0,0,22.53,181.54Zm-5.21-10.75L27,167.4l1.78,5.1a6.93,6.93,0,0,1,.26,4.8A4.66,4.66,0,0,1,26,180.05a4.68,4.68,0,0,1-4.11-.25,7,7,0,0,1-2.78-3.91Z"/><polygon points="32.09 199.48 33.15 198.88 28.21 190.1 34.71 186.45 40.23 196.26 41.31 195.66 35.12 184.64 18.64 193.9 25.03 205.27 26.11 204.66 20.4 194.49 27.15 190.7 32.09 199.48"/><polygon points="30.34 212.84 38.56 222.96 39.53 222.18 32.17 213.13 38.18 208.24 44.53 216.05 45.48 215.29 39.12 207.47 44.91 202.77 52.01 211.51 52.97 210.72 45 200.92 30.34 212.84"/><rect x="57.73" y="227.81" width="1.21" height="6.94" transform="translate(-158.99 132.97) rotate(-51.5)"/></svg>