<svg id="Capa_1" data-name="Capa 1" xmlns="http://www.w3.org/2000/svg" viewBox="0 0 44.16 245.52"><defs><style>.cls-1{fill:#232323;}</style></defs><path class="cls-1" d="M16.34,20.56c2.84,0,4.82-1.82,6.66-4l1.72-2.08c1.32-1.55,2.48-2.35,3.8-2.35,1.75,0,2.87,1.32,2.87,3.54a5.41,5.41,0,0,1-.93,3.13H33a6.13,6.13,0,0,0,.82-3.33c0-3.73-2.14-6-5.15-6-2.57,0-4.45,1.65-6,3.5l-1.62,1.94c-1.58,1.88-2.9,2.87-4.62,2.87-2.44,0-3.57-2-3.57-4.19a6.22,6.22,0,0,1,1.85-4.39H12a6.84,6.84,0,0,0-1.65,4.69C10.3,17.56,12.67,20.56,16.34,20.56Z"/><path class="cls-1" d="M22.08,25.84A11.6,11.6,0,0,0,10.3,37.65,10.86,10.86,0,0,0,13,45l2.08-1.42a8.46,8.46,0,0,1-2.15-5.81,8.91,8.91,0,0,1,9.18-9,8.91,8.91,0,0,1,9.21,9,8.29,8.29,0,0,1-2.18,5.81L31.19,45a10.71,10.71,0,0,0,2.67-7.33A11.6,11.6,0,0,0,22.08,25.84Z"/><path class="cls-1" d="M10.53,64.71l7.62-6a7.47,7.47,0,0,0,7.49,5.71c4.56,0,8-3.27,8-9.51V50.75H10.53v2.71h7.13v1.48c0,.4,0,.8,0,1.16l-7.16,5.54ZM20,53.46H31.26v1.45c0,4.52-2.15,6.83-5.62,6.83S20,59.43,20,54.91Z"/><path class="cls-1" d="M22.08,69.83A11.68,11.68,0,1,0,33.86,81.51,11.78,11.78,0,0,0,22.08,69.83Zm0,20.49a8.82,8.82,0,1,1,0-17.62,8.82,8.82,0,1,1,0,17.62Z"/><polygon class="cls-1" points="10.53 108.7 12.84 108.7 12.84 102.36 33.63 102.36 33.63 99.63 10.53 99.63 10.53 108.7"/><polygon class="cls-1" points="10.53 123.88 12.84 123.88 12.84 117.54 33.63 117.54 33.63 114.81 10.53 114.81 10.53 123.88"/><rect class="cls-1" x="20.58" y="136.35" width="3" height="100"/></svg>