<svg id="Capa_1" data-name="Capa 1" xmlns="http://www.w3.org/2000/svg" viewBox="0 0 55.98 60"><defs><style>.cls-1{fill:#828c7a;opacity:0.7;}.cls-2{fill:#fbfbfb;}</style></defs><path class="cls-1" d="M12.91,1h40a0,0,0,0,1,0,0V58.79a0,0,0,0,1,0,0h-40a10,10,0,0,1-10-10V11A10,10,0,0,1,12.91,1Z"/><path class="cls-2" d="M42.89,46.23c-.2-1.63-.31-3.27-.45-4.9l-.6-6.7q-.35-3.81-.68-7.62c-.15-1.65-.29-3.31-.45-5a1.32,1.32,0,0,0-1.49-1.31H34.84c0-.77,0-1.5,0-2.23a6.94,6.94,0,0,0-13.62-1.67A13.43,13.43,0,0,0,21,20.24v.49H16.58a1.34,1.34,0,0,0-1.49,1.38Q14.57,28,14,33.92c-.37,4.08-.71,8.16-1.1,12.24A1.56,1.56,0,0,0,13.87,48H41.94A1.51,1.51,0,0,0,42.89,46.23ZM24.23,16.37a4.39,4.39,0,0,1,4.84-1.87,4.31,4.31,0,0,1,3.16,4c0,.72,0,1.44,0,2.18H23.58C23.62,19.22,23.36,17.73,24.23,16.37Z"/></svg>