<svg id="Capa_1" data-name="Capa 1" xmlns="http://www.w3.org/2000/svg" viewBox="0 0 55.98 60.72"><defs><style>.cls-1{fill:#fbfbfb;stroke:#828c7a;stroke-miterlimit:10;}.cls-1,.cls-2{opacity:0.7;}.cls-2{fill:#828c7a;}</style></defs><path class="cls-1" d="M13.09,1.68h40a0,0,0,0,1,0,0V59.51a0,0,0,0,1,0,0h-40a10,10,0,0,1-10-10V11.68A10,10,0,0,1,13.09,1.68Z"/><path class="cls-2" d="M43.07,47c-.2-1.63-.31-3.27-.45-4.9l-.6-6.7q-.35-3.81-.68-7.62c-.15-1.65-.29-3.31-.45-5a1.31,1.31,0,0,0-1.49-1.31H35c0-.77,0-1.5,0-2.23A6.94,6.94,0,0,0,21.4,17.55,13.43,13.43,0,0,0,21.14,21v.49H16.76a1.34,1.34,0,0,0-1.49,1.38q-.54,5.91-1.06,11.81c-.37,4.08-.71,8.16-1.1,12.24a1.56,1.56,0,0,0,.94,1.85H42.12A1.51,1.51,0,0,0,43.07,47ZM24.41,17.09a4.39,4.39,0,0,1,4.84-1.87,4.31,4.31,0,0,1,3.16,4c0,.72,0,1.44,0,2.18H23.76C23.8,19.94,23.54,18.45,24.41,17.09Z"/></svg>