<svg id="Capa_1" data-name="Capa 1" xmlns="http://www.w3.org/2000/svg" viewBox="0 0 559.2 138.24"><defs><style>.cls-1{fill:#191919;}</style></defs><path class="cls-1" d="M49,73.05a4.5,4.5,0,0,1,2,1.17A6.33,6.33,0,0,1,52.06,76a8.23,8.23,0,0,1,.52,2.2,21.61,21.61,0,0,1,.13,2.38c0,.62,0,1.27,0,1.94s-.05,1.34-.05,2a7.46,7.46,0,0,1-1.5,4.54,14.11,14.11,0,0,1-3.84,3.52,19.71,19.71,0,0,1-5,2.21,18.63,18.63,0,0,1-4.91.75,19,19,0,0,1-10-2.71,26.51,26.51,0,0,1-7.63-7,34.5,34.5,0,0,1-4.87-9.63,33.26,33.26,0,0,1-1.73-10.34,33.62,33.62,0,0,1,1.43-9.45,30.65,30.65,0,0,1,4.2-8.82,23.23,23.23,0,0,1,6.78-6.48,16.93,16.93,0,0,1,9.15-2.5,18.85,18.85,0,0,1,6.17,1,25.26,25.26,0,0,1,5.69,2.85,30.66,30.66,0,0,1,5,4.16,40.61,40.61,0,0,1,4,4.88l.68,1V42.6L56,42.49a20.17,20.17,0,0,0-4.33-2.69,30.37,30.37,0,0,0-5-1.81,38.58,38.58,0,0,0-5.28-1,45.32,45.32,0,0,0-5.06-.3,31,31,0,0,0-12,2.32A30.16,30.16,0,0,0,5.7,67.09,29.78,29.78,0,0,0,8.12,79a30.46,30.46,0,0,0,6.54,9.64,30.76,30.76,0,0,0,21.68,8.82,24.08,24.08,0,0,0,7.86-1.26,63.7,63.7,0,0,0,7.24-3l.85-.34a2.29,2.29,0,0,1,2.2.3,7,7,0,0,1,1.37,1.22,11.63,11.63,0,0,1,1.2,1.57c.37.56.69,1.07,1,1.52l.69,1.11V79a7.93,7.93,0,0,1,.89-3.62,4.61,4.61,0,0,1,2.76-2.32l2.19-.73H46.64Z"/><path class="cls-1" d="M102.89,93.83a2.75,2.75,0,0,1-2.76-1.45,7.82,7.82,0,0,1-.77-3.45V67.43c0-4.44-1-7.84-3.07-10.11s-5.4-3.44-10-3.44a18.21,18.21,0,0,0-4.47.69,24.59,24.59,0,0,0-5.1,2,16.58,16.58,0,0,0-4.22,3.14,6,6,0,0,0-1.8,4.17,4,4,0,0,0,.84,2.56,3,3,0,0,0,2.51,1.13c2.36,0,3.6-1.22,3.6-3.52a7.74,7.74,0,0,0-.22-1.88,7.11,7.11,0,0,1-.2-1.69,3,3,0,0,1,.83-2.17,6.73,6.73,0,0,1,2.17-1.48A13,13,0,0,1,83,55.94a12.55,12.55,0,0,1,2.51-.29,7,7,0,0,1,3.92,1A8.51,8.51,0,0,1,92,59.37a11.38,11.38,0,0,1,1.4,3.71,20.81,20.81,0,0,1,.42,4.09v4.59A7.94,7.94,0,0,1,91,73c-1.46.4-3.14.8-5,1.19s-3.84.9-5.81,1.5a24.79,24.79,0,0,0-5.53,2.37,13.32,13.32,0,0,0-4.19,3.85,10,10,0,0,0-1.69,5.91,8.78,8.78,0,0,0,1,4.21,9.14,9.14,0,0,0,2.57,3A10.83,10.83,0,0,0,76,96.82a16,16,0,0,0,4.22.56,21.06,21.06,0,0,0,6.92-1.08A15.41,15.41,0,0,0,93,92.51l-.48-.57A15.1,15.1,0,0,1,88,94a18.52,18.52,0,0,1-4.91.67,7.92,7.92,0,0,1-5.53-1.94,7,7,0,0,1-2.09-5.34,9,9,0,0,1,1.87-5.92A14.87,14.87,0,0,1,82,77.79a31.39,31.39,0,0,1,6.13-2.31c2-.55,4-1.08,5.69-1.6V88.93a20.74,20.74,0,0,0,.22,3.12A7.37,7.37,0,0,0,95,94.73a5.2,5.2,0,0,0,2,1.92,6.42,6.42,0,0,0,3.24.73,7.45,7.45,0,0,0,3.81-1.2,5.46,5.46,0,0,0,2.59-3.06l.35-1.18-1,.78A4.74,4.74,0,0,1,102.89,93.83Z"/><path class="cls-1" d="M122.11,94a10,10,0,0,1-.82-4.14V53.62l-9.21,6.45h1.18a1.64,1.64,0,0,1,1.23.44,3.34,3.34,0,0,1,.76,1.26,6.87,6.87,0,0,1,.36,1.65,15.41,15.41,0,0,1,.08,1.54V89.87a10.68,10.68,0,0,1-.77,4.14,4.47,4.47,0,0,1-3,2.47l-2.36.73h17.87l-2.28-.73A4.53,4.53,0,0,1,122.11,94Z"/><path class="cls-1" d="M118.19,47.91a3.78,3.78,0,1,0,0-7.55,3.85,3.85,0,0,0-2.76,1,3.64,3.64,0,0,0-1.1,2.74,3.6,3.6,0,0,0,1.1,2.73A3.85,3.85,0,0,0,118.19,47.91Z"/><path class="cls-1" d="M167,93.83a2.75,2.75,0,0,1-2.76-1.45,7.82,7.82,0,0,1-.77-3.45V67.43c0-4.44-1-7.84-3.07-10.11s-5.4-3.44-10-3.44a18.35,18.35,0,0,0-4.48.69,24.73,24.73,0,0,0-5.09,2,16.58,16.58,0,0,0-4.22,3.14,5.93,5.93,0,0,0-1.8,4.17,4,4,0,0,0,.84,2.56,3,3,0,0,0,2.51,1.13c2.36,0,3.6-1.22,3.6-3.52a7.74,7.74,0,0,0-.22-1.88,6.63,6.63,0,0,1-.2-1.69,3,3,0,0,1,.83-2.17,6.73,6.73,0,0,1,2.17-1.48,13.12,13.12,0,0,1,2.77-.87,12.64,12.64,0,0,1,2.52-.29,7,7,0,0,1,3.92,1,8.51,8.51,0,0,1,2.56,2.68,11.61,11.61,0,0,1,1.4,3.71,20.81,20.81,0,0,1,.42,4.09v4.59A8,8,0,0,1,155.07,73c-1.46.4-3.14.8-5,1.19s-3.84.9-5.81,1.5a24.59,24.59,0,0,0-5.53,2.37,13.32,13.32,0,0,0-4.19,3.85,10,10,0,0,0-1.69,5.91,8.78,8.78,0,0,0,1,4.21,9.14,9.14,0,0,0,2.57,3,10.83,10.83,0,0,0,3.66,1.77,16,16,0,0,0,4.22.56,21.06,21.06,0,0,0,6.92-1.08,15.49,15.49,0,0,0,5.84-3.79l-.48-.57A15.1,15.1,0,0,1,152.09,94a18.52,18.52,0,0,1-4.91.67,7.92,7.92,0,0,1-5.53-1.94,7,7,0,0,1-2.09-5.34,9,9,0,0,1,1.87-5.92,14.87,14.87,0,0,1,4.69-3.69,31.15,31.15,0,0,1,6.13-2.31c2.05-.55,4-1.08,5.69-1.6V88.93a22.18,22.18,0,0,0,.21,3.12,7.58,7.58,0,0,0,.9,2.68,5.2,5.2,0,0,0,2,1.92,6.4,6.4,0,0,0,3.24.73,7.45,7.45,0,0,0,3.81-1.2,5.46,5.46,0,0,0,2.59-3.06l.35-1.18-.95.78A4.76,4.76,0,0,1,167,93.83Z"/><path class="cls-1" d="M235.05,93.19a17.85,17.85,0,0,1-8.91,2.25H212v-28h9.66a11,11,0,0,1,4.77,1,5.85,5.85,0,0,1,3,3.65l.73,2.19V58.74l-.73,2.19a6.05,6.05,0,0,1-3,3.7,10.63,10.63,0,0,1-4.76,1.06H212v-27h14.25c6.5,0,11.4,3,14.54,8.9l1.32,2.47-3-13.14H199.27l2.37.74a4.54,4.54,0,0,1,3,2.42,10.22,10.22,0,0,1,.77,4V89.87a10.62,10.62,0,0,1-.78,4.1,4.42,4.42,0,0,1-3,2.51l-2.37.73h40.26l3.25-13.34-1.41,2.68A16,16,0,0,1,235.05,93.19Z"/><path class="cls-1" d="M287.38,56.74a8.4,8.4,0,0,1,4.19-2l-.06-.75h-13l-.06.75a3.89,3.89,0,0,1,2.81,1.78,6.29,6.29,0,0,1,1,3.37,5.92,5.92,0,0,1-.31,2L270.17,88.35,257.43,60a4.32,4.32,0,0,1-.23-.86,5.73,5.73,0,0,1-.08-.87,4.56,4.56,0,0,1,.55-2.21,2.79,2.79,0,0,1,1.66-1.35l2.18-.73H244.32l1.74.72a8.24,8.24,0,0,1,3.58,2.64,20.84,20.84,0,0,1,2.26,4l16.15,36.56,16.58-37.41A10.48,10.48,0,0,1,287.38,56.74Z"/><path class="cls-1" d="M330.28,90.94A22.53,22.53,0,0,0,334.91,84a21.25,21.25,0,0,0,1.68-8.43,21.57,21.57,0,0,0-1.68-8.48,21.84,21.84,0,0,0-4.63-6.92,22.34,22.34,0,0,0-6.92-4.67,21.09,21.09,0,0,0-8.48-1.73,20.78,20.78,0,0,0-8.43,1.73,22,22,0,0,0-6.88,4.72,22.69,22.69,0,0,0-4.66,6.91,20.8,20.8,0,0,0-1.74,8.44,21.13,21.13,0,0,0,1.74,8.48,21.87,21.87,0,0,0,11.58,11.58A21.09,21.09,0,0,0,315,97.38a20.79,20.79,0,0,0,8.44-1.73A22.06,22.06,0,0,0,330.28,90.94Zm-14.21,4.5a13.45,13.45,0,0,1-7.24-2,18.58,18.58,0,0,1-5.37-5.08,24.46,24.46,0,0,1-3.35-6.95A25.66,25.66,0,0,1,298.94,74a23.54,23.54,0,0,1,.92-6.48,19.36,19.36,0,0,1,2.75-5.84,14.52,14.52,0,0,1,4.56-4.23,12.18,12.18,0,0,1,6.27-1.6,13.67,13.67,0,0,1,7.24,1.94,17.82,17.82,0,0,1,5.37,5.08,26.09,26.09,0,0,1,4.52,14.45,23.65,23.65,0,0,1-.92,6.48,19.48,19.48,0,0,1-2.75,5.84,14.71,14.71,0,0,1-4.52,4.23A12.1,12.1,0,0,1,316.07,95.44Z"/><path class="cls-1" d="M355.73,96.48a5.32,5.32,0,0,1-3.23-2.69,10.42,10.42,0,0,1-.86-4.35l-.09-56.66-9.34,6.8h1.15a1.81,1.81,0,0,1,1.35.49,3.38,3.38,0,0,1,.8,1.34,9.58,9.58,0,0,1,.41,1.76,12.56,12.56,0,0,1,.12,1.65V89.44a10.58,10.58,0,0,1-.85,4.35A5.34,5.34,0,0,1,342,96.48l-2,.73h17.74Z"/><path class="cls-1" d="M385.78,93.31a14,14,0,0,1-6,1.37,8.41,8.41,0,0,1-4.11-.93,7.91,7.91,0,0,1-2.72-2.52,10.64,10.64,0,0,1-1.52-3.65,20.21,20.21,0,0,1-.46-4.26V53.57l-9.22,7.22,1,0a2.19,2.19,0,0,1,2.14,1.22,6.89,6.89,0,0,1,.56,2.74V82.3a22.85,22.85,0,0,0,.7,5.66,14.35,14.35,0,0,0,2.18,4.84,11,11,0,0,0,3.86,3.39,12,12,0,0,0,5.71,1.28,16,16,0,0,0,7.65-2,20.3,20.3,0,0,0,6.15-5L394,87.77,391.15,90A27.44,27.44,0,0,1,385.78,93.31Z"/><path class="cls-1" d="M401,90.28a3.16,3.16,0,0,1-.8-1.34,9.58,9.58,0,0,1-.41-1.76,11.25,11.25,0,0,1-.13-1.65v-32l-9.22,7.22,1,0A2.21,2.21,0,0,1,393.59,62a6.8,6.8,0,0,1,.56,2.78V97.57l9.35-6.8h-1.15A1.78,1.78,0,0,1,401,90.28Z"/><path class="cls-1" d="M430.66,93.44a8.75,8.75,0,0,1-7.37.3,7.14,7.14,0,0,1-2.38-1.86,8.72,8.72,0,0,1-1.51-2.73,10.16,10.16,0,0,1-.53-3.28V55.82h7.65V54h-7.65V36.8l-.5.19a6.9,6.9,0,0,0-3.9,3.27,10.38,10.38,0,0,0-1.19,4.9V54h-3.49v1.86h3.49V84.17a21.15,21.15,0,0,0,.56,4.93,11.57,11.57,0,0,0,1.89,4.18,9.62,9.62,0,0,0,3.36,2.87A10.65,10.65,0,0,0,424,97.21a13.3,13.3,0,0,0,3.11-.39,13.55,13.55,0,0,0,3.06-1.14,13,13,0,0,0,2.67-1.84,7.23,7.23,0,0,0,1.88-2.64l1-2.43-1.64,2A9.46,9.46,0,0,1,430.66,93.44Z"/><path class="cls-1" d="M448.76,94a10.2,10.2,0,0,1-.82-4.14V53.62l-9.21,6.45h1.19a1.63,1.63,0,0,1,1.22.44,3.34,3.34,0,0,1,.76,1.26,6.87,6.87,0,0,1,.36,1.65c.06.6.09,1.11.09,1.54V89.87a10.68,10.68,0,0,1-.78,4.14,4.45,4.45,0,0,1-3,2.47l-2.36.73H454l-2.28-.73A4.55,4.55,0,0,1,448.76,94Z"/><path class="cls-1" d="M444.85,47.91a3.78,3.78,0,1,0,0-7.55,3.85,3.85,0,0,0-2.77,1A3.63,3.63,0,0,0,441,44.14a3.59,3.59,0,0,0,1.09,2.73A3.85,3.85,0,0,0,444.85,47.91Z"/><path class="cls-1" d="M497,60.19A22.34,22.34,0,0,0,490,55.52a21.07,21.07,0,0,0-8.47-1.73,20.79,20.79,0,0,0-8.44,1.73,22,22,0,0,0-6.88,4.72,22.69,22.69,0,0,0-4.66,6.91,20.79,20.79,0,0,0-1.73,8.44,21.12,21.12,0,0,0,1.73,8.48,21.87,21.87,0,0,0,11.58,11.58,21.09,21.09,0,0,0,8.48,1.73,20.79,20.79,0,0,0,8.44-1.73A22.06,22.06,0,0,0,497,90.94,22.35,22.35,0,0,0,501.59,84a21.26,21.26,0,0,0,1.69-8.43,21.58,21.58,0,0,0-1.69-8.48A21.84,21.84,0,0,0,497,60.19Zm-.63,23.58a19.24,19.24,0,0,1-2.75,5.84,14.71,14.71,0,0,1-4.52,4.23,12.09,12.09,0,0,1-6.3,1.6,13.4,13.4,0,0,1-7.24-2,18.62,18.62,0,0,1-5.38-5.08,24.46,24.46,0,0,1-3.35-6.95A26,26,0,0,1,465.62,74a23.54,23.54,0,0,1,.92-6.48,19.6,19.6,0,0,1,2.75-5.84,14.63,14.63,0,0,1,4.56-4.23,12.18,12.18,0,0,1,6.27-1.6,13.67,13.67,0,0,1,7.24,1.94,17.7,17.7,0,0,1,5.37,5.08,25,25,0,0,1,3.35,7,25.53,25.53,0,0,1,1.18,7.5A23.28,23.28,0,0,1,496.33,83.77Z"/><path class="cls-1" d="M540.68,93.8a5,5,0,0,1-3.22,2.68l-2.2.73H553.5l-2.2-.73A5.16,5.16,0,0,1,548,93.83a10.22,10.22,0,0,1-.9-4.39V68.87a23,23,0,0,0-.7-5.66,14,14,0,0,0-2.22-4.84,11.16,11.16,0,0,0-9.53-4.66A16.31,16.31,0,0,0,527,55.66a20.7,20.7,0,0,0-6.15,5l-2.12,2.56,0-9.6-9.35,6.81h1.16a1.8,1.8,0,0,1,1.34.48,3.35,3.35,0,0,1,.81,1.34A10.47,10.47,0,0,1,513,64a12.68,12.68,0,0,1,.12,1.65v23.8a10.42,10.42,0,0,1-.86,4.35,5.32,5.32,0,0,1-3.23,2.69l-2,.73h17.74l-2-.73a5.35,5.35,0,0,1-3.23-2.69,10.42,10.42,0,0,1-.85-4.35l-.07-26.17,2.64-2.09a27.6,27.6,0,0,1,5.37-3.32,14.17,14.17,0,0,1,6-1.36,8.29,8.29,0,0,1,4.1.93,7.8,7.8,0,0,1,2.72,2.51,10.61,10.61,0,0,1,1.52,3.66,19.42,19.42,0,0,1,.46,4.25V89.44A10.84,10.84,0,0,1,540.68,93.8Z"/><path class="cls-1" d="M196.84,114.73a6.75,6.75,0,0,1,4.95,2.07l1.23-1.22a2.73,2.73,0,0,0-.23-.25,8.43,8.43,0,0,0-5.95-2.35,6.54,6.54,0,0,0-4.42,1.5,4.75,4.75,0,0,0-1.78,3.77,5.45,5.45,0,0,0,.05.68,3.78,3.78,0,0,0,2.08,2.8.69.69,0,0,1,.22.1,17.05,17.05,0,0,0,3.68,1,11.54,11.54,0,0,1,3.37,1,3.37,3.37,0,0,1,.35.22,2.29,2.29,0,0,1,.85,2,2.33,2.33,0,0,1-1.2,2,6,6,0,0,1-3.32.85,6.69,6.69,0,0,1-4.95-2.07l-1.25,1.22a1.18,1.18,0,0,0,.25.25,8.36,8.36,0,0,0,5.95,2.35,7.72,7.72,0,0,0,4.25-1.12l.2-.13a3.93,3.93,0,0,0,1.82-3.32c0-.17,0-.34,0-.5a4,4,0,0,0-2.08-3.23l0,0a13,13,0,0,0-3.87-1.13,13.82,13.82,0,0,1-3.4-.9,1.89,1.89,0,0,1-1.18-1.9,3.45,3.45,0,0,1,.3-1.42Q193.67,114.73,196.84,114.73Z"/><path class="cls-1" d="M213.39,113H208v17.5h1.75v-5h3.62a6.29,6.29,0,0,0,4.35-1.67,6.17,6.17,0,0,0,.33-8.83A6.22,6.22,0,0,0,213.39,113Zm3.6,9.08a4.46,4.46,0,0,1-3.6,1.67h-3.62v-9h3.62a4.61,4.61,0,0,1,3,1,4.26,4.26,0,0,1,1.68,3.47A4.39,4.39,0,0,1,217,122.08Z"/><path class="cls-1" d="M232.92,113.35a7.26,7.26,0,0,0-2-.35h-.1a7.63,7.63,0,0,0-.8,0,6.29,6.29,0,0,0-4.37,2.55l1.4,1.05a5.08,5.08,0,0,1,1.25-1.15,4.56,4.56,0,0,1,4.07-.5,5.75,5.75,0,0,1,1.53.85,4.73,4.73,0,0,1,1.75,3.65,6.41,6.41,0,0,0-4.53-2.1l-.32,0a6.41,6.41,0,0,0-4.2,1.62,6.28,6.28,0,0,0-2.28,4.68,6.55,6.55,0,0,0,1.6,4.6,6.31,6.31,0,0,0,4.6,2.27h.45a6.28,6.28,0,0,0,4.68-2.1v2.05h1.75V119.58a6.58,6.58,0,0,0-.73-3A6.37,6.37,0,0,0,232.92,113.35Zm2.7,10.88a5,5,0,0,1-1.28,3,4.55,4.55,0,0,1-3.75,1.55,4.68,4.68,0,0,1-3-1.25,4.6,4.6,0,0,1-1.58-3.8,4.87,4.87,0,0,1,1.1-2.87,4.5,4.5,0,0,1,3.63-1.75l.25,0a4.82,4.82,0,0,1,4.6,5Z"/><path class="cls-1" d="M264.72,123.75H263a5.17,5.17,0,0,1-.9,2.85l-2.63-2.8c-1-1-1.72-1.86-2.25-2.47a15.1,15.1,0,0,0,1.88-1.7,4.4,4.4,0,0,0,1.2-2.85,4,4,0,0,0-1.13-2.9A3.31,3.31,0,0,0,257,113h-.33a3.76,3.76,0,0,0-1.87.67,4,4,0,0,0-1.65,3.4,6.91,6.91,0,0,0,1.4,3.73s.08.11.2.27a10.17,10.17,0,0,0-1.27,1.3,5.14,5.14,0,0,0-1.15,3.15,4.68,4.68,0,0,0,1.12,3,5.57,5.57,0,0,0,4.5,2,6.68,6.68,0,0,0,4.1-1.37l1.28,1.37h2.4l-2.43-2.6A6.8,6.8,0,0,0,264.72,123.75Zm-9.68-7.7a1.78,1.78,0,0,1,1.7-1.32h.17a1.52,1.52,0,0,1,1,.42,2.3,2.3,0,0,1,.58,1.63,2.9,2.9,0,0,1-.75,1.7,15.26,15.26,0,0,1-1.68,1.47,1.12,1.12,0,0,0-.12-.17,5.13,5.13,0,0,1-1.08-2.73A5,5,0,0,1,255,116.05Zm2.9,12.7a4.44,4.44,0,0,1-2.47-.65,3,3,0,0,1-1.4-2.6,3.31,3.31,0,0,1,.77-2.07,8.48,8.48,0,0,1,1-1c.52.61,1.29,1.47,2.32,2.57l2.68,2.85A5,5,0,0,1,257.94,128.75Z"/><path class="cls-1" d="M287,114.73A6.75,6.75,0,0,1,292,116.8l1.22-1.22a1.71,1.71,0,0,0-.22-.25A8.43,8.43,0,0,0,287,113a6.54,6.54,0,0,0-4.42,1.5,4.75,4.75,0,0,0-1.78,3.77,5.45,5.45,0,0,0,.05.68,3.79,3.79,0,0,0,2.07,2.8.64.64,0,0,1,.23.1,17.05,17.05,0,0,0,3.68,1,11.54,11.54,0,0,1,3.37,1,3.37,3.37,0,0,1,.35.22,2.29,2.29,0,0,1,.85,2,2.33,2.33,0,0,1-1.2,2,6,6,0,0,1-3.33.85,6.72,6.72,0,0,1-5-2.07l-1.25,1.22a2,2,0,0,0,.25.25,8.4,8.4,0,0,0,6,2.35,7.67,7.67,0,0,0,4.25-1.12l.21-.13a3.93,3.93,0,0,0,1.82-3.32,4.07,4.07,0,0,0,0-.5,3.93,3.93,0,0,0-2.07-3.23l0,0a13,13,0,0,0-3.88-1.13,14.09,14.09,0,0,1-3.4-.9,2.08,2.08,0,0,1-.39-.22,1.88,1.88,0,0,1-.78-1.68,3.45,3.45,0,0,1,.3-1.42Q283.87,114.73,287,114.73Z"/><path class="cls-1" d="M306.37,113.35a7.33,7.33,0,0,0-2-.35h-.1a7.63,7.63,0,0,0-.8,0,6.31,6.31,0,0,0-4.38,2.55l1.4,1.05a5.27,5.27,0,0,1,1.25-1.15,4.58,4.58,0,0,1,4.08-.5,5.54,5.54,0,0,1,1.52.85,4.67,4.67,0,0,1,1.75,3.65,6.36,6.36,0,0,0-4.52-2.1l-.33,0A6.45,6.45,0,0,0,300,119a6.3,6.3,0,0,0-2.27,4.68,6.55,6.55,0,0,0,1.6,4.6,6.31,6.31,0,0,0,4.6,2.27h.45a6.24,6.24,0,0,0,4.67-2.1v2.05h1.75V119.58a6.57,6.57,0,0,0-.72-3A6.37,6.37,0,0,0,306.37,113.35Zm2.69,10.88a4.92,4.92,0,0,1-1.27,3A4.55,4.55,0,0,1,304,128.8a4.7,4.7,0,0,1-3-1.25,4.63,4.63,0,0,1-1.57-3.8,4.87,4.87,0,0,1,1.1-2.87,4.49,4.49,0,0,1,3.62-1.75l.25,0a4.68,4.68,0,0,1,3,1.2,4.61,4.61,0,0,1,1.62,3.8Z"/><polygon class="cls-1" points="318.01 113 316.26 113 316.26 130.5 316.79 130.5 318.01 130.5 326.26 130.5 326.26 128.75 318.01 128.75 318.01 113"/><path class="cls-1" d="M337.46,113h-.4a8.27,8.27,0,0,0-5.85,2.68,8.47,8.47,0,0,0-2.45,6.07v.38a8.56,8.56,0,0,0,2.65,5.92,8.36,8.36,0,0,0,6,2.45h.38a8.3,8.3,0,0,0,5.85-2.67,8.49,8.49,0,0,0,2.45-6.08v-.37a8.54,8.54,0,0,0-2.65-5.93A8.36,8.36,0,0,0,337.46,113Zm5,13.6a6.61,6.61,0,0,1-5,2.15,7,7,0,0,1-6.95-7,6.88,6.88,0,0,1,1.93-4.85,6.95,6.95,0,0,1,11.95,4.85A6.81,6.81,0,0,1,342.46,126.6Z"/><path class="cls-1" d="M357.36,113a6.44,6.44,0,0,0-4.5,1.8V113h-1.75v17.5h1.75V118.9a3.86,3.86,0,0,1,.95-2.55,4.45,4.45,0,0,1,3.55-1.6,4.59,4.59,0,0,1,2.85,1,3.82,3.82,0,0,1,1.65,3.2v11.6h1.75V118.9a5.57,5.57,0,0,0-1.62-4A6.18,6.18,0,0,0,357.36,113Z"/><polygon points="20.71 12.89 19.41 12.89 13.86 20.34 13.86 12.89 12.7 12.89 12.7 25.58 13.86 25.58 13.86 22.02 15.77 19.52 19.68 25.58 20.98 25.58 16.42 18.65 20.71 12.89"/><polygon points="29.48 22.31 29.5 22.91 23.63 14.87 23.52 14.9 23.52 25.58 24.59 25.58 24.59 18.31 24.57 17.71 30.43 25.77 30.54 25.74 30.54 15.07 29.48 15.07 29.48 22.31"/><path d="M39.18,14.94a5.38,5.38,0,1,0,5.36,5.38A5.32,5.32,0,0,0,39.18,14.94Zm0,9.73a4.23,4.23,0,0,1-4.26-4.35,4.24,4.24,0,1,1,8.48,0A4.2,4.2,0,0,1,39.18,24.67Z"/><polygon points="53.53 23.13 53.22 22.19 52.52 20.12 54.35 15.07 53.22 15.07 51.99 18.62 50.76 15.07 49.64 15.07 51.47 20.12 50.74 22.19 50.44 23.13 50.13 22.19 47.64 15.07 46.52 15.07 50.38 25.68 50.49 25.68 51.99 21.55 53.48 25.68 53.59 25.68 57.45 15.07 56.32 15.07 53.53 23.13"/><polygon points="71.78 21.26 66.2 12.75 66.06 12.78 66.06 25.58 67.2 25.58 67.2 17.13 67.18 16.12 71.73 23.18 71.84 23.18 76.39 16.12 76.37 17.13 76.37 25.58 77.51 25.58 77.51 12.78 77.36 12.75 71.78 21.26"/><path d="M86.33,14.94a5.38,5.38,0,1,0,5.37,5.38A5.32,5.32,0,0,0,86.33,14.94Zm0,9.73a4.23,4.23,0,0,1-4.25-4.35,4.24,4.24,0,1,1,8.48,0A4.2,4.2,0,0,1,86.33,24.67Z"/><path d="M101.14,18.75c0-2.25-1.7-3.68-4.35-3.68H95.05V25.58h1.07V22.4h.67q.36,0,.69,0L100,25.58h1.29l-2.72-3.41A3.45,3.45,0,0,0,101.14,18.75Zm-4.35,2.69h-.67V16h.67c2.07,0,3.26,1,3.26,2.71S98.84,21.44,96.79,21.44Z"/><polygon points="105.31 19.98 108.08 19.98 108.08 19.04 105.31 19.04 105.31 16.03 108.14 16.03 108.14 15.07 104.24 15.07 104.24 25.58 108.23 25.58 108.23 24.62 105.31 24.62 105.31 19.98"/><path d="M121.09,12.86l-4.53,12.72h1.18l.74-2.14h5.37l.74,2.14h1.18l-4.53-12.72Zm-2.28,9.64,2.36-6.82,2.35,6.82Z"/><path d="M132,19.81a2.22,2.22,0,0,0,1.58-2.21c0-1.56-1.18-2.53-3-2.53h-1.88V25.58h1.72c2.54,0,3.84-1.13,3.84-3A2.72,2.72,0,0,0,132,19.81ZM129.74,16h.76c1.32,0,2.05.59,2.05,1.7s-.8,1.72-2.07,1.72h-.74Zm.61,8.59h-.61V20.36h.76c1.68,0,2.68.74,2.68,2.19S132.31,24.62,130.35,24.62Z"/><path d="M142.51,14.94a5.38,5.38,0,1,0,5.37,5.38A5.32,5.32,0,0,0,142.51,14.94Zm0,9.73a4.23,4.23,0,0,1-4.25-4.35,4.24,4.24,0,1,1,8.48,0A4.2,4.2,0,0,1,142.51,24.67Z"/><path d="M156.88,22c0,1.76-.9,2.75-2.33,2.75s-2.34-1-2.34-2.75v-6.9h-1.07v7A3.42,3.42,0,1,0,158,22v-7h-1.09Z"/><polygon points="161.05 15.07 161.05 16.05 163.16 16.05 163.16 25.58 164.22 25.58 164.22 16.05 166.31 16.05 166.31 15.07 161.05 15.07"/></svg>