<svg id="Capa_1" data-name="Capa 1" xmlns="http://www.w3.org/2000/svg" viewBox="0 0 559.2 153.12"><defs><style>.cls-1{fill:#1d1d1b;}.cls-2{fill:#191919;}</style></defs><path class="cls-1" d="M167.58,121.82a10.23,10.23,0,0,1,7.5,3.15l1.85-1.86c-.1-.12-.21-.25-.34-.38a12.8,12.8,0,0,0-9-3.56,9.71,9.71,0,0,0-6.74,2.39,7.74,7.74,0,0,0,.42,12,17.22,17.22,0,0,0,6,2.31.21.21,0,0,1,.11,0q4.32.94,5.19,1.28a4.42,4.42,0,0,1,1.33.84,2,2,0,0,1,.34,1.06,3.27,3.27,0,0,1-1.82,2.68,9.25,9.25,0,0,1-5,1.29,10.13,10.13,0,0,1-7.49-3.14L158,141.77a2.2,2.2,0,0,0,.37.38,12.69,12.69,0,0,0,9,3.56,12.11,12.11,0,0,0,6.44-1.66l.19-.16a5.59,5.59,0,0,0,2.88-4.8,4.16,4.16,0,0,0-1-2.8,6.24,6.24,0,0,0-2.31-1.56,8.69,8.69,0,0,0-1-.34c-.35-.12-1.92-.49-4.69-1.1a14.71,14.71,0,0,1-5-1.89l-.19-.11a4.72,4.72,0,0,1-1.78-4,5.22,5.22,0,0,1,.54-2.34Q162.93,121.82,167.58,121.82Z"/><path class="cls-1" d="M190.75,119.21h-8.14v26.5h2.65v-7.57h5.49a9.46,9.46,0,0,0,6.59-2.54,9.33,9.33,0,0,0,.49-13.36A9.39,9.39,0,0,0,190.75,119.21ZM196.2,133a6.69,6.69,0,0,1-5.45,2.54h-5.49V121.86h5.49a7,7,0,0,1,4.47,1.55,6.69,6.69,0,0,1,1,9.54Z"/><path class="cls-1" d="M218.42,119.74a10.45,10.45,0,0,0-3.06-.53h-.15a10.37,10.37,0,0,0-1.21.08,9.47,9.47,0,0,0-6.63,3.86l2.12,1.59a7.84,7.84,0,0,1,1.89-1.74,6.87,6.87,0,0,1,6.17-.76,8,8,0,0,1,2.31,1.29,7.1,7.1,0,0,1,2.65,5.53,9.58,9.58,0,0,0-6.85-3.19,3.68,3.68,0,0,0-.49,0,9.77,9.77,0,0,0-6.36,2.46,9.56,9.56,0,0,0-3.45,7.08,9.88,9.88,0,0,0,2.43,7,9.48,9.48,0,0,0,7,3.45h.68a9.51,9.51,0,0,0,7.08-3.18v3.1h2.65V129.17a9.87,9.87,0,0,0-1.09-4.54A9.64,9.64,0,0,0,218.42,119.74Zm4.09,16.47a7.53,7.53,0,0,1-1.93,4.58,6.89,6.89,0,0,1-5.68,2.35,7.14,7.14,0,0,1-4.5-1.9,7,7,0,0,1-2.39-5.75,7.32,7.32,0,0,1,1.67-4.35,6.83,6.83,0,0,1,5.49-2.65l.38,0a7.13,7.13,0,0,1,4.5,1.82,7,7,0,0,1,2.46,5.76Z"/><path class="cls-1" d="M262.79,135.49h-2.65a7.8,7.8,0,0,1-1.36,4.32l-4-4.24c-1.46-1.57-2.6-2.82-3.4-3.75a21.12,21.12,0,0,0,2.84-2.58,6.54,6.54,0,0,0,1.81-4.31,6,6,0,0,0-1.7-4.39,5,5,0,0,0-3.26-1.37h-.49a5.74,5.74,0,0,0-2.84,1,6,6,0,0,0-2.5,5.14,10.52,10.52,0,0,0,2.12,5.65,3.89,3.89,0,0,1,.31.41,14.7,14.7,0,0,0-1.93,2,7.74,7.74,0,0,0-1.74,4.77,7,7,0,0,0,1.7,4.58,8.38,8.38,0,0,0,6.81,3,10,10,0,0,0,6.21-2.08l1.93,2.08h3.64l-3.68-3.94A10.15,10.15,0,0,0,262.79,135.49Zm-14.65-11.66a2.72,2.72,0,0,1,2.58-2H251a2.32,2.32,0,0,1,1.55.65,3.4,3.4,0,0,1,.87,2.46,4.26,4.26,0,0,1-1.13,2.57,23.07,23.07,0,0,1-2.54,2.24,1.19,1.19,0,0,0-.19-.27,7.73,7.73,0,0,1-1.63-4.13A7.59,7.59,0,0,1,248.14,123.83Zm4.39,19.23a6.94,6.94,0,0,1-3.75-1,4.51,4.51,0,0,1-2.11-3.94,5.09,5.09,0,0,1,1.17-3.14,15.11,15.11,0,0,1,1.51-1.52q1.18,1.41,3.52,3.9l4.05,4.32A7.51,7.51,0,0,1,252.53,143.06Z"/><path class="cls-1" d="M292.81,121.82a10.24,10.24,0,0,1,7.5,3.15l1.85-1.86c-.1-.12-.21-.25-.34-.38a12.8,12.8,0,0,0-9-3.56,9.71,9.71,0,0,0-6.74,2.39,7.74,7.74,0,0,0,.42,12,17.22,17.22,0,0,0,6,2.31.24.24,0,0,1,.11,0q4.32.94,5.19,1.28a4.23,4.23,0,0,1,1.32.84,1.91,1.91,0,0,1,.34,1.06,3.26,3.26,0,0,1-1.81,2.68,9.28,9.28,0,0,1-5,1.29,10.11,10.11,0,0,1-7.49-3.14l-1.9,1.85a2.27,2.27,0,0,0,.38.38,12.69,12.69,0,0,0,9,3.56,12.11,12.11,0,0,0,6.44-1.66l.19-.16a5.58,5.58,0,0,0,2.87-4.8,4.2,4.2,0,0,0-1-2.8,6.24,6.24,0,0,0-2.31-1.56,8.69,8.69,0,0,0-1-.34c-.35-.12-1.92-.49-4.69-1.1a14.62,14.62,0,0,1-5-1.89l-.19-.11a4.72,4.72,0,0,1-1.78-4,5.35,5.35,0,0,1,.53-2.34Q288.16,121.82,292.81,121.82Z"/><path class="cls-1" d="M320.18,119.74a10.45,10.45,0,0,0-3.06-.53H317a10.66,10.66,0,0,0-1.21.08,9.45,9.45,0,0,0-6.62,3.86l2.12,1.59a7.84,7.84,0,0,1,1.89-1.74,6.87,6.87,0,0,1,6.17-.76,8.23,8.23,0,0,1,2.31,1.29,7.1,7.1,0,0,1,2.65,5.53,9.6,9.6,0,0,0-6.85-3.19,3.79,3.79,0,0,0-.49,0,9.77,9.77,0,0,0-6.36,2.46,9.56,9.56,0,0,0-3.45,7.08,9.91,9.91,0,0,0,2.42,7,9.52,9.52,0,0,0,7,3.45h.68a9.53,9.53,0,0,0,7.08-3.18v3.1h2.65V129.17a9.88,9.88,0,0,0-1.1-4.54A9.59,9.59,0,0,0,320.18,119.74Zm4.09,16.47a7.59,7.59,0,0,1-1.93,4.58,6.9,6.9,0,0,1-5.68,2.35,7.09,7.09,0,0,1-4.5-1.9,7,7,0,0,1-2.39-5.75,7.32,7.32,0,0,1,1.67-4.35,6.83,6.83,0,0,1,5.49-2.65,2.31,2.31,0,0,1,.37,0,7.16,7.16,0,0,1,4.51,1.82,7,7,0,0,1,2.46,5.76Z"/><polygon class="cls-1" points="335.93 119.21 333.28 119.21 333.28 145.71 334.08 145.71 335.93 145.71 348.42 145.71 348.42 143.06 335.93 143.06 335.93 119.21"/><path class="cls-1" d="M363.49,119.21h-.61a12.53,12.53,0,0,0-8.85,4.05,12.8,12.8,0,0,0-3.71,9.2V133a12.88,12.88,0,0,0,4,9,12.66,12.66,0,0,0,9.16,3.71h.57a12.57,12.57,0,0,0,8.86-4.05,12.83,12.83,0,0,0,3.71-9.2v-.57a12.93,12.93,0,0,0-4-9A12.66,12.66,0,0,0,363.49,119.21Zm7.57,20.6A10.52,10.52,0,0,1,353,132.46a10.38,10.38,0,0,1,2.91-7.34,10.53,10.53,0,0,1,18.1,7.34A10.4,10.4,0,0,1,371.06,139.81Z"/><path class="cls-1" d="M398.73,122.13a9.35,9.35,0,0,0-7-2.92,9.72,9.72,0,0,0-6.81,2.73v-2.73h-2.65v26.5h2.65V128.15a5.84,5.84,0,0,1,1.43-3.86,6.7,6.7,0,0,1,5.38-2.43,7,7,0,0,1,4.32,1.44,5.77,5.77,0,0,1,2.49,4.85v17.56h2.65V128.15A8.42,8.42,0,0,0,398.73,122.13Z"/><path class="cls-2" d="M49,78a4.5,4.5,0,0,1,2,1.17A6.33,6.33,0,0,1,52.06,81a8.23,8.23,0,0,1,.52,2.2,21.61,21.61,0,0,1,.13,2.38c0,.62,0,1.27,0,1.94s-.05,1.34-.05,2A7.46,7.46,0,0,1,51.12,94a14.11,14.11,0,0,1-3.84,3.52,19.71,19.71,0,0,1-5,2.21,18.63,18.63,0,0,1-4.91.75,19,19,0,0,1-10-2.71,26.51,26.51,0,0,1-7.63-7,34.5,34.5,0,0,1-4.87-9.63A33.26,33.26,0,0,1,13.08,70.8a33.62,33.62,0,0,1,1.43-9.45,30.65,30.65,0,0,1,4.2-8.82,23.23,23.23,0,0,1,6.78-6.48,16.93,16.93,0,0,1,9.15-2.5,18.85,18.85,0,0,1,6.17,1,25.26,25.26,0,0,1,5.69,2.85,31.17,31.17,0,0,1,5,4.16,41.47,41.47,0,0,1,4,4.88l.68,1V47.59L56,47.48a20.17,20.17,0,0,0-4.33-2.69,30.37,30.37,0,0,0-5-1.81,38.58,38.58,0,0,0-5.28-1,45.32,45.32,0,0,0-5.06-.3,31,31,0,0,0-12,2.32A30.16,30.16,0,0,0,5.7,72.08,29.78,29.78,0,0,0,8.12,84a30.46,30.46,0,0,0,6.54,9.64,30.76,30.76,0,0,0,21.68,8.82,24.08,24.08,0,0,0,7.86-1.26,63.7,63.7,0,0,0,7.24-3l.85-.34a2.29,2.29,0,0,1,2.2.3,7,7,0,0,1,1.37,1.22,11.63,11.63,0,0,1,1.2,1.57c.37.56.69,1.07,1,1.52l.69,1.11V84a7.93,7.93,0,0,1,.89-3.62A4.61,4.61,0,0,1,62.38,78l2.19-.73H46.64Z"/><path class="cls-2" d="M102.89,98.82a2.75,2.75,0,0,1-2.76-1.45,7.82,7.82,0,0,1-.77-3.45V72.42c0-4.44-1-7.84-3.07-10.11s-5.4-3.44-10-3.44a18.21,18.21,0,0,0-4.47.69,24.59,24.59,0,0,0-5.1,2,16.58,16.58,0,0,0-4.22,3.14,6,6,0,0,0-1.8,4.17,4,4,0,0,0,.84,2.56,3,3,0,0,0,2.51,1.13c2.36,0,3.6-1.22,3.6-3.52a7.74,7.74,0,0,0-.22-1.88,7.11,7.11,0,0,1-.2-1.69,3,3,0,0,1,.83-2.17,6.73,6.73,0,0,1,2.17-1.48A13,13,0,0,1,83,60.93a12.55,12.55,0,0,1,2.51-.29,7,7,0,0,1,3.92,1A8.51,8.51,0,0,1,92,64.36a11.38,11.38,0,0,1,1.4,3.71,20.81,20.81,0,0,1,.42,4.09v4.59A7.94,7.94,0,0,1,91,78c-1.46.4-3.14.8-5,1.19s-3.84.9-5.81,1.49a25.28,25.28,0,0,0-5.53,2.38,13.32,13.32,0,0,0-4.19,3.85,10,10,0,0,0-1.69,5.91,8.78,8.78,0,0,0,1,4.21,9.14,9.14,0,0,0,2.57,3A10.83,10.83,0,0,0,76,101.81a16,16,0,0,0,4.22.56,21.06,21.06,0,0,0,6.92-1.08A15.53,15.53,0,0,0,93,97.5l-.48-.57A15.1,15.1,0,0,1,88,99a18.52,18.52,0,0,1-4.91.67,7.92,7.92,0,0,1-5.53-1.94,7,7,0,0,1-2.09-5.34,9,9,0,0,1,1.87-5.92A14.87,14.87,0,0,1,82,82.78a31.39,31.39,0,0,1,6.13-2.31c2-.55,4-1.08,5.69-1.6v15A20.74,20.74,0,0,0,94.07,97,7.37,7.37,0,0,0,95,99.72a5.2,5.2,0,0,0,2,1.92,6.42,6.42,0,0,0,3.24.73,7.45,7.45,0,0,0,3.81-1.2,5.46,5.46,0,0,0,2.59-3.06l.35-1.18-1,.78A4.74,4.74,0,0,1,102.89,98.82Z"/><path class="cls-2" d="M122.11,99a10,10,0,0,1-.82-4.14V58.61l-9.21,6.45h1.18a1.64,1.64,0,0,1,1.23.44,3.34,3.34,0,0,1,.76,1.26,6.77,6.77,0,0,1,.36,1.65,15.41,15.41,0,0,1,.08,1.54V94.86a10.68,10.68,0,0,1-.77,4.14,4.47,4.47,0,0,1-3,2.47l-2.36.73h17.87l-2.28-.73A4.53,4.53,0,0,1,122.11,99Z"/><path class="cls-2" d="M118.19,52.9a3.78,3.78,0,1,0,0-7.55,3.85,3.85,0,0,0-2.76,1,3.64,3.64,0,0,0-1.1,2.74,3.6,3.6,0,0,0,1.1,2.73A3.85,3.85,0,0,0,118.19,52.9Z"/><path class="cls-2" d="M167,98.82a2.75,2.75,0,0,1-2.76-1.45,7.82,7.82,0,0,1-.77-3.45V72.42c0-4.44-1-7.84-3.07-10.11s-5.4-3.44-10-3.44a18.35,18.35,0,0,0-4.48.69,24.73,24.73,0,0,0-5.09,2,16.58,16.58,0,0,0-4.22,3.14,5.93,5.93,0,0,0-1.8,4.17,4,4,0,0,0,.84,2.56,3,3,0,0,0,2.51,1.13c2.36,0,3.6-1.22,3.6-3.52a7.74,7.74,0,0,0-.22-1.88,6.63,6.63,0,0,1-.2-1.69,3,3,0,0,1,.83-2.17,6.73,6.73,0,0,1,2.17-1.48,13.12,13.12,0,0,1,2.77-.87,12.64,12.64,0,0,1,2.52-.29,7,7,0,0,1,3.92,1,8.51,8.51,0,0,1,2.56,2.68,11.61,11.61,0,0,1,1.4,3.71,20.81,20.81,0,0,1,.42,4.09v4.59A8,8,0,0,1,155.07,78c-1.46.4-3.14.8-5,1.19s-3.84.9-5.81,1.49a25.07,25.07,0,0,0-5.53,2.38,13.32,13.32,0,0,0-4.19,3.85,10,10,0,0,0-1.69,5.91,8.78,8.78,0,0,0,1,4.21,9.14,9.14,0,0,0,2.57,3,10.83,10.83,0,0,0,3.66,1.77,16,16,0,0,0,4.22.56,21.06,21.06,0,0,0,6.92-1.08,15.61,15.61,0,0,0,5.84-3.79l-.48-.57A15.1,15.1,0,0,1,152.09,99a18.52,18.52,0,0,1-4.91.67,7.92,7.92,0,0,1-5.53-1.94,7,7,0,0,1-2.09-5.34,9,9,0,0,1,1.87-5.92,14.87,14.87,0,0,1,4.69-3.69,31.15,31.15,0,0,1,6.13-2.31c2.05-.55,4-1.08,5.69-1.6v15a22.18,22.18,0,0,0,.21,3.12,7.58,7.58,0,0,0,.9,2.68,5.2,5.2,0,0,0,2,1.92,6.4,6.4,0,0,0,3.24.73,7.45,7.45,0,0,0,3.81-1.2,5.46,5.46,0,0,0,2.59-3.06l.35-1.18-.95.78A4.76,4.76,0,0,1,167,98.82Z"/><path class="cls-2" d="M235.05,98.18a17.85,17.85,0,0,1-8.91,2.25H212v-28h9.66a11,11,0,0,1,4.77,1,5.85,5.85,0,0,1,3,3.65l.73,2.18V63.73l-.73,2.19a6.05,6.05,0,0,1-3,3.7,10.63,10.63,0,0,1-4.76,1.06H212v-27h14.25c6.5,0,11.4,3,14.54,8.9l1.32,2.47-3-13.14H199.27l2.37.73a4.58,4.58,0,0,1,3,2.43,10.22,10.22,0,0,1,.77,4V94.86a10.62,10.62,0,0,1-.78,4.1,4.42,4.42,0,0,1-3,2.51l-2.37.73h40.26l3.25-13.34-1.41,2.68A16,16,0,0,1,235.05,98.18Z"/><path class="cls-2" d="M278.5,59l-.06.75a3.89,3.89,0,0,1,2.81,1.78,6.29,6.29,0,0,1,1,3.37,5.92,5.92,0,0,1-.31,2L270.17,93.34,257.43,65a4.32,4.32,0,0,1-.23-.86,5.73,5.73,0,0,1-.08-.87,4.56,4.56,0,0,1,.55-2.21,2.79,2.79,0,0,1,1.66-1.35l2.18-.73H244.32l1.74.72a8.24,8.24,0,0,1,3.58,2.64,20.84,20.84,0,0,1,2.26,4l16.15,36.56,16.58-37.41a10.48,10.48,0,0,1,2.75-3.78,8.4,8.4,0,0,1,4.19-2l-.06-.75Z"/><path class="cls-2" d="M330.28,65.18a22.34,22.34,0,0,0-6.92-4.67,21.09,21.09,0,0,0-8.48-1.73,20.78,20.78,0,0,0-8.43,1.73,22.16,22.16,0,0,0-6.88,4.71,22.85,22.85,0,0,0-4.66,6.92,20.8,20.8,0,0,0-1.74,8.44,21.13,21.13,0,0,0,1.74,8.48,21.87,21.87,0,0,0,11.58,11.58,21.09,21.09,0,0,0,8.48,1.73,20.79,20.79,0,0,0,8.44-1.73,22.06,22.06,0,0,0,6.87-4.71A22.53,22.53,0,0,0,334.91,89a21.25,21.25,0,0,0,1.68-8.43,21.57,21.57,0,0,0-1.68-8.48A21.84,21.84,0,0,0,330.28,65.18Zm-.63,23.58a19.48,19.48,0,0,1-2.75,5.84,14.71,14.71,0,0,1-4.52,4.23,12.1,12.1,0,0,1-6.31,1.6,13.45,13.45,0,0,1-7.24-2,18.71,18.71,0,0,1-5.37-5.08,24.59,24.59,0,0,1-3.35-7A25.66,25.66,0,0,1,298.94,79a23.54,23.54,0,0,1,.92-6.48,19.36,19.36,0,0,1,2.75-5.84,14.52,14.52,0,0,1,4.56-4.23,12.18,12.18,0,0,1,6.27-1.6,13.67,13.67,0,0,1,7.24,1.94,17.82,17.82,0,0,1,5.37,5.08,26.09,26.09,0,0,1,4.52,14.45A23.65,23.65,0,0,1,329.65,88.76Z"/><path class="cls-2" d="M352.5,98.78a10.42,10.42,0,0,1-.86-4.35l-.09-56.66-9.34,6.8h1.15a1.81,1.81,0,0,1,1.35.49,3.38,3.38,0,0,1,.8,1.34,9.58,9.58,0,0,1,.41,1.76,12.56,12.56,0,0,1,.12,1.65V94.43a10.58,10.58,0,0,1-.85,4.35,5.35,5.35,0,0,1-3.23,2.69l-2,.73h17.74l-2-.73A5.32,5.32,0,0,1,352.5,98.78Z"/><path class="cls-2" d="M385.78,98.3a14,14,0,0,1-6,1.37,8.41,8.41,0,0,1-4.11-.93,7.91,7.91,0,0,1-2.72-2.52,10.64,10.64,0,0,1-1.52-3.65,20.21,20.21,0,0,1-.46-4.26V58.56l-9.22,7.22,1,0A2.19,2.19,0,0,1,364.86,67a6.89,6.89,0,0,1,.56,2.74V87.29a22.85,22.85,0,0,0,.7,5.66,14.35,14.35,0,0,0,2.18,4.84,11,11,0,0,0,3.86,3.39,12,12,0,0,0,5.71,1.28,16,16,0,0,0,7.65-2,20.3,20.3,0,0,0,6.15-5L394,92.76,391.15,95A27.44,27.44,0,0,1,385.78,98.3Z"/><path class="cls-2" d="M401,95.27a3.16,3.16,0,0,1-.8-1.34,9.58,9.58,0,0,1-.41-1.76,12.82,12.82,0,0,1-.13-1.65v-32l-9.22,7.22,1,0A2.21,2.21,0,0,1,393.59,67a6.8,6.8,0,0,1,.56,2.78v32.78l9.35-6.8h-1.15A1.78,1.78,0,0,1,401,95.27Z"/><path class="cls-2" d="M430.66,98.43a8.75,8.75,0,0,1-7.37.3,7.14,7.14,0,0,1-2.38-1.86,8.72,8.72,0,0,1-1.51-2.73,10.16,10.16,0,0,1-.53-3.28v-30h7.65V59h-7.65V41.79l-.5.18a7,7,0,0,0-3.9,3.28,10.38,10.38,0,0,0-1.19,4.9V59h-3.49v1.86h3.49V89.16a21.15,21.15,0,0,0,.56,4.93,11.57,11.57,0,0,0,1.89,4.18,9.62,9.62,0,0,0,3.36,2.87A10.65,10.65,0,0,0,424,102.2a13.3,13.3,0,0,0,3.11-.39,13.55,13.55,0,0,0,3.06-1.14,13,13,0,0,0,2.67-1.84,7.23,7.23,0,0,0,1.88-2.64l1-2.43-1.64,2A9.46,9.46,0,0,1,430.66,98.43Z"/><path class="cls-2" d="M448.76,99a10.2,10.2,0,0,1-.82-4.14V58.61l-9.21,6.45h1.19a1.63,1.63,0,0,1,1.22.44,3.34,3.34,0,0,1,.76,1.26,6.77,6.77,0,0,1,.36,1.65c.06.6.09,1.11.09,1.54V94.86a10.68,10.68,0,0,1-.78,4.14,4.45,4.45,0,0,1-3,2.47l-2.36.73H454l-2.28-.73A4.55,4.55,0,0,1,448.76,99Z"/><path class="cls-2" d="M444.85,52.9a3.78,3.78,0,1,0,0-7.55,3.85,3.85,0,0,0-2.77,1A3.63,3.63,0,0,0,441,49.13a3.59,3.59,0,0,0,1.09,2.73A3.85,3.85,0,0,0,444.85,52.9Z"/><path class="cls-2" d="M497,65.18A22.34,22.34,0,0,0,490,60.51a21.07,21.07,0,0,0-8.47-1.73,20.79,20.79,0,0,0-8.44,1.73,22.16,22.16,0,0,0-6.88,4.71,22.85,22.85,0,0,0-4.66,6.92,20.79,20.79,0,0,0-1.73,8.44,21.12,21.12,0,0,0,1.73,8.48A22.21,22.21,0,0,0,466.25,96a22.46,22.46,0,0,0,6.92,4.67,21.09,21.09,0,0,0,8.48,1.73,20.79,20.79,0,0,0,8.44-1.73A22.06,22.06,0,0,0,497,95.93,22.35,22.35,0,0,0,501.59,89a21.26,21.26,0,0,0,1.69-8.43,21.58,21.58,0,0,0-1.69-8.48A21.84,21.84,0,0,0,497,65.18Zm-.63,23.58a19.24,19.24,0,0,1-2.75,5.84,14.71,14.71,0,0,1-4.52,4.23,12.09,12.09,0,0,1-6.3,1.6,13.4,13.4,0,0,1-7.24-2,18.62,18.62,0,0,1-5.38-5.08,24.59,24.59,0,0,1-3.35-7A26,26,0,0,1,465.62,79a23.54,23.54,0,0,1,.92-6.48,19.6,19.6,0,0,1,2.75-5.84,14.63,14.63,0,0,1,4.56-4.23,12.18,12.18,0,0,1,6.27-1.6,13.67,13.67,0,0,1,7.24,1.94,17.7,17.7,0,0,1,5.37,5.08,25,25,0,0,1,3.35,7,25.53,25.53,0,0,1,1.18,7.5A23.28,23.28,0,0,1,496.33,88.76Z"/><path class="cls-2" d="M540.68,98.79a5,5,0,0,1-3.22,2.68l-2.2.73H553.5l-2.2-.73A5.16,5.16,0,0,1,548,98.82a10.22,10.22,0,0,1-.9-4.39V73.86a23,23,0,0,0-.7-5.66,14,14,0,0,0-2.22-4.84,11.09,11.09,0,0,0-9.53-4.66A16.2,16.2,0,0,0,527,60.65a20.7,20.7,0,0,0-6.15,5l-2.12,2.56,0-9.6-9.35,6.81h1.16a1.8,1.8,0,0,1,1.34.48,3.35,3.35,0,0,1,.81,1.34A10.47,10.47,0,0,1,513,69a12.68,12.68,0,0,1,.12,1.65v23.8a10.42,10.42,0,0,1-.86,4.35,5.32,5.32,0,0,1-3.23,2.69l-2,.73h17.74l-2-.73a5.35,5.35,0,0,1-3.23-2.69,10.42,10.42,0,0,1-.85-4.35l-.07-26.17,2.64-2.09a27.6,27.6,0,0,1,5.37-3.32,14.17,14.17,0,0,1,6-1.36,8.29,8.29,0,0,1,4.1.93,7.8,7.8,0,0,1,2.72,2.51,10.61,10.61,0,0,1,1.52,3.66,19.42,19.42,0,0,1,.46,4.25V94.43A10.84,10.84,0,0,1,540.68,98.79Z"/><polygon points="197.68 11.86 196.17 11.86 189.74 20.49 189.74 11.86 188.4 11.86 188.4 26.56 189.74 26.56 189.74 22.44 191.94 19.54 196.48 26.56 197.99 26.56 192.7 18.54 197.68 11.86"/><polygon points="207.84 22.78 207.86 23.47 201.06 14.15 200.94 14.19 200.94 26.56 202.17 26.56 202.17 18.14 202.15 17.45 208.93 26.79 209.06 26.75 209.06 14.38 207.84 14.38 207.84 22.78"/><path d="M219.08,14.23a6.24,6.24,0,1,0,6.21,6.24A6.17,6.17,0,0,0,219.08,14.23Zm0,11.28a4.9,4.9,0,0,1-4.94-5,4.92,4.92,0,1,1,9.83,0A4.87,4.87,0,0,1,219.08,25.51Z"/><polygon points="235.71 23.72 235.35 22.63 234.53 20.24 236.65 14.38 235.35 14.38 233.92 18.5 232.5 14.38 231.19 14.38 233.31 20.24 232.48 22.63 232.12 23.72 231.76 22.63 228.88 14.38 227.58 14.38 232.06 26.68 232.18 26.68 233.92 21.9 235.65 26.68 235.77 26.68 240.24 14.38 238.94 14.38 235.71 23.72"/><polygon points="256.86 21.56 250.39 11.69 250.22 11.73 250.22 26.56 251.54 26.56 251.54 16.77 251.52 15.6 256.79 23.79 256.92 23.79 262.19 15.6 262.17 16.77 262.17 26.56 263.49 26.56 263.49 11.73 263.32 11.69 256.86 21.56"/><path d="M273.72,14.23a6.24,6.24,0,1,0,6.21,6.24A6.17,6.17,0,0,0,273.72,14.23Zm0,11.28a4.9,4.9,0,0,1-4.93-5,4.91,4.91,0,1,1,9.82,0A4.87,4.87,0,0,1,273.72,25.51Z"/><path d="M290.87,18.64c0-2.6-2-4.26-5-4.26h-2V26.56h1.24V22.88h.78c.27,0,.54,0,.79,0l2.88,3.72H291l-3.15-3.95A4,4,0,0,0,290.87,18.64Zm-5,3.13h-.78V15.51h.78c2.39,0,3.78,1.16,3.78,3.13S288.21,21.77,285.84,21.77Z"/><polygon points="295.71 20.07 298.92 20.07 298.92 18.98 295.71 18.98 295.71 15.49 298.98 15.49 298.98 14.38 294.47 14.38 294.47 26.56 299.09 26.56 299.09 25.45 295.71 25.45 295.71 20.07"/><path d="M314,11.82l-5.25,14.74h1.36l.86-2.48h6.22l.86,2.48h1.36l-5.25-14.74ZM311.35,23l2.73-7.9,2.73,7.9Z"/><path d="M326.66,19.88a2.58,2.58,0,0,0,1.83-2.56c0-1.81-1.37-2.94-3.53-2.94h-2.18V26.56h2c2.94,0,4.45-1.3,4.45-3.47A3.15,3.15,0,0,0,326.66,19.88ZM324,15.49h.89c1.53,0,2.37.7,2.37,2s-.93,2-2.4,2H324Zm.72,10H324V20.51h.89c2,0,3.1.86,3.1,2.54S327,25.44,324.73,25.44Z"/><path d="M338.82,14.23A6.24,6.24,0,1,0,345,20.47,6.17,6.17,0,0,0,338.82,14.23Zm0,11.28a4.9,4.9,0,0,1-4.94-5,4.92,4.92,0,1,1,9.83,0A4.87,4.87,0,0,1,338.82,25.51Z"/><path d="M355.47,22.38c0,2-1.05,3.19-2.71,3.19s-2.71-1.15-2.71-3.19v-8h-1.23v8.08c0,2.61,1.59,4.2,3.94,4.2s4-1.59,4-4.2V14.38h-1.26Z"/><polygon points="360.3 14.38 360.3 15.51 362.74 15.51 362.74 26.56 363.98 26.56 363.98 15.51 366.39 15.51 366.39 14.38 360.3 14.38"/></svg>