<svg id="Capa_1" data-name="Capa 1" xmlns="http://www.w3.org/2000/svg" viewBox="0 0 700 120"><path d="M57.75,76h-37v25h37c4.31,0,7.57-2.07,9.72-6.16A14,14,0,0,0,69,88.43c0-5-2-8.75-6-11.11A11.19,11.19,0,0,0,57.75,76ZM67,88.43a12,12,0,0,1-1.28,5.41c-1.79,3.41-4.39,5.07-7.94,5.07h-35V78h35A9,9,0,0,1,62,79.07C65.35,81,67,84.1,67,88.43Z"/><path d="M59.76,25.61a24.37,24.37,0,0,0-15-5.1h-24V68.15H45A23.34,23.34,0,0,0,64,58.8a23.17,23.17,0,0,0,5-14.47A22.7,22.7,0,0,0,59.76,25.61Zm2.66,32A21.4,21.4,0,0,1,45,66.15H22.77V22.51h22A22.36,22.36,0,0,1,58.54,27.2,20.53,20.53,0,0,1,67,44.33,21.18,21.18,0,0,1,62.42,57.57Z"/><path d="M78.77,44.33A32.57,32.57,0,0,0,70,21.81a32.82,32.82,0,0,0-25.24-11.1H11v100H57.75a20.21,20.21,0,0,0,12.82-4.57,21.9,21.9,0,0,0,8.2-17.71A24.12,24.12,0,0,0,78,82.57,21.43,21.43,0,0,0,67.92,68.93,32.28,32.28,0,0,0,78.77,44.33ZM65.71,70A19.54,19.54,0,0,1,76.1,83.07a21.92,21.92,0,0,1,.67,5.36,20,20,0,0,1-7.46,16.16,18.23,18.23,0,0,1-11.56,4.12H13v-96H44.73A30.88,30.88,0,0,1,68.49,23.16a30.59,30.59,0,0,1,8.28,21.17A30.4,30.4,0,0,1,66.23,67.76a7,7,0,0,0-.79.64l-1,1Z"/><path d="M171.71,24.71a48.12,48.12,0,0,0-34.58-14H135A47.62,47.62,0,0,0,101.55,26a48.59,48.59,0,0,0-14,34.72v2.14A49,49,0,0,0,102.7,96.71a47.91,47.91,0,0,0,34.43,14h2.29a47.62,47.62,0,0,0,33.43-15.29,48.59,48.59,0,0,0,14-34.71V58.56A49,49,0,0,0,171.71,24.71Zm13.14,36A46.66,46.66,0,0,1,171.41,94a45.68,45.68,0,0,1-32,14.67h-2.24a46,46,0,0,1-33-13.44A47,47,0,0,1,89.55,62.81v-2.1A46.59,46.59,0,0,1,103,27.38a45.6,45.6,0,0,1,32-14.67h2.1a46.18,46.18,0,0,1,33.18,13.43,47,47,0,0,1,14.54,32.47Z"/><path d="M164.71,31.71a39.58,39.58,0,0,0-56.31,1.15A39.51,39.51,0,0,0,97.35,60.71a38.67,38.67,0,0,0,12.35,29A39.55,39.55,0,0,0,166,88.55a39.48,39.48,0,0,0,11.05-27.84A38.66,38.66,0,0,0,164.71,31.71Zm-.16,55.47a37.56,37.56,0,0,1-53.47,1.08A36.73,36.73,0,0,1,99.35,60.71a37.52,37.52,0,0,1,10.51-26.47,37.56,37.56,0,0,1,53.46-1.09,36.75,36.75,0,0,1,11.73,27.56A37.53,37.53,0,0,1,164.55,87.18Z"/><path d="M213.71,20.51h-8.42v80.4h8.42a38.35,38.35,0,0,0,28.73-12.36,39.48,39.48,0,0,0,11.05-27.84,38.91,38.91,0,0,0-12.21-29A39.35,39.35,0,0,0,213.71,20.51ZM241,87.18a36.43,36.43,0,0,1-27.28,11.73h-6.42V22.51h6.41a37.42,37.42,0,0,1,26.2,10.64,36.94,36.94,0,0,1,11.59,27.56A37.57,37.57,0,0,1,241,87.18Z"/><path d="M248.15,24.71a48,48,0,0,0-34.44-14H195.49v100h20.36a47.63,47.63,0,0,0,33.44-15.29,48.59,48.59,0,0,0,14-34.71V58.56A49,49,0,0,0,248.15,24.71Zm13.14,36A46.66,46.66,0,0,1,247.85,94a45.68,45.68,0,0,1-32,14.67H197.49v-96h16.22a46,46,0,0,1,33,13.43,47,47,0,0,1,14.54,32.47Z"/><path d="M293.79,60.44l-23.3-49.73h-13l29.94,64,.45.91v35.07h11.8V75.59l.33-.88,29.92-64H317Zm33-47.73L298.17,73.94l-.48,1.29v33.48h-7.8V75.17l-.65-1.31-28.6-61.15h8.57l24.58,52.46,24.44-52.46Z"/><path d="M412.32,25.23a39,39,0,0,1,14.06-2.86h.36a36.67,36.67,0,0,1,26.92,11.32l.7.71,8.43-8.27-.72-.71-2-2a47.78,47.78,0,0,0-34.29-12.86h0a53.43,53.43,0,0,0-18,3.72,50.61,50.61,0,0,0-17.28,12,48.81,48.81,0,0,0-13.57,34.28,49.72,49.72,0,0,0,5.42,22.7A48.63,48.63,0,0,0,407.64,107a50.66,50.66,0,0,0,19.49,3.88l1.37,0a48.2,48.2,0,0,0,33.44-14.72l.7-.71-8.42-8.26-.7.7a39.3,39.3,0,0,1-11.46,7.92,36.24,36.24,0,0,1-29.87.41A37.88,37.88,0,0,1,400.05,88a37.06,37.06,0,0,1-11.32-27.29,38.88,38.88,0,0,1,3.54-16.24A37.27,37.27,0,0,1,412.32,25.23ZM386.73,60.71a39,39,0,0,0,11.91,28.7A39.62,39.62,0,0,0,411.42,98a38.16,38.16,0,0,0,31.46-.43A41.38,41.38,0,0,0,454.22,90l5.58,5.46a46.1,46.1,0,0,1-31.36,13.42,48.84,48.84,0,0,1-20-3.7,46.66,46.66,0,0,1-24.27-22.77,47.8,47.8,0,0,1-5.21-21.81,46.94,46.94,0,0,1,13-32.92,48.79,48.79,0,0,1,16.58-11.51,51.24,51.24,0,0,1,17.3-3.57,45.83,45.83,0,0,1,32.87,12.3l1.24,1.25-5.57,5.46a38.69,38.69,0,0,0-28-11.21,41,41,0,0,0-14.79,3,39.23,39.23,0,0,0-21.1,20.25A40.82,40.82,0,0,0,386.73,60.71Z"/><path d="M506.31,9.13,463.5,110.71h12.81L482.47,96H530l6.16,14.7H549L512.55,23.92Zm31.18,99.58L531.33,94H481.14L475,108.71h-8.47l39.8-94.43,4.4,10.41,35.25,84Z"/><path d="M484.5,86.21h43.61l-21.8-51.88Zm3-2,18.8-44.72L525.1,84.21Z"/><path d="M610.59,73.06a34.68,34.68,0,0,0,11.66-26.35,34.93,34.93,0,0,0-9.8-24.49,35.8,35.8,0,0,0-26.9-11.51h-31.1v100h11.8v-28H584l23.64,27.65.3.35h15.51L597.77,80.65A38.59,38.59,0,0,0,610.59,73.06Zm8.49,35.65H608.83L585.19,81.06l-.3-.35H564.25v28h-7.8v-96h29.1A33.88,33.88,0,0,1,611,23.59a33,33,0,0,1,9.25,23.12,32.79,32.79,0,0,1-11,24.87,36.47,36.47,0,0,1-13.5,7.63l-1.45.45Z"/><path d="M607.21,62.29a25.45,25.45,0,0,0,5.24-15.58,24.94,24.94,0,0,0-9.76-20.25,27.09,27.09,0,0,0-17.14-5.95h-21.3v52.4h22.6A25.88,25.88,0,0,0,607.21,62.29Zm-20.4,8.62H566.25V22.51h19.3A25.09,25.09,0,0,1,601.44,28a23,23,0,0,1,9,18.68,23.5,23.5,0,0,1-4.84,14.38A24,24,0,0,1,586.81,70.91Z"/><path d="M689,22.51V10.71H631v100h58V98.91h-46.2V82.71h39.06V70.91H642.83V22.51Zm-9.14,50.4v7.8H640.83v20.2H687v7.8H633v-96h54v7.8h-46.2v52.4Z"/></svg>