<svg id="Capa_1" data-name="Capa 1" xmlns="http://www.w3.org/2000/svg" viewBox="0 0 500.38 182.52"><path d="M34.59,10.8A26.66,26.66,0,0,1,53.79,18l1.12,1.12-4,3.92a21.42,21.42,0,0,0-16-6.64,22.58,22.58,0,0,0-8.24,1.68A21.72,21.72,0,0,0,14.91,29.36a22.62,22.62,0,0,0-2.08,9.52,21.63,21.63,0,0,0,6.64,16,22,22,0,0,0,7.12,4.8,21.17,21.17,0,0,0,17.52-.24,22.85,22.85,0,0,0,6.72-4.64l4,3.92A26.86,26.86,0,0,1,36.11,67,28.11,28.11,0,0,1,24.43,64.8,27.08,27.08,0,0,1,10.27,51.52a27.72,27.72,0,0,1-3-12.72,27.24,27.24,0,0,1,7.6-19.2,28.32,28.32,0,0,1,9.68-6.72A29.89,29.89,0,0,1,34.59,10.8Z"/><path d="M86.59,10.88A26.81,26.81,0,0,1,106,18.72a27.34,27.34,0,0,1,8.48,19v1.2a27.12,27.12,0,0,1-7.84,19.44,26.52,26.52,0,0,1-18.72,8.56H86.59A26.69,26.69,0,0,1,67.31,59a27.3,27.3,0,0,1-8.48-19v-1.2a27.08,27.08,0,0,1,7.84-19.44,26.52,26.52,0,0,1,18.72-8.56Zm0,5.6a21.24,21.24,0,0,0-16,6.88,21.9,21.9,0,0,0-6.16,15.52A21.43,21.43,0,0,0,71.31,55a22,22,0,0,0,31.36-.64,21.94,21.94,0,0,0,6.16-15.52A21.47,21.47,0,0,0,102,22.72,21.4,21.4,0,0,0,86.59,16.48Z"/><path d="M127,10.88l4.64,8.88L150,54.8l18.32-35L172.91,11l6.24,55.92h-5.68l-4.08-37.12L150,66.88l-3.12-6L130.51,29.76l-4.16,37.12h-5.6Z"/><path d="M187.07,10.88h32v5.6h-26.4v28.8H215v5.6H192.67v10.4h26.4v5.6h-32Z"/><path d="M251.06,10.88h37.6v5.6h-16v50.4h-5.6V16.48h-16Z"/><path d="M316.34,10.88a26.79,26.79,0,0,1,19.36,7.84,27.3,27.3,0,0,1,8.48,19v1.2a27.08,27.08,0,0,1-7.84,19.44,26.52,26.52,0,0,1-18.72,8.56h-1.28A26.73,26.73,0,0,1,297.06,59a27.34,27.34,0,0,1-8.48-19v-1.2a27.12,27.12,0,0,1,7.84-19.44,26.52,26.52,0,0,1,18.72-8.56Zm0,5.6a21.27,21.27,0,0,0-16,6.88,21.94,21.94,0,0,0-6.16,15.52A21.47,21.47,0,0,0,301.06,55a22,22,0,0,0,31.36-.64,21.9,21.9,0,0,0,6.16-15.52,21.43,21.43,0,0,0-6.88-16.16A21.4,21.4,0,0,0,316.34,16.48Z"/><path d="M7.23,113.88h6.08l17.52,41.6,17.44-41.6h6.08l-20.48,48.8-3,7.2Z"/><path d="M62.11,113.88h5.6v56h-5.6Z"/><path d="M96,113.8a27.06,27.06,0,0,1,19,7.52c.26.27.5.53.72.8L111.79,126A21.62,21.62,0,0,0,96,119.4q-9.84,0-13.12,6.64a11.23,11.23,0,0,0-1.12,5q0,5.52,3.76,8.4a2.78,2.78,0,0,0,.4.24q3.27,2.33,10.64,4,8.79,1.92,9.92,2.32a16.06,16.06,0,0,1,2.16.72,13.32,13.32,0,0,1,4.88,3.28,8.91,8.91,0,0,1,2.16,5.92q0,6.17-6.08,10.16a2.33,2.33,0,0,0-.4.32,25.55,25.55,0,0,1-13.6,3.52,26.86,26.86,0,0,1-19-7.52,5.49,5.49,0,0,1-.8-.8l4-3.92a21.43,21.43,0,0,0,15.84,6.64,19.63,19.63,0,0,0,10.64-2.72c2.56-1.65,3.84-3.55,3.84-5.68a4.25,4.25,0,0,0-.72-2.24,9.06,9.06,0,0,0-2.8-1.76,110.74,110.74,0,0,0-11-2.72.72.72,0,0,0-.24-.08q-8.57-1.92-12.72-4.88-6.41-4.63-6.48-13.2a15.61,15.61,0,0,1,5.6-12.16Q87.31,113.8,96,113.8Z"/><path d="M123.71,113.88h5.6v56h-5.6Z"/><path d="M137.31,113.88H174.9v5.6h-16v50.4h-5.59v-50.4h-16Z"/><path d="M206.82,113.88h37.6v5.6h-16v50.4h-5.6v-50.4h-16Z"/><path d="M253.94,113.88h5.6v34.4h26.4v-34.4h5.6v56h-5.6v-16h-26.4v16h-5.6Z"/><path d="M301.06,113.88h32v5.6h-26.4v28.8H329v5.6H306.66v10.4h26.4v5.6h-32Z"/><path d="M385.3,113.8a27.06,27.06,0,0,1,19,7.52c.26.27.5.53.72.8L401.14,126a21.62,21.62,0,0,0-15.84-6.64q-9.84,0-13.12,6.64a11.23,11.23,0,0,0-1.12,5q0,5.52,3.76,8.4a2.78,2.78,0,0,0,.4.24q3.27,2.33,10.64,4,8.79,1.92,9.92,2.32a16.06,16.06,0,0,1,2.16.72,13.32,13.32,0,0,1,4.88,3.28,8.91,8.91,0,0,1,2.16,5.92Q405,162,398.9,166a2.33,2.33,0,0,0-.4.32,25.55,25.55,0,0,1-13.6,3.52,26.86,26.86,0,0,1-19-7.52,5.49,5.49,0,0,1-.8-.8l4-3.92a21.43,21.43,0,0,0,15.84,6.64,19.63,19.63,0,0,0,10.64-2.72c2.56-1.65,3.84-3.55,3.84-5.68a4.25,4.25,0,0,0-.72-2.24,9.06,9.06,0,0,0-2.8-1.76,110.74,110.74,0,0,0-11-2.72.72.72,0,0,0-.24-.08q-8.57-1.92-12.72-4.88-6.4-4.63-6.48-13.2a15.61,15.61,0,0,1,5.6-12.16Q376.66,113.8,385.3,113.8Z"/><path d="M417.22,113.88h13a19.82,19.82,0,0,1,15,6.4,19.75,19.75,0,0,1-1,28.24,20.09,20.09,0,0,1-13.92,5.36h-11.6v16h-5.6v-56Zm1.44,5.6v28.8h11.6a14.21,14.21,0,0,0,11.52-5.36,13.92,13.92,0,0,0,3.28-9,13.65,13.65,0,0,0-5.36-11.12,14.84,14.84,0,0,0-9.44-3.28Z"/><path d="M469.46,113.88l3,7.2L493,169.88H486.9l-3.52-8.4H455.46l-3.52,8.4h-6.08Zm0,14.4-11.6,27.6h23.2Z"/></svg>