<svg xmlns="http://www.w3.org/2000/svg" width="100" height="100" viewBox="0 0 100 100">
  <path id="Icon_awesome-facebook-square" data-name="Icon awesome-facebook-square" d="M89.286,2.25H10.714A10.714,10.714,0,0,0,0,12.964V91.536A10.714,10.714,0,0,0,10.714,102.25H41.35v-34H27.288v-16H41.35v-12.2c0-13.873,8.259-21.536,20.908-21.536A85.193,85.193,0,0,1,74.652,19.6V33.214h-6.98c-6.877,0-9.022,4.268-9.022,8.645V52.25H74l-2.455,16H58.65v34H89.286A10.714,10.714,0,0,0,100,91.536V12.964A10.714,10.714,0,0,0,89.286,2.25Z" transform="translate(0 -2.25)" fill="#2c2c2c"/>
</svg>
