<svg id="Capa_1" data-name="Capa 1" xmlns="http://www.w3.org/2000/svg" viewBox="0 0 150 150"><path d="M48.64,29.11a4.35,4.35,0,0,0-.81-4.06,4.59,4.59,0,0,0-2.66-1.86,5,5,0,0,0-3.26.44,4.63,4.63,0,0,0,.71-2.58,4.51,4.51,0,0,0-1-2.58,4.17,4.17,0,0,0-3.54-1.82,8.19,8.19,0,0,0-4.67,1.92l-6.51,4.89L38.25,38.54l6.94-5.21A9,9,0,0,0,48.64,29.11ZM29.5,23.58,34.31,20a6,6,0,0,1,3.35-1.42,2.92,2.92,0,0,1,2.52,1.29,2.92,2.92,0,0,1,.53,2.78,6,6,0,0,1-2.29,2.82l-4.81,3.61ZM44.18,32l-5.32,4L34.6,30.37l5.32-4q4.09-3.07,6.22-.25a3,3,0,0,1,.58,2.93A6.85,6.85,0,0,1,44.18,32Z"/><path d="M56.86,24.8a7.6,7.6,0,0,0,6,.69,7.59,7.59,0,0,0,5-3.39,8.5,8.5,0,0,0,.53-6.43L65.93,5.17l-1.88.46,2.53,10.42a7,7,0,0,1-.28,5.12,5.57,5.57,0,0,1-3.81,2.59A5.49,5.49,0,0,1,58,23.2a7,7,0,0,1-2.6-4.41L52.81,8.37l-1.93.47,2.55,10.5A8.44,8.44,0,0,0,56.86,24.8Z"/><polygon points="81.16 24.17 83.12 24.43 83.97 17.96 93.05 6.7 91.08 6.45 83.28 16.1 78.25 4.76 76.14 4.48 82.01 17.7 81.16 24.17"/><path d="M105.83,27.32l8.35,6.37-1.25,5.38,1.67,1.27,4.58-20.23-1.56-1.19-18.3,9.77L101,30Zm11.3-6.16L114.59,32l-7.21-5.49Z"/><path d="M18.26,91.7l-5.82,1a7.57,7.57,0,0,1-2.11-4.28,7.72,7.72,0,0,1,.28-3.93,7,7,0,0,1,2.11-3.08A7.52,7.52,0,0,1,20,80.14a7,7,0,0,1,3,2.21A7.86,7.86,0,0,1,24.63,86a7.18,7.18,0,0,1-1.12,5.55l1.35.93a7.18,7.18,0,0,0,1.39-3.1,10.44,10.44,0,0,0,0-3.74,9.83,9.83,0,0,0-1.94-4.49,8.53,8.53,0,0,0-3.71-2.71A8.86,8.86,0,0,0,15.9,78a8.82,8.82,0,0,0-4.3,2A8.52,8.52,0,0,0,9,83.77a9.65,9.65,0,0,0-.33,4.86A10.83,10.83,0,0,0,9.85,92,8.71,8.71,0,0,0,12,94.59l6.58-1.14Z"/><rect x="14.59" y="102.9" width="17.52" height="1.85" transform="translate(-46.19 23.27) rotate(-28.13)"/><polygon points="23.55 120.02 24.87 121.32 30.09 116.02 36.54 122.38 37.66 121.24 31.21 114.88 36.04 109.98 43.28 117.11 44.4 115.96 35.84 107.54 23.55 120.02"/><polygon points="46.52 119.61 52.08 122.25 45.26 136.63 46.93 137.42 53.76 123.05 59.32 125.69 60 124.24 47.21 118.17 46.52 119.61"/><path d="M84.32,141.37a7.58,7.58,0,0,1-3.86-.5,6.87,6.87,0,0,1-3-2.27,7.64,7.64,0,0,1-.88-7.35,7,7,0,0,1,2.34-2.9A7.66,7.66,0,0,1,82.6,127,7,7,0,0,1,88,128.41l1-1.31a7.51,7.51,0,0,0-3-1.55A10.28,10.28,0,0,0,77.82,127a8.49,8.49,0,0,0-2.89,3.56,9,9,0,0,0-.64,4.68A8.86,8.86,0,0,0,76,139.65a8.35,8.35,0,0,0,3.64,2.78,9.46,9.46,0,0,0,4.79.59A9.61,9.61,0,0,0,88,141.94a7.65,7.65,0,0,0,2.57-2.24l-1.31-1A6.86,6.86,0,0,1,84.32,141.37Z"/><path d="M98.45,120.14l1.58,19.2,1.68-1-.46-5.1,8.52-4.77,4.12,3,1.7-.95-15.54-11.37Zm10,7.4-7.34,4.11-.93-10.27Z"/><path d="M125.69,107.55a5.73,5.73,0,0,0-2.1-3,5.45,5.45,0,0,0-4.64-1.21,7.92,7.92,0,0,0-4.5,3.15l-4,5.17,13.8,10.78,1.14-1.46L121,117.61l2.9-3.7c.3-.39.56-.77.8-1.15l6.9.31,1.25-1.6-7.37-.33A5.74,5.74,0,0,0,125.69,107.55ZM122.61,113l-2.87,3.67-6.92-5.41,2.87-3.66a6.09,6.09,0,0,1,3.34-2.44,4.53,4.53,0,0,1,5.12,4A6.06,6.06,0,0,1,122.61,113Z"/><path d="M140.34,87.44a8.13,8.13,0,0,0-2.24-3.94,9.39,9.39,0,0,0-8.83-2.14,8.13,8.13,0,0,0-3.79,2.48,10.48,10.48,0,0,0-2.24,4.51l-1.67,6.93,17,4.12,1.68-6.94A10.43,10.43,0,0,0,140.34,87.44Zm-1.65,4.75-1.22,5-13.91-3.36,1.22-5a8.53,8.53,0,0,1,1.83-3.7,6.71,6.71,0,0,1,3.09-2,7.73,7.73,0,0,1,7.22,1.75,6.6,6.6,0,0,1,1.83,3.19A8.56,8.56,0,0,1,138.69,92.19Z"/><path d="M99.18,60.88H94.06a7.52,7.52,0,0,0-1.65-7.41,7.86,7.86,0,0,0-10.8,0l-6.67,6.29-6.7-6.31a7.86,7.86,0,0,0-10.78,0,7.52,7.52,0,0,0-1.65,7.41h-5V74.93h4.65V98.69H94.53V74.93h4.65ZM58.84,54.8a5.93,5.93,0,0,1,8.1,0l6.42,6H57.85A5.78,5.78,0,0,1,58.84,54.8Zm15.2,42H57.39V74.93H74ZM74,73H52.75V62.81H74Zm8.87-18.15A5.93,5.93,0,0,1,91,54.8a5.76,5.76,0,0,1,1,6.08H76.51Zm9.7,41.92H76V74.93H92.61ZM97.25,73H76V62.81H97.25Z"/></svg>