<svg id="Capa_1" data-name="Capa 1" xmlns="http://www.w3.org/2000/svg" viewBox="0 0 61.2 292.32"><defs><style>.cls-1{fill:#828c7a;opacity:0.7;}.cls-2{fill:#fbfbfb;}</style></defs><path class="cls-1" d="M15.28,7.24h40a0,0,0,0,1,0,0v280a0,0,0,0,1,0,0h-40a10,10,0,0,1-10-10v-260a10,10,0,0,1,10-10Z"/><path class="cls-2" d="M37,235A3.39,3.39,0,0,0,34,233.59a3.7,3.7,0,0,0-2.36.74,3.77,3.77,0,0,0-1.28,2,3.46,3.46,0,0,0-3.29-2,3.27,3.27,0,0,0-2.79,1.39,6.54,6.54,0,0,0-1,3.9l0,6.59,14.7-.07,0-7A7.11,7.11,0,0,0,37,235Zm-11.92,9.16,0-4.3a4.37,4.37,0,0,1,.58-2.49,2.21,2.21,0,0,1,3.51,0,4.34,4.34,0,0,1,.61,2.48l0,4.31Zm6.4,0,0-4.83q0-3.59,2.44-3.6a2,2,0,0,1,1.85.89,4.89,4.89,0,0,1,.6,2.69l0,4.83Z"/><path class="cls-2" d="M36.46,228a7.08,7.08,0,0,0,0-9.16,6.63,6.63,0,0,0-4.84-1.61l-8.36,0v2l8.27,0a5.11,5.11,0,0,1,3.57,1,4,4,0,0,1,1.18,3.08q0,4.14-4.71,4.16l-8.27,0v2.1l8.36,0A6.63,6.63,0,0,0,36.46,228Z"/><polygon class="cls-2" points="37.88 208.68 37.87 206.6 32.78 206.63 23.14 200.84 23.15 202.92 30.92 207.6 23.19 212.34 23.2 214.59 32.75 208.71 37.88 208.68"/><path class="cls-2" d="M37.79,191.38l-3.68-1.6,0-7.81,3.67-1.64v-2.2l-14.67,6.75V187l14.73,6.58Zm-12.58-5.46,7.19-3.21,0,6.34Z"/><path class="cls-2" d="M26.47,168.85a7.81,7.81,0,0,0,7.72,0A7.15,7.15,0,0,0,36.86,166a8.18,8.18,0,0,0,1-4,9.24,9.24,0,0,0-.5-3,7.65,7.65,0,0,0-1.4-2.54l-5.73,0v2l4.79,0a6.32,6.32,0,0,1,1,3.44,6,6,0,0,1-.72,3,5.37,5.37,0,0,1-2,2.1,5.61,5.61,0,0,1-2.88.77,5.68,5.68,0,0,1-2.91-.74,5.34,5.34,0,0,1-2-2.08,6.24,6.24,0,0,1-.74-3,6,6,0,0,1,1.68-4.28L25,156.35a6.47,6.47,0,0,0-1.68,2.45,8.69,8.69,0,0,0-.57,3.21,8.45,8.45,0,0,0,1,4A7.2,7.2,0,0,0,26.47,168.85Z"/><rect class="cls-2" x="22.9" y="149.5" width="14.7" height="2.1" transform="translate(-0.72 0.15) rotate(-0.27)"/><polygon class="cls-2" points="31.58 134.77 29.77 134.78 29.81 142.15 24.68 142.18 24.64 133.9 22.82 133.91 22.87 144.28 37.57 144.22 37.56 142.12 31.61 142.14 31.58 134.77"/><polygon class="cls-2" points="24.64 132.12 24.61 127.08 37.48 127.02 37.48 124.94 24.6 125 24.58 119.96 22.75 119.97 22.81 132.13 24.64 132.12"/><path class="cls-2" d="M26.2,110.52a7.9,7.9,0,0,0,7.71,0,7.12,7.12,0,0,0,2.67-2.8,8,8,0,0,0,1-4,8.31,8.31,0,0,0-.6-3.16,6.57,6.57,0,0,0-1.74-2.44l-1.31,1.37a5.51,5.51,0,0,1,1.78,4.13,5.87,5.87,0,0,1-.72,3,5.32,5.32,0,0,1-2,2.08,6,6,0,0,1-5.77,0,5.38,5.38,0,0,1-2-2.06,6.08,6.08,0,0,1-.75-3,5.49,5.49,0,0,1,1.73-4.14l-1.33-1.36a6.41,6.41,0,0,0-1.7,2.44,8.3,8.3,0,0,0-.56,3.16,8,8,0,0,0,1,4A7.22,7.22,0,0,0,26.2,110.52Z"/><path class="cls-2" d="M22.61,90.25l14.73,6.59V94.68l-3.68-1.6,0-7.81,3.67-1.64v-2.2L22.6,88.17ZM31.93,86l0,6.34-7.21-3.14Z"/><path class="cls-2" d="M30.52,67.41a4.93,4.93,0,0,0-2.9-.83,4.61,4.61,0,0,0-3.75,1.66,6.79,6.79,0,0,0-1.35,4.5l0,5.73,14.7-.07V76.3l-4.47,0,0-3.63c0-.22,0-.53,0-.92l4.5-3.2V66.29L32.27,69.8A4.7,4.7,0,0,0,30.52,67.41Zm-6.15,9,0-3.57a4.65,4.65,0,0,1,.84-3,3,3,0,0,1,2.44-1.07,3,3,0,0,1,2.46,1,4.71,4.71,0,0,1,.88,3v3.57Z"/><path class="cls-2" d="M37.14,56.1A8.88,8.88,0,0,0,36.2,52a6.77,6.77,0,0,0-2.61-2.79,7.26,7.26,0,0,0-3.83-1,7.34,7.34,0,0,0-3.83,1A6.78,6.78,0,0,0,23.35,52a9.07,9.07,0,0,0-.91,4.14l0,6.2,14.7-.07ZM24.29,60.26l0-4A6.82,6.82,0,0,1,25,53.15a5,5,0,0,1,1.93-2.1,6,6,0,0,1,5.78,0,5.09,5.09,0,0,1,2,2.08,6.82,6.82,0,0,1,.71,3.14l0,4Z"/></svg>