<svg id="logo_Imagen" data-name="logo Imagen" xmlns="http://www.w3.org/2000/svg" viewBox="0 0 537.12 560.64"><defs><style>.cls-1{fill:#fff;}.cls-1,.cls-2{fill-rule:evenodd;}</style></defs><title>logo</title><path class="cls-1" d="M437.82,222.79l-1.1.33c-1.41.44-2.79,1-4.73,1.64l-0.09.35q3.49,0.88,7,1.71C438.52,225.47,438.17,224.13,437.82,222.79Z" transform="translate(-0.48 -0.48)"/><path class="cls-2" d="M334.07,182.55c4.7,2.59,9.48,4.88,15.24,5.12a69.2,69.2,0,0,1-7.71-2.53,36.77,36.77,0,0,1-7.17-4.28,39.73,39.73,0,0,1-5.76-5.73c-2.95-3.47-3.85-5.31-3.8-6.91l8.27,7.48,0.42-.41c-0.4-.45-0.78-0.93-1.21-1.36a63.11,63.11,0,0,1-10.6-14.46,10.7,10.7,0,0,1-.58-1.59l0.54-.29c1.32,1.91,2.59,3.87,4,5.73a68.86,68.86,0,0,0,4.4,5.38,58.18,58.18,0,0,0,5.17,5c1.74,1.47,3.67,2.72,5.52,4.07l0.35-.44c-0.52-.46-1-0.95-1.57-1.39A62,62,0,0,1,325,159.81c-1.39-2.32-2.45-4.84-3.6-7.3a4.68,4.68,0,0,1-.17-1.44l0.48-.14c1.13,2.05,2.17,4.16,3.42,6.14a64.54,64.54,0,0,0,4,5.65,17.21,17.21,0,0,0,5.26,4.67c-3.74-4.51-7.61-8.91-8.82-14.89,2.62,3.54,5.12,7.17,8.79,9.74a23.08,23.08,0,0,0,2.27,1.25l1.29-2.35c0.6,1.23,1,2,1.4,2.87a46.43,46.43,0,0,0,10.23,15.51,31.8,31.8,0,0,0,23.85,9.42,7.24,7.24,0,0,1,6.31,3.2,4.21,4.21,0,0,1,.6,1c0.28,0.75.63,1.74-.26,2.11a2.74,2.74,0,0,1-2.15-.44,6,6,0,0,1-1.46-1.86,2.85,2.85,0,0,0-3.51-1.34,15.58,15.58,0,0,0-4.7,2.23c-6.54,5.26-13.49,5.82-20.79,2a39.53,39.53,0,0,1-6.82-4.92c3.49,1.34,6.92,2.77,10.71,2.85A33.49,33.49,0,0,1,334.07,182.55Z" transform="translate(-0.48 -0.48)"/><path class="cls-2" d="M361.88,176.12c0.76,0.66,1.51,1.34,2.3,2,0.43,0.35,1.28.59,1.32,1,0.3,2.47,2.54,2.16,4,2.93,0.61,0.32,1.28.52,2.45,1a6.58,6.58,0,0,1-1.65.48,23.56,23.56,0,0,1-8.47-2.43c-7-3.42-12-8.92-15.51-15.79a8.1,8.1,0,0,1-.38-1.25,5.06,5.06,0,0,1,3.95,2.63,45.39,45.39,0,0,0,2.92,4.22l0.4-.26-3-4.65c4.2,0.58,8,1.92,12.59,1.39l-1.41,1.23,0.09-.07a8.06,8.06,0,0,0-1.81.38c-2.17,1-2.64,2.46-1.17,4.32A25.12,25.12,0,0,0,362,176.2Zm-7.28-3.84-0.18.21,0.94,0.82,0.17-.19Z" transform="translate(-0.48 -0.48)"/><path class="cls-2" d="M363,185.65c-1.24-.33-2.05-0.47-2.82-0.75a29.91,29.91,0,0,1-11.47-8,38.44,38.44,0,0,1-8.63-15.19,5.61,5.61,0,0,1,1.34.91,9.18,9.18,0,0,1,.88,1.69,51.13,51.13,0,0,0,9.25,13,31,31,0,0,0,10,6.88,9.07,9.07,0,0,1,1,.56A5.1,5.1,0,0,1,363,185.65Z" transform="translate(-0.48 -0.48)"/><path class="cls-2" d="M361.4,168.52L367,168l0.11,0.36c-0.9.44-1.84,0.82-2.68,1.35-2.09,1.31-2.31,2.9-.71,4.76a14.36,14.36,0,0,0,1.57,1.47c0.53,0.46,1.1.87,1.66,1.31a1.23,1.23,0,0,1-2,.63c-1-.61-2.05-1.18-3.08-1.76L362,176.2c-0.74-.8-1.53-1.57-2.21-2.42-1.58-2-1.31-3.37.83-4.67,0.32-.19.61-0.44,0.91-0.66Z" transform="translate(-0.48 -0.48)"/><path class="cls-2" d="M344.94,166.59a2,2,0,0,1-1.06-2.87C345.48,164.15,345.22,165.19,344.94,166.59Z" transform="translate(-0.48 -0.48)"/><path class="cls-2" d="M370.74,185.24l1.12-.06v0.59l-1.13-.11C370.73,185.52,370.73,185.38,370.74,185.24Z" transform="translate(-0.48 -0.48)"/><path class="cls-2" d="M359,180.84a2,2,0,0,1-.68.45,2.83,2.83,0,0,1-.66-0.52,1.09,1.09,0,0,1,.43-0.37A3.8,3.8,0,0,1,359,180.84Z" transform="translate(-0.48 -0.48)"/><path class="cls-2" d="M364.06,183.54a1.88,1.88,0,0,1-.71.35,2.86,2.86,0,0,1-.62-0.56,1.13,1.13,0,0,1,.49-0.34A3.49,3.49,0,0,1,364.06,183.54Z" transform="translate(-0.48 -0.48)"/><path class="cls-2" d="M368,184.63c0.35,0.15.7,0.29,1,.46a1.15,1.15,0,0,1-.13.37c-0.37-.05-0.74-0.14-1.11-0.22Z" transform="translate(-0.48 -0.48)"/><path class="cls-2" d="M356.43,179.43a2,2,0,0,1-.69.41,3,3,0,0,1-.64-0.56,1.16,1.16,0,0,1,.48-0.37A3.38,3.38,0,0,1,356.43,179.43Z" transform="translate(-0.48 -0.48)"/><path class="cls-2" d="M354,178l-1-.51,0.3-.52,1,0.64Z" transform="translate(-0.48 -0.48)"/><path class="cls-1" d="M361.49,168.45c-0.3.22-.59,0.47-0.91,0.66-2.14,1.31-2.41,2.71-.83,4.67,0.68,0.85,1.47,1.61,2.21,2.42a25.12,25.12,0,0,1-3.45-3.06c-1.47-1.86-1-3.32,1.17-4.32A8.06,8.06,0,0,1,361.49,168.45Z" transform="translate(-0.48 -0.48)"/><path class="cls-1" d="M354.59,172.27l0.93,0.83-0.17.19-0.94-.82Z" transform="translate(-0.48 -0.48)"/><path class="cls-2" d="M277,561.12h-14.4c-1.11-.13-2.21-0.33-3.32-0.39a301.88,301.88,0,0,1-30.54-3.06,255.58,255.58,0,0,1-75-24.08c-46.47-23.4-83.16-57.53-110.41-101.75C17.9,390.67,4.14,345.78,1.33,297.51c-0.13-2.22-.56-4.42-0.85-6.63V270.72c0.29-2.29.72-4.58,0.84-6.87A279,279,0,0,1,8.1,215.72c13.56-58.32,42-108,86.77-147.95C141,26.65,195,4,256.9.86a11.79,11.79,0,0,0,1.82-.38h21.12a19.34,19.34,0,0,0,2.06.39c6.61,0.55,13.25.86,19.83,1.67a248.26,248.26,0,0,1,52,12.11C403.15,32,443.9,61.58,476.4,102.56A280.19,280.19,0,0,1,530.26,215.2a255.76,255.76,0,0,1,7,54.85c0,1.35.24,2.69,0.37,4v13c-0.15,2.22-.32,4.45-0.43,6.67-0.17,3.19-.23,6.39-0.45,9.58a265.88,265.88,0,0,1-6.46,42.87c-12.6,53.73-38.21,100.23-77.6,139a264.55,264.55,0,0,1-71.08,50,260.25,260.25,0,0,1-101.83,25.53A27.38,27.38,0,0,0,277,561.12Zm137.5-434.78a2.5,2.5,0,0,0,.62-0.93c0.21-3.42.76-6.87,0-10.27a10.5,10.5,0,0,1,1.47-8.26c0.24-.39.45-0.8,0.68-1.21a3.34,3.34,0,0,0-4.47-.12c-0.79.55-1.6,1.06-2.35,1.65s-1.45,1.26-2.17,1.9c-0.24.21-.45,0.45-0.69,0.67a1.59,1.59,0,0,1-2.17.26c-0.83-.58-0.71-1.3-0.36-2.12a11.67,11.67,0,0,1,8.31-7c0.7-.18,1.38-0.41,2.07-0.62l-0.08-.54c-0.93-.13-1.86-0.29-2.79-0.39-2.3-.25-4.62-0.46-6.92-0.72-1.57-.18-3.12-0.63-4.58.5a3.43,3.43,0,0,1-1.62,0l0.21,1.27c1,6.47,2.3,12.91,3,19.41,1.13,9.85,1.84,19.74,2.82,29.61a48,48,0,0,1-1.94,19.89c-1.61,4.94-3,9.94-4.41,14.94a25.29,25.29,0,0,0-.69,12.1,39.13,39.13,0,0,0,3.82,10.82c4.11,7.59,8.42,15.06,12.58,22.62A90.55,90.55,0,0,1,420,240.08c1.82,4.61.45,8.43-3.48,11.43a24.79,24.79,0,0,1-8,3.82,43.78,43.78,0,0,0-5.65,2c-3.95,1.84-5,4.16-3.82,8.33a8.18,8.18,0,0,1-2.24,8.57c-1,1-2.05,1.78-3.11,2.63-3.31,2.68-4.7,6-3.27,10.17a7.45,7.45,0,0,1-2.31,8.46,17.88,17.88,0,0,0-1.68,1.71,9.49,9.49,0,0,0-2.16,8.72c0.21,0.85.44,1.7,0.62,2.56a18.07,18.07,0,0,1-11.22,20.94c-7.69,2.92-15.62,4-23.76,2-7.06-1.75-14.1-3.52-21.16-5.25-6.44-1.57-12.88-3.13-19.35-4.61-2.12-.49-2.68-0.15-3.57,1.81a47.62,47.62,0,0,0-4.59,20.18c0,4.83.42,9.68,2.19,14.14A45.09,45.09,0,0,0,323,380.57a101,101,0,0,0,18.34,8.23c17.58,6,35.76,8.32,54.25,8.49,8.39,0.08,16.79-.3,25.19-0.32a189.33,189.33,0,0,1,29.89,1.94c3.87,0.61,7.75,1.3,11.18,3.36s6.91,4.33,10.37,6.49a8.75,8.75,0,0,0,1.46.82c2.29,0.87,3.66.15,4.32-2.23,0.13-.46.19-0.94,0.35-1.39a4.5,4.5,0,0,1,6.17-2.85c0.6,0.22,1.18.49,1.75,0.77,1.06,0.51,1.67.13,2-.94a9,9,0,0,0,.3-1.16c0.53-3.88,1.3-7.75,1.5-11.65,0.3-5.93,1.79-11.34,5.56-16a9,9,0,0,0,.54-0.8c4.94-7.64,4.57-15.53-1.15-22.64-1.18-1.47-1.65-2.83-.59-4.57a2.21,2.21,0,0,0,.17-1.95c-1.54-1.71-1.43-3.83-1.78-5.86a4.61,4.61,0,0,1,2.38-5.26c3.5-2,4.67-5.08,3.92-9a4.79,4.79,0,0,1-.11-0.71,4.34,4.34,0,0,1,1.36-3.89,3.06,3.06,0,0,0,.81-2.32c-0.36-3.64-1.93-6.58-5.45-8.13-1.83-.81-3.67-1.57-5.52-2.32-2.22-.91-4.43-1.84-6.68-2.65-1.62-.58-2.38.09-1.95,1.74a29.56,29.56,0,0,0,1.7,4.72,5.58,5.58,0,0,0,5.58,3.41c1.28,0,2.54-.22,3.82-0.32,3.28-.23,5.33,1.54,5.58,4.84a6.75,6.75,0,0,1-3.1,6.58c-3,2-6.34,3.81-8,7.06a48.7,48.7,0,0,0-6.06-2.1,6.84,6.84,0,0,1-4.39-3c-0.83-1.16-1.87-2.16-2.81-3.24a5.72,5.72,0,0,1-.38-0.57l1.58-.54c0.06-2.94.06-2.94,2.77-3.54,2-.46,2.33-0.77,1.76-2.77-1.08-3.84-2.25-7.66-3.47-11.47a4.93,4.93,0,0,1,.21-4.11,10.18,10.18,0,0,0,.74-6.56c-0.36-2.12-.7-4.25-0.89-6.4a10.35,10.35,0,0,0-6.87-9.26c-1.7-.7-3.4-1.4-5.08-2.14-1.13-.5-2.16-1.17-2.16-2.59,0-.91,1.36-1.76,3-2a8.78,8.78,0,0,0,1-.06c1-.23,1.93-0.5,3-0.79-2.44-3.22-4.53-4.29-8.15-4a50.83,50.83,0,0,1-22.37-3.1,15,15,0,0,0-2.38-.46L436,265.71c-1.73.56-2.64,2.06-3.4,3.67a14.67,14.67,0,0,1-6.84,7.42c-1.93.94-2.5,2.83-2.22,4.9a6.09,6.09,0,0,0,2.39,4.29,9.13,9.13,0,0,1,3.41,5.61c0.45,1.87.86,3.74,1.27,5.61a13.9,13.9,0,0,0,2.52,5.11c-0.2-3.95,2-6.1,5.27-7.41a3.51,3.51,0,0,0,.82-0.48,6.45,6.45,0,0,1,5.25-1,5.39,5.39,0,0,0,2.29-.12,5.06,5.06,0,0,1,4.37.5,12.13,12.13,0,0,0,1.62.74c2-1.59,2.1-1.76,2.1-3.34a6.59,6.59,0,0,1,7.95-6.6,9.48,9.48,0,0,1,1.85.85c-1.28,1.57-2.12,3.28-3.5,4.17-3.54,2.27-4.87,5.6-5.06,9.47a4.19,4.19,0,0,1-1.93,3.8,15.28,15.28,0,0,0-6.36,7.34l-4.63,1.4a9.43,9.43,0,0,0-8-2.06,4.14,4.14,0,0,0-3.8,3.71c-0.41,2.42-.09,4.6,2.07,6.19a32,32,0,0,1,2.6,2.12,17.83,17.83,0,0,1,2.33,2.4c1.16,1.56,1.74,3.3.56,5.12a4.76,4.76,0,0,1-4.8,2.07,3.7,3.7,0,0,1-3.41-4.75,14,14,0,0,1,1.14-2.63c0.64-1.32.54-2-.64-2.85a15.26,15.26,0,0,0-2.11-1.12c-2.49-1.24-3.14-2.37-2.87-5.17a17.28,17.28,0,0,1,.31-1.89,51.49,51.49,0,0,0,1.23-6.1,11.47,11.47,0,0,0-.6-4.65c-0.87-2.45-2-2.74-4.46-2-1.11.32-2.54,0.72-3.46,0.3-2.83-1.3-5.55-2.92-6.72-6.13a6.43,6.43,0,0,0-5.33-4.28c-1.31-.24-2.6-0.6-4-0.94l0.5-1.19c1.94,0.23,3.76.43,5.58,0.67,6.74,0.92,8.94,3.09,9.37,8.27,0.16,1.93,1,2.17,3.21,1.2-1.56-2.43-3.13-4.81-4.64-7.23-0.55-.89-1.58-1.69-0.68-3a1.78,1.78,0,0,0-.5-1.26c-2.14-2.63-2.79-5.85-3.65-9.18a19.34,19.34,0,0,0,11.76-7.83,3.37,3.37,0,0,0-1.63.69,8.15,8.15,0,0,1-8.35,1.35,16.65,16.65,0,0,1-9-7.49,8.57,8.57,0,0,1-.54-1.64c4.21-.71,8.2-1.51,12.23-2a6.37,6.37,0,0,1,5.53,2.37,7,7,0,0,1,.78,2.06H409.89c1.54,1.09,2.75,1.39,5.51,1.68,3.46,0.36,7-.56,10.38,1,1.66-3,3-5.86,2.74-9-0.35-3.81-1.19-7.57-1.84-11.35a9.83,9.83,0,0,0-2.27-4.93,33.88,33.88,0,0,1-3.21-4.48,4.82,4.82,0,0,1-.64-2.44c0-5.67.15-11.33-2.17-16.7a13.18,13.18,0,0,1-.8-2.76c-0.19-1-.22-2-0.34-3.15a12.28,12.28,0,0,1-4.73-8.4c-0.51-3.23-.46-6.53,1.7-9.16a10.79,10.79,0,0,0,2.43-5.57,7.62,7.62,0,0,1,.55-2.08,4.55,4.55,0,0,0-.05-3.7c-1.63-4.42-3.16-8.89-4.79-13.31-1-2.66-.77-4.91,1.44-7,2.87-2.66,5.59-5.49,8.34-8.28a11.85,11.85,0,0,1,5.27-3.21,31.27,31.27,0,0,1,6.08-1.24c2.94-.21,5.9-0.05,9.14-0.05,0.54-1.53,1-3,1.59-4.48,1-2.6,1.74-5.36,3.13-7.73,2.75-4.7,3.9-9.93,5.55-15a1.86,1.86,0,0,0-.11-1.55,22.61,22.61,0,0,0-3-2.25c-0.64-.43-1.41-0.66-2-1.1-0.84-.59-1.6-1.29-2.61-2.12-0.81,2.09-2.55,2.66-4.24,3.44-2.54,1.17-5,2.58-5.95,5.53a1.59,1.59,0,0,1-.82.8,5.18,5.18,0,0,0,.32,9.07l1.65-3.52c1.39,1,2.48,2.14,3.82,2.65a20.16,20.16,0,0,0,4.62.64c-1.77,2.92-4.26,4.1-8.07,3.9-1.76-.09-3.51-0.33-5.26-0.4-3.46-.14-5.34,2.13-4.76,5.83l3.05,0.41c0.37,1.28-.41,1.63-1.13,2q-8,3.76-16.08,7.47a6.05,6.05,0,0,1-1.22.28c3.55-2.73,6.08-6,6.58-10.72l3.47-.55c1.06-2.27,2.39-4.35,3-6.61,0.65-2.52,3.09-3.78,3.88-6.28a11.64,11.64,0,0,1-7.24-7.49c-1.85,4.69-3.84,9.06-8.23,12.18-1.18-5.5-2.36-10.62-3.34-15.79a6.42,6.42,0,0,1,3.49-6.74,27.53,27.53,0,0,1,1.86,13.84v2.6l0.29,0ZM65.84,399.23c4-2.51,7.94-5,11.93-7.38a20.22,20.22,0,0,1,5.66-2.49A115.38,115.38,0,0,1,97.11,387a285.38,285.38,0,0,1,38.59-.87A187.1,187.1,0,0,0,186,381.6c11.1-2.6,21.8-6.31,31.66-12.13a44.39,44.39,0,0,0,20.05-24.57,189,189,0,0,0,10-55.48c0.37-13.13-1-26-5.8-38.39a9.72,9.72,0,0,0-6.36-6.24c-3.71-1.23-7.37-2.64-11.1-3.81a12.81,12.81,0,0,1-9.42-10.7,12.1,12.1,0,0,0-.44-1.86,9.75,9.75,0,0,0-6.22-6.21,4.18,4.18,0,0,0-5.6,2.29,17.12,17.12,0,0,0-1.07,4.62c-0.23,1.74-.16,3.51-0.34,5.26a6.86,6.86,0,0,1-4.48,6c-2.51,1-5,2.11-7.46,3.27-3.84,1.83-5.23,4.7-4.4,8.82,0.2,1,.43,2,0.66,3.13l-1.59-.45c0.19,1.25.38,2.26,0.47,3.27a8.26,8.26,0,0,1,0,2.8c-0.67,2.46-.55,3.12,1.71,4.48,2.52,1.52,3.74,3.56,3.38,6.57a51.88,51.88,0,0,0-.44,6.94,7.87,7.87,0,0,0,5.57,7.85,20.73,20.73,0,0,0,4.41,1.05,12.26,12.26,0,0,1,9.16,5.87c0.79,1.21,1.55,2.43,2.37,3.61a28.48,28.48,0,0,0,7.84,8c4.38,2.79,9,4.9,14.45,3.74a3.7,3.7,0,0,1,1.43.54c-1.5,1.13-1.1,2.36-.66,3.6,0.71,2,1,4-.26,5.95a3.86,3.86,0,0,1-3.29-1.68,12.15,12.15,0,0,0-8.54-4.82,16.15,16.15,0,0,1-10.78-6.08,13.88,13.88,0,0,0-1.78-1.94,1.81,1.81,0,0,0-3,.47,7.77,7.77,0,0,0-.74,1.75c-0.69,2-.08,3.93.56,5.85,0.39,1.18.55,2.47-.45,3.37s-2.55.83-3.86,0.31a3.84,3.84,0,0,1-2.21-4.35c0.2-.93.72-1.79,0.92-2.71,0.26-1.23.72-2.6,0.4-3.71a7,7,0,0,1,.7-5.94,2.64,2.64,0,0,0-1.21-4.05,20.35,20.35,0,0,0-5.53-2.16c-6-1.15-10.83,2-12.29,7.92a37.08,37.08,0,0,0-.7,6.17,2.83,2.83,0,0,0,2.11,3.11,5,5,0,0,1,3.78,4.72c0.12,2.23.24,4.55-1.27,6.43a5.05,5.05,0,0,1-2.12,1.47c-2.34.87-4.4,0.08-6.22-1.44s-1.66-3.38-1.21-5.3,1.13-3.67,1.59-5.53,0.82-3.84,1.26-6h-4a6.81,6.81,0,0,1,1.64-4.55,23,23,0,0,0,4.07-7.82c0.63-2.55,1.2-5.12,1.87-7.66a3.37,3.37,0,0,0-.45-3.17c-1.33-1.7-2.58-3.46-4-5.09-1.88-2.18-3.93-4.21-5.79-6.4a6,6,0,0,0-5.45-2.32c-4.94.44-9.89,0.7-14.83,1.09q-7.05.55-14.1,1.22a3,3,0,0,0-2.88,2.42,3.33,3.33,0,0,0,2,3.5,6.86,6.86,0,0,0,6.45-.26,16.44,16.44,0,0,1,2.1-1.13c1.32-.47,2.42-0.09,2.71,1.12a9.5,9.5,0,0,0,4,5.75c1.25,0.9,1.08,2-.26,2.87-0.46.31-1,.49-1.48,0.78-2.32,1.39-4.75,2.61-6.29,5a4.8,4.8,0,0,1-4.55,2.17c-1.12-.06-2.23-0.15-3.35-0.2-2.81-.13-4.57,1.37-4.85,4.13,0,0.4,0,.8-0.07,1.2-0.27,2.08-1.24,3-3.3,3a12.11,12.11,0,0,1-2.83-.41c-1.24-.31-2.43-0.78-3.66-1.12-5.71-1.55-12.6-.82-16.43,5.52-0.45.74-1,1.44-1.46,2.16a5,5,0,0,0,.35,2.63c0.74,2.26,1.41,2.7,3.75,2.09a9.21,9.21,0,0,1,8,1.4,18.83,18.83,0,0,1,3.22,2.85c5.46,6.17,6.9,13.65,7.09,21.65a3.22,3.22,0,0,1-.85-0.12c-5.6-2.91-11.22-5.79-16.79-8.76a8.54,8.54,0,0,1-4.29-5.54c-0.42-1.63-1-3.35-.08-5.19,1.35,0.61,2.6,1.14,3.81,1.74s2.55,1.34,3.78,2.08a37.63,37.63,0,0,1,3.38,2.28c1.14,0.87,2.22,1.83,3.27,2.81s1.78,1.78,2.67,2.67a19.61,19.61,0,0,0-6.75-8l-7.76-5.65a10.13,10.13,0,0,1-4.42-8.39,8.21,8.21,0,0,0-2.81-6,4.4,4.4,0,0,0-5.23-1.17c-2.59,1-5.23,2-7.85,3-1,.37-2,0.69-2.91,1.12-1.59.72-1.84,1.38-1.25,3.05a11,11,0,0,0,.48,1.1,15.9,15.9,0,0,1,1.71,9.06c-0.31,2.37.84,4,2.85,5.07,1.19,0.64,2.44,1.19,3.64,1.84,2.79,1.53,3.26,2.57,2.52,5.68-0.45,1.86-1.06,3.69-1.53,5.55-0.51,2-.13,2.61,1.93,3,1.73,0.3,3.56.39,5,1.57a4.54,4.54,0,0,1,1.8,2.37,35.43,35.43,0,0,1-.06,6.7c-0.13,1.48-1,2-2.37,1.42-3.22-1.39-6.44-2.82-9.53-4.48a4.32,4.32,0,0,1-1.9-5.43,9.54,9.54,0,0,1,1.3-2.54c2.28-3.21,2.07-7.37-2.81-8.93-0.08,0-.14-0.07-0.22-0.1-3.31-1.38-4.64-3.87-4.12-7.46a24,24,0,0,0,.25-4.53c-0.07-1.49-1-2-2.3-1.26a29.57,29.57,0,0,0-4.87,3.45c-1.7,1.55-1.84,4-.56,6.36,0.76-.27,1.55-0.57,2.35-0.84,1.48-.5,2.39-0.38,3.17.83,1.8,2.82,3.55,5.69,5.14,8.64a5.18,5.18,0,0,1-.09,5.45c-1.26,2.13-.87,3.81,1.16,5.23A7.86,7.86,0,0,1,88.67,350c-1.5.49-2.92,1-4.35,1.43-2,.61-4,1.07-5.94,1.8-2.49,1-3,.92-4.54-1.36a4,4,0,0,0-3.61-2,16.39,16.39,0,0,1-2.62-.18c-2.33-.36-2.32-0.38-2.89,1.9s-1.37,3-3.81,3.27c-0.77.1-1.54,0.22-2.34,0.34a4.21,4.21,0,0,0,.17.89c1.3,2.65,1,4.94-1.45,6.79a2.65,2.65,0,0,0-.49.53,1.44,1.44,0,0,0,.07,2c0.31,0.37.68,0.68,1,1a6.79,6.79,0,0,1,1.62,7.31A12.7,12.7,0,0,1,54.86,380a44.13,44.13,0,0,1-4.3,2.6c-4.15,2.32-4.61,6.66-4.21,10.18a1.3,1.3,0,0,0,1.92,1.14c0.69-.21,1.36-0.46,2.05-0.66,2.16-.62,2.68-0.32,3.25,1.83,0.25,1,.55,1.9,1,3.27a7.87,7.87,0,0,1,6.75-3.74,2.66,2.66,0,0,1,.34.66c0.13,2,.75,3.41,3.11,3.36A2.68,2.68,0,0,1,65.84,399.23Zm250.57-187c-0.37-5.63-.8-11-1.08-16.44-0.51-9.82-.85-19.65-1.42-29.47a82,82,0,0,0-4.71-22.69,8,8,0,0,0-5.41-5.5c-0.15,0-.29-0.14-0.44-0.2-2.92-1.1-3.51-.87-4.81,1.94-0.24.51-.47,1-0.73,1.51a11.14,11.14,0,0,1-7.29,5.79,18.51,18.51,0,0,1-7.13.43A29.63,29.63,0,0,1,271.9,143c-1.2-.74-2.33-1.57-3.68-2.49,5.73-3.36,11.17-6.57,16.62-9.74a11,11,0,0,1,2.21-.91,9.27,9.27,0,0,1,8.26,1.07c1.33,0.88,1.32,1.57.08,2.6a5.9,5.9,0,0,1-.58.42c-6.48,4.18-13.24,7.46-21.28,6.87a15.26,15.26,0,0,0,7.78.57,57.18,57.18,0,0,0,7.81-2.19c2.33-.82,4.54-2,6.83-2.91a10.17,10.17,0,0,1,8.81.37c0.32,0.16.66,0.29,1.25,0.55-1.68-4.33-5.08-7.13-7.37-10.8a2,2,0,0,1,.56-0.09,2.17,2.17,0,0,1,.58.36c8.45,8.81,14.24,19.09,16.5,31.12,1.46,7.77,2.39,15.64,3.62,23.45,1.31,8.29,2.84,16.54,4,24.85a26.72,26.72,0,0,0,7,14.68A54.35,54.35,0,0,0,342.22,230c14,8.81,29.28,14.59,45.33,18.36A14.56,14.56,0,0,0,398,246.78a8.14,8.14,0,0,0,4.47-6.69,9.21,9.21,0,0,0-1.25-5.29c-2.48-4.57-5.06-9.08-7.43-13.7-2.15-4.19-4.31-8.4-6.08-12.75a32.67,32.67,0,0,1-.92-22.77,47.75,47.75,0,0,0,1.24-4.87,6.84,6.84,0,0,0-1.47-5.85,31.75,31.75,0,0,0-7.9-7.28c-0.37-.23-0.78-0.39-1.16-0.59a9.33,9.33,0,0,0,1.84,2.78,21.62,21.62,0,0,1,4.85,9.51,9.91,9.91,0,0,1,.25,2.84c-0.15,1.81-1.41,2.33-2.8,1.12a6,6,0,0,1-1.38-2.16c-1-2.27-1.77-4.63-2.8-6.87-2.07-4.51-6.05-6.66-10.53-8a22.87,22.87,0,0,0-4.29-.38c-5.5-.54-10.46-2.8-15.47-4.91-0.36-.15-0.74-0.24-1.11-0.35l0.61-.82c0.7,0.24,1.42.45,2.11,0.71,5.35,2,10.75,3.64,16.59,2.88a8.19,8.19,0,0,1,2.38.18c1.75,0.3,3.49.66,5.24,1a6.48,6.48,0,0,0-2-1.34c-4.27-1.78-8.54-3.59-12.85-5.26-3.12-1.22-6.32-2.24-9.48-3.37a8.29,8.29,0,0,1-1.28-.73,60.87,60.87,0,0,1,10.15,0A84,84,0,0,1,378.43,159a17.41,17.41,0,0,1,3.61,1.85c3.74,2.49,7,5.39,8.38,10a3.53,3.53,0,0,0,.49-0.47,5.64,5.64,0,0,0,.31-0.65,29.94,29.94,0,0,0,2.43-12.37c0.05-4.23.24-8.47,0.33-12.7a27.57,27.57,0,0,0-.16-4.07A50.63,50.63,0,0,0,383.94,117,44.69,44.69,0,0,0,355,98.79a70.66,70.66,0,0,0-25.76.37c-14.93,2.76-29.83,5.65-44.72,8.59a171.8,171.8,0,0,1-38.6,3.63c-0.78,0-1.57-.07-2.49-0.11l0.21-1.76,3.36-.23c-0.29-2.71.58-4,3-4.51l-2.25,4.49c1.23,0,2.08,0,2.93,0a183,183,0,0,0,31.54-4.42c12.24-2.74,24.41-5.75,36.64-8.55,6.31-1.44,12.65-2.72,19-4,4-.79,8-0.49,12-0.27,0.79,0,1.71.41,2.48-.5a5,5,0,0,0-.74-0.67c-8.46-4.87-17.09-9.4-26.39-12.48a38.75,38.75,0,0,0-7.87-2c-3.75-.4-5.86.9-5.19,4.46a5.31,5.31,0,0,1,0,1,8.1,8.1,0,0,1-2.9,6.32c-3.86,3.44-8.48,4.49-13.49,4.61a1.71,1.71,0,0,1,0-.65c2.72-3.8,4.49-8.09,6.38-12.32,1.24-2.77,3-3.63,6.22-3.21-0.56,3.86-2.83,6.93-4.64,10.23a46.29,46.29,0,0,0,4-5.33c1.39-2.12,2.6-4.38,5-5.79-4.57-1.26-30.4-5-32.4-4.73,0,1.71,0,3.46,0,5.21,0,2.43-.48,3.31-2.7,4.21a11.25,11.25,0,0,1-2.52.73,29.89,29.89,0,0,0-10.76,3.88c-2.68,1.58-5.26,3.34-7.9,5a11.82,11.82,0,0,0-3.59,3.45A6.16,6.16,0,0,1,246,96.22c-2.55-.52-3.58.15-4.67,2.61a19.17,19.17,0,0,0-1.68,8.16c0.06,2.88.13,6,1.9,8.29a7.17,7.17,0,0,1,1.49,5.21,13.5,13.5,0,0,0,.14,2.87c0.59,3.61,1.23,7.21,1.92,11.14-2.85,1.29-5.07,3.73-7.29,6.54,0.91,0.6,1.68,1.15,2.49,1.62a8.85,8.85,0,0,1,3.61,3.73,7.48,7.48,0,0,0,1.85,2.08c3.63,3.13,7.5,6,10.89,9.38,7.56,7.48,14.82,15.26,22.32,22.8,10.4,10.45,21.86,19.69,33.4,28.84C313.64,210.5,315.07,211.31,316.4,212.2ZM303,307.89a5.44,5.44,0,0,0,1,.19c6-.31,11.31,1.64,16.4,4.53a32.92,32.92,0,0,0,4.57,2.08c3.81,1.44,7.66,2.78,11.48,4.19a70.7,70.7,0,0,0,19.56,4.45,26,26,0,0,0,6.67-.37c4.91-.94,7.71-4.5,7.81-9.5a20.14,20.14,0,0,0-1.64-7.93c-0.65-1.63-1.38-3.24-2-4.87a7,7,0,0,1,1.87-8.28c2.39-2.25,4.67-4.6,7-6.9a15.27,15.27,0,0,0,3.69-5.55c2.33-6.19,1.33-17-5.92-22.46a37.07,37.07,0,0,0-6.57-3.91,174.54,174.54,0,0,1-20.74-11.49c-4.75-3.1-9.5-6.23-14.4-9.07a193.54,193.54,0,0,1-21.91-15.07,375.17,375.17,0,0,1-42.68-39.26c-3.15-3.36-6.87-6.2-10.38-9.22a27.06,27.06,0,0,0-2.87-1.93c-2.51,1-4.89,1.86-6.79,3.55l1.42,1.55-0.2.4-7.76-.71a24.13,24.13,0,0,0-1.08,3.07c-0.37,1.72-.52,3.47-0.83,5.2a4.48,4.48,0,0,0,.94,3.81c1.74,2.19,3.42,4.43,5.11,6.66a18.44,18.44,0,0,1,3.85,14,48.78,48.78,0,0,1-1.12,5.14c-0.85,3.5-.61,6.58,2.6,9a7,7,0,0,1,2.55,7.09c-0.12.79-.3,1.57-0.44,2.36-0.3,1.72-.09,2.09,1.76,3.08,3-3.81,3.93-4.54,7.94-6.19,0.81-.34,1.64-0.64,2.44-1,3.08-1.37,6.28-4,7.59-6.31-4.8,3.39-9.43,6.78-15.54,6.89-0.26-4.24,1.11-6.56,4.71-7.89,4.79-1.78,9.63-3.44,14.45-5.14a14.41,14.41,0,0,1,1.66-.36,27.77,27.77,0,0,1-7.42,16.74,9.45,9.45,0,0,1-9.12,3c-0.86-.16-1.71-0.41-2.57-0.55-1.08-.18-2.11-0.16-2.65,1.35,1.95,0.66,3.9,1.31,5.84,2a5.89,5.89,0,0,1,4.3,5c0.29,2.14.59,4.27,0.8,6.42a5.25,5.25,0,0,0,1.18,3.05,145.36,145.36,0,0,1,26,46.12,12.45,12.45,0,0,0,.84,1.56c2.48-6,5-11.66,9-16.45,4.17-5,10.93-9.45,15.06-9.86l-2.17,1.67A31.46,31.46,0,0,0,306,285.32C303.17,292.56,303,300.12,303,307.89ZM162,229.05a23.51,23.51,0,0,0,13-1.22,16.15,16.15,0,0,1,3.67-1.08c3.64-.5,7.22-0.55,10.09,2.36a2.21,2.21,0,0,0,.8.31c1.24-4.46.72-12.91-1.83-16.42-3.89,1.39-6.92-.22-9.63-3-1.12-1.14-2.41-2.1-3.58-3.19-2.76-2.56-2.54-6.31.6-8.36a28.33,28.33,0,0,1,4.49-2.25c4.25-1.8,4.62-5.64,2.61-8.38-1.46-2-1.16-3,1.09-4.17,3.67-1.89,5.29-4.89,5.33-8.94a5.48,5.48,0,0,1,.84-2.63,4.49,4.49,0,0,0,.53-3.45c-0.16-.78-0.46-1.54-0.54-2.33-0.23-2.13.72-3.75,2.83-4.06,2.92-.43,5.44-1.8,8.11-2.84,1.81-.7,2.23-1.79,1.08-3.29a4.42,4.42,0,0,0-2.26-1.57c-3-.72-6.1-1.25-9.17-1.79a6,6,0,0,0-2.14.11A14,14,0,0,0,177,162c-1.16,3-1.83,6.27-2.69,9.43a1.45,1.45,0,0,0,1.18,2,18.25,18.25,0,0,1,2.23,1,3.84,3.84,0,0,1-1.54,3.37,7,7,0,0,1-2.3,1.24c-3.45,1-5,3.25-4.9,6.74a14.29,14.29,0,0,1-.17,1.6l-1.56-1-2,5.46c1.55,0.48,1.57,1.58,1.27,2.74s-1.32,1.51-2.41,1.6c-0.48,0-1,0-1.44.07a1.17,1.17,0,0,0-1.19,1.45,4,4,0,0,1,.21,1.17,2.55,2.55,0,0,1-.71,1.59,1.78,1.78,0,0,1-1.7-.25,9.53,9.53,0,0,1-1.82-3c-0.53-1.52-1.37-2.67-3-2.68a23.21,23.21,0,0,0-6.15.52,26.73,26.73,0,0,1-10.89,1,23.73,23.73,0,0,0-4.3-.19c-3.4.13-5,1.5-5.48,4.84-0.4,2.53-.62,5.08-1,7.61-0.83,5.9-3.36,10.71-9.08,13.16a10,10,0,0,0-5.57,5.59,18.66,18.66,0,0,1-4.36,6.54c-1.58,1.48-3.15,3-4.81,4.33-2.48,2.05-4.25,4.32-3.41,7.84a1.64,1.64,0,0,1-1.56,2.19,4.19,4.19,0,0,0-2.14,1,46.77,46.77,0,0,0-4.27,4.53c-1,1.23-.63,2.09,1.12,3.29,0.84-.64,1.69-1.35,2.59-2,5.63-4,12-4.23,16.43.88a6.16,6.16,0,0,0,3.44,1.69c0-2.17,0-4.06,0-6,0-1.67.48-2.2,2.15-2.14a12.12,12.12,0,0,1,3.53.58,3.29,3.29,0,0,0,3.32-.62,22.27,22.27,0,0,1,3.51-2,2.83,2.83,0,0,1,3.62,1,8.81,8.81,0,0,1,2.21,6.88c-0.27,2.39-1.49,3.85-3.9,4.18a53.51,53.51,0,0,1-6.92.43c-3.16,0-3.5.32-3.06,3.39,0,0.32.11,0.63,0.18,0.94,0.5,2.07,1.06,2.43,3,1.59a12.47,12.47,0,0,1,8.44-.49c1.08,0.3,2.19.46,3.26,0.78a5.24,5.24,0,0,0,5.31-1.27c0.89-.77,1.94-1.79,3-1.87,2.22-.18,2.8-1.42,3-3.25,0.11-.87.34-1.73,0.48-2.59a9.19,9.19,0,0,0-1.65-7,16.91,16.91,0,0,0-6.37-5.35c-5-2.46-10.1-4.8-15.17-7.16a9.2,9.2,0,0,0-5.87-.59,6.49,6.49,0,0,1-1.6.45,2.63,2.63,0,0,1-1.87-.68,3.14,3.14,0,0,1,.06-2.21,2,2,0,0,1,1.27-1,24.37,24.37,0,0,1,3.73-.8c2.28-.29,2.27-0.25,2.72-2.46,0.22-1.08.33-2.25,1.53-2.79,1.71,0.17,2.51,1.31,3,2.74,0.32,0.9.5,1.86,0.9,2.73a4.5,4.5,0,0,0,4.81,2.38c1.37-.37,1.84-1.33,1.82-3.73,0-3.44-.16-6.88-0.12-10.32s-0.06-6.63-2-9.65a5.76,5.76,0,0,1,0-6c0.78-1.5,1.32-1.77,2.88-1.21a32.47,32.47,0,0,1,3.94,1.75c1.68,0.87,1.9,1.87.9,3.54a12.53,12.53,0,0,0-1,1.37,6.71,6.71,0,0,0-.8,2.64c0.09,2,.49,4,0.71,5.95a2.29,2.29,0,0,0,2,2.25c1.12-.59,1.13-1.56,1.23-2.52a4.78,4.78,0,0,1,1.77-3.54c1.33-1,3.53-1.33,4.51-.55,1.26,1,1.06,2.43.78,3.76a7.57,7.57,0,0,1-1,2.41,7,7,0,0,1-5.1,3.25,4.37,4.37,0,0,0-3.62,3.08c-0.26.67-.43,1.38-0.69,2-1.6,4.11-.48,7.55,2.7,10.37a45.72,45.72,0,0,0,5,3.76c3.26,2.19,5.67,4.87,6.14,9a2.65,2.65,0,0,0,1.43,1.95c2.61,0.51,4.37,2.17,6.23,3.84,3.62,3.23,7.56,1.88,8.47-2.87,0.48-2.51.86-5,1.25-7.57a12.53,12.53,0,0,1,13.16-10.76c1.24,0,2.49-.06,3.62-0.1-0.07-1.47-.46-2.74-0.11-3.77s1.42-2,2.25-3c-0.69-.38-1.36-0.8-2.08-1.14-2-1-2.79-.75-4.1,1-0.63.83-1.23,1.68-1.91,2.46a11,11,0,0,1-10.73,3.93,32.31,32.31,0,0,1-14.55-6.94c-1.09-.87-2-1.91-3.21-3,0.66-.3,1-0.49,1.37-0.63l17-6.39a17.16,17.16,0,0,1,1.82-.58c3.7-.92,6.65.47,8.57,4.18C174.49,226.13,168.56,228.53,162,229.05ZM381.86,80.43a34.56,34.56,0,0,1-5,.45,9.67,9.67,0,0,1-5.35-2.49c-2.07-1.63-4.14-3.27-6.27-4.82A8.7,8.7,0,0,0,361,71.72a29.05,29.05,0,0,1,11.17,10.55c-3,2.32-4.57,2.41-7.22.13-4.48-3.86-8.87-7.82-13.29-11.75-0.45-.4-0.81-0.89-1.42-1.57,2.16-.64,4-1.29,6-1.75a20.42,20.42,0,0,1,12.25.71,10.32,10.32,0,0,1,6.91,8.47,4.47,4.47,0,0,0,.36,1.62,3.09,3.09,0,0,0,1.48,1.4,4.84,4.84,0,0,0,3.84-.27,2.67,2.67,0,0,0-.13-0.61c-7-12.65-16.37-22.45-31.33-25.29-0.55-.1-1.09-0.24-1.64-0.35-6.66-1.29-13.27-3-20.14-2.68a11.54,11.54,0,0,1-1.89-.2c-1.5-.19-3-0.51-4.49-0.56-2.79-.1-5.6-0.13-8.39-0.06a119.57,119.57,0,0,0-18.37,1.69,4.74,4.74,0,0,0-2.83,1.59,42,42,0,0,0-7.21,11c-0.29.64-.62,1.26-0.93,1.89a1.94,1.94,0,0,1-.49-0.29c-3.11-4.15-2.26-7,1.87-8.85a6.71,6.71,0,0,0,3.68-3.85c-9.42,2.78-18.82,5.52-27.12,11.94,2.6,0.31,4.68.46,6.72,0.84a2.59,2.59,0,0,0,2.69-1c1.43-1.61,2.94-3.17,4.42-4.73a2.06,2.06,0,0,1,2.12-1,8.4,8.4,0,0,1-.3,1.44c-0.88,2.15-.69,2.66,1.47,3.6,0.58,0.25,1.2.44,1.79,0.69a2.16,2.16,0,0,1,.5.43V67c8.42,1.19,16.72,2.37,25,3.53,7.76,1.08,15.51,2.22,22.88,5a192.73,192.73,0,0,1,30.37,14.7c3.5,2.09,7,4.18,10.6,6.09,7.3,3.87,14.41,8,20,14.22a5.77,5.77,0,0,0,1.24.81C388.47,100.8,386.32,90.16,381.86,80.43Zm-208.75,44,0.14,0.68a7.07,7.07,0,0,0,2.16.5,28.41,28.41,0,0,0,5.66-.88,14.79,14.79,0,0,1,9.87.18,24,24,0,0,0,9.41,1.41c1.12,0,2.24,0,3.36-.12a3.88,3.88,0,0,1,3.22,1.26c1.28,1.32,2.56,2.65,4,3.84,2.38,2,1.69,5.22.24,6.88-1,1.19-1.65,1.2-3.13.52a14.54,14.54,0,0,0-3.8-1.26c-3.24-.49-6.49-0.87-9.75-1.14a10.33,10.33,0,0,0-3.73.34,6.78,6.78,0,0,1-6.35-1.06c-0.9-.67-1.73-1.42-2.58-2.15a7.93,7.93,0,0,0-4.1-1.81c-3.78-.57-7.58-1.13-11.31-1.93a16.77,16.77,0,0,0-18.48,8c-0.61,1-1,2-.23,3.1a3.24,3.24,0,0,1,.36,4,1.64,1.64,0,0,0,.88,2.4,4.34,4.34,0,0,0,4.56,0,14,14,0,0,1,1.39-.93,2.63,2.63,0,0,1,4,2.65,8.47,8.47,0,0,1-.14.95c-0.49,2.7-.4,2.78,2.45,2.83A20.88,20.88,0,0,1,164,153c1.9,0.3,3.13,1.41,3.15,3.35a31.93,31.93,0,0,1-.47,6.64c-1.06,5.14-3.45,9.76-6.09,14.26a68.37,68.37,0,0,0-3,6.25,3.73,3.73,0,0,0,.16,3.56,9.79,9.79,0,0,0,4.19-2.6,17.93,17.93,0,0,0,4.52-7.81c1.38-4.25,2.59-8.56,4-12.81a66.45,66.45,0,0,1,3.17-8.51,14.65,14.65,0,0,1,9.93-8c3.95-1,7.9-2,11.86-3a8.49,8.49,0,0,1,5.83.65c0.72,0.34,1.42.73,2.15,1.06a9.31,9.31,0,0,0,9.56-.61,13.62,13.62,0,0,1,4.9-1.77c2.89-.53,4.77.67,5.83,3.4,0.37,1,.53,2,0.83,3a12.21,12.21,0,0,0,.89,2.46,1.91,1.91,0,0,0,2.2,1.23c-0.65-6.95,1-13.53,2.84-20.08a7.4,7.4,0,0,0,.27-2.61,42,42,0,0,0-3-11.79,0.91,0.91,0,0,0-.39-0.25,18.29,18.29,0,0,0-7,6.06c-2,2.72-3.43,3.19-6.59,2.05a22.64,22.64,0,0,1-2.63-1.16c-1.35-.69-2.66-1.46-4-2.15a20.79,20.79,0,0,0-12.72-2.46,12.53,12.53,0,0,1-4.7-.47c-2.28-.58-4.56-1.05-6.85-0.42-2.76.76-5.48,1.68-8.18,2.64A5.65,5.65,0,0,0,173.11,124.44Zm-137.73,196a45.16,45.16,0,0,0-1.22,5.37,5.86,5.86,0,0,1-4,5.4,7.47,7.47,0,0,0-2.42,1.48,2,2,0,0,0-.38,1.69,1.78,1.78,0,0,0,1.39.57,10.43,10.43,0,0,0,7.14-2.28A9.94,9.94,0,0,1,38.67,331a1.48,1.48,0,0,1,2.22,1.56,5,5,0,0,1-.64,2c-0.35.71-.89,1.33-1.27,2-1,1.79-.77,2.61,1,3.47,4.1,2,6.75.78,8.28-2.84,1.91-4.5,5.25-5.89,9.7-5.77,0.32,0,.64,0,1,0,3.25,0,4.15,1.28,3.07,4.42a18.72,18.72,0,0,1-5.8,7.8,11.73,11.73,0,0,1-10.94,2.82,5,5,0,0,0-5.81,2,6.74,6.74,0,0,1-6,2.89,2.61,2.61,0,0,0-.95.1c-0.84.26-1.88,1.68-1.68,2.4a1.9,1.9,0,0,0,2.08,1.25,20.94,20.94,0,0,0,2.39-.18,3.79,3.79,0,0,1,4,2.08c0.36,0.66.79,1.27,1.3,2.07a19.18,19.18,0,0,0,1.43-2c2.69-5,7-8.2,12.08-10.49,1.31-.59,2.67-1.08,3.94-1.76,5.19-2.77,8.3-6.81,8.13-13a28.2,28.2,0,0,1,.77-6.62c0.47-2.17.58-2.51-1.2-3.89a2.71,2.71,0,0,1-1-3.34,8,8,0,0,1,4-4.83c0.91-.49,1.91-0.8,2.85-1.25,1.81-.87,2.36-1.86,2.07-3.83a5.91,5.91,0,0,1,2.29-5.91c2.38-1.88,4.76-3.77,7.09-5.73a16,16,0,0,1,7.69-3.68c2-.33,3.95-0.61,5.92-0.92,3.7-.58,7.21-1.59,9.84-4.47a15.16,15.16,0,0,1,5.11-3.47c3.32-1.52,5.59-.93,6.2,2.79a3.26,3.26,0,0,0,.45,1.11,3.49,3.49,0,0,0,3.06,1.9,21.85,21.85,0,0,0-.87-2.43c-1.42-2.82-1.27-3.66,1.19-5.72,1.66-1.4,1.77-2.19.17-3.7s-3.26-2.82-5-4.17a8.53,8.53,0,0,0-9.86-1c-1.42.72-2.94,1.24-4.38,1.92-3,1.42-6.21,1.26-9.36,1.61-4.4.49-8.07-.69-10.72-4.38a7.53,7.53,0,0,0-3.57-2.71c-1.19-.45-2.39-0.91-3.55-1.45a1.58,1.58,0,0,0-2.08.47c0.43,0.63.8,1.15,1.15,1.68s0.68,1.06,1.23,1.93a22.88,22.88,0,0,1-3.34.81c-2.91.25-3.39,0.71-3.37,3.69,0,0.24,0,.48,0,0.72-0.06,2.25-.64,2.87-2.83,2.95-1,0-1.93-.14-2.87,0a27.16,27.16,0,0,0-4.71.73c-1.45.41-1.84,1.27-1.22,2.58a18.49,18.49,0,0,1,1.56,5.74c0.18,1.41.76,1.78,2.17,1.43,2.07-.51,3.85-1.37,4.75-3.59A8.73,8.73,0,0,1,70.08,282,35.41,35.41,0,0,1,83,278.86c1.93-.13,2.87.78,3.48,2.66,1.15,3.51,0,6.38-3.35,7.93-2.1,1-4.3,1.72-6.43,2.63-3.84,1.65-6.46,4.29-7.14,8.62-0.3,1.89-1.18,2.57-3.08,2.77-1,.1-1.92,0-2.87.11-2.72.24-3.77,1.42-3,3.94,1.52,4.75.79,9.51,0.46,14.27-0.15,2.24-.89,3-3.1,3.26-3.09.39-6.21,0.54-9.31,0.89a11.86,11.86,0,0,1-9.15-2.71C38.37,322.29,37,321.56,35.38,320.47Zm312.4,115.87c0.73,1.26,1.31,2.47,2.09,3.55,1.91,2.67,3.3,5.54,3.12,8.88a7.25,7.25,0,0,0,2.86,6,29.23,29.23,0,0,0,2.51,1.84c3.33,2.38,6.63,4.81,9,8.16a7.19,7.19,0,0,0,5.3,3.23,5.64,5.64,0,0,1,5.09,5c0.12,0.63.24,1.26,0.38,1.88a5.73,5.73,0,0,0,4.89,4.64c1.1,0.2,2.22.31,3.33,0.44a32,32,0,0,1,11.9,3.43,6.33,6.33,0,0,0,4.77.69,9.41,9.41,0,0,0-.1-5.95,29.55,29.55,0,0,1-1.23-13.72,14.9,14.9,0,0,0-2.32-10.79A45.72,45.72,0,0,0,395,448a11.57,11.57,0,0,0-8.94-4c-3.12,0-6.24,0-9.35,0a12.45,12.45,0,0,1-7.92-2.26,28.09,28.09,0,0,1-2.86-2.54,11.09,11.09,0,0,0-8.47-3.25,10.24,10.24,0,0,1-3.73-.65A5.67,5.67,0,0,0,347.78,436.34ZM299.58,451.8c-0.43,1.17-.74,2-1,2.75a20.73,20.73,0,0,1-1.13,3.39,13.53,13.53,0,0,0,.08,13.73,14,14,0,0,1,1.36,10,11.71,11.71,0,0,0,1.87,9.34c0.7,1.07,1.43,2.12,2.16,3.17a13,13,0,0,1,2.18,9.57c-0.13.95-.23,1.9-0.34,2.86a4.2,4.2,0,0,0,1.83,4.16c0.52,0.37,1,.8,1.54,1.14a5.35,5.35,0,0,1,2.63,6.35c-0.83,3.27.79,5.91,2.32,8.48,1,1.67,2.87,1.55,4.56,1.23,1.51-.29,2-1.5,2.09-2.85a24.12,24.12,0,0,0,.1-4c-0.76-7.71.14-15,5.06-21.36,1.38-1.79,1.34-2.45-.33-3.89-2.81-2.44-3-5.13-1.59-8.4,2.06-4.93,3.91-10,5.78-15,1.06-2.87.42-4.36-2.45-5.44a73.33,73.33,0,0,0-7.53-2.35,28.84,28.84,0,0,1-13.56-7.26c-1.19-1.18-2.24-2.5-3.41-3.7C301.21,453.08,300.52,452.59,299.58,451.8Zm-112-389.87a3.19,3.19,0,0,0,2.47,1.81c3.92,0.82,5.82,4.28,8.59,6.61a1.39,1.39,0,0,1,.22.67c0.45,1.77,1.68,2.41,3.39,2.4,2.16,0,4.32,0,6.48,0A13.39,13.39,0,0,1,216,75.53a15,15,0,0,0,2.12.94c0.79-2.87.67-3.29-1.24-4.77-0.51-.39-1.05-0.74-1.52-1.17a7.16,7.16,0,0,1,.48-11.12,3,3,0,0,1,3.57-.43c0.91,0.5,1.76,1.09,2.62,1.67,3.06,2.07,3.17,2.95.74,5.56-0.11.12-.24,0.21-0.34,0.34-1.77,2.29-1.47,3.49.89,4.44a7.48,7.48,0,0,1,4.23,4.63c0.73,1.94,1.42,3.91,2.3,5.79a6.07,6.07,0,0,0,1.8,2.14,1.81,1.81,0,0,0,2.75-.43c1.7-2.63,2.87-5.55,1.5-8.59a118.06,118.06,0,0,0-6.06-11.7,35.13,35.13,0,0,0-5.05-6.36,8.83,8.83,0,0,0-8.35-2.57c-1.89.35-2.09,0.21-2.87-1.6a5.18,5.18,0,0,0-2.54-3c-5.2-2.35-10.48-4.36-16.33-4.2a13.82,13.82,0,0,1-3.07-.4,2.07,2.07,0,0,1-1.82-2.19,2,2,0,0,1,1.86-1.9,20.91,20.91,0,0,1,4.27-.09,31.94,31.94,0,0,1,3.28.67,1.82,1.82,0,0,0,2-.8c1.55-2.17,2-2.3,4.3-.9q5,3.1,9.81,6.45a39.88,39.88,0,0,0,7.2,3.89,3.25,3.25,0,0,0-1.45-4.05c-0.6-.39-1.24-0.73-1.85-1.12a4.56,4.56,0,0,1-2.35-3.92c-0.05-1.74-.44-2-2.16-2.2-1-.1-2.09-0.05-3.11-0.21a15.33,15.33,0,0,1-6.76-2.91c-3.35-2.43-7-3.09-10.85-1.35-2.77,1.24-5.56,2.43-8.28,3.79-2.4,1.2-2.82,2.66-1.84,5.12a9.88,9.88,0,0,1,.83,2.93c0.15,2.3.24,2.56,2.29,3.35,4.31,1.66,6,4.35,5.44,8.9-0.19,1.72-.41,2-2.21,2.17A3.45,3.45,0,0,0,187.58,61.93ZM461.67,220.22a6,6,0,0,1-.76.59c-0.35.19-.76,0.28-1.1,0.47-1.29.74-1.61,1.85-.67,3a6.17,6.17,0,0,0,2.29,1.63,15.75,15.75,0,0,0,3,.68c1.57,0.31,3.15.53,4.7,0.92a1.94,1.94,0,0,1,1.72,2c0,2.44.09,2.44,2.58,3.09,1.06,2.18,1.06,2.2,3.38,1.57,1-.29,2-0.52,2.91.35,1.54,1.51,3.26,1.33,5.13.69a21.49,21.49,0,0,1,4.84-1.27c4.93-.48,9.87-0.75,14.81-1.14,2.34-.18,4.26.36,5.43,2.62a2.25,2.25,0,0,0,2.42,1.3,12.47,12.47,0,0,0-2.54-3.63c-1.62-1.47-2.17-3.11-1.08-5.13a5.38,5.38,0,0,0,.26-0.67,1.35,1.35,0,0,0-.9-1.9,4.86,4.86,0,0,0-.93-0.19c-2.46-.47-2.73-0.78-2.75-3.32,0-1.6.07-3.2,0-4.8a18,18,0,0,0-.46-2.53c-1.87.67-2.17,1-2,2.33a11.53,11.53,0,0,0,.72,2,2.66,2.66,0,0,1-.83,3.43,17,17,0,0,0-2,2,6,6,0,0,1-6.18,2.24c-0.87-.14-1.72-0.37-2.57-0.6a8,8,0,0,0-5.38.49c-3.07,1.36-6.15.69-9.09-.3-2.17-.73-2.38-2-1-3.9,0.46-.65,1-1.22,1.53-1.85a30.21,30.21,0,0,0,2.5-3.21,14.1,14.1,0,0,1,9.74-7.13,4.48,4.48,0,0,0,3.36-2.43A8.9,8.9,0,0,1,499,203a11.68,11.68,0,0,0,2.29-.66c0.8-.38,1.34-1.22.6-1.93a53.51,53.51,0,0,0-5.11-4.32c-0.82-.61-1.55-0.16-1.75.83a4.53,4.53,0,0,0,0,1.2,4,4,0,0,1-2.54,4.2,4.09,4.09,0,0,0-2.58,2.62,1.77,1.77,0,0,1-1.43.95,2.17,2.17,0,0,1-1.28-1.21,3,3,0,0,1,.68-3.53,10.3,10.3,0,0,1,1.52-1.15c2.33-1.69,2.42-2.83.29-5.06-1.92,1.67-4.71,2.45-5.34,5.45a0.93,0.93,0,0,1-.38.58c-1.9,1-1.73,2.71-1.53,4.4a10,10,0,0,1-3.44,9c-0.59.54-1.15,1.11-1.7,1.69a2.32,2.32,0,0,1-2.78.72,2.48,2.48,0,0,1,1.08-2.92c1.32-1,2.66-2,4-3a4.29,4.29,0,0,0,1.83-4.38c-0.54-3.88-1-7.77-1.54-11.64-0.2-1.42-.43-2.88-2-3.64l-8.15,7c1.72,3,1.37,5.8,0,8.61-1,2.16-2,2.45-3.9,1.05-1.67-1.22-3.24-2.56-5-4L450,210v2.25c1.3,1.18,2.9,2,3.55,3.36a5.42,5.42,0,0,0,2.81,2.71C458,219.07,459.74,219.55,461.67,220.22ZM163,418.44c-0.75.13-1.46,0.21-2.15,0.36-3.82.86-7.62,1.8-11.46,2.57-1.9.38-3.4,1-4.37,2.86a5,5,0,0,1-5.2,2.69c-2.23-.19-4.49-0.15-6.7-0.47-3-.43-5.16.57-6.56,3.24a55.93,55.93,0,0,1-7.77,10.63c-1.1,1.27-2.14,2.59-3.28,3.82-6.12,6.61-10.44,14.31-13.81,22.59-0.33.82-.83,1.64,0,2.43a2.06,2.06,0,0,0,2.44.3c2.49-1.06,5.09-1.93,7.48-3.19,4.38-2.3,8.58-5,13-7.23,3.8-1.93,6.36-4.57,7.39-8.84a12.09,12.09,0,0,1,8.92-9.17c1.76-.51,3.55-0.93,5.33-1.38,3.76-.95,7.06-2.64,9.19-6,2.51-4,4.94-8,7.38-12.07C163.36,420.71,163.94,419.77,163,418.44ZM437.74,197.75c5.16-2.71,10.16-5.37,15.19-8a1.75,1.75,0,0,0,1-2.15,16,16,0,0,0-3.19-6.63,1.89,1.89,0,0,0-1.61-.58c-2.22.64-3.62,4.47-2.51,6.55,0.29,0.54.53,1.11,0.87,1.83l-2.54,1.55c-2.39,1.43-2.39,1.43-4.61-.19a0.82,0.82,0,0,0-.42.13l0.75,2.38a9.64,9.64,0,0,1-3.35-2.42c-1.33-1.51-1.19-2.17.19-3.71,1.18-1.3,2.27-2.67,3.41-4a2.45,2.45,0,0,0,.37-3.06,11.16,11.16,0,0,1-1-2.94c-0.6-2.85,1.45-6.13,4.31-6.43a6.85,6.85,0,0,0,3.78-1.79c1.36-1.11,2.65-2.31,4-3.45s2.92-2.1,4.57-1.69c2.34,0.6,4.16-.23,6.08-1.18a6.06,6.06,0,0,1,.91-0.31c2.1-.65,3,0,3,2.22a6.54,6.54,0,0,1-2.08,4.7l-3.09,3.11c5.1,0.61,9.07-.47,12.15-4a8,8,0,0,0,1.46-2.7c0.65-2,.95-4,1.73-5.92,1.06-2.57,2-5,.81-7.81a1.48,1.48,0,0,1,0-.47,5.44,5.44,0,0,0-3.93-5.61c-2.41-.8-4.55-0.1-6.24,2.29a18,18,0,0,1-7.58,6.07c-2.33,1-4.72,2-7.1,2.89a26.15,26.15,0,0,0-9,5.29,4.81,4.81,0,0,1-3.52,1.25,15.78,15.78,0,0,0-10.06,4,22.26,22.26,0,0,0-3.48,4.48,2.08,2.08,0,0,0,.17,2.43,58.89,58.89,0,0,1,6.15,13.41C434.34,190.86,436.2,194.19,437.74,197.75Zm20.84,48.6c-0.8,1.95-1.45,3.57-2.12,5.18a6.86,6.86,0,0,1-3.57,4,28.29,28.29,0,0,1-4.79,1.39,1.6,1.6,0,0,1-1.39-.65,12,12,0,0,1-1.09-4.1c0-4,4.21-9.62,8-10.51,3-.71,4.23-3,5.82-5-1.37-1.34-2.77-2.07-4.25-1.07-0.75.51-1,1.7-1.66,2.43s-2.27.3-2.71,1.68a2.06,2.06,0,0,1-.78,1.11,10.09,10.09,0,0,1-7.42,1c-1.29-.3-1.68-1-1.38-2.33,0.21-.92.54-1.82,0.82-2.71-0.35-.46-0.62-0.85-0.92-1.22a6.89,6.89,0,0,1-1.39-5.64,2.28,2.28,0,0,1,1-1.65,2.31,2.31,0,0,0,1.75-1.62,2.27,2.27,0,0,1,1.59-1.11,2.57,2.57,0,0,1,1.32,1.11c0.34,0.41.49,1.27,0.83,1.33,1.68,0.3,2.51,1.59,3.54,2.68a5.25,5.25,0,0,0,6.74.89c-0.88-2-3.69-3.47-2-6.32a16.73,16.73,0,0,0-8.39-4.46,2.89,2.89,0,0,0-1.42,0q-4,1.15-8,2.38c-1.41.44-2.79,1-4.73,1.64-1,3.54-2.07,7.61-3.2,11.67a2.71,2.71,0,0,0,.91,2.79c2.83,2.94,4.13,6.53,4.77,10.51a27.05,27.05,0,0,0,1.9,6.14,8,8,0,0,0,6,4.74,21.08,21.08,0,0,0,4,.5c5,0.11,10.05,0,15,1,3.21,0.64,5.45-1.66,5.13-4.88-0.05-.55-0.21-1.1-0.31-1.65a5.75,5.75,0,0,1,.82-4.36c2.72-4.12,2.72-8.19-.17-12.26-1.32-1.85-1.2-2.64.18-4.53,0.5-.68.93-1.4,1.56-2.36-0.46-.28-0.73-0.46-1-0.61-1-.51-2-1.07-3-1.5-1.78-.75-2.81-0.29-3.18,1.6-0.51,2.61-.31,5.06,2,7,1.63,1.35,1.63,2.15.44,3.9-0.59.86-1.21,1.69-1.74,2.58C461.33,246.35,460.38,247.14,458.57,246.35ZM189.5,434.49a15.5,15.5,0,0,0-1.7.86,31.86,31.86,0,0,1-8.22,3.82c-4.47,1.46-8.92,3-13.43,4.38a12.57,12.57,0,0,0-8.37,7.57c-3,6.94-3.31,14.08-2,21.38a3.24,3.24,0,0,0,3.29,2.92,9.54,9.54,0,0,0,1.91,0,13.53,13.53,0,0,0,7.69-3.61c4.67-4.12,9.27-8.33,13.85-12.56a9.58,9.58,0,0,0,3-5.38,31.22,31.22,0,0,0,.38-3.56c0.34-5,.58-9.91,3.46-14.26A4.38,4.38,0,0,0,189.5,434.49Zm-136-171.32a3.94,3.94,0,0,0,3.41,1.37c1.58-.06,3,0.09,3.86,1.76,0.39,0.77,1.05.75,1.8,0.21,1.35-1,2.8-1.8,4.17-2.74a14.68,14.68,0,0,0,2.2-1.8c1.06-1.09,2-2.27,3-3.4a6.88,6.88,0,0,1,4-2.5,3.58,3.58,0,0,0,2.87-2.89A15.42,15.42,0,0,1,79.93,250a5.05,5.05,0,0,1,7.18-2,5.28,5.28,0,0,0,1.2.76,2.48,2.48,0,0,0,1.74,0c2.52-1.84,4.93-3.79,6.34-6.73s3-5.78,4.46-8.73a18.11,18.11,0,0,0,1.36-4,4,4,0,0,0-2.26-4.8,34.47,34.47,0,0,0-4.38-1.88,6.1,6.1,0,0,0-5.23.83c-10.1,5.74-17.49,14.36-24.67,23.16-2.67,3.27-3.73,7.05-1.6,11.16a6,6,0,0,1,.4,1.13c0.51,1.81.08,2.63-1.76,2.81a31.87,31.87,0,0,1-5.73.09A4,4,0,0,0,53.51,263.17Zm139-187.35c-0.35-1.39-.71-2.69-2-3.41-2.25-1.21-4.47-2.49-6.79-3.54-1.94-.88-3.23-0.23-3.87,1.85a21.9,21.9,0,0,0-.71,4A4.46,4.46,0,0,1,177,78.26c-1.94,1.25-2,1.31-1.31,3.72a5.26,5.26,0,0,1-.47,4.15c-1.18,2.1-1,2.47,1.13,3.7s4.49,2.45,6.64,3.83c1.77,1.13,3.26,1.39,4.93-.22,1.08-1,2.06-.78,2.61.62,1.64,4.2,2.48,8.43.23,12.74a16.51,16.51,0,0,0-1.31,3.59c-0.39,1.54.08,2,1.71,2a18.46,18.46,0,0,0,2.14-.26,27.65,27.65,0,0,1,13.48,1c0.87,0.31,1.78.5,2.7,0.75,0.39-2.92-.4-4.23-2.79-4.92a8.52,8.52,0,0,0-1.41-.29c-5.73-.64-6.12-1.82-7-7-0.48-2.66-1.35-5.13-3.49-6.91s-0.95-4.95.72-5.73a13.65,13.65,0,0,1,2.54-.62,18.33,18.33,0,0,0,3.66-1,7,7,0,0,1,5.55-.34,13.27,13.27,0,0,0,3.73.71A7.52,7.52,0,0,1,217.14,91a6.26,6.26,0,0,0,2.11,1.86c3.59,1.72,5,4.53,4.51,8.39-0.25,1.9-.61,3.78-0.88,5.68a7,7,0,0,0,.27,4,1.4,1.4,0,0,0,.55-0.82c0.82-4.39,1.77-8.77,2.37-13.19a32.12,32.12,0,0,0,0-7.15,6.66,6.66,0,0,0-5-6.12c-5.64-1.75-11.27-3.56-17-5.07-5.33-1.41-9.93-.08-13.48,4.4a9.35,9.35,0,0,1-3,2.37c-2.26,1.18-5,.46-5.93-1.36s0.15-4.65,2.42-5.84a4.5,4.5,0,0,1,1.34-.48,23.67,23.67,0,0,1,3.09-.34A6.37,6.37,0,0,0,192.55,75.82Zm210.77-.49c1.55,2.33,3,4.17,4.06,6.19,1.52,2.86.62,4.61-2.59,5.11a9,9,0,0,1-3.18-.58c-0.52-.12-1.12-0.65-1.48-0.49-1.73.73-2.52-.39-2.92-1.59-0.82-2.49-1.37-5.07-2-7.62a0.92,0.92,0,0,1,0-.47c0.52-1.74.94-3.52,1.62-5.2,1.32-3.25,2.79-6.43,4.19-9.65,0.25-.57.43-1.17,0.71-2-1.7.13-3.27,0.22-4.41-1.05-1-1.09-1.85-2.26-2.89-3.54-1.65,3.34-2,6.34-.26,9.44,1.33,2.4.48,4-2.28,4.23-1.26.12-2.55,0-3.71,0-1.32-1.92-2.47-3.74-3.78-5.45s-2.74-3.23-4.31-5.06l3.44,0.26c0-.86,0-1.64,0-2.41-0.12-3-.47-3.36-3.39-3.86-1.43-.24-3-0.06-4.29-1.18,0.48-.94,1-1.76,1.34-2.63a1.63,1.63,0,0,0-1.8-2.39,6.89,6.89,0,0,0-2,.82,7.65,7.65,0,0,1-4,1c0.39-1.11.75-2,1-2.89s0.51-1.8-.35-2.43a2,2,0,0,0-2.46.15c-2.21,1.56-4.48,3.05-6.6,4.73a2.84,2.84,0,0,1-2.54.83,6.55,6.55,0,0,0-3.7.06c0.13,1.38,1.21,1.37,1.93,1.68a109,109,0,0,1,22.9,13.41A39.46,39.46,0,0,1,390.21,75a81.15,81.15,0,0,1,6.25,14.24c0.73,2.17,1.4,4.37,2.09,6.55a3.33,3.33,0,0,0,.34-1.21,1.54,1.54,0,0,1,2-1.44c2.84,0.32,5.68.68,8.53,0.82a7.92,7.92,0,0,0,5.74-1.91c-0.07-3.48-.2-6.57-0.17-9.65s2-5.82,3.17-8.6c-1.33-2.6-3.22.32-4.92-.71-0.12-.78-0.25-1.71-0.39-2.63-0.23-1.5-.37-3-0.74-4.47a2.31,2.31,0,0,0-1.24-1.55c-0.46-.1-1.11.64-1.67,1a0.6,0.6,0,0,0-.14.19ZM36.76,277.66c2.38-1.8,4.79-3.51,6.33-6.1a6.29,6.29,0,0,0,1-2.92,5.44,5.44,0,0,1,2.75-4.74,17.76,17.76,0,0,0,1.51-1.18,2.46,2.46,0,0,0,.78-3.2,12.91,12.91,0,0,1-.82-2.25c-0.32-1.36.15-2.24,1.53-2.44a29.35,29.35,0,0,1,4.52-.17c0.87,0,1.74.21,2.62,0.29a1.35,1.35,0,0,0,1.64-1.32c0.06-.48.15-0.95,0.19-1.43A19.71,19.71,0,0,1,66,238.56a37.57,37.57,0,0,0,3-3.08,3.32,3.32,0,0,0,.61-3.8c-0.59-1.36-1.92-1.29-3.11-1.2q-7.29.55-14.58,1.22a2.5,2.5,0,0,0-2.53,2.4c-0.28,1.44.48,2.17,1.59,2.88,1.94,1.23,2.39,2.38,1.91,4.19a3.87,3.87,0,0,1-4,3.16,30.85,30.85,0,0,1-5-.2,13.52,13.52,0,0,0-9.72,2.56c-2.72,1.9-3.22,4.8-1.48,7.6s3.78,5.38,7.41,6a1.89,1.89,0,0,1,1.31,1.1,2.37,2.37,0,0,1-1.1,1.62,3.3,3.3,0,0,1-2.25.25c-3.63-1.12-6.39.58-9,2.64-1.14.9-1.13,2-.16,3.15a11.83,11.83,0,0,0,1.94,1.78C34.8,273.8,34.81,273.79,36.76,277.66ZM171.08,108.28c0.67-1.7.17-2.67-1.1-3.24a28.39,28.39,0,0,0-3.59-1.33,13,13,0,0,1-6.65-4.48c-1.54-1.94-3-3.93-4.4-6a4.91,4.91,0,0,1-.71-2.44,25.34,25.34,0,0,1,7.61-19.51,64.78,64.78,0,0,1,6.31-5.13c1.38-1.08,2.89-2,4.23-3.15s1.4-1.86.7-3.55c-0.29,0-.6.07-0.9,0.14-2.51.58-3.91-.51-3.33-2.92,0.52-2.15,1.57-4.17,2.3-6.28a16.48,16.48,0,0,0,.83-3.45c0.12-1-.32-1.85-1.78-2.25-0.6.94-1.26,1.9-1.84,2.9-2.19,3.81-4.39,7.61-6.53,11.45a5.45,5.45,0,0,1-9.84-.11,7.41,7.41,0,0,0-1.22-1.75,1.42,1.42,0,0,0-1.24-.38,1.83,1.83,0,0,0-.84,1.27,3.16,3.16,0,0,0,1.59,2.73c3.84,2.82,4.67,6.55,2.41,10.74a14.8,14.8,0,0,0-1.91,7.33,7.15,7.15,0,0,1-.64,2.76,3.52,3.52,0,0,1-3.24,2.12A4.77,4.77,0,0,1,142.1,79c0-.8.09-1.6,0.11-2.39,0-1.91-.38-2.57-2.14-3.3a13.8,13.8,0,0,0-2.28-.74c-2.66-.59-3.95.27-4.39,3-0.29,1.73-.46,3.49-0.74,5.22-0.52,3.19-.28,3.43,3,2.85,0.31-.05.63-0.09,1-0.11,4.53-.36,6.58,1.06,8,5.43a30.78,30.78,0,0,0,1.62,4,12.56,12.56,0,0,0,5.1,5.59,13.86,13.86,0,0,1,5,5.36c2,3.36,4.14,6.64,6.25,9.93a5.15,5.15,0,0,0,1,.89c0.64-1.11-.16-1.66-0.55-2.28s-1.12-1.36-1.62-2.07a2.69,2.69,0,0,1-.15-3.14,2.74,2.74,0,0,1,3-1.5,21.19,21.19,0,0,1,3.4,1.09C168.73,107.23,169.8,107.73,171.08,108.28Zm15.85,359.3c-1.22.58-2.33,1-3.32,1.58-7.79,4.71-15.56,9.45-23.34,14.18a19.8,19.8,0,0,0-6.18,5.91,8.2,8.2,0,0,0-1.23,7.32c1.46,4.47,3.16,8.87,4.95,13.22a6,6,0,0,0,6.62,3.07,57,57,0,0,0,7.43-2.67c3.69-1.67,5.18-5,4.15-8.92-0.37-1.38-1-2.7-1.46-4.05s-1.11-2.83-1.53-4.28a12,12,0,0,1,2.75-12c1-1.12,2.13-2.17,3.24-3.19q3.52-3.26,7.09-6.46A3.1,3.1,0,0,0,186.93,467.58ZM270,454.23a11.27,11.27,0,0,0-.06,5.35c0.61,2.4,1.2,4.8,1.84,7.19a10.7,10.7,0,0,1-1.83,10c-2.48,3.14-2.89,6.49-.91,10a6.45,6.45,0,0,1,.6,3.95,7.76,7.76,0,0,1-3.29,5.59c-3.41,2.64-6.71,5.43-10.1,8.1a4.68,4.68,0,0,0-1.86,4.87c0.66,3.28,1.4,6.56,2.27,9.79a4.25,4.25,0,0,0,4,3.15c0.15-1.59.37-3.09,0.43-4.59a37,37,0,0,1,3.37-13.88,23.25,23.25,0,0,0,1-2.43c0.61-1.88,1.31-2.4,3.1-2.21,1.38,0.15,2,.86,2.16,2.68a12.12,12.12,0,0,1-2.86,9.82,15,15,0,0,0-3.12,5.88c-1.12,3.87.77,7,4.77,7.5a71.18,71.18,0,0,0,8.61.47c2.19,0,2.93-1,2.22-3.09a5.5,5.5,0,0,1,1.44-6.31,4.37,4.37,0,0,0,.93-5.31,28.37,28.37,0,0,0-3.14-5.32,33.18,33.18,0,0,1-7.05-15,44.71,44.71,0,0,1,.37-16.2C274.13,467.43,274,460.85,270,454.23ZM96.24,98.49A9.56,9.56,0,0,0,96,99.58c-0.23,3.34.73,4.42,4.12,4.16a59.27,59.27,0,0,0,7.79-1.17,35.78,35.78,0,0,1,10.92-1c5.33,0.51,8.81,3.3,10.8,8.21a30.13,30.13,0,0,0,2.63,5.1,5.42,5.42,0,0,0,2.6,2.35c4.69,1.26,9.46,2.25,14.2,3.31a4.71,4.71,0,0,0,1.43,0c2.74-.26,3.82-1.59,3-4.19a44.25,44.25,0,0,0-2.71-5.84c-0.77-1.57-1.68-3.08-2.41-4.67-0.89-2-1.29-2.27-3.48-2.08-0.64.06-1.27,0.19-1.9,0.23a6.22,6.22,0,0,1-5.12-1.54,7.62,7.62,0,0,0-7.45-2.13c-3.43.67-4.45,0.09-6.29-3-0.81-1.34-1.6-2.7-2.49-4.21-2.48,2.69-5.31,2.8-8.29,1.61a40.67,40.67,0,0,1-3.79-2c-1.2-.64-2.37-1.32-3.62-1.84a6.57,6.57,0,0,0-2.19.12c1,1.24,1.69,2,2.33,2.79a15.81,15.81,0,0,1,1.58,2.08,2,2,0,0,1-.59,2.93,4,4,0,0,1-3.33,1,13.81,13.81,0,0,1-3.19-.95A5.87,5.87,0,0,0,96.24,98.49Zm28.84,13.69a5.27,5.27,0,0,0-1.58.92c-1.86,2.71-4.52,4.48-7.18,6.26s-2.86,4.08-.46,6.3c0.64,0.6,1.4,1.08,2,1.71a11.56,11.56,0,0,1,2,2.38,4.33,4.33,0,0,1-3.37,6.6,47.06,47.06,0,0,1-8.59-.12,4.79,4.79,0,0,1-4.34-4.18,7,7,0,0,1,2.33-7.12c1.31-1.17,2.68-2.29,3.88-3.56,1.48-1.58,1-3.34-.91-4.21-1.48-.66-2.66-0.51-3.58.87a21.73,21.73,0,0,0-2.5,4.85,53.53,53.53,0,0,0-1.2,5.61,7.32,7.32,0,0,0,.95,6,6,6,0,0,1,1,4.8c-0.45,1.77.11,3.28,0.91,5.05,1.29-.6,2.5-1.16,3.7-1.74,2.15-1,3.37-.47,3.73,1.9s0.62,4.91.86,7.38a5.71,5.71,0,0,1-2.64,5.55c-0.66.46-1.37,0.85-2,1.36-2.5,2.12-2.29,6.64.38,8.38,1.39,0.91,2.3.52,2.46-1.1,0.08-.79,0-1.6,0-2.4,0.06-2,1.22-3.64,2.61-3.86s2.89,0.75,3.7,2.49a6.45,6.45,0,0,1,.13,5.13,32.24,32.24,0,0,0-1.13,3.15,1.66,1.66,0,0,0,1.38,2.32c1.5,0.41,3,.68,4.44,1a2.94,2.94,0,0,0,0-3.25,22.76,22.76,0,0,1-1.35-3.58,4.09,4.09,0,0,1,.06-2.52c1.15-2.43.42-4.3-1.3-6.06a26.54,26.54,0,0,1-2.83-3.24,6,6,0,0,1,0-7.58,25.23,25.23,0,0,0,4.58-10.18,7.6,7.6,0,0,1,2.84-4.59c1.51-1.18,3.06-2.31,4.54-3.53,0.76-.62,1.42-1.38,2.3-2.25a26.75,26.75,0,0,0-2.29-1.83c-2.91-1.82-3.94-4.42-3.55-7.77A49.23,49.23,0,0,0,125.08,112.18Zm368.31,169a3.84,3.84,0,0,1-3.39-.45c-3.65-2.73-7.21-1.9-10.67.37-1.69,1.1-2,2.06-1.23,3.87,1.24,2.86,2.45,5.74,4,8.46a10.45,10.45,0,0,0,3.27,3.38c1.74,1.17,3.59.58,4.78-1.17A13.61,13.61,0,0,0,491,294a57.73,57.73,0,0,1,7.48-11.68,11.94,11.94,0,0,1,2.12-1.53c0.78,3.86-1.63,6.76-1.58,10,5.6-1.6,7.73-18.2,2.85-22.15-1.64,2.19-2.44,2.47-5.1,1.81a7.13,7.13,0,0,1-1.37-.41c-6.18-3-12.17-1.48-18.1.81-1.61.62-1.93,1.36-1.6,3a22.21,22.21,0,0,0,.85,3c0.48,1.36,1,1.62,2.37,1s2.69-1.41,4.05-2.07a9.35,9.35,0,0,1,7-.71C492.87,276,494,278,493.39,281.21Zm-239-211.95c-0.65,1.68-1.32,3.3-1.91,4.95-0.36,1-1.13,1.53-2,1.16a2.5,2.5,0,0,1-1.25-1.77,4.83,4.83,0,0,1,.69-2.47,6.63,6.63,0,0,0-1.12-8.36c-2.82-2.93-5.73-5.78-8.66-8.6a8.36,8.36,0,0,0-5.08-1.89c-1.19-.14-1.63.36-1.59,1.5a41.18,41.18,0,0,0,.24,4.29,4.18,4.18,0,0,0,1,2.56,9.12,9.12,0,0,1,2.53,3.67c1.55,3.22,1.56,3.22,5.14,2.48a20.28,20.28,0,0,1,0,4c-0.79,3.83-1.62,7.65-2.69,11.41-1.21,4.22-2.68,8.36-4.07,12.52a4.57,4.57,0,0,0,.1,3.94c0.79-.8,1.49-1.42,2.07-2.13a28.66,28.66,0,0,0,1.78-2.55c4.42-6.84,10.2-12.47,16.1-18,0.29-.27.61-0.52,0.92-0.77,5-4.06,8.93-4.16,14.1-.39,0.58,0.42,1.16.84,1.75,1.25a1.72,1.72,0,0,0,2.58-.46c-0.75-1.05-1.73-1.87-2-2.87-0.65-2.81-2.82-3.43-5.09-4-0.69-.18-1.43-0.18-2.12-0.35-2.47-.58-4.93-1.2-7.36-1.8C257.06,67.41,256.59,69.51,254.43,69.26ZM224.71,499a7.28,7.28,0,0,0-2.86,3,168.81,168.81,0,0,1-9.54,14.9c-2.65,3.58-2.56,7.68-.4,11.53,2.78,4.93,10.26,8,15.79,6.75a4.31,4.31,0,0,0,3.38-3,6,6,0,0,0-1.44-6.6c-2-1.93-2.22-3.15-1.1-5.32a8.4,8.4,0,0,0-.58-9.05C225.59,507.63,223.72,503.92,224.71,499ZM78.86,133.12c-2.88.94-5.82,1.55-8.43,2.83-6.52,3.19-10.38,8.58-11.74,15.7-0.3,1.55-.43,3.19.68,4.6,2.3,2.92,2.69,6.21,2,9.76a9,9,0,0,0-.17,2.85,3.74,3.74,0,0,0,2.51,3.22c1.16,0.42,2.77-.35,3.72-1.62a4.62,4.62,0,0,0-.21-6.15c-0.46-.55-1.06-1-1.48-1.56a1.89,1.89,0,0,1,1-3.2,5.52,5.52,0,0,1,4.17.45c2.05,1,2.59.89,4.23-.74a37.36,37.36,0,0,1,11.19-8.09c1.4-.61,1.69-1.6.65-2.61a34,34,0,0,0-5.54-4.5c-2-1.23-4.19-.15-4.95,2.09a9.17,9.17,0,0,0-.32,1.88c-0.13,1.11-.16,2.24-0.34,3.34a5.56,5.56,0,0,1-7,4.65c-2.13-.71-3.3-3-2.94-5.67,0.23-1.76.69-2,3.55-2.16,0.24,0,.48,0,0.72,0a3.39,3.39,0,0,0,3.34-2.9A18.49,18.49,0,0,1,74,143a3.57,3.57,0,0,1,3.07-2.35c0.4,0,.8,0,1.2-0.06,2.1-.23,3.13-1.47,2.88-3.58A4.79,4.79,0,0,0,78.86,133.12ZM270.13,57.37a4,4,0,0,0,.81-0.07c0.58-.26,1.16-0.54,1.73-0.82a99.91,99.91,0,0,1,19.56-7.08c11.22-2.83,22.66-2.61,34.09-2.61,3.52,0,7,0,10.55.05a12.28,12.28,0,0,0,1.71-.29c-5.78-3.75-12.18-5.11-18-7.88a156.18,156.18,0,0,1,28.53,7.68,24.93,24.93,0,0,1-2.91-9.65,3.34,3.34,0,0,0-2.24-3,11.51,11.51,0,0,1,.39,1.82,28.36,28.36,0,0,1,0,4c-0.12,1-.52,2.16-1.85,2.12-1.18,0-1.51-1.08-1.68-2a15,15,0,0,1-.38-3.32c0-1.16-.09-2.05-1.29-2.49a1.8,1.8,0,0,1-1.3-2,1.78,1.78,0,0,0-.32-0.72,1.19,1.19,0,0,0-.31.88,44.07,44.07,0,0,1-.36,5.43c-0.31,1.69-1.26,2-2.84,1.2a30.43,30.43,0,0,0-3-1.46c-4.3-1.54-8.79-1.59-13.26-1.32a4.54,4.54,0,0,0-2.39,1.37,6,6,0,0,1-4,1.83,10.34,10.34,0,0,0-1.23.14c0,2.1.11,4,0,5.88A1.32,1.32,0,0,1,308,46.17c-1.82-1.1-4.16-1.22-5.61-3a4.05,4.05,0,0,0-1.25-.68c-1.68,3.72-4.72,5.23-8.4,5.74A18.12,18.12,0,0,1,281,45.83c-2-1.14-3.75-2.35-4.3-4.8a2.07,2.07,0,0,0-2-1.77c-0.86,1.19-.38,2.14.32,3.09a6.19,6.19,0,0,1,.73,6.36,22.62,22.62,0,0,1-2.09,3.76C272.62,54.07,271.44,55.57,270.13,57.37Zm-56.26,97.22a5,5,0,0,0,1.34,4.31,52.36,52.36,0,0,0,4.12,3.65c2.62,2.08,3.78,4.6,3.06,8a49,49,0,0,1-4.34,12.89c-1.66,3.16-2.19,6.48-.55,9.89a7.42,7.42,0,0,1,.42,1.86,11.71,11.71,0,0,0,1.8,5.14,3.36,3.36,0,0,1,.13,3.83c-1.26,2.35-1,2.83,1.59,3.7,1.58,0.54,3.12,1.22,4.67,1.83a5.42,5.42,0,0,1,3,3,17,17,0,0,0,1.25,2.58,9.22,9.22,0,0,0,2.07,2.26,1.16,1.16,0,0,0,1.88-1.15,4.79,4.79,0,0,0-.82-1.94c-3.84-5.88-6.24-12.39-8.4-19a3.54,3.54,0,0,1,.35-3.52,3.18,3.18,0,0,1,3.06,2c0.61,1.21,1.29,2.39,1.91,3.6,1.07,2.05,2.12,4.12,3.19,6.17,0.46,0.89,1,1.67,2.45.92a21.68,21.68,0,0,0-.57-2.67c-1.14-3.32-2.49-6.58-3.5-9.94-0.8-2.67-2-4.69-4.68-6-2.45-1.16-3-3-2.18-5.64,0.46-1.52,1.12-3,1.61-4.51a6.88,6.88,0,0,0-.51-6c-2.4-3.77-4.85-7.52-7.42-11.18A17.22,17.22,0,0,0,213.87,154.59Zm10.8,282.31-0.66-.21a83.42,83.42,0,0,0-9.19,11.26,10.2,10.2,0,0,0-1.25,3.58,9.25,9.25,0,0,0,2.69,8.33,15,15,0,0,1,4.1,11.62c-0.09,1.51-.12,3-0.11,4.55a23.33,23.33,0,0,0,1.81,7.81c1.44-.13,1.6-1.23,2-2,1.5-3.18,2.78-6.46,4.39-9.57,2-3.79,2-7.25-.77-10.69a8.07,8.07,0,0,1-1.74-6.75,12.52,12.52,0,0,0-1.47-9.23,6.38,6.38,0,0,1-.31-6A14.4,14.4,0,0,0,224.68,436.9Zm-14.47,56.72-0.56-.53a15.35,15.35,0,0,0-1.76.92c-4.73,3.27-9.45,6.58-14.18,9.86a7.34,7.34,0,0,0-3.26,6.57q0.09,5.88.11,11.75c0,1.87.44,3.5,2.23,4.44a4.54,4.54,0,0,0,5.39-.55c2.55-2.29,4.93-4.78,7.24-7.31a4.17,4.17,0,0,0,.62-4.51,21.93,21.93,0,0,1-1.39-4.81,13.33,13.33,0,0,1,.3-4.7,13.94,13.94,0,0,1,1.81-3.62A49.63,49.63,0,0,0,210.21,493.63Zm78.22-14.38a3.75,3.75,0,0,0-1.17,4c0.8,3.91,1.45,7.86,2.22,11.78,1.24,6.27,2.46,12.54,3.83,18.78,1.41,6.45,5.52,10.82,11.49,14.05a19.53,19.53,0,0,0,1.44-3.44c0.33-1.55.26-3.18,0.5-4.76a3.18,3.18,0,0,0-1.27-3.14,16.42,16.42,0,0,1-6.25-13.18,17.6,17.6,0,0,0-3.07-9.46c-0.8-1.29-1.63-2.56-2.42-3.86a13.45,13.45,0,0,1-2.35-7.92,1.79,1.79,0,0,0-1.08-1.92ZM55.15,209.56c2,0,3.64,0,5.23,0,6.17-.16,11-2.71,13.8-8.34,1.37-2.73,2.21-4.08-2-4.54-2.08-.23-2.77-1.51-2.46-3.63,0-.31.16-0.62,0.23-0.93a7.74,7.74,0,0,0-3-8.5c-1.46-1.12-3-2.15-4.47-3.23a4.39,4.39,0,0,0-5.16-.33,10.88,10.88,0,0,1-5.53,1.31c-1.52,0-3-.11-4.55-0.17-3.53-.12-6.27,1.46-7.56,4.42a8.71,8.71,0,0,0-.35,1.85,12.53,12.53,0,0,0,7.72-.94,26.53,26.53,0,0,1,11.88-2.38c4.15,0,7,5.61,5.2,8.6a15.08,15.08,0,0,0-1.88,6.12,6.68,6.68,0,0,1-2.93,5A10.69,10.69,0,0,0,55.15,209.56Zm195.7,256.68-0.62-.08a22.08,22.08,0,0,0-1.56,3.89,25.82,25.82,0,0,0-.46,5.46c0,3.38-1.08,6.13-3.92,8a4.91,4.91,0,0,0-2.26,5.35c0.06,0.39.14,0.79,0.21,1.18,0.56,3.61.91,7.13-2,10.1a3.13,3.13,0,0,0-.41,3.81c0.77,1.37,1.73,2.63,2.79,4.21,1.71-1.91,3.23-3.53,4.66-5.23,1.73-2,3.52-3.91,6.35-4.39a2.47,2.47,0,0,0,1.45-1.1,37.2,37.2,0,0,0,2.38-4.42,4.66,4.66,0,0,0-1-5.52,16.33,16.33,0,0,0-2-1.73,7.1,7.1,0,0,1-3-7.55c0.24-1.33.56-2.65,0.78-4A11.19,11.19,0,0,0,250.85,466.23ZM132,164a4.55,4.55,0,0,0-1.88,3.68,34,34,0,0,0,.33,4.76c0.16,1.26.63,2.49,0.78,3.75,0.3,2.5-.88,4-3.36,4.32a21.43,21.43,0,0,1-2.63.07c-4.32.06-8.63,0.1-12.95,0.17a5.63,5.63,0,0,0-1.65.22,3.28,3.28,0,0,0-2,3.21c0.2,1.11.87,1.52,2.53,1.66,3.51,0.28,7,.61,10.51.87a4.42,4.42,0,0,1,3.27,1.71,6.47,6.47,0,0,0,5,2.6,41.08,41.08,0,0,0,7.84-.59c2.89-.57,3.48-2.63,1.72-5-0.14-.19-0.3-0.37-0.47-0.55a6.88,6.88,0,0,1-1.73-5.78c0.13-1,.37-2,0.51-3.07a3.64,3.64,0,0,0-1.4-3.81,7.47,7.47,0,0,1-2.85-5.35A3.53,3.53,0,0,0,132,164ZM379.63,503.53l0.52-.31a7.55,7.55,0,0,0-.15-1.83c-0.77-2.26-1.52-4.53-2.46-6.72-1.3-3-2.54-6.06-2.57-9.4a3.4,3.4,0,0,0-2.62-3.52,23.26,23.26,0,0,1-3.58-1.34,15.89,15.89,0,0,1-3.92-2.64A35,35,0,0,0,354,470.4c-2.35-1.06-3.58-.2-3.21,2.33A4.81,4.81,0,0,0,352,475a9.93,9.93,0,0,0,2.23,1.79,26,26,0,0,1,10.64,13.46,15,15,0,0,0,4,5.9C372.08,499.15,376.1,501,379.63,503.53Zm-266.72-25.2A10,10,0,0,0,114,481.4c1.44,1.83,4.94,2.41,7.21,1.61a15.21,15.21,0,0,0,7.71-5.82,102.16,102.16,0,0,0,6.24-10.46,15,15,0,0,0,1.1-5.34c0.16-1.63-.73-2.15-2.22-1.47-1.23.57-2.43,1.2-3.64,1.81-2.37,1.18-4.79,2.43-6.33,4.61a26.38,26.38,0,0,1-6.51,5.92l-2.33,1.69A5.38,5.38,0,0,0,112.91,478.34ZM415.89,96c1.09,0.18,1.69.25,2.28,0.37,2.33,0.49,4.88.55,6.95,1.59,4.46,2.24,8.36,1.84,12.28-1.1,1.13-.84,2.69-1.11,4.21-1.7-0.13-1,.67-2.32-0.66-3.48A45,45,0,0,1,432.89,82a8,8,0,0,0-3.16-3.08c-1.41,4.26-3.8,8-3.67,12.61a3,3,0,0,1-2.29,2.8c-1.69.51-3.48,1.4-5.08-.24Zm-306,344.51c-2.39,2.41-4.91,3.45-8,2.48a2.83,2.83,0,0,0-3.32,1.3c-0.79,1.11-1.55,2.23-2.36,3.32a10.67,10.67,0,0,1-6.78,4.55c-1.6.29-1.86,1-1,2.36,1,1.7,2.16,3.36,3.3,5,1.29,1.85,2.38,2.17,4.54,1.39a12.07,12.07,0,0,0,7.71-7.34,22.82,22.82,0,0,1,6.3-9.48,13.25,13.25,0,0,0,1.49-1.87ZM85.19,159.63a15.86,15.86,0,0,0,1.33,2.28c3,3.55,6,7.05,8.94,10.6a11.5,11.5,0,0,0,4.4,3.19,2.8,2.8,0,0,0,3.76-.82c0.79-1,.7-1.71-0.35-3.22-1.32-1.89-2.71-3.75-4-5.69a13.66,13.66,0,0,1-2.47-6.9,22.35,22.35,0,0,1,.29-4.51c0.17-1,.31-1.9-0.58-2.59s-1.68-.14-2.46.21a32.52,32.52,0,0,0-4.29,2.09,18.46,18.46,0,0,0-3.4,3A9.87,9.87,0,0,0,85.19,159.63Zm54.94-29a1.47,1.47,0,0,0-.54,0c-1.74,1-3.38,2.07-5.56,1.86-1.08-.11-1.6.85-2,1.77a12.36,12.36,0,0,1-1.47,2.68c-2.43,2.92-4.19,9.08-3.58,13.28,0.87,0,1.8.16,2.72,0.14,1.69,0,3.05.28,4,1.94a2.57,2.57,0,0,0,4.41.15,5.75,5.75,0,0,0,1-1.9c0.82-2.75,1.62-5.52,2.33-8.3a16.19,16.19,0,0,0,.16-3c-1.4,1.11-1.38,1.11-1.78,2.52a2.77,2.77,0,0,1-4.48,1.58,3.58,3.58,0,0,1-1.53-3.1,6.52,6.52,0,0,1,2.09-4.69,29.3,29.3,0,0,1,3-2.38C139.72,132.53,140.42,131.84,140.13,130.62ZM498.79,265.07c2.06-1.92,4-3.71,5.9-5.49,0.94-.87,2-1.65,2.83-2.58,1.41-1.49,1.24-2.38-.64-3.91-0.31.33-.66,0.64-0.95,1a5.81,5.81,0,0,1-5.25,2.3c-1.75-.13-3.51-0.16-5.26-0.3a7.28,7.28,0,0,1-6.35-4.06,3.66,3.66,0,0,0-2.24-2c-2.21-.69-3.07-2.34-3.13-4.57a21.47,21.47,0,0,0-.43-3.55,5.18,5.18,0,0,0-1.12-1.42c-1.76,6.23,0,11.81.35,17.59a6.78,6.78,0,0,0,1.2-.22c4.29-1.83,7.72-.63,10.65,2.84C495.69,262.28,497.3,263.61,498.79,265.07ZM412.14,454.66c-0.65,0-.89-0.08-1.12-0.08-2.45,0-3.23,1-2.45,3.27a6.89,6.89,0,0,0,1,1.87,7.83,7.83,0,0,0,3.95,2.55,12.78,12.78,0,0,1,6.76,4.69c2.07,3.05,4.5,2.67,7.29,1.16a3.16,3.16,0,0,0,.34-5.4,24.13,24.13,0,0,0-2.72-1.46,8.17,8.17,0,0,1-2.33-1.58A13.63,13.63,0,0,0,412.14,454.66ZM204.47,467.21c-6.37,3.7-10.49,13.42-9.85,23.75,2.65-2.47,5.23-4.71,7.6-7.13C207,478.94,207.7,473.65,204.47,467.21Zm233.61-7.74,0.27-.54a7.86,7.86,0,0,0-.88-1.63c-2.5-2.8-4.93-5.68-7.61-8.3a15.19,15.19,0,0,0-11.95-4.58c-1,.06-1.91-0.12-2.87-0.1a6.83,6.83,0,0,0-2.11.29,2.85,2.85,0,0,0-1.83,3,2.24,2.24,0,0,0,2.62,1.58,17.53,17.53,0,0,1,2.4.08,14.56,14.56,0,0,1,8.62,3.21c3.31,2.9,7.23,4.67,11.15,6.46A10.67,10.67,0,0,0,438.07,459.47Zm-95.65,30.85-0.5,0c-0.63,2-1.23,4-1.9,6-2.58,7.65-.19,14.41,3.73,20.89,1,1.6,3.62,2.06,4.81,1a4.66,4.66,0,0,0,.84-5.7,10.39,10.39,0,0,0-1.5-1.85,13.42,13.42,0,0,1-3.75-8.08c-0.35-2.77-.7-5.53-1.08-8.3C342.9,492.9,342.65,491.61,342.42,490.31ZM188.49,210.06c0.73-.58,1.15-0.9,1.56-1.24s0.81-.78,1.25-1.11c1.53-1.11,2.05-1,3.07.52,0.42,0.64.62,1.52,1.76,1.45,1.52-2.14,3.36-4.17,6.1-4.57a64.55,64.55,0,0,1,7.89-.22,5.78,5.78,0,0,0-2.9-1.88c-2.4-.85-4.82-1.65-7.21-2.54-6.34-2.35-5.34-2.24-11,1-0.14.08-.3,0.11-0.44,0.2a1.53,1.53,0,0,0-.73,2,6.67,6.67,0,0,1,.45,3.73A18,18,0,0,0,188.49,210.06ZM497.22,343.51l0.43,0.39a13.64,13.64,0,0,0,2-1.09q3.5-2.71,6.91-5.52a18.42,18.42,0,0,0,2.56-2.5,4.76,4.76,0,0,0-.87-7.15,14.37,14.37,0,0,0-3.14-1.69,1.86,1.86,0,0,0-2.78,1,19.39,19.39,0,0,0-1.48,3.52c-1.18,3.89-2.28,7.8-3.39,11.7C497.34,342.6,497.3,343.06,497.22,343.51ZM396,438.51a15.27,15.27,0,0,0-1.68-1q-4.24-1.94-8.51-3.8a12.63,12.63,0,0,0-2.27-.72,19.62,19.62,0,0,1-7.57-3.43,6.07,6.07,0,0,0-2.11-1q-4.76-1.18-9.56-2.2c-2-.44-2.69.13-3,2.57,2.37,0.24,4.74.45,7.1,0.72,3.33,0.38,6.49,1.25,8.51,4.2a7,7,0,0,0,3.77,2.77c3.48,1.15,7,2.32,10.48,3.36a12.47,12.47,0,0,0,3.31.28C395.39,440.23,395.94,439.71,396,438.51ZM259.1,43c0.92-3.13,0-4.93-2.87-5.6a8.73,8.73,0,0,1-5-2.94,5.65,5.65,0,0,0-8.64.43,1.57,1.57,0,0,0-.34,1.28c0.9,1.69.56,3.41,0.38,5.16a10.32,10.32,0,0,0,.35,2.32c1.14-.59,2-1,2.8-1.45a8.86,8.86,0,0,1,8.23-1C255.62,41.8,257.28,42.34,259.1,43Zm171.67,67.47c-0.1-.66-0.18-1.29-0.3-1.9a1.65,1.65,0,0,0-1.63-1.45c-3-.34-6-0.76-9-1.08a2.07,2.07,0,0,0-1.47.45,3.45,3.45,0,0,0-.6,4.93,16.5,16.5,0,0,1,3,7.46,1.09,1.09,0,0,0,.33.43c1.51-1.17,3-2.26,4.37-3.41a2.36,2.36,0,0,0,.74-1.19,4,4,0,0,1,2.69-3.07A11.18,11.18,0,0,0,430.77,110.44ZM321.53,27.32a11.71,11.71,0,0,0-6.81-2c-2.77.14-5.55,0.38-8.3,0.77a4.23,4.23,0,0,0-3.52,4.22,3.1,3.1,0,0,0,1.2,3c1,0.74,2,.45,3.09-0.17a15.84,15.84,0,0,1,9.57-2.35,2.31,2.31,0,0,0,1.54-.42C319.37,29.48,320.34,28.46,321.53,27.32ZM257.26,63.64c3.61,0.19,6.73-1.28,10.39-4.67a32.45,32.45,0,0,1-1.22-3.67c-0.29-1.4-.33-2.86-0.5-4.29a3.72,3.72,0,0,0-2.08-3c-1.71-.88-2.73-0.3-2.81,1.65A30.45,30.45,0,0,1,258.38,61C258,61.8,257.7,62.61,257.26,63.64ZM228.76,47c0.92-1,.67-2,0.41-3a6.72,6.72,0,0,1,.46-4.89,4.45,4.45,0,0,0,.4-2.48,3.07,3.07,0,0,1,1.42-3.27,24.88,24.88,0,0,0,2.27-2,21.43,21.43,0,0,0-.91-2.4c-0.43-.83-1.39-1.25-1.94-0.48-1.26,1.74-3.18,2.32-4.88,3.32-1.37.8-2,1.77-1.39,2.93a11.35,11.35,0,0,1,1,5.76,4,4,0,0,0,.47,1.59c0.53,1.24,1.07,2.47,1.66,3.67A9.61,9.61,0,0,0,228.76,47ZM248.66,522c-1.08,2.39-2.08,4.47-3,6.59a33.8,33.8,0,0,0-1.67,4.74c-0.52,2.06.68,3.45,2.8,3.5a2.62,2.62,0,0,0,2.62-2.06,59.59,59.59,0,0,0,2-6.41C252,525.91,251,523.87,248.66,522ZM85.7,129.21a25.62,25.62,0,0,0,.73,10.32,4.23,4.23,0,0,0,2.87,3.27,12.08,12.08,0,0,0,6.06.14c0.64-1.89-.59-2.64-1.71-3.4-2.84-1.93-4.85-4.3-5-8C88.61,130,87.93,129.58,85.7,129.21ZM295.22,39.86C290,37,284,38.66,283,43.35a15,15,0,0,0,12.25,1.12V39.86ZM511.64,324.72c0-2.69-.05-4.85,0-7a3.05,3.05,0,0,0-1.37-2.84c-1.94-1.41-3.79-2.94-5.7-4.39a11.28,11.28,0,0,0-1.4-.78c0.58,6.57.58,6.57,4.62,11.27,0.78,0.91,1.54,1.84,2.35,2.72A10.18,10.18,0,0,0,511.64,324.72ZM121.41,89.17a2.08,2.08,0,0,0,.38-0.56c0.82-3.16,1.66-6.31,2.39-9.48a4.28,4.28,0,0,0-.09-2.32c-0.63-1.7-1.92-1.93-3.1-.62C117.67,79.88,118.17,86.53,121.41,89.17ZM411.91,472.34a11.44,11.44,0,0,0,0,2.31c0.61,2.63,1.25,5.26,2,7.85a2.19,2.19,0,0,0,1.3,1.42,2.25,2.25,0,0,0,1.65-1.05,33.87,33.87,0,0,0,2.29-4.44c0.68-1.6.18-2.68-1.52-3a9.55,9.55,0,0,1-4.79-2.49A7.49,7.49,0,0,0,411.91,472.34ZM266.46,46.8a3.87,3.87,0,0,0,3.77-3.87,4,4,0,0,0-3.74-4.18c-1.86,0-3.44,1.88-3.44,4.15A3.72,3.72,0,0,0,266.46,46.8ZM76.23,427.3c-2.58,1-3.2,3.08-3.64,5.23a1.41,1.41,0,0,0,1.11,1.8,7.26,7.26,0,0,0,6.33-.47Zm307.24,62.12a11.32,11.32,0,0,0,8.67,5.94,3.18,3.18,0,0,0,1,0c1.51-.27,2-1.4,1-2.58a4.66,4.66,0,0,0-3.3-1.72,11.61,11.61,0,0,1-5.47-1.57A4.81,4.81,0,0,0,383.47,489.42ZM349.59,35.66c1,3,1.22,5.57,2.71,7.91,0.92-1.47,1.76-2.7,2.5-4s0.51-1.75-.67-2.28S351.49,36.33,349.59,35.66ZM457.53,144.57l0.44,0.29c0.78-.53,1.58-1,2.33-1.6,2.19-1.7,2.2-3-.06-5.23Zm-419.42,220c-2.62,2.36-2.9,4.22-1.24,6.71Z" transform="translate(-0.48 -0.48)"/></svg>