<svg id="Capa_1" data-name="Capa 1" xmlns="http://www.w3.org/2000/svg" viewBox="0 0 270 270"><polygon points="134.44 6.67 145.74 22.34 146.79 22.38 147.5 4.89 146.22 4.84 145.61 20.03 134.33 4.36 133.26 4.32 132.55 21.8 133.82 21.85 134.44 6.67"/><path d="M164.12,7.75,152.31,23l1.34.31L156.93,19l9.89,2.3,1.07,5.31,1.34.31L165.36,8Zm-6.45,10.31,6.74-8.8,2.19,10.88Z"/><polygon points="177.1 12.45 182.94 14.81 176.81 29.97 177.99 30.44 184.12 15.29 189.96 17.65 190.39 16.59 177.53 11.38 177.1 12.45"/><path d="M194.26,38.88A6.79,6.79,0,0,0,199.67,40a7.75,7.75,0,0,0,4.53-3.81l5.3-8.57-1.09-.67-5.27,8.53a6.86,6.86,0,0,1-3.79,3.33,5.49,5.49,0,0,1-4.45-.87,5.55,5.55,0,0,1-2.8-3.61,6.89,6.89,0,0,1,1.28-4.88l5.27-8.53-1.09-.67-5.29,8.57a7.82,7.82,0,0,0-1.39,5.75A6.77,6.77,0,0,0,194.26,38.88Z"/><path d="M207.8,48.41l3.87-4.23,3.69,3.38a12.29,12.29,0,0,0,1.34,1l-.87,7.14,1.07,1,.9-7.47a5.67,5.67,0,0,0,3.59.58A5.57,5.57,0,0,0,224.52,48a5.32,5.32,0,0,0,1.55-4.46,7.88,7.88,0,0,0-2.77-4.65l-4.63-4.23L206.86,47.55Zm11-12.07,3.69,3.37a6.52,6.52,0,0,1,2.33,3.8,4.38,4.38,0,0,1-1.28,3.59,4.32,4.32,0,0,1-3.46,1.59,6.42,6.42,0,0,1-4-2l-3.69-3.37Z"/><path d="M220.44,60.63l5.27-1.23,6.16,8.07-2.54,4.78.83,1.09,9-17-.77-1-18.79,4.24Zm17.23-4-5.23,9.79-5.58-7.29Z"/><polygon points="238.23 88.3 239.25 87.76 234.52 78.86 248.95 71.19 248.35 70.06 232.9 78.28 238.23 88.3"/><rect x="249.69" y="99.09" width="1.12" height="6.42" transform="matrix(0.96, -0.27, 0.27, 0.96, -18.44, 72.33)"/><path d="M248.85,126a9.89,9.89,0,0,0,.34,9.29,8.44,8.44,0,0,0,3.3,3.14,9.25,9.25,0,0,0,9.09-.35,8.37,8.37,0,0,0,3.05-3.38,9.93,9.93,0,0,0-.37-9.29,8.6,8.6,0,0,0-3.31-3.14,9.22,9.22,0,0,0-9,.35A8.53,8.53,0,0,0,248.85,126Zm3.69-2.29a8,8,0,0,1,7.87-.3,7.28,7.28,0,0,1,2.86,2.7,8.39,8.39,0,0,1,.31,8,7.4,7.4,0,0,1-2.65,2.9,8,8,0,0,1-7.87.3,7.35,7.35,0,0,1-2.87-2.69,7.92,7.92,0,0,1-1.15-3.93,8,8,0,0,1,.84-4A7.39,7.39,0,0,1,252.54,123.67Z"/><path d="M247.46,147.76l5.66.88-.76,4.94a12.17,12.17,0,0,0-.14,1.7l-6.42,3.23-.22,1.44,6.72-3.4a5.33,5.33,0,0,0,4.79,4.89,5.36,5.36,0,0,0,4.57-1.19,7.85,7.85,0,0,0,2.33-4.88l1-6.2-17.3-2.67Zm6,6,.76-4.94,9.39,1.44-.76,4.94a6.5,6.5,0,0,1-1.88,4,4.92,4.92,0,0,1-6.94-1.07A6.49,6.49,0,0,1,253.47,153.75Z"/><path d="M256.54,170.46a9.33,9.33,0,0,0-8.58-3,8.52,8.52,0,0,0-4.08,2,9.55,9.55,0,0,0-2.65,4,10.41,10.41,0,0,0-.61,3.45,7.62,7.62,0,0,0,.65,3.19l6.18,2.18.4-1.15-5.68-2a7.72,7.72,0,0,1,.15-5.22,8,8,0,0,1,2.31-3.48,7.56,7.56,0,0,1,7.59-1.43,7.55,7.55,0,0,1,3.37,2.28,7.24,7.24,0,0,1,1.66,3.6,8.2,8.2,0,0,1-.41,4.16,8.72,8.72,0,0,1-1.46,2.68,6.6,6.6,0,0,1-2.32,1.79l.54,1a7.51,7.51,0,0,0,2.6-2,10,10,0,0,0,1.76-3.13,9.63,9.63,0,0,0,.48-4.83A8.38,8.38,0,0,0,256.54,170.46Z"/><path d="M236.59,185.27l3.15,4.4-5.09,8.78-5.39-.52-.69,1.19,19.18,1.8.64-1.1-11.11-15.74Zm10.27,14.39-11-1.08,4.6-7.94Z"/><polygon points="224.4 204.51 235.9 214.45 216.6 213.53 215.92 214.32 229.15 225.77 229.99 224.81 218.49 214.86 237.77 215.8 238.47 214.99 225.24 203.54 224.4 204.51"/><rect x="214.1" y="218.38" width="1.27" height="17.5" transform="translate(-96.28 196.06) rotate(-40.9)"/><path d="M204.53,229.68a8.57,8.57,0,0,0-4.46-.87,9.36,9.36,0,0,0-4.51,1.58,9.49,9.49,0,0,0-2.57,2.43,7.37,7.37,0,0,0-1.29,3l1.12.25a7.29,7.29,0,0,1,3.35-4.7,8,8,0,0,1,3.89-1.36,7.41,7.41,0,0,1,3.88.76,8.11,8.11,0,0,1,4.31,6.59,7.31,7.31,0,0,1-.85,3.86,8,8,0,0,1-2.8,3,7.3,7.3,0,0,1-5.63,1.21l-.22,1.13a7.22,7.22,0,0,0,3.27,0,9.72,9.72,0,0,0,3.27-1.4,9.46,9.46,0,0,0,3.25-3.51,8.54,8.54,0,0,0,1-4.43,9.32,9.32,0,0,0-5-7.62Z"/><rect x="173.34" y="246.83" width="6.42" height="1.13" transform="translate(-74.74 76.44) rotate(-20.26)"/><polygon points="149.28 247.19 143.83 265.56 145.14 265.39 150.09 248.75 159.17 263.54 160.56 263.36 150.54 247.03 149.28 247.19"/><polygon points="124.16 248.92 134.95 249.3 134.69 256.47 125.37 256.14 125.33 257.26 134.65 257.59 134.41 264.49 123.99 264.12 123.95 265.27 135.64 265.68 136.26 248.19 124.2 247.77 124.16 248.92"/><path d="M114.37,247.3a9.63,9.63,0,0,0-4.33-2.12,10.17,10.17,0,0,0-3.51-.17,7.6,7.6,0,0,0-3.08,1l-1.4,6.4,1.2.26,1.28-5.89a7.66,7.66,0,0,1,5.21-.5,8.1,8.1,0,0,1,3.74,1.85,7.56,7.56,0,0,1,2.36,7.36,7.66,7.66,0,0,1-1.84,3.63,7.29,7.29,0,0,1-3.36,2.09,8.3,8.3,0,0,1-4.18.12,9,9,0,0,1-2.84-1.12,6.63,6.63,0,0,1-2.07-2.08l-1,.66a7.5,7.5,0,0,0,2.32,2.34,10,10,0,0,0,3.32,1.35,9.66,9.66,0,0,0,4.85-.12A8.46,8.46,0,0,0,115,260a9.27,9.27,0,0,0,1.93-8.89A8.38,8.38,0,0,0,114.37,247.3Z"/><path d="M93.8,245.71l-9.35-4-.16-5.41L83,235.81l.59,19.25,1.18.5,14.23-13L97.76,242Zm-9,8.32-.3-11.1,8.45,3.58Z"/><polygon points="68.7 244.97 67.24 225.71 66.36 225.12 56.64 239.67 57.7 240.38 66.14 227.74 67.59 246.99 68.48 247.59 78.21 233.04 77.15 232.33 68.7 244.97"/><rect x="46.6" y="213.19" width="1.13" height="6.42" transform="translate(-134.5 89.71) rotate(-42.81)"/><path d="M34.09,187.33a7.28,7.28,0,0,0-2.94-1.47L30.83,187a7.36,7.36,0,0,1,4.51,3.61,8.2,8.2,0,0,1,1.13,4,7.3,7.3,0,0,1-1,3.83,8.09,8.09,0,0,1-6.82,3.93,7.21,7.21,0,0,1-3.8-1.07,8,8,0,0,1-2.87-3,7.33,7.33,0,0,1-.88-5.7L20,192.29a7.19,7.19,0,0,0-.21,3.27A9.81,9.81,0,0,0,21,198.9a9.44,9.44,0,0,0,3.31,3.44,8.46,8.46,0,0,0,4.37,1.23A9.3,9.3,0,0,0,36.57,199a8.57,8.57,0,0,0,1.13-4.4A9.26,9.26,0,0,0,36.38,190,9.51,9.51,0,0,0,34.09,187.33Z"/><path d="M30.08,177.37l-5.39,1.92L23,174.58a14.19,14.19,0,0,0-.69-1.56l4.11-5.89-.49-1.37-4.3,6.18a5.36,5.36,0,0,0-6.53-2,5.35,5.35,0,0,0-3.46,3.23,7.85,7.85,0,0,0,.27,5.4l2.1,5.91,16.49-5.87Zm-15.4,5.49L13,178.15a6.45,6.45,0,0,1-.27-4.44,4.34,4.34,0,0,1,2.81-2.57,4.34,4.34,0,0,1,3.81.21A6.48,6.48,0,0,1,22,175l1.68,4.71Z"/><path d="M22.33,157.82a7.92,7.92,0,0,0-1.58-10.22,7.81,7.81,0,0,0-5.84-1L5,148.17l.2,1.26,9.9-1.53a6.91,6.91,0,0,1,5,.72,6.47,6.47,0,0,1,1.3,8.42,6.89,6.89,0,0,1-4.54,2.2L6.9,160.77,7.09,162l10-1.54A7.84,7.84,0,0,0,22.33,157.82Z"/><polygon points="22.22 125.09 21.07 125.06 20.77 135.85 13.6 135.65 13.86 126.33 12.73 126.3 12.47 135.62 5.58 135.43 5.87 125.01 4.72 124.98 4.39 136.67 21.89 137.16 22.22 125.09"/><polygon points="25.29 106.89 24.16 106.68 22.28 116.58 6.22 113.53 5.98 114.78 23.18 118.04 25.29 106.89"/><polygon points="12.13 94.47 27.63 99.67 28.03 98.47 12.53 93.27 14.53 87.29 13.44 86.93 9.03 100.08 10.12 100.45 12.13 94.47"/><polygon points="34.26 83.76 34.84 82.63 29.49 79.86 22.54 68.33 21.93 69.51 28.17 79.85 16.12 80.74 15.47 81.99 28.91 80.99 34.26 83.76"/><polygon points="41.09 58.92 40.17 58.24 34.64 65.75 28.62 61.32 34.8 52.92 33.87 52.24 26.94 61.67 41.04 72.03 41.79 71.01 35.57 66.43 41.09 58.92"/><path d="M54,48l7.07,1.31,1-1L54.7,47a5.67,5.67,0,0,0,.81-3.54,5.55,5.55,0,0,0-1.66-3.24,5.32,5.32,0,0,0-4.35-1.83,7.87,7.87,0,0,0-4.82,2.47l-4.51,4.36,12.14,12.6.92-.89-4-4.12,3.6-3.47A12.19,12.19,0,0,0,54,48ZM48.47,52l-6.59-6.84,3.6-3.47a6.51,6.51,0,0,1,3.94-2.08,4.92,4.92,0,0,1,4.87,5.06,6.47,6.47,0,0,1-2.21,3.86Z"/><polygon points="77.54 37.45 76.9 36.5 67.94 42.53 63.93 36.58 71.67 31.37 71.04 30.44 63.3 35.65 59.45 29.93 68.09 24.1 67.45 23.15 57.75 29.69 67.53 44.2 77.54 37.45"/><polygon points="94.79 29.15 94.32 28.1 84.47 32.54 81.52 26 90.03 22.17 89.56 21.14 81.06 24.97 78.23 18.68 87.73 14.4 87.26 13.35 76.59 18.16 83.78 34.11 94.79 29.15"/><rect x="107.69" y="17.15" width="6.42" height="1.12" transform="translate(-1.3 22.61) rotate(-11.57)"/></svg>