<svg xmlns="http://www.w3.org/2000/svg" width="100%" height="100%" viewBox="0 0 25 25">
  <path id="Icon_awesome-phone-alt" data-name="Icon awesome-phone-alt" d="M.713,17.666l5.469-2.344a1.172,1.172,0,0,1,1.367.337l2.422,2.959a18.1,18.1,0,0,0,8.652-8.652L15.664,7.545a1.169,1.169,0,0,1-.337-1.367L17.671.709A1.18,1.18,0,0,1,19.014.03L24.092,1.2A1.172,1.172,0,0,1,25,2.344,22.654,22.654,0,0,1,2.343,25,1.172,1.172,0,0,1,1.2,24.092L.029,19.014a1.186,1.186,0,0,1,.684-1.348Z" transform="translate(0 0)" fill="#fbfbfb"/>
</svg>
