<svg id="Capa_1" data-name="Capa 1" xmlns="http://www.w3.org/2000/svg" viewBox="0 0 594.43 101.28"><defs><style>.cls-1{stroke:#000;stroke-miterlimit:10;}</style></defs><path class="cls-1" d="M18,8.64H37.6A29.74,29.74,0,0,1,60,18.24a29,29,0,0,1,8.16,20.4,28.8,28.8,0,0,1-9.72,22,30.12,30.12,0,0,1-20.88,8H20.2v24H11.8v-84ZM20.2,17v43.2H37.6a21.28,21.28,0,0,0,17.28-8A20.82,20.82,0,0,0,59.8,38.64a20.46,20.46,0,0,0-8-16.68A22.26,22.26,0,0,0,37.6,17Z"/><path class="cls-1" d="M86.44,8.64H106a29.76,29.76,0,0,1,22.45,9.6,29,29,0,0,1,8.16,20.4,28.8,28.8,0,0,1-9.72,22A32.08,32.08,0,0,1,115,67.32L136.6,92.64h-11L105,68.64H88.6v24H80.2v-84ZM88.6,17v43.2h18.47a21.28,21.28,0,0,0,16.81-8.76,20.89,20.89,0,0,0,4.32-12.84,20.49,20.49,0,0,0-8-16.68A22.29,22.29,0,0,0,106,17Z"/><path class="cls-1" d="M187.84,8.64a40.25,40.25,0,0,1,29,11.76A41,41,0,0,1,229.6,48.84v1.8A40.64,40.64,0,0,1,217.84,79.8a39.8,39.8,0,0,1-28.08,12.84h-1.92a40.05,40.05,0,0,1-28.92-11.76A40.93,40.93,0,0,1,146.2,52.44v-1.8A40.59,40.59,0,0,1,158,21.48,39.8,39.8,0,0,1,186,8.64Zm0,8.4a31.87,31.87,0,0,0-24,10.32,32.83,32.83,0,0,0-9.24,23.28,32.14,32.14,0,0,0,10.32,24.24,33.05,33.05,0,0,0,47-1,32.87,32.87,0,0,0,9.24-23.28A32.17,32.17,0,0,0,210.88,26.4,32.09,32.09,0,0,0,187.84,17Z"/><path class="cls-1" d="M241.47,8.64h14.76A40.09,40.09,0,0,1,285.15,20.4a41,41,0,0,1,12.73,28.44v1.8A40.65,40.65,0,0,1,286.11,79.8,39.8,39.8,0,0,1,258,92.64H241.47Zm8.4,8.4v67.2h6.36a31.9,31.9,0,0,0,24-10.32,32.87,32.87,0,0,0,9.24-23.28,32.35,32.35,0,0,0-10.2-24.24,32.75,32.75,0,0,0-23-9.36Z"/><path class="cls-1" d="M309.87,8.64h8.4V64.8A18.54,18.54,0,0,0,325.71,80a19.91,19.91,0,0,0,12.36,4.2,19.11,19.11,0,0,0,15.72-7.56,18.62,18.62,0,0,0,4.08-11.88V8.64h8.4V64.8A26.81,26.81,0,0,1,357,85.44a27.78,27.78,0,0,1-19,7.2,27.23,27.23,0,0,1-20.88-9.12,26.94,26.94,0,0,1-7.32-18.72Z"/><path class="cls-1" d="M419.19,8.52A40,40,0,0,1,448,19.32L449.67,21l-6,5.88a32.11,32.11,0,0,0-24-10,34.09,34.09,0,0,0-12.36,2.52,32.62,32.62,0,0,0-17.64,16.92,34,34,0,0,0-3.12,14.28,32.46,32.46,0,0,0,10,24,33.12,33.12,0,0,0,10.68,7.2,31.72,31.72,0,0,0,26.28-.36,34.36,34.36,0,0,0,10.08-7l6,5.88a40.26,40.26,0,0,1-28.08,12.36A42.37,42.37,0,0,1,404,89.52,40.66,40.66,0,0,1,382.71,69.6a41.65,41.65,0,0,1-4.56-19.08,40.88,40.88,0,0,1,11.4-28.8,42.39,42.39,0,0,1,14.52-10.08A44.76,44.76,0,0,1,419.19,8.52Z"/><path class="cls-1" d="M459.15,8.64h56.4V17h-24v75.6h-8.4V17h-24Z"/><path class="cls-1" d="M553,8.52A40.54,40.54,0,0,1,581.55,19.8a14.61,14.61,0,0,1,1.08,1.2l-5.88,5.88a32.44,32.44,0,0,0-23.76-10q-14.76,0-19.68,10a16.89,16.89,0,0,0-1.68,7.44q0,8.28,5.64,12.6a5.87,5.87,0,0,0,.6.36q4.92,3.48,16,6,13.2,2.88,14.88,3.48A25.59,25.59,0,0,1,572,57.84a19.87,19.87,0,0,1,7.32,4.92,13.36,13.36,0,0,1,3.24,8.88q0,9.24-9.12,15.24a3.93,3.93,0,0,0-.6.48q-8.64,5.28-20.4,5.28a40.27,40.27,0,0,1-28.56-11.28,8.49,8.49,0,0,1-1.2-1.2l6-5.88a32.18,32.18,0,0,0,23.76,10q9.48,0,16-4.08,5.76-3.72,5.76-8.52A6.21,6.21,0,0,0,573,68.28a13.57,13.57,0,0,0-4.2-2.64q-2.76-1.08-16.44-4.08a.92.92,0,0,0-.36-.12Q539.19,58.56,533,54.12q-9.6-7-9.72-19.8a23.44,23.44,0,0,1,8.4-18.24Q540,8.52,553,8.52Z"/></svg>