<svg xmlns="http://www.w3.org/2000/svg" width="100%" height="100%" viewBox="0 0 315 445.001">
  <path id="Exclusión_1" data-name="Exclusión 1" d="M3278,479H2963V34h315V479ZM3121,42a154.135,154.135,0,0,0-30.835,3.108,152.161,152.161,0,0,0-54.709,23.021,153.445,153.445,0,0,0-55.433,67.315,152.253,152.253,0,0,0-8.915,28.72A154.144,154.144,0,0,0,2968,195V472h306V195a154.128,154.128,0,0,0-3.108-30.835,152.162,152.162,0,0,0-23.021-54.709,153.446,153.446,0,0,0-67.316-55.433,152.222,152.222,0,0,0-28.719-8.915A154.131,154.131,0,0,0,3121,42Z" fill="#f4f2ef"/>
</svg>
