<?xml version="1.0" encoding="utf-8"?>
<!-- Generator: Adobe Illustrator 19.2.1, SVG Export Plug-In . SVG Version: 6.00 Build 0)  -->
<svg version="1.1" id="Capa_1" xmlns="http://www.w3.org/2000/svg" xmlns:xlink="http://www.w3.org/1999/xlink" x="0px" y="0px"
	 viewBox="0 0 1280 800" style="enable-background:new 0 0 1280 800;" xml:space="preserve">
<style type="text/css">
	.st0{fill-rule:evenodd;clip-rule:evenodd;fill:#FFFFFF;}
	.st1{fill-rule:evenodd;clip-rule:evenodd;}
	.st2{font-family:'Camlia';}
	.st3{font-size:130px;}
	.st4{font-size:200px;}
</style>
<g>
	<path class="st0" d="M455.9,311.4c-0.4,0.1-0.7,0.2-1.1,0.3c-1.4,0.4-2.8,1-4.7,1.6c0,0.1-0.1,0.2-0.1,0.3c2.3,0.6,4.7,1.2,7,1.7
		C456.6,314.1,456.2,312.7,455.9,311.4z"/>
	<path class="st1" d="M352.1,271.1c4.7,2.6,9.5,4.9,15.2,5.1c-2.8-0.9-5.4-1.4-7.7-2.5c-2.5-1.2-5-2.6-7.2-4.3
		c-2.1-1.6-4-3.7-5.8-5.7c-2.9-3.5-3.9-5.3-3.8-6.9c2.8,2.5,5.5,5,8.3,7.5c0.1-0.1,0.3-0.3,0.4-0.4c-0.4-0.5-0.8-0.9-1.2-1.4
		c-4.3-4.3-7.7-9.2-10.6-14.5c-0.3-0.5-0.4-1.1-0.6-1.6c0.2-0.1,0.4-0.2,0.5-0.3c1.3,1.9,2.6,3.9,4,5.7c1.4,1.9,2.8,3.7,4.4,5.4
		c1.6,1.8,3.3,3.4,5.2,5c1.7,1.5,3.7,2.7,5.5,4.1c0.1-0.1,0.2-0.3,0.3-0.4c-0.5-0.5-1-0.9-1.6-1.4c-5.7-4.6-10.8-9.8-14.6-16.1
		c-1.4-2.3-2.4-4.8-3.6-7.3c-0.2-0.4-0.1-1-0.2-1.4c0.2,0,0.3-0.1,0.5-0.1c1.1,2.1,2.2,4.2,3.4,6.1c1.2,2,2.6,3.8,4,5.7
		c1.5,1.8,3.1,3.5,5.3,4.7c-3.7-4.5-7.6-8.9-8.8-14.9c2.6,3.5,5.1,7.2,8.8,9.7c0.7,0.5,1.5,0.8,2.3,1.3c0.4-0.7,0.7-1.3,1.3-2.4
		c0.6,1.2,1,2,1.4,2.9c2.4,5.8,5.7,11.1,10.2,15.5c6.6,6.5,14.6,9.6,23.9,9.4c2.8-0.1,4.7,1.1,6.3,3.2c0.2,0.3,0.5,0.7,0.6,1
		c0.3,0.8,0.6,1.7-0.3,2.1c-0.6,0.2-1.6-0.1-2.2-0.4c-0.6-0.4-1-1.2-1.5-1.9c-0.9-1.3-2.1-1.8-3.5-1.3c-1.6,0.6-3.4,1.2-4.7,2.2
		c-6.5,5.3-13.5,5.8-20.8,2c-2.4-1.3-4.6-3.1-6.8-4.9c3.5,1.3,6.9,2.8,10.7,2.9C362.4,280.5,356.8,276.7,352.1,271.1z"/>
	<path class="st1" d="M379.9,264.7c0.8,0.7,1.5,1.3,2.3,2c0.4,0.4,1.3,0.6,1.3,1c0.3,2.5,2.5,2.2,4,2.9c0.6,0.3,1.3,0.5,2.5,1
		c-0.9,0.3-1.3,0.5-1.6,0.5c-3-0.2-5.8-1.1-8.5-2.4c-7-3.4-12-8.9-15.5-15.8c-0.2-0.3-0.2-0.7-0.4-1.3c1.9,0.4,3.1,1.1,3.9,2.6
		c0.8,1.5,1.9,2.8,2.9,4.2c0.1-0.1,0.3-0.2,0.4-0.3c-1-1.5-2-3.1-3-4.6c4.2,0.6,8,1.9,12.6,1.4c-0.8,0.7-1.1,1-1.4,1.2l0.1-0.1
		c-0.6,0.1-1.3,0.1-1.8,0.4c-2.2,1-2.6,2.5-1.2,4.3C377.5,262.9,378.9,263.8,379.9,264.7L379.9,264.7z M372.7,260.9
		c-0.1,0.1-0.1,0.1-0.2,0.2c0.3,0.3,0.6,0.5,0.9,0.8c0.1-0.1,0.1-0.1,0.2-0.2C373.3,261.4,373,261.1,372.7,260.9z"/>
	<path class="st1" d="M381.1,274.2c-1.2-0.3-2.1-0.5-2.8-0.8c-4.5-1.7-8.2-4.5-11.5-8c-4-4.3-6.9-9.3-8.6-15.2
		c0.5,0.3,1,0.5,1.3,0.9c0.4,0.5,0.6,1.1,0.9,1.7c2.4,4.8,5.4,9.2,9.3,13c2.9,2.9,6.2,5.3,10,6.9c0.4,0.1,0.7,0.4,1,0.6
		C380.7,273.4,380.7,273.5,381.1,274.2z"/>
	<path class="st1" d="M379.5,257.1c1.9-0.2,3.7-0.4,5.6-0.5c0,0.1,0.1,0.2,0.1,0.4c-0.9,0.4-1.8,0.8-2.7,1.3
		c-2.1,1.3-2.3,2.9-0.7,4.8c0.5,0.5,1,1,1.6,1.5c0.5,0.5,1.1,0.9,1.7,1.3c-0.5,1-1.2,1.1-2,0.6c-1-0.6-2.1-1.2-3.1-1.8
		c0,0,0.1,0.1,0.1,0.1c-0.7-0.8-1.5-1.6-2.2-2.4c-1.6-2-1.3-3.4,0.8-4.7C379,257.5,379.3,257.3,379.5,257.1L379.5,257.1z"/>
	<path class="st1" d="M363,255.2c-1.4-0.8-1.5-1.7-1.1-2.9C363.5,252.7,363.3,253.8,363,255.2z"/>
	<path class="st1" d="M388.8,273.8c0.4,0,0.7,0,1.1-0.1c0,0.2,0,0.4,0,0.6c-0.4,0-0.8-0.1-1.1-0.1
		C388.8,274.1,388.8,274,388.8,273.8z"/>
	<path class="st1" d="M377.1,269.4c-0.4,0.2-0.6,0.5-0.7,0.5c-0.3-0.1-0.4-0.3-0.7-0.5c0.1-0.1,0.3-0.4,0.4-0.4
		C376.5,269,376.7,269.2,377.1,269.4z"/>
	<path class="st1" d="M382.1,272.1c-0.4,0.2-0.6,0.4-0.7,0.4c-0.2-0.1-0.4-0.4-0.6-0.6c0.2-0.1,0.4-0.4,0.5-0.3
		C381.5,271.7,381.8,271.9,382.1,272.1z"/>
	<path class="st1" d="M386.1,273.2c0.3,0.1,0.7,0.3,1,0.5c0,0-0.1,0.4-0.1,0.4c-0.4-0.1-0.7-0.1-1.1-0.2
		C386,273.6,386,273.4,386.1,273.2z"/>
	<path class="st1" d="M374.5,268c-0.4,0.2-0.6,0.5-0.7,0.4c-0.2-0.1-0.4-0.4-0.6-0.6c0.2-0.1,0.4-0.4,0.5-0.4
		C373.9,267.6,374.1,267.8,374.5,268z"/>
	<path class="st1" d="M372.1,266.6c-0.3-0.2-0.7-0.3-1-0.5c0.1-0.2,0.2-0.3,0.3-0.5c0.3,0.2,0.6,0.4,1,0.6
		C372.2,266.4,372.2,266.5,372.1,266.6z"/>
	<path class="st0" d="M379.6,257c-0.3,0.2-0.6,0.5-0.9,0.7c-2.1,1.3-2.4,2.7-0.8,4.7c0.7,0.8,1.5,1.6,2.2,2.4
		c-1.2-1-2.5-1.9-3.4-3.1c-1.5-1.9-1-3.3,1.2-4.3C378.3,257.2,379,257.2,379.6,257z"/>
	<path class="st0" d="M372.7,260.9c0.3,0.3,0.6,0.6,0.9,0.8c-0.1,0.1-0.1,0.1-0.2,0.2c-0.3-0.3-0.6-0.5-0.9-0.8
		C372.5,261,372.6,260.9,372.7,260.9z"/>
	<path class="st1" d="M295,649.7c-4.8,0-9.6,0-14.4,0c-1.1-0.1-2.2-0.3-3.3-0.4c-10.2-0.6-20.4-1.4-30.5-3.1
		c-26.2-4.2-51.3-12.1-75-24.1c-46.5-23.4-83.2-57.5-110.4-101.7C36,479.3,22.2,434.4,19.4,386.1c-0.1-2.2-0.6-4.4-0.9-6.6
		c0-6.7,0-13.4,0-20.2c0.3-2.3,0.7-4.6,0.8-6.9c0.9-16.2,3.1-32.3,6.8-48.1c13.6-58.3,42-108,86.8-147.9
		c46.1-41.1,100.1-63.8,162-66.9c0.6,0,1.2-0.2,1.8-0.4c7,0,14.1,0,21.1,0c0.7,0.1,1.4,0.3,2.1,0.4c6.6,0.6,13.3,0.9,19.8,1.7
		c17.7,2.2,35.1,6.2,52,12.1c49.5,17.3,90.2,46.9,122.7,87.9c26.5,33.4,44.3,71.1,53.9,112.6c4.2,18,6.8,36.3,7,54.9
		c0,1.3,0.2,2.7,0.4,4c0,4.3,0,8.6,0,13c-0.1,2.2-0.3,4.4-0.4,6.7c-0.2,3.2-0.2,6.4-0.4,9.6c-1,14.5-3.1,28.8-6.5,42.9
		c-12.6,53.7-38.2,100.2-77.6,139c-20.9,20.6-44.6,37.3-71.1,50c-32.2,15.5-66.2,23.8-101.8,25.5C296.9,649.3,296,649.6,295,649.7z
		 M432.5,214.9c0.2-0.3,0.6-0.6,0.6-0.9c0.2-3.4,0.8-6.9,0-10.3c-0.7-3-0.1-5.7,1.5-8.3c0.2-0.4,0.4-0.8,0.7-1.2
		c-1.6-1.3-3-1.1-4.5-0.1c-0.8,0.5-1.6,1.1-2.4,1.7c-0.8,0.6-1.5,1.3-2.2,1.9c-0.2,0.2-0.5,0.5-0.7,0.7c-0.7,0.6-1.4,0.8-2.2,0.3
		c-0.8-0.6-0.7-1.3-0.4-2.1c1.6-3.7,4.4-6,8.3-7c0.7-0.2,1.4-0.4,2.1-0.6c0-0.2-0.1-0.4-0.1-0.5c-0.9-0.1-1.9-0.3-2.8-0.4
		c-2.3-0.3-4.6-0.5-6.9-0.7c-1.6-0.2-3.1-0.6-4.6,0.5c-0.3,0.2-1,0-1.6,0c0.1,0.5,0.1,0.9,0.2,1.3c1,6.5,2.3,12.9,3,19.4
		c1.1,9.8,1.8,19.7,2.8,29.6c0.7,6.8,0.2,13.4-1.9,19.9c-1.6,4.9-3,9.9-4.4,14.9c-1.1,4-1.5,8-0.7,12.1c0.8,3.8,2,7.4,3.8,10.8
		c4.1,7.6,8.4,15.1,12.6,22.6c1.8,3.4,3.8,6.7,5.2,10.2c1.8,4.6,0.5,8.4-3.5,11.4c-2.4,1.8-5.1,2.9-8,3.8c-1.9,0.6-3.8,1.1-5.6,2
		c-3.9,1.8-5,4.2-3.8,8.3c0.9,3.3,0.2,6.2-2.2,8.6c-1,1-2.1,1.8-3.1,2.6c-3.3,2.7-4.7,6-3.3,10.2c1.1,3.3,0.2,6.1-2.3,8.5
		c-0.6,0.5-1.2,1.1-1.7,1.7c-2.1,2.5-3,5.4-2.2,8.7c0.2,0.9,0.4,1.7,0.6,2.6c1.9,8.9-2.7,17.7-11.2,20.9c-7.7,2.9-15.6,4-23.8,2
		c-7.1-1.7-14.1-3.5-21.2-5.2c-6.4-1.6-12.9-3.1-19.3-4.6c-2.1-0.5-2.7-0.2-3.6,1.8c-2.9,6.4-4.7,13.1-4.6,20.2
		c0,4.8,0.4,9.7,2.2,14.1c3.9,9.8,10.4,17.6,19.6,22.9c5.8,3.4,12,6,18.3,8.2c17.6,6,35.8,8.3,54.3,8.5c8.4,0.1,16.8-0.3,25.2-0.3
		c10,0,20,0.4,29.9,1.9c3.9,0.6,7.8,1.3,11.2,3.4c3.5,2.1,6.9,4.3,10.4,6.5c0.5,0.3,0.9,0.6,1.5,0.8c2.3,0.9,3.7,0.1,4.3-2.2
		c0.1-0.5,0.2-0.9,0.4-1.4c1-2.7,3.4-3.9,6.2-2.8c0.6,0.2,1.2,0.5,1.8,0.8c1.1,0.5,1.7,0.1,2-0.9c0.1-0.4,0.3-0.8,0.3-1.2
		c0.5-3.9,1.3-7.7,1.5-11.6c0.3-5.9,1.8-11.3,5.6-16c0.2-0.2,0.4-0.5,0.5-0.8c4.9-7.6,4.6-15.5-1.1-22.6c-1.2-1.5-1.7-2.8-0.6-4.6
		c0.3-0.5,0.5-1.6,0.2-1.9c-1.5-1.7-1.4-3.8-1.8-5.9c-0.4-2.3,0.3-4.1,2.4-5.3c3.5-2,4.7-5.1,3.9-9c0-0.2-0.1-0.5-0.1-0.7
		c-0.1-1.5,0.1-2.8,1.4-3.9c0.5-0.5,0.9-1.6,0.8-2.3c-0.4-3.6-1.9-6.6-5.4-8.1c-1.8-0.8-3.7-1.6-5.5-2.3c-2.2-0.9-4.4-1.8-6.7-2.6
		c-1.6-0.6-2.4,0.1-1.9,1.7c0.4,1.6,1,3.2,1.7,4.7c1.1,2.3,3,3.5,5.6,3.4c1.3,0,2.5-0.2,3.8-0.3c3.3-0.2,5.3,1.5,5.6,4.8
		c0.2,2.8-0.7,5-3.1,6.6c-3,2-6.3,3.8-8,7.1c-2.2-0.8-4.1-1.7-6.1-2.1c-2-0.4-3.3-1.4-4.4-3c-0.8-1.2-1.9-2.2-2.8-3.2
		c-0.1-0.2-0.3-0.4-0.4-0.6c0.6-0.2,1.1-0.4,1.6-0.5c0.1-2.9,0.1-2.9,2.8-3.5c2-0.5,2.3-0.8,1.8-2.8c-1.1-3.8-2.3-7.7-3.5-11.5
		c-0.5-1.4-0.5-2.7,0.2-4.1c1.1-2,1.1-4.3,0.7-6.6c-0.4-2.1-0.7-4.3-0.9-6.4c-0.4-4.5-2.7-7.6-6.9-9.3c-1.7-0.7-3.4-1.4-5.1-2.1
		c-1.1-0.5-2.2-1.2-2.2-2.6c0-0.9,1.4-1.8,3-2c0.3,0,0.6,0,1-0.1c1-0.2,1.9-0.5,3-0.8c-2.4-3.2-4.5-4.3-8.1-4
		c-7.7,0.6-15.1-0.4-22.4-3.1c-0.7-0.3-1.5-0.3-2.4-0.5c-0.1,0.9-0.1,1.5-0.1,2.3c-1.7,0.6-2.6,2.1-3.4,3.7
		c-1.5,3.2-3.5,5.8-6.8,7.4c-1.9,0.9-2.5,2.8-2.2,4.9c0.2,1.7,1,3.3,2.4,4.3c1.9,1.4,2.9,3.4,3.4,5.6c0.4,1.9,0.9,3.7,1.3,5.6
		c0.4,1.9,1.4,3.5,2.5,5.1c-0.2-3.9,2-6.1,5.3-7.4c0.3-0.1,0.6-0.3,0.8-0.5c1.6-1.2,3.4-1.3,5.3-1c0.7,0.1,1.6,0.1,2.3-0.1
		c1.6-0.5,3-0.4,4.4,0.5c0.5,0.3,1.1,0.5,1.6,0.7c2-1.6,2.1-1.8,2.1-3.3c0-4.3,3.7-7.4,7.9-6.6c0.6,0.1,1.1,0.5,1.9,0.9
		c-1.3,1.6-2.1,3.3-3.5,4.2c-3.5,2.3-4.9,5.6-5.1,9.5c-0.1,1.7-0.5,2.9-1.9,3.8c-2.9,1.8-5.1,4.3-6.4,7.3c-1.6,0.5-3.1,0.9-4.6,1.4
		c-2.2-2-5-2.5-8-2.1c-2.2,0.3-3.4,1.6-3.8,3.7c-0.4,2.4-0.1,4.6,2.1,6.2c0.9,0.7,1.8,1.4,2.6,2.1c0.8,0.8,1.7,1.5,2.3,2.4
		c1.2,1.6,1.7,3.3,0.6,5.1c-1.1,1.7-2.8,2.3-4.8,2.1c-2.5-0.2-4-2.3-3.4-4.8c0.2-0.9,0.7-1.8,1.1-2.6c0.6-1.3,0.5-2-0.6-2.8
		c-0.6-0.5-1.4-0.8-2.1-1.1c-2.5-1.2-3.1-2.4-2.9-5.2c0.1-0.6,0.2-1.3,0.3-1.9c0.4-2,1.1-4,1.2-6.1c0.1-1.5-0.1-3.2-0.6-4.7
		c-0.9-2.5-2-2.7-4.5-2c-1.1,0.3-2.5,0.7-3.5,0.3c-2.8-1.3-5.6-2.9-6.7-6.1c-0.9-2.5-2.8-3.8-5.3-4.3c-1.3-0.2-2.6-0.6-4-0.9
		c0.2-0.6,0.4-0.9,0.5-1.2c1.9,0.2,3.8,0.4,5.6,0.7c6.7,0.9,8.9,3.1,9.4,8.3c0.2,1.9,1,2.2,3.2,1.2c-1.6-2.4-3.1-4.8-4.6-7.2
		c-0.6-0.9-1.6-1.7-0.7-3c0.1-0.2-0.2-0.9-0.5-1.3c-2.1-2.6-2.8-5.8-3.7-9.2c4.8-1.2,8.9-3.6,11.8-7.8c-0.6,0.1-1.2,0.3-1.6,0.7
		c-2.5,2.1-5.4,2.4-8.4,1.4c-3.9-1.4-6.9-3.9-9-7.5c-0.3-0.4-0.3-1-0.5-1.6c4.2-0.7,8.2-1.5,12.2-2c2.2-0.3,4.1,0.7,5.5,2.4
		c0.4,0.4,0.5,1.2,0.8,2.1c-4.7,0-9,0-13.2,0c1.5,1.1,2.8,1.4,5.5,1.7c3.5,0.4,7-0.6,10.4,1c1.7-3,3-5.9,2.7-9
		c-0.3-3.8-1.2-7.6-1.8-11.4c-0.3-1.8-1-3.5-2.3-4.9c-1.2-1.4-2.2-2.9-3.2-4.5c-0.4-0.7-0.7-1.6-0.6-2.4c0-5.7,0.1-11.3-2.2-16.7
		c-0.4-0.9-0.6-1.8-0.8-2.8c-0.2-1-0.2-2-0.3-3.2c-2.8-2-4.2-5-4.7-8.4c-0.5-3.2-0.5-6.5,1.7-9.2c1.4-1.7,2.1-3.5,2.4-5.6
		c0.1-0.7,0.3-1.4,0.5-2.1c0.6-1.3,0.4-2.4-0.1-3.7c-1.6-4.4-3.2-8.9-4.8-13.3c-1-2.7-0.8-4.9,1.4-7c2.9-2.7,5.6-5.5,8.3-8.3
		c1.5-1.5,3.2-2.6,5.3-3.2c2-0.6,4-1.1,6.1-1.2c2.9-0.2,5.9-0.1,9.1-0.1c0.5-1.5,1-3,1.6-4.5c1-2.6,1.7-5.4,3.1-7.7
		c2.7-4.7,3.9-9.9,5.5-15c0.2-0.5,0.2-1.3-0.1-1.5c-0.9-0.9-2-1.6-3-2.2c-0.6-0.4-1.4-0.7-2-1.1c-0.8-0.6-1.6-1.3-2.6-2.1
		c-0.8,2.1-2.5,2.7-4.2,3.4c-2.5,1.2-5,2.6-5.9,5.5c-0.1,0.3-0.5,0.6-0.8,0.8c-1.5,0.7-2,2-2.4,3.4c-0.7,2.3,0.5,4.7,2.7,5.7
		c0.6-1.2,1.2-2.5,1.6-3.5c1.4,1,2.5,2.1,3.8,2.6c1.4,0.5,3,0.4,4.6,0.6c-1.8,2.9-4.3,4.1-8.1,3.9c-1.8-0.1-3.5-0.3-5.3-0.4
		c-3.5-0.1-5.3,2.1-4.8,5.8c1,0.1,2.1,0.3,3.1,0.4c0.4,1.3-0.4,1.6-1.1,2c-5.4,2.5-10.7,5-16.1,7.5c-0.4,0.2-0.8,0.2-1.2,0.3
		c3.6-2.7,6.1-6,6.6-10.7c1.2-0.2,2.5-0.4,3.5-0.5c1.1-2.3,2.4-4.3,3-6.6c0.6-2.5,3.1-3.8,3.9-6.3c-3.6-1.3-6-3.8-7.2-7.5
		c-1.8,4.7-3.8,9.1-8.2,12.2c-1.2-5.5-2.4-10.6-3.3-15.8c-0.5-2.7,1.1-5.6,3.5-6.7C432.4,205.6,433.2,210.2,432.5,214.9
		c0,0.9,0,1.7,0,2.6c0.1,0,0.2,0,0.3,0C432.7,216.6,432.6,215.8,432.5,214.9z M83.9,487.8c4-2.5,7.9-5,11.9-7.4
		c1.8-1,3.7-2.1,5.7-2.5c4.5-1,9.1-1.9,13.7-2.4c12.8-1.2,25.7-1.4,38.6-0.9c17,0.7,33.7-0.7,50.2-4.5c11.1-2.6,21.8-6.3,31.7-12.1
		c9.7-5.7,16.5-14,20.1-24.6c6.1-18,9.5-36.5,10-55.5c0.4-13.1-1-26-5.8-38.4c-1.3-3.2-3.2-5.2-6.4-6.2c-3.7-1.2-7.4-2.6-11.1-3.8
		c-5.3-1.7-8.4-5.2-9.4-10.7c-0.1-0.6-0.2-1.3-0.4-1.9c-1.1-3.1-3.2-5.1-6.2-6.2c-2.4-0.9-4.6,0-5.6,2.3c-0.6,1.4-0.9,3.1-1.1,4.6
		c-0.2,1.7-0.2,3.5-0.3,5.3c-0.3,2.9-1.8,4.9-4.5,6c-2.5,1-5,2.1-7.5,3.3c-3.8,1.8-5.2,4.7-4.4,8.8c0.2,1,0.4,2,0.7,3.1
		c-0.5-0.1-0.9-0.3-1.6-0.5c0.2,1.3,0.4,2.3,0.5,3.3c0.1,0.9,0.3,1.9,0,2.8c-0.7,2.5-0.6,3.1,1.7,4.5c2.5,1.5,3.7,3.6,3.4,6.6
		c-0.3,2.3-0.5,4.6-0.4,6.9c0.1,3.8,1.9,6.6,5.6,7.8c1.4,0.5,2.9,0.9,4.4,1.1c4,0.5,7,2.5,9.2,5.9c0.8,1.2,1.5,2.4,2.4,3.6
		c2.2,3.1,4.6,6,7.8,8c4.4,2.8,9,4.9,14.5,3.7c0.4-0.1,0.8,0.3,1.4,0.5c-1.5,1.1-1.1,2.4-0.7,3.6c0.7,2,1,4-0.3,5.9
		c-1.4,0-2.4-0.6-3.3-1.7c-2.1-2.8-5.1-4.4-8.5-4.8c-4.5-0.5-8-2.7-10.8-6.1c-0.6-0.7-1.1-1.4-1.8-1.9c-1.2-1-2.2-0.8-3,0.5
		c-0.3,0.5-0.5,1.2-0.7,1.8c-0.7,2-0.1,3.9,0.6,5.8c0.4,1.2,0.6,2.5-0.4,3.4c-1.1,1-2.5,0.8-3.9,0.3c-1.6-0.6-2.6-2.5-2.2-4.3
		c0.2-0.9,0.7-1.8,0.9-2.7c0.3-1.2,0.7-2.6,0.4-3.7c-0.6-2.2-0.5-4,0.7-5.9c1-1.7,0.5-3.1-1.2-4.1c-1.7-0.9-3.6-1.8-5.5-2.2
		c-6-1.1-10.8,2-12.3,7.9c-0.5,2-0.5,4.1-0.7,6.2c-0.1,1.5,0.6,2.6,2.1,3.1c2.3,0.8,3.7,2.3,3.8,4.7c0.1,2.2,0.2,4.5-1.3,6.4
		c-0.5,0.6-1.3,1.2-2.1,1.5c-2.3,0.9-4.4,0.1-6.2-1.4c-1.7-1.4-1.7-3.4-1.2-5.3c0.4-1.9,1.1-3.7,1.6-5.5c0.5-1.9,0.8-3.8,1.3-6
		c-1.6,0-2.8,0-4,0c-0.1-1.9,0.7-3.2,1.6-4.6c1.7-2.4,3.4-4.9,4.1-7.8c0.6-2.6,1.2-5.1,1.9-7.7c0.3-1.2,0.3-2.2-0.4-3.2
		c-1.3-1.7-2.6-3.5-4-5.1c-1.9-2.2-3.9-4.2-5.8-6.4c-1.5-1.7-3.1-2.5-5.5-2.3c-4.9,0.4-9.9,0.7-14.8,1.1c-4.7,0.4-9.4,0.8-14.1,1.2
		c-1.6,0.2-2.6,1.1-2.9,2.4c-0.3,1.3,0.5,2.8,2,3.5c2.2,1,4.3,0.9,6.4-0.3c0.7-0.4,1.4-0.9,2.1-1.1c1.3-0.5,2.4-0.1,2.7,1.1
		c0.6,2.5,2,4.3,4,5.7c1.3,0.9,1.1,2-0.3,2.9c-0.5,0.3-1,0.5-1.5,0.8c-2.3,1.4-4.7,2.6-6.3,5c-1,1.6-2.6,2.3-4.6,2.2
		c-1.1-0.1-2.2-0.1-3.4-0.2c-2.8-0.1-4.6,1.4-4.8,4.1c0,0.4,0,0.8-0.1,1.2c-0.3,2.1-1.2,3-3.3,3c-0.9,0-1.9-0.2-2.8-0.4
		c-1.2-0.3-2.4-0.8-3.7-1.1c-5.7-1.6-12.6-0.8-16.4,5.5c-0.4,0.7-1,1.4-1.5,2.2c-0.2,0.6,0,1.6,0.4,2.6c0.7,2.3,1.4,2.7,3.7,2.1
		c2.9-0.8,5.6-0.3,8,1.4c1.2,0.8,2.3,1.8,3.2,2.9c5.5,6.2,6.9,13.7,7.1,21.7c-0.4-0.1-0.7,0-0.8-0.1c-5.6-2.9-11.2-5.8-16.8-8.8
		c-2.2-1.2-3.7-3.1-4.3-5.5c-0.4-1.6-1-3.4-0.1-5.2c1.3,0.6,2.6,1.1,3.8,1.7c1.3,0.6,2.5,1.3,3.8,2.1c1.2,0.7,2.3,1.5,3.4,2.3
		c1.1,0.9,2.2,1.8,3.3,2.8c0.9,0.9,1.8,1.8,2.7,2.7c-1.5-3.4-3.9-5.9-6.7-8c-2.6-1.9-5.2-3.8-7.8-5.6c-2.9-2.1-4.4-5-4.4-8.4
		c0-2.6-1.2-4.4-2.8-6c-1.5-1.5-3.2-2-5.2-1.2c-2.6,1-5.2,2-7.8,3c-1,0.4-2,0.7-2.9,1.1c-1.6,0.7-1.8,1.4-1.3,3.1
		c0.1,0.4,0.3,0.7,0.5,1.1c1.4,2.9,2.1,5.8,1.7,9.1c-0.3,2.4,0.8,4,2.9,5.1c1.2,0.6,2.4,1.2,3.6,1.8c2.8,1.5,3.3,2.6,2.5,5.7
		c-0.4,1.9-1.1,3.7-1.5,5.5c-0.5,2-0.1,2.6,1.9,3c1.7,0.3,3.6,0.4,5,1.6c0.8,0.6,1.7,1.5,1.8,2.4c0.2,2.2,0.1,4.5-0.1,6.7
		c-0.1,1.5-1,2-2.4,1.4c-3.2-1.4-6.4-2.8-9.5-4.5c-2-1.1-2.6-3.2-1.9-5.4c0.3-0.9,0.8-1.8,1.3-2.5c2.3-3.2,2.1-7.4-2.8-8.9
		c-0.1,0-0.1-0.1-0.2-0.1c-3.3-1.4-4.6-3.9-4.1-7.5c0.2-1.5,0.3-3,0.3-4.5c-0.1-1.5-1-2-2.3-1.3c-1.7,1-3.4,2.1-4.9,3.4
		c-1.7,1.6-1.8,4-0.6,6.4c0.8-0.3,1.5-0.6,2.3-0.8c1.5-0.5,2.4-0.4,3.2,0.8c1.8,2.8,3.5,5.7,5.1,8.6c0.9,1.7,1,3.5-0.1,5.5
		c-1.3,2.1-0.9,3.8,1.2,5.2c1.6,1.1,2.5,2.6,3.1,4.6c-1.5,0.5-2.9,1-4.3,1.4c-2,0.6-4,1.1-5.9,1.8c-2.5,1-3,0.9-4.5-1.4
		c-0.9-1.3-2-2-3.6-2c-0.9,0-1.8,0-2.6-0.2c-2.3-0.4-2.3-0.4-2.9,1.9c-0.6,2.3-1.4,3-3.8,3.3c-0.8,0.1-1.5,0.2-2.3,0.3
		c0.1,0.4,0.1,0.7,0.2,0.9c1.3,2.6,1,4.9-1.4,6.8c-0.2,0.1-0.3,0.3-0.5,0.5c-0.5,0.7-0.5,1.3,0.1,2c0.3,0.4,0.7,0.7,1,1
		c2,2.1,2.6,4.5,1.6,7.3c-0.9,2.6-2.5,4.7-4.6,6.3c-1.4,1-2.8,1.8-4.3,2.6c-4.2,2.3-4.6,6.7-4.2,10.2c0.1,1.1,0.9,1.5,1.9,1.1
		c0.7-0.2,1.4-0.5,2.1-0.7c2.2-0.6,2.7-0.3,3.3,1.8c0.3,1,0.6,1.9,1,3.3c1.9-2.7,4.1-3.7,6.7-3.7c0.2,0.4,0.3,0.5,0.3,0.7
		c0.1,2,0.8,3.4,3.1,3.4C83.2,487.2,83.6,487.6,83.9,487.8z M334.5,300.8c-0.4-5.6-0.8-11-1.1-16.4c-0.5-9.8-0.8-19.7-1.4-29.5
		c-0.5-7.8-2.1-15.3-4.7-22.7c-1-2.8-2.6-4.6-5.4-5.5c-0.2,0-0.3-0.1-0.4-0.2c-2.9-1.1-3.5-0.9-4.8,1.9c-0.2,0.5-0.5,1-0.7,1.5
		c-1.6,3-4,5-7.3,5.8c-2.3,0.6-4.7,0.8-7.1,0.4c-4.2-0.6-7.9-2.4-11.5-4.6c-1.2-0.7-2.3-1.6-3.7-2.5c5.7-3.4,11.2-6.6,16.6-9.7
		c0.7-0.4,1.5-0.7,2.2-0.9c2.9-0.9,5.7-0.6,8.3,1.1c1.3,0.9,1.3,1.6,0.1,2.6c-0.2,0.2-0.4,0.3-0.6,0.4c-6.5,4.2-13.2,7.5-21.3,6.9
		c2.6,0.8,5.2,1.1,7.8,0.6c2.6-0.5,5.3-1.3,7.8-2.2c2.3-0.8,4.5-2,6.8-2.9c3-1.2,5.9-1.1,8.8,0.4c0.3,0.2,0.7,0.3,1.3,0.5
		c-1.7-4.3-5.1-7.1-7.4-10.8c0.4-0.1,0.5-0.1,0.6-0.1c0.2,0.1,0.4,0.2,0.6,0.4c8.5,8.8,14.2,19.1,16.5,31.1
		c1.5,7.8,2.4,15.6,3.6,23.5c1.3,8.3,2.8,16.5,4,24.8c0.8,5.7,3.2,10.5,7,14.7c3.3,3.6,7.1,6.7,11.3,9.3c14,8.8,29.3,14.6,45.3,18.4
		c3.6,0.8,7.2,0.2,10.5-1.6c2.6-1.4,4.2-3.7,4.5-6.7c0.2-1.9-0.4-3.6-1.2-5.3c-2.5-4.6-5.1-9.1-7.4-13.7c-2.2-4.2-4.3-8.4-6.1-12.8
		c-3-7.4-3.4-15.1-0.9-22.8c0.5-1.6,0.9-3.2,1.2-4.9c0.4-2.2-0.1-4.1-1.5-5.9c-2.3-2.8-4.8-5.4-7.9-7.3c-0.4-0.2-0.8-0.4-1.2-0.6
		c0.4,1.1,1.1,2,1.8,2.8c2.4,2.8,4.1,5.9,4.9,9.5c0.2,0.9,0.3,1.9,0.3,2.8c-0.1,1.8-1.4,2.3-2.8,1.1c-0.6-0.5-1-1.4-1.4-2.2
		c-1-2.3-1.8-4.6-2.8-6.9c-2.1-4.5-6.1-6.7-10.5-8c-1.3-0.4-2.9-0.2-4.3-0.4c-5.5-0.5-10.5-2.8-15.5-4.9c-0.4-0.2-0.7-0.2-1.1-0.4
		c0.2-0.3,0.4-0.5,0.6-0.8c0.7,0.2,1.4,0.5,2.1,0.7c5.4,2,10.8,3.6,16.6,2.9c0.8-0.1,1.6,0,2.4,0.2c1.8,0.3,3.5,0.7,5.2,1
		c-0.6-0.6-1.3-1-2-1.3c-4.3-1.8-8.5-3.6-12.8-5.3c-3.1-1.2-6.3-2.2-9.5-3.4c-0.5-0.2-0.9-0.5-1.3-0.7c3.5-0.2,6.8-0.3,10.2,0
		c7.2,0.7,14.1,2.7,20.9,5.2c1.3,0.5,2.5,1.1,3.6,1.8c3.7,2.5,7,5.4,8.4,10c0.3-0.3,0.4-0.3,0.5-0.5c0.1-0.2,0.2-0.4,0.3-0.6
		c1.8-3.9,2.4-8.1,2.4-12.4c0.1-4.2,0.2-8.5,0.3-12.7c0-1.4,0-2.7-0.2-4.1c-1.1-8.8-4.7-16.6-9.9-23.6c-7.2-9.8-16.8-16-28.9-18.2
		c-8.6-1.6-17.2-1.2-25.8,0.4c-14.9,2.8-29.8,5.7-44.7,8.6c-12.8,2.5-25.6,4-38.6,3.6c-0.8,0-1.6-0.1-2.5-0.1
		c0.1-0.7,0.1-1.2,0.2-1.8c1.2-0.1,2.3-0.2,3.4-0.2c-0.3-2.7,0.6-4,3-4.5c-0.7,1.4-1.4,2.8-2.3,4.5c1.2,0,2.1,0,2.9,0
		c10.7-0.5,21.2-2.1,31.5-4.4c12.2-2.7,24.4-5.8,36.6-8.5c6.3-1.4,12.7-2.7,19-4c4-0.8,8-0.5,12-0.3c0.8,0,1.7,0.4,2.5-0.5
		c-0.3-0.3-0.5-0.5-0.7-0.7c-8.5-4.9-17.1-9.4-26.4-12.5c-2.6-0.9-5.2-1.7-7.9-2c-3.8-0.4-5.9,0.9-5.2,4.5c0.1,0.3,0,0.6,0,1
		c0,2.6-1,4.6-2.9,6.3c-3.9,3.4-8.5,4.5-13.5,4.6c0-0.4-0.1-0.6,0-0.7c2.7-3.8,4.5-8.1,6.4-12.3c1.2-2.8,3-3.6,6.2-3.2
		c-0.6,3.9-2.8,6.9-4.6,10.2c1.5-1.7,2.8-3.5,4-5.3c1.4-2.1,2.6-4.4,5-5.8c-4.6-1.3-30.4-5-32.4-4.7c0,1.7,0,3.5,0,5.2
		c0,2.4-0.5,3.3-2.7,4.2c-0.8,0.3-1.7,0.6-2.5,0.7c-3.8,0.6-7.4,1.9-10.8,3.9c-2.7,1.6-5.3,3.3-7.9,5c-1.4,0.9-2.6,2-3.6,3.4
		c-1.6,2.4-3.8,3.4-6.8,2.8c-2.5-0.5-3.6,0.1-4.7,2.6c-1.1,2.6-1.7,5.3-1.7,8.2c0.1,2.9,0.1,6,1.9,8.3c1.3,1.7,1.6,3.3,1.5,5.2
		c-0.1,1,0,1.9,0.1,2.9c0.6,3.6,1.2,7.2,1.9,11.1c-2.8,1.3-5.1,3.7-7.3,6.5c0.9,0.6,1.7,1.2,2.5,1.6c1.6,0.9,2.8,2.1,3.6,3.7
		c0.4,0.8,1.2,1.5,1.9,2.1c3.6,3.1,7.5,6,10.9,9.4c7.6,7.5,14.8,15.3,22.3,22.8c10.4,10.5,21.9,19.7,33.4,28.8
		C331.7,299.1,333.1,299.9,334.5,300.8z M321.1,396.5c0.5,0.1,0.8,0.2,1,0.2c6-0.3,11.3,1.6,16.4,4.5c1.5,0.8,3,1.5,4.6,2.1
		c3.8,1.4,7.7,2.8,11.5,4.2c6.3,2.3,12.8,4,19.6,4.4c2.2,0.2,4.5,0,6.7-0.4c4.9-0.9,7.7-4.5,7.8-9.5c0.1-2.8-0.6-5.4-1.6-7.9
		c-0.7-1.6-1.4-3.2-2-4.9c-1.3-3.2-0.6-5.9,1.9-8.3c2.4-2.2,4.7-4.6,7-6.9c1.6-1.6,2.9-3.4,3.7-5.5c2.3-6.2,1.3-17-5.9-22.5
		c-2-1.5-4.3-2.8-6.6-3.9c-7.2-3.4-14.1-7.2-20.7-11.5c-4.8-3.1-9.5-6.2-14.4-9.1c-7.7-4.5-14.9-9.6-21.9-15.1
		c-15.3-11.9-29.4-25.1-42.7-39.3c-3.2-3.4-6.9-6.2-10.4-9.2c-0.9-0.8-2-1.3-2.9-1.9c-2.5,1-4.9,1.9-6.8,3.6c0.5,0.6,1,1.1,1.4,1.6
		c-0.1,0.1-0.1,0.3-0.2,0.4c-2.5-0.2-5-0.5-7.8-0.7c-0.4,1-0.8,2-1.1,3.1c-0.4,1.7-0.5,3.5-0.8,5.2c-0.3,1.4,0,2.7,0.9,3.8
		c1.7,2.2,3.4,4.4,5.1,6.7c3.1,4.1,4.5,8.8,3.9,14c-0.2,1.7-0.7,3.4-1.1,5.1c-0.9,3.5-0.6,6.6,2.6,9c2.3,1.7,3,4.3,2.6,7.1
		c-0.1,0.8-0.3,1.6-0.4,2.4c-0.3,1.7-0.1,2.1,1.8,3.1c3-3.8,3.9-4.5,7.9-6.2c0.8-0.3,1.6-0.6,2.4-1c3.1-1.4,6.3-4,7.6-6.3
		c-4.8,3.4-9.4,6.8-15.5,6.9c-0.3-4.2,1.1-6.6,4.7-7.9c4.8-1.8,9.6-3.4,14.4-5.1c0.5-0.2,1-0.2,1.7-0.4c-0.7,6.6-3,12.1-7.4,16.7
		c-2.5,2.7-5.5,3.7-9.1,3c-0.9-0.2-1.7-0.4-2.6-0.6c-1.1-0.2-2.1-0.2-2.7,1.3c1.9,0.7,3.9,1.3,5.8,2c2.4,0.8,3.9,2.4,4.3,5
		c0.3,2.1,0.6,4.3,0.8,6.4c0.1,1.2,0.4,2.1,1.2,3.1c11.5,13.8,20.1,29.2,26,46.1c0.2,0.5,0.5,0.9,0.8,1.6c2.5-6,5-11.7,9-16.4
		c4.2-5,10.9-9.5,15.1-9.9c-0.8,0.6-1.5,1.1-2.2,1.7c-4.6,3.6-8.2,8.1-10.3,13.6C321.2,381.1,321.1,388.7,321.1,396.5z M180.1,317.6
		c4.5,0.8,8.8,0.4,13-1.2c1.2-0.5,2.4-0.9,3.7-1.1c3.6-0.5,7.2-0.6,10.1,2.4c0.2,0.2,0.5,0.2,0.8,0.3c1.2-4.5,0.7-12.9-1.8-16.4
		c-3.9,1.4-6.9-0.2-9.6-3c-1.1-1.1-2.4-2.1-3.6-3.2c-2.8-2.6-2.5-6.3,0.6-8.4c1.4-0.9,2.9-1.6,4.5-2.2c4.2-1.8,4.6-5.6,2.6-8.4
		c-1.5-2-1.2-3,1.1-4.2c3.7-1.9,5.3-4.9,5.3-8.9c0-0.9,0.4-1.9,0.8-2.6c0.7-1.1,0.8-2.2,0.5-3.4c-0.2-0.8-0.5-1.5-0.5-2.3
		c-0.2-2.1,0.7-3.7,2.8-4.1c2.9-0.4,5.4-1.8,8.1-2.8c1.8-0.7,2.2-1.8,1.1-3.3c-0.5-0.7-1.4-1.4-2.3-1.6c-3-0.7-6.1-1.3-9.2-1.8
		c-0.7-0.1-1.4,0-2.1,0.1c-5.3,1.1-9,4.1-10.9,9.1c-1.2,3-1.8,6.3-2.7,9.4c-0.3,1,0.1,1.7,1.2,2c0.8,0.2,1.6,0.7,2.2,1
		c0,1.6-0.6,2.6-1.5,3.4c-0.7,0.5-1.5,1-2.3,1.2c-3.4,1-5,3.3-4.9,6.7c0,0.5-0.1,0.9-0.2,1.6c-0.6-0.4-1-0.6-1.6-1
		c-0.7,1.9-1.3,3.6-2,5.5c1.5,0.5,1.6,1.6,1.3,2.7c-0.3,1.2-1.3,1.5-2.4,1.6c-0.5,0-1,0-1.4,0.1c-0.9,0.1-1.3,0.6-1.2,1.4
		c0.1,0.4,0.3,0.8,0.2,1.2c-0.1,0.6-0.3,1.4-0.7,1.6c-0.4,0.2-1.4,0.1-1.7-0.3c-0.8-0.9-1.4-1.9-1.8-3c-0.5-1.5-1.4-2.7-3-2.7
		c-2.1,0-4.2,0-6.1,0.5c-3.6,1-7.2,1.5-10.9,1c-1.4-0.2-2.9-0.2-4.3-0.2c-3.4,0.1-5,1.5-5.5,4.8c-0.4,2.5-0.6,5.1-1,7.6
		c-0.8,5.9-3.4,10.7-9.1,13.2c-2.7,1.2-4.5,3-5.6,5.6c-1,2.5-2.4,4.7-4.4,6.5c-1.6,1.5-3.2,3-4.8,4.3c-2.5,2.1-4.3,4.3-3.4,7.8
		c0.3,1.1-0.2,2-1.6,2.2c-0.8,0.1-1.6,0.5-2.1,1c-1.5,1.4-3,2.9-4.3,4.5c-1,1.2-0.6,2.1,1.1,3.3c0.8-0.6,1.7-1.4,2.6-2
		c5.6-4,12-4.2,16.4,0.9c0.8,0.9,1.9,1.3,3.4,1.7c0-2.2,0-4.1,0-6c0-1.7,0.5-2.2,2.1-2.1c1.2,0,2.4,0.2,3.5,0.6
		c1.3,0.5,2.3,0.1,3.3-0.6c1.1-0.8,2.3-1.4,3.5-2c1.4-0.7,2.6-0.2,3.6,1c1.7,2,2.5,4.3,2.2,6.9c-0.3,2.4-1.5,3.8-3.9,4.2
		c-2.3,0.3-4.6,0.4-6.9,0.4c-3.2,0-3.5,0.3-3.1,3.4c0,0.3,0.1,0.6,0.2,0.9c0.5,2.1,1.1,2.4,3,1.6c2.8-1.2,5.6-1.3,8.4-0.5
		c1.1,0.3,2.2,0.5,3.3,0.8c2,0.6,3.7,0.1,5.3-1.3c0.9-0.8,1.9-1.8,3-1.9c2.2-0.2,2.8-1.4,3-3.2c0.1-0.9,0.3-1.7,0.5-2.6
		c0.4-2.6-0.1-4.9-1.7-7c-1.7-2.3-3.8-4.1-6.4-5.4c-5-2.5-10.1-4.8-15.2-7.2c-1.9-0.9-3.9-1-5.9-0.6c-0.5,0.1-1.1,0.5-1.6,0.5
		c-0.7-0.1-1.6-0.2-1.9-0.7c-0.3-0.6-0.2-1.5,0.1-2.2c0.1-0.4,0.8-0.8,1.3-1c1.2-0.4,2.5-0.6,3.7-0.8c2.3-0.3,2.3-0.2,2.7-2.5
		c0.2-1.1,0.3-2.3,1.5-2.8c1.7,0.2,2.5,1.3,3,2.7c0.3,0.9,0.5,1.9,0.9,2.7c0.8,1.7,3.1,2.8,4.8,2.4c1.4-0.4,1.8-1.3,1.8-3.7
		c0-3.4-0.2-6.9-0.1-10.3c0-3.4-0.1-6.6-2-9.7c-1.2-1.8-1.1-4,0-6c0.8-1.5,1.3-1.8,2.9-1.2c1.3,0.5,2.7,1.1,3.9,1.7
		c1.7,0.9,1.9,1.9,0.9,3.5c-0.3,0.5-0.7,0.9-1,1.4c-0.4,0.9-0.8,1.8-0.8,2.6c0.1,2,0.5,4,0.7,5.9c0.1,1.3,0.8,2,2,2.2
		c1.1-0.6,1.1-1.6,1.2-2.5c0.1-1.4,0.6-2.7,1.8-3.5c1.3-1,3.5-1.3,4.5-0.6c1.3,1,1.1,2.4,0.8,3.8c-0.2,0.8-0.5,1.7-1,2.4
		c-1.2,1.9-2.9,2.9-5.1,3.2c-1.9,0.3-3,1.4-3.6,3.1c-0.3,0.7-0.4,1.4-0.7,2c-1.6,4.1-0.5,7.6,2.7,10.4c1.5,1.4,3.2,2.6,5,3.8
		c3.3,2.2,5.7,4.9,6.1,9c0.1,0.7,0.8,1.8,1.4,1.9c2.6,0.5,4.4,2.2,6.2,3.8c3.6,3.2,7.6,1.9,8.5-2.9c0.5-2.5,0.9-5,1.3-7.6
		c1-6.6,6.5-11,13.2-10.8c1.2,0,2.5-0.1,3.6-0.1c-0.1-1.5-0.5-2.7-0.1-3.8c0.4-1.1,1.4-2,2.2-3c-0.7-0.4-1.4-0.8-2.1-1.1
		c-2-1-2.8-0.7-4.1,1c-0.6,0.8-1.2,1.7-1.9,2.5c-2.9,3.2-6.4,4.7-10.7,3.9c-5.5-1-10.2-3.5-14.6-6.9c-1.1-0.9-2-1.9-3.2-3
		c0.7-0.3,1-0.5,1.4-0.6c5.7-2.1,11.4-4.3,17-6.4c0.6-0.2,1.2-0.4,1.8-0.6c3.7-0.9,6.6,0.5,8.6,4.2
		C192.6,314.7,186.6,317.1,180.1,317.6z M399.9,169c-1.9,0.2-3.4,0.5-5,0.4c-2-0.1-3.8-1.2-5.4-2.5c-2.1-1.6-4.1-3.3-6.3-4.8
		c-1.3-0.9-2.6-1.7-4.3-1.8c4.7,2.5,8.4,6,11.2,10.5c-3,2.3-4.6,2.4-7.2,0.1c-4.5-3.9-8.9-7.8-13.3-11.7c-0.4-0.4-0.8-0.9-1.4-1.6
		c2.2-0.6,4-1.3,6-1.7c4.1-1,8.2-0.8,12.3,0.7c3.9,1.5,6.2,4.3,6.9,8.5c0.1,0.5,0.1,1.2,0.4,1.6c0.4,0.6,0.9,1.3,1.5,1.4
		c1.3,0.3,2.6,0.5,3.8-0.3c-0.1-0.3-0.1-0.5-0.1-0.6c-7-12.6-16.4-22.4-31.3-25.3c-0.5-0.1-1.1-0.2-1.6-0.4
		c-6.7-1.3-13.3-3-20.1-2.7c-0.6,0-1.3-0.1-1.9-0.2c-1.5-0.2-3-0.5-4.5-0.6c-2.8-0.1-5.6-0.1-8.4-0.1c-6.2,0.2-12.3,0.6-18.4,1.7
		c-1.2,0.2-2,0.7-2.8,1.6c-3,3.3-5.4,6.9-7.2,11c-0.3,0.6-0.6,1.3-0.9,1.9c-0.3-0.1-0.4-0.2-0.5-0.3c-3.1-4.2-2.3-7,1.9-8.8
		c1.7-0.7,3-2,3.7-3.8c-9.4,2.8-18.8,5.5-27.1,11.9c2.6,0.3,4.7,0.5,6.7,0.8c1.2,0.2,1.9-0.2,2.7-1c1.4-1.6,2.9-3.2,4.4-4.7
		c0.5-0.6,1-1.2,2.1-1c-0.1,0.6-0.1,1-0.3,1.4c-0.9,2.2-0.7,2.7,1.5,3.6c0.6,0.3,1.2,0.4,1.8,0.7c0.2,0.1,0.4,0.3,0.5,0.4
		c0,0.7,0,1.4,0,2.1c8.4,1.2,16.7,2.4,25,3.5c7.8,1.1,15.5,2.2,22.9,5c10.5,4,20.7,8.9,30.4,14.7c3.5,2.1,7,4.2,10.6,6.1
		c7.3,3.9,14.4,8,20,14.2c0.3,0.4,0.8,0.5,1.2,0.8C406.5,189.4,404.4,178.7,399.9,169z M191.2,213c0,0.2,0.1,0.5,0.1,0.7
		c0.7,0.2,1.5,0.6,2.2,0.5c1.9-0.2,3.9-0.3,5.7-0.9c3.4-1,6.6-1.1,9.9,0.2c3.1,1.2,6.2,1.5,9.4,1.4c1.1,0,2.2,0,3.4-0.1
		c1.3-0.1,2.3,0.3,3.2,1.3c1.3,1.3,2.6,2.7,4,3.8c2.4,2,1.7,5.2,0.2,6.9c-1,1.2-1.7,1.2-3.1,0.5c-1.2-0.6-2.5-1.1-3.8-1.3
		c-3.2-0.5-6.5-0.9-9.8-1.1c-1.2-0.1-2.6,0-3.7,0.3c-2.3,0.7-4.4,0.4-6.3-1.1c-0.9-0.7-1.7-1.4-2.6-2.1c-1.2-1-2.5-1.6-4.1-1.8
		c-3.8-0.6-7.6-1.1-11.3-1.9c-7.5-1.6-14.6,1.4-18.5,8c-0.6,1-1,2-0.2,3.1c0.9,1.3,1.3,2.5,0.4,4c-0.6,0.9-0.1,1.9,0.9,2.4
		c1.5,0.7,3,1,4.6,0c0.5-0.3,0.9-0.7,1.4-0.9c2.1-1,4.1,0.3,4,2.6c0,0.3-0.1,0.6-0.1,0.9c-0.5,2.7-0.4,2.8,2.5,2.8
		c1,0,1.9,0.1,2.9,0.3c1.9,0.3,3.1,1.4,3.1,3.3c0,2.2,0,4.5-0.5,6.6c-1.1,5.1-3.5,9.8-6.1,14.3c-1.2,2-2,4.1-3,6.2
		c-0.5,1.1-0.5,2.3,0.2,3.6c1.7-0.4,3-1.5,4.2-2.6c2.3-2.2,3.6-4.9,4.5-7.8c1.4-4.3,2.6-8.6,4-12.8c0.9-2.9,1.9-5.8,3.2-8.5
		c2-4.1,5.4-6.9,9.9-8c3.9-1,7.9-2,11.9-3c2-0.5,4-0.2,5.8,0.6c0.7,0.3,1.4,0.7,2.2,1.1c3.3,1.5,6.4,1.4,9.6-0.6
		c1.4-0.9,3.2-1.5,4.9-1.8c2.9-0.5,4.8,0.7,5.8,3.4c0.4,1,0.5,2,0.8,3c0.3,0.8,0.5,1.7,0.9,2.5c0.4,0.7,0.9,1.5,2.2,1.2
		c-0.7-6.9,1-13.5,2.8-20.1c0.2-0.8,0.3-1.7,0.3-2.6c-0.4-4.1-1.5-8-3-11.8c0-0.1-0.3-0.2-0.4-0.2c-3,1.6-4.9,3.2-7,6.1
		c-2,2.7-3.4,3.2-6.6,2.1c-0.9-0.3-1.8-0.7-2.6-1.2c-1.4-0.7-2.7-1.5-4-2.2c-4-2-8.2-3.1-12.7-2.5c-1.5,0.2-3.2-0.1-4.7-0.5
		c-2.3-0.6-4.6-1.1-6.9-0.4c-2.8,0.8-5.5,1.7-8.2,2.6C192.1,211.9,191.7,212.6,191.2,213z M53.5,409.1c-0.5,2.1-1.1,3.7-1.2,5.4
		c-0.3,2.7-1.5,4.4-4,5.4c-0.9,0.3-1.7,0.8-2.4,1.5c-0.4,0.3-0.5,1.2-0.4,1.7c0.1,0.3,0.9,0.6,1.4,0.6c2.6,0,5.1-0.5,7.1-2.3
		c0.8-0.7,1.8-1.4,2.8-1.8c1.3-0.5,2.3,0.2,2.2,1.6c0,0.7-0.3,1.4-0.6,2c-0.4,0.7-0.9,1.3-1.3,2c-1,1.8-0.8,2.6,1,3.5
		c4.1,2,6.7,0.8,8.3-2.8c1.9-4.5,5.3-5.9,9.7-5.8c0.3,0,0.6,0,1,0c3.2,0,4.2,1.3,3.1,4.4c-1.1,3.2-3.3,5.6-5.8,7.8
		c-3.2,2.8-6.9,3.8-10.9,2.8c-2.6-0.6-4.2,0-5.8,2c-1.5,1.9-3.4,3.1-6,2.9c-0.3,0-0.6,0-0.9,0.1c-0.8,0.3-1.9,1.7-1.7,2.4
		c0.3,1,1.2,1.2,2.1,1.3c0.8,0,1.6-0.1,2.4-0.2c1.8-0.1,3.1,0.5,4,2.1c0.4,0.7,0.8,1.3,1.3,2.1c0.6-0.8,1.1-1.4,1.4-2
		c2.7-5,7-8.2,12.1-10.5c1.3-0.6,2.7-1.1,3.9-1.8c5.2-2.8,8.3-6.8,8.1-13c-0.1-2.2,0.3-4.5,0.8-6.6c0.5-2.2,0.6-2.5-1.2-3.9
		c-1.2-0.9-1.5-1.9-1-3.3c0.7-2.2,2.1-3.8,4-4.8c0.9-0.5,1.9-0.8,2.8-1.3c1.8-0.9,2.4-1.9,2.1-3.8c-0.4-2.4,0.4-4.4,2.3-5.9
		c2.4-1.9,4.8-3.8,7.1-5.7c2.3-1.9,4.8-3.2,7.7-3.7c2-0.3,3.9-0.6,5.9-0.9c3.7-0.6,7.2-1.6,9.8-4.5c1.4-1.6,3.2-2.6,5.1-3.5
		c3.3-1.5,5.6-0.9,6.2,2.8c0.1,0.4,0.2,0.8,0.5,1.1c0.6,1,1.4,1.8,3.1,1.9c-0.3-1-0.5-1.7-0.9-2.4c-1.4-2.8-1.3-3.7,1.2-5.7
		c1.7-1.4,1.8-2.2,0.2-3.7c-1.6-1.5-3.3-2.8-5-4.2c-3.1-2.4-6.3-2.7-9.9-1c-1.4,0.7-2.9,1.2-4.4,1.9c-3,1.4-6.2,1.3-9.4,1.6
		c-4.4,0.5-8.1-0.7-10.7-4.4c-0.9-1.3-2.1-2.2-3.6-2.7c-1.2-0.5-2.4-0.9-3.5-1.4c-0.9-0.4-1.5-0.2-2.1,0.5c0.4,0.6,0.8,1.1,1.1,1.7
		c0.3,0.5,0.7,1.1,1.2,1.9c-1.2,0.3-2.3,0.7-3.3,0.8c-2.9,0.3-3.4,0.7-3.4,3.7c0,0.2,0,0.5,0,0.7c-0.1,2.2-0.6,2.9-2.8,2.9
		c-1,0-1.9-0.1-2.9,0c-1.6,0.2-3.2,0.3-4.7,0.7c-1.4,0.4-1.8,1.3-1.2,2.6c0.9,1.8,1.3,3.7,1.6,5.7c0.2,1.4,0.8,1.8,2.2,1.4
		c2.1-0.5,3.9-1.4,4.8-3.6c0.8-2,2.3-3.8,4.3-4.7c4.1-1.9,8.4-2.9,12.9-3.2c1.9-0.1,2.9,0.8,3.5,2.7c1.2,3.5,0,6.4-3.4,7.9
		c-2.1,1-4.3,1.7-6.4,2.6c-3.8,1.6-6.5,4.3-7.1,8.6c-0.3,1.9-1.2,2.6-3.1,2.8c-1,0.1-1.9,0-2.9,0.1c-2.7,0.2-3.8,1.4-3,3.9
		c1.5,4.7,0.8,9.5,0.5,14.3c-0.2,2.2-0.9,3-3.1,3.3c-3.1,0.4-6.2,0.5-9.3,0.9c-3.5,0.4-6.5-0.5-9.2-2.7
		C56.4,410.9,55.1,410.2,53.5,409.1z M365.9,524.9c0.7,1.3,1.3,2.5,2.1,3.6c1.9,2.7,3.3,5.5,3.1,8.9c-0.1,2.6,1.1,4.4,2.9,6
		c0.8,0.7,1.7,1.2,2.5,1.8c3.3,2.4,6.6,4.8,9,8.2c1.4,1.9,3,2.9,5.3,3.2c2.8,0.4,4.5,2.2,5.1,5c0.1,0.6,0.2,1.3,0.4,1.9
		c0.6,2.6,2.3,4.2,4.9,4.6c1.1,0.2,2.2,0.3,3.3,0.4c4.2,0.5,8.2,1.4,11.9,3.4c1.5,0.8,3.1,1.1,4.8,0.7c0.7-2.1,0.5-4-0.1-5.9
		c-1.4-4.5-2-9-1.2-13.7c0.7-3.8-0.2-7.5-2.3-10.8c-1.3-2-2.8-3.9-4.4-5.7c-2.4-2.6-5.4-4-8.9-4c-3.1,0-6.2,0-9.4,0
		c-2.9,0.1-5.6-0.6-7.9-2.3c-1-0.7-1.9-1.7-2.9-2.5c-2.4-2.3-5.1-3.4-8.5-3.2c-1.2,0-2.5-0.2-3.7-0.6
		C369.8,523.2,367.9,523.3,365.9,524.9z M317.6,540.4c-0.4,1.2-0.7,2-1,2.8c-0.4,1.1-0.6,2.4-1.1,3.4c-2.5,4.6-2.4,9.2,0.1,13.7
		c1.7,3.2,2.1,6.5,1.4,10c-0.8,3.4,0,6.5,1.9,9.3c0.7,1.1,1.4,2.1,2.2,3.2c2,2.9,2.7,6.1,2.2,9.6c-0.1,0.9-0.2,1.9-0.3,2.9
		c-0.2,1.7,0.4,3.1,1.8,4.2c0.5,0.4,1,0.8,1.5,1.1c2.4,1.5,3.3,3.6,2.6,6.3c-0.8,3.3,0.8,5.9,2.3,8.5c1,1.7,2.9,1.6,4.6,1.2
		c1.5-0.3,2-1.5,2.1-2.9c0.1-1.3,0.2-2.7,0.1-4c-0.8-7.7,0.1-15,5.1-21.4c1.4-1.8,1.3-2.5-0.3-3.9c-2.8-2.4-3-5.1-1.6-8.4
		c2.1-4.9,3.9-10,5.8-15c1.1-2.9,0.4-4.4-2.5-5.4c-2.5-0.9-5-1.7-7.5-2.3c-5.1-1.3-9.8-3.5-13.6-7.3c-1.2-1.2-2.2-2.5-3.4-3.7
		C319.3,541.7,318.6,541.2,317.6,540.4z M205.7,150.5c0.5,1.1,1.4,1.6,2.5,1.8c3.9,0.8,5.8,4.3,8.6,6.6c0.2,0.1,0.2,0.4,0.2,0.7
		c0.4,1.8,1.7,2.4,3.4,2.4c2.2,0,4.3,0,6.5,0c2.6,0,5,0.7,7.3,2.1c0.6,0.4,1.4,0.6,2.1,0.9c0.8-2.9,0.7-3.3-1.2-4.8
		c-0.5-0.4-1.1-0.7-1.5-1.2c-3.4-3.2-3.2-8.3,0.5-11.1c1.1-0.9,2.3-1.1,3.6-0.4c0.9,0.5,1.8,1.1,2.6,1.7c3.1,2.1,3.2,2.9,0.7,5.6
		c-0.1,0.1-0.2,0.2-0.3,0.3c-1.8,2.3-1.5,3.5,0.9,4.4c2.1,0.9,3.4,2.5,4.2,4.6c0.7,1.9,1.4,3.9,2.3,5.8c0.4,0.8,1.1,1.6,1.8,2.1
		c1,0.7,2.1,0.6,2.8-0.4c1.7-2.6,2.9-5.5,1.5-8.6c-1.8-4-3.8-7.9-6.1-11.7c-1.4-2.3-3.2-4.4-5.1-6.4c-2.2-2.3-5.1-3.2-8.4-2.6
		c-1.9,0.4-2.1,0.2-2.9-1.6c-0.5-1.3-1.2-2.4-2.5-3c-5.2-2.3-10.5-4.4-16.3-4.2c-1,0-2.1-0.2-3.1-0.4c-1.2-0.2-1.8-1-1.8-2.2
		c0-1.1,0.9-1.8,1.9-1.9c1.4-0.2,2.9-0.2,4.3-0.1c1.1,0.1,2.2,0.5,3.3,0.7c0.8,0.1,1.5,0,2-0.8c1.6-2.2,2-2.3,4.3-0.9
		c3.3,2.1,6.6,4.2,9.8,6.4c2.2,1.6,4.6,2.8,7.2,3.9c0.5-1.9,0-3.1-1.5-4.1c-0.6-0.4-1.2-0.7-1.8-1.1c-1.4-0.9-2.3-2.1-2.3-3.9
		c-0.1-1.7-0.4-2-2.2-2.2c-1-0.1-2.1-0.1-3.1-0.2c-2.5-0.4-4.7-1.4-6.8-2.9c-3.3-2.4-7-3.1-10.8-1.3c-2.8,1.2-5.6,2.4-8.3,3.8
		c-2.4,1.2-2.8,2.7-1.8,5.1c0.4,0.9,0.8,1.9,0.8,2.9c0.1,2.3,0.2,2.6,2.3,3.4c4.3,1.7,6,4.3,5.4,8.9c-0.2,1.7-0.4,2-2.2,2.2
		C207.1,149,206.3,149.6,205.7,150.5z M479.7,308.8c-0.3,0.2-0.5,0.4-0.8,0.6c-0.3,0.2-0.8,0.3-1.1,0.5c-1.3,0.7-1.6,1.8-0.7,3
		c0.6,0.7,1.4,1.3,2.3,1.6c0.9,0.4,2,0.5,3,0.7c1.6,0.3,3.2,0.5,4.7,0.9c0.9,0.2,1.7,0.7,1.7,2c0,2.4,0.1,2.4,2.6,3.1
		c1.1,2.2,1.1,2.2,3.4,1.6c1-0.3,2-0.5,2.9,0.3c1.5,1.5,3.3,1.3,5.1,0.7c1.6-0.5,3.2-1.1,4.8-1.3c4.9-0.5,9.9-0.8,14.8-1.1
		c2.3-0.2,4.3,0.4,5.4,2.6c0.4,0.8,1,1.4,2.4,1.3c-0.8-1.5-1.5-2.7-2.5-3.6c-1.6-1.5-2.2-3.1-1.1-5.1c0.1-0.2,0.2-0.4,0.3-0.7
		c0.4-0.9,0-1.5-0.9-1.9c-0.3-0.1-0.6-0.1-0.9-0.2c-2.5-0.5-2.7-0.8-2.7-3.3c0-1.6,0.1-3.2,0-4.8c0-0.8-0.3-1.7-0.5-2.5
		c-1.9,0.7-2.2,1-2,2.3c0.1,0.7,0.5,1.3,0.7,2c0.6,1.5,0.3,2.3-0.8,3.4c-0.7,0.6-1.5,1.2-2,2c-1.6,2.1-3.7,2.6-6.2,2.2
		c-0.9-0.1-1.7-0.4-2.6-0.6c-1.9-0.5-3.6-0.3-5.4,0.5c-3.1,1.4-6.1,0.7-9.1-0.3c-2.2-0.7-2.4-2-1-3.9c0.5-0.7,1-1.2,1.5-1.8
		c0.8-1.1,1.8-2.1,2.5-3.2c2.3-3.8,5.4-6.3,9.7-7.1c1.5-0.3,2.6-1,3.4-2.4c1.3-2.5,3.5-3.9,6.2-4.5c0.8-0.2,1.6-0.3,2.3-0.7
		c0.8-0.4,1.3-1.2,0.6-1.9c-1.6-1.5-3.3-3-5.1-4.3c-0.8-0.6-1.6-0.2-1.8,0.8c-0.1,0.4-0.1,0.8,0,1.2c0.1,2-0.8,3.4-2.5,4.2
		c-1.2,0.5-2.2,1.2-2.6,2.6c-0.1,0.4-1,1-1.4,0.9c-0.5-0.1-1-0.7-1.3-1.2c-0.6-1.3-0.3-2.5,0.7-3.5c0.4-0.5,1-0.8,1.5-1.1
		c2.3-1.7,2.4-2.8,0.3-5.1c-1.9,1.7-4.7,2.4-5.3,5.4c0,0.2-0.2,0.5-0.4,0.6c-1.9,1-1.7,2.7-1.5,4.4c0.4,3.6-0.8,6.6-3.4,9
		c-0.6,0.5-1.2,1.1-1.7,1.7c-0.8,0.8-1.7,1.2-2.8,0.7c-0.4-1.3,0.2-2.2,1.1-2.9c1.3-1,2.7-2,4-3c1.5-1.1,2.1-2.5,1.8-4.4
		c-0.5-3.9-1-7.8-1.5-11.6c-0.2-1.4-0.4-2.9-2-3.6c-2.7,2.3-5.4,4.6-8.2,7c1.7,3,1.4,5.8,0,8.6c-1,2.2-2,2.4-3.9,1.1
		c-1.7-1.2-3.2-2.6-5-4c-3.5,2-7.2,4-10.9,6.1c0,0.9,0,1.7,0,2.3c1.3,1.2,2.9,2,3.5,3.4c0.7,1.4,1.6,2.2,2.8,2.7
		C476,307.7,477.8,308.1,479.7,308.8z M181.1,507c-0.8,0.1-1.5,0.2-2.1,0.4c-3.8,0.9-7.6,1.8-11.5,2.6c-1.9,0.4-3.4,1-4.4,2.9
		c-1.1,2-2.9,2.9-5.2,2.7c-2.2-0.2-4.5-0.2-6.7-0.5c-3-0.4-5.2,0.6-6.6,3.2c-2.1,3.9-4.9,7.3-7.8,10.6c-1.1,1.3-2.1,2.6-3.3,3.8
		c-6.1,6.6-10.4,14.3-13.8,22.6c-0.3,0.8-0.8,1.6,0,2.4c0.7,0.7,1.6,0.7,2.4,0.3c2.5-1.1,5.1-1.9,7.5-3.2c4.4-2.3,8.6-5,13-7.2
		c3.8-1.9,6.4-4.6,7.4-8.8c1.1-4.7,4.2-7.8,8.9-9.2c1.8-0.5,3.6-0.9,5.3-1.4c3.8-0.9,7.1-2.6,9.2-6c2.5-4,4.9-8,7.4-12.1
		C181.4,509.3,182,508.4,181.1,507z M455.8,286.3c5.2-2.7,10.2-5.4,15.2-8c1-0.5,1.2-1.2,1-2.2c-0.5-2.5-1.7-4.7-3.2-6.6
		c-0.3-0.4-1.2-0.7-1.6-0.6c-2.2,0.6-3.6,4.5-2.5,6.5c0.3,0.5,0.5,1.1,0.9,1.8c-0.9,0.6-1.7,1.1-2.5,1.6c-2.4,1.4-2.4,1.4-4.6-0.2
		c-0.1-0.1-0.3,0.1-0.4,0.1c0.3,0.8,0.5,1.6,0.8,2.4c-1.4-0.6-2.5-1.4-3.4-2.4c-1.3-1.5-1.2-2.2,0.2-3.7c1.2-1.3,2.3-2.7,3.4-4
		c0.8-0.9,1-1.9,0.4-3.1c-0.5-0.9-0.8-1.9-1-2.9c-0.6-2.8,1.4-6.1,4.3-6.4c1.6-0.2,2.7-0.9,3.8-1.8c1.4-1.1,2.6-2.3,4-3.5
		c1.3-1.1,2.9-2.1,4.6-1.7c2.3,0.6,4.2-0.2,6.1-1.2c0.3-0.1,0.6-0.2,0.9-0.3c2.1-0.6,3,0,3,2.2c0,1.8-0.8,3.4-2.1,4.7
		c-0.9,0.9-1.8,1.9-3.1,3.1c5.1,0.6,9.1-0.5,12.2-4c0.7-0.8,1.1-1.7,1.5-2.7c0.7-2,0.9-4,1.7-5.9c1.1-2.6,2-5,0.8-7.8
		c-0.1-0.1,0-0.3,0-0.5c0-2.8-1.4-4.8-3.9-5.6c-2.4-0.8-4.5-0.1-6.2,2.3c-2,2.8-4.5,4.7-7.6,6.1c-2.3,1-4.7,2-7.1,2.9
		c-3.3,1.3-6.5,2.8-9,5.3c-1,1-2.2,1.2-3.5,1.3c-3.9,0-7.2,1.6-10.1,4c-1.4,1.2-2.4,2.9-3.5,4.5c-0.6,0.8-0.3,1.6,0.2,2.4
		c2.5,4.3,4.8,8.6,6.1,13.4C452.4,279.5,454.3,282.8,455.8,286.3z M476.6,334.9c-0.8,1.9-1.5,3.6-2.1,5.2c-0.7,1.8-1.8,3.3-3.6,4
		c-1.5,0.6-3.2,1-4.8,1.4c-0.4,0.1-1.3-0.3-1.4-0.7c-0.5-1.3-1.1-2.7-1.1-4.1c0-4,4.2-9.6,8-10.5c3-0.7,4.2-3,5.8-5
		c-1.4-1.3-2.8-2.1-4.3-1.1c-0.8,0.5-1,1.7-1.7,2.4c-0.7,0.8-2.3,0.3-2.7,1.7c-0.1,0.4-0.4,0.9-0.8,1.1c-2.3,1.3-4.8,1.6-7.4,1
		c-1.3-0.3-1.7-1-1.4-2.3c0.2-0.9,0.5-1.8,0.8-2.7c-0.3-0.5-0.6-0.8-0.9-1.2c-1.4-1.7-1.7-3.6-1.4-5.6c0.1-0.6,0.6-1.5,1-1.7
		c1-0.2,1.4-0.8,1.8-1.6c0.2-0.5,1-1,1.6-1.1c0.4,0,0.9,0.7,1.3,1.1c0.3,0.4,0.5,1.3,0.8,1.3c1.7,0.3,2.5,1.6,3.5,2.7
		c1.8,1.9,4.5,2.3,6.7,0.9c-0.9-2-3.7-3.5-2-6.3c-2.4-2.4-5.3-3.7-8.4-4.5c-0.4-0.1-1-0.1-1.4,0c-2.7,0.8-5.3,1.6-8,2.4
		c-1.4,0.4-2.8,1-4.7,1.6c-1,3.5-2.1,7.6-3.2,11.7c-0.3,1.2,0.2,2,0.9,2.8c2.8,2.9,4.1,6.5,4.8,10.5c0.3,2.1,1.1,4.2,1.9,6.1
		c1.1,2.6,3.2,4.1,6,4.7c1.3,0.3,2.7,0.5,4,0.5c5,0.1,10.1,0,15,1c3.2,0.6,5.4-1.7,5.1-4.9c-0.1-0.6-0.2-1.1-0.3-1.6
		c-0.3-1.6-0.1-3,0.8-4.4c2.7-4.1,2.7-8.2-0.2-12.3c-1.3-1.9-1.2-2.6,0.2-4.5c0.5-0.7,0.9-1.4,1.6-2.4c-0.5-0.3-0.7-0.5-1-0.6
		c-1-0.5-2-1.1-3-1.5c-1.8-0.7-2.8-0.3-3.2,1.6c-0.5,2.6-0.3,5.1,2,7c1.6,1.4,1.6,2.1,0.4,3.9c-0.6,0.9-1.2,1.7-1.7,2.6
		C479.4,334.9,478.5,335.7,476.6,334.9z M207.6,523.1c-0.7,0.4-1.3,0.6-1.7,0.9c-2.5,1.7-5.3,2.9-8.2,3.8c-4.5,1.5-8.9,3-13.4,4.4
		c-4,1.2-6.7,3.7-8.4,7.6c-3,6.9-3.3,14.1-2,21.4c0.3,1.9,1.4,2.7,3.3,2.9c0.6,0.1,1.3,0,1.9,0c3-0.3,5.5-1.7,7.7-3.6
		c4.7-4.1,9.3-8.3,13.8-12.6c1.6-1.4,2.6-3.3,3-5.4c0.2-1.2,0.3-2.4,0.4-3.6c0.3-5,0.6-9.9,3.5-14.3
		C207.6,524.3,207.5,523.8,207.6,523.1z M71.6,351.8c1,1.2,2.2,1.4,3.4,1.4c1.6-0.1,3,0.1,3.9,1.8c0.4,0.8,1.1,0.7,1.8,0.2
		c1.3-1,2.8-1.8,4.2-2.7c0.8-0.5,1.5-1.1,2.2-1.8c1.1-1.1,2-2.3,3-3.4c1.1-1.2,2.3-2.2,4-2.5c1.5-0.3,2.5-1.4,2.9-2.9
		c0.3-1.1,0.6-2.2,1.1-3.1c1.4-2.7,4.5-3.6,7.2-2c0.4,0.2,0.8,0.7,1.2,0.8c0.6,0.1,1.3,0.2,1.7,0c2.5-1.8,4.9-3.8,6.3-6.7
		c1.4-2.9,3-5.8,4.5-8.7c0.6-1.3,1.1-2.7,1.4-4c0.5-2.1-0.3-3.8-2.3-4.8c-1.4-0.7-2.9-1.4-4.4-1.9c-1.8-0.6-3.5-0.2-5.2,0.8
		c-10.1,5.7-17.5,14.4-24.7,23.2c-2.7,3.3-3.7,7.1-1.6,11.2c0.2,0.4,0.3,0.7,0.4,1.1c0.5,1.8,0.1,2.6-1.8,2.8
		c-1.9,0.2-3.8,0.3-5.7,0.1C73.6,350.2,72.6,350.7,71.6,351.8z M210.6,164.4c-0.3-1.4-0.7-2.7-2-3.4c-2.2-1.2-4.5-2.5-6.8-3.5
		c-1.9-0.9-3.2-0.2-3.9,1.9c-0.4,1.3-0.6,2.7-0.7,4c-0.2,1.5-0.8,2.7-2.1,3.5c-1.9,1.2-2,1.3-1.3,3.7c0.4,1.5,0.3,2.8-0.5,4.1
		c-1.2,2.1-1,2.5,1.1,3.7c2.2,1.3,4.5,2.5,6.6,3.8c1.8,1.1,3.3,1.4,4.9-0.2c1.1-1,2.1-0.8,2.6,0.6c1.6,4.2,2.5,8.4,0.2,12.7
		c-0.6,1.1-1,2.4-1.3,3.6c-0.4,1.5,0.1,2,1.7,2c0.7,0,1.4-0.2,2.1-0.3c4.6-0.7,9.1-0.5,13.5,1c0.9,0.3,1.8,0.5,2.7,0.7
		c0.4-2.9-0.4-4.2-2.8-4.9c-0.5-0.1-0.9-0.2-1.4-0.3c-5.7-0.6-6.1-1.8-7-7c-0.5-2.7-1.4-5.1-3.5-6.9c-2-1.7-0.9-4.9,0.7-5.7
		c0.8-0.4,1.7-0.4,2.5-0.6c1.2-0.3,2.5-0.4,3.7-1c1.9-0.9,3.6-1,5.6-0.3c1.2,0.4,2.5,0.7,3.7,0.7c2.6,0.1,4.6,1.1,6.2,3.1
		c0.6,0.7,1.3,1.5,2.1,1.9c3.6,1.7,5,4.5,4.5,8.4c-0.2,1.9-0.6,3.8-0.9,5.7c-0.2,1.4-0.3,2.7,0.3,4c0.3-0.3,0.5-0.5,0.5-0.8
		c0.8-4.4,1.8-8.8,2.4-13.2c0.3-2.3,0.2-4.8,0-7.1c-0.3-3.1-2-5.2-5-6.1c-5.6-1.7-11.3-3.6-17-5.1c-5.3-1.4-9.9-0.1-13.5,4.4
		c-0.8,1-1.8,1.8-3,2.4c-2.3,1.2-5,0.5-5.9-1.4c-1-1.9,0.2-4.7,2.4-5.8c0.4-0.2,0.9-0.4,1.3-0.5c1-0.2,2.1-0.3,3.1-0.3
		C208.1,165.9,209.4,165.4,210.6,164.4z M421.4,163.9c1.5,2.3,3,4.2,4.1,6.2c1.5,2.9,0.6,4.6-2.6,5.1c-1,0.2-2.1-0.3-3.2-0.6
		c-0.5-0.1-1.1-0.6-1.5-0.5c-1.7,0.7-2.5-0.4-2.9-1.6c-0.8-2.5-1.4-5.1-2-7.6c0-0.1,0-0.3,0-0.5c0.5-1.7,0.9-3.5,1.6-5.2
		c1.3-3.2,2.8-6.4,4.2-9.6c0.2-0.6,0.4-1.2,0.7-2c-1.7,0.1-3.3,0.2-4.4-1.1c-1-1.1-1.9-2.3-2.9-3.5c-1.6,3.3-2,6.3-0.3,9.4
		c1.3,2.4,0.5,4-2.3,4.2c-1.3,0.1-2.5,0-3.7,0c-1.3-1.9-2.5-3.7-3.8-5.5c-1.3-1.7-2.7-3.2-4.3-5.1c1.3,0.1,2.3,0.2,3.4,0.3
		c0-0.9,0-1.6,0-2.4c-0.1-3-0.5-3.4-3.4-3.9c-1.4-0.2-3-0.1-4.3-1.2c0.5-0.9,1-1.8,1.3-2.6c0.6-1.4-0.3-2.6-1.8-2.4
		c-0.7,0.1-1.3,0.5-2,0.8c-1.2,0.6-2.4,1.1-4,1c0.4-1.1,0.7-2,1-2.9c0.2-0.8,0.5-1.8-0.3-2.4c-0.8-0.6-1.7-0.4-2.5,0.1
		c-2.2,1.6-4.5,3.1-6.6,4.7c-0.8,0.6-1.5,1-2.5,0.8c-1.2-0.2-2.5-0.4-3.7,0.1c0.1,1.4,1.2,1.4,1.9,1.7c8.2,3.5,15.8,8,22.9,13.4
		c4.4,3.3,7.9,7.4,10.7,12.2c2.6,4.5,4.6,9.3,6.3,14.2c0.7,2.2,1.4,4.4,2.1,6.6c0.3-0.4,0.3-0.8,0.3-1.2c0.3-1.3,0.8-1.6,2-1.4
		c2.8,0.3,5.7,0.7,8.5,0.8c2.3,0.1,4.4-0.6,5.7-1.9c-0.1-3.5-0.2-6.6-0.2-9.7c0-3.2,2-5.8,3.2-8.6c-1.3-2.6-3.2,0.3-4.9-0.7
		c-0.1-0.8-0.3-1.7-0.4-2.6c-0.2-1.5-0.4-3-0.7-4.5c-0.2-0.6-0.7-1.4-1.2-1.5c-0.5-0.1-1.1,0.6-1.7,1c-0.1,0-0.1,0.1-0.1,0.2
		C425.2,157.5,423.2,160.8,421.4,163.9z M54.8,366.3c2.4-1.8,4.8-3.5,6.3-6.1c0.5-0.9,1-1.9,1-2.9c0-2.2,1-3.6,2.8-4.7
		c0.5-0.3,1-0.8,1.5-1.2c1.1-0.9,1.4-1.9,0.8-3.2c-0.3-0.7-0.6-1.5-0.8-2.2c-0.3-1.4,0.2-2.2,1.5-2.4c1.5-0.2,3-0.2,4.5-0.2
		c0.9,0,1.7,0.2,2.6,0.3c1,0.1,1.5-0.3,1.6-1.3c0.1-0.5,0.1-0.9,0.2-1.4c0.5-5.5,2.9-10,7.2-13.6c1.1-0.9,2-2,3-3.1
		c1-1.1,1.2-2.5,0.6-3.8c-0.6-1.4-1.9-1.3-3.1-1.2c-4.9,0.4-9.7,0.8-14.6,1.2c-1.6,0.1-2.2,0.9-2.5,2.4c-0.3,1.4,0.5,2.2,1.6,2.9
		c1.9,1.2,2.4,2.4,1.9,4.2c-0.5,2-1.8,3.1-4,3.2c-1.7,0.1-3.4,0-5-0.2c-3.6-0.5-6.8,0.6-9.7,2.6c-2.7,1.9-3.2,4.8-1.5,7.6
		c1.8,2.8,3.8,5.4,7.4,6c0.5,0.1,1.4,0.8,1.3,1.1c-0.1,0.6-0.6,1.4-1.1,1.6c-0.6,0.3-1.6,0.5-2.3,0.3c-3.6-1.1-6.4,0.6-9,2.6
		c-1.1,0.9-1.1,2-0.2,3.1c0.6,0.7,1.2,1.2,1.9,1.8C52.9,362.4,52.9,362.4,54.8,366.3z M189.2,196.9c0.7-1.7,0.2-2.7-1.1-3.2
		c-1.2-0.5-2.4-1-3.6-1.3c-2.7-0.8-4.9-2.3-6.7-4.5c-1.5-1.9-3-3.9-4.4-6c-0.5-0.7-0.7-1.6-0.7-2.4c-0.3-7.6,2.3-14.1,7.6-19.5
		c1.9-1.9,4.2-3.5,6.3-5.1c1.4-1.1,2.9-2,4.2-3.1c1.3-1.1,1.4-1.9,0.7-3.5c-0.3,0-0.6,0.1-0.9,0.1c-2.5,0.6-3.9-0.5-3.3-2.9
		c0.5-2.2,1.6-4.2,2.3-6.3c0.4-1.1,0.7-2.3,0.8-3.5c0.1-1-0.3-1.9-1.8-2.2c-0.6,0.9-1.3,1.9-1.8,2.9c-2.2,3.8-4.4,7.6-6.5,11.4
		c-2.2,3.9-7.5,4.3-9.8-0.1c-0.3-0.6-0.7-1.3-1.2-1.8c-0.3-0.3-1-0.5-1.2-0.4c-0.4,0.2-0.8,0.8-0.8,1.3c0,1.2,0.6,2,1.6,2.7
		c3.8,2.8,4.7,6.5,2.4,10.7c-1.2,2.3-1.9,4.7-1.9,7.3c0,0.9-0.3,1.9-0.6,2.8c-0.6,1.4-1.8,2-3.2,2.1c-2.8,0.2-5.1-1.9-5.2-4.7
		c0-0.8,0.1-1.6,0.1-2.4c0-1.9-0.4-2.6-2.1-3.3c-0.7-0.3-1.5-0.6-2.3-0.7c-2.7-0.6-3.9,0.3-4.4,3c-0.3,1.7-0.5,3.5-0.7,5.2
		c-0.5,3.2-0.3,3.4,3,2.9c0.3-0.1,0.6-0.1,1-0.1c4.5-0.4,6.6,1.1,8,5.4c0.4,1.4,1,2.7,1.6,4c1.1,2.3,2.8,4.3,5.1,5.6
		c2.3,1.3,3.7,3.2,5,5.4c2,3.4,4.1,6.6,6.3,9.9c0.2,0.3,0.6,0.6,1,0.9c0.6-1.1-0.2-1.7-0.6-2.3c-0.5-0.7-1.1-1.4-1.6-2.1
		c-0.7-1-0.8-2.1-0.2-3.1c0.7-1.2,1.7-1.8,3-1.5c1.2,0.2,2.3,0.7,3.4,1.1C186.8,195.8,187.9,196.3,189.2,196.9z M205,556.2
		c-1.2,0.6-2.3,1-3.3,1.6c-7.8,4.7-15.6,9.5-23.3,14.2c-2.5,1.5-4.5,3.5-6.2,5.9c-1.5,2.3-2.1,4.8-1.2,7.3c1.5,4.5,3.2,8.9,4.9,13.2
		c0.9,2.3,4.3,3.8,6.6,3.1c2.5-0.7,5-1.6,7.4-2.7c3.7-1.7,5.2-5,4.1-8.9c-0.4-1.4-1-2.7-1.5-4.1c-0.5-1.4-1.1-2.8-1.5-4.3
		c-1.3-4.5-0.4-8.5,2.8-12c1-1.1,2.1-2.2,3.2-3.2c2.3-2.2,4.7-4.3,7.1-6.5C205.1,559,205.6,558,205,556.2z M288.1,542.8
		c-0.4,2.1-0.5,3.7-0.1,5.3c0.6,2.4,1.2,4.8,1.8,7.2c1,3.6,0.5,6.9-1.8,10c-2.5,3.1-2.9,6.5-0.9,10c0.7,1.2,0.7,2.6,0.6,3.9
		c-0.2,2.4-1.4,4.1-3.3,5.6c-3.4,2.6-6.7,5.4-10.1,8.1c-1.6,1.3-2.3,2.9-1.9,4.9c0.7,3.3,1.4,6.6,2.3,9.8c0.5,1.8,1.8,2.9,4,3.1
		c0.2-1.6,0.4-3.1,0.4-4.6c0.2-4.9,1.4-9.5,3.4-13.9c0.4-0.8,0.7-1.6,1-2.4c0.6-1.9,1.3-2.4,3.1-2.2c1.4,0.1,2,0.9,2.2,2.7
		c0.4,3.7-0.4,7-2.9,9.8c-1.5,1.7-2.5,3.7-3.1,5.9c-1.1,3.9,0.8,7,4.8,7.5c2.8,0.4,5.7,0.4,8.6,0.5c2.2,0,2.9-1,2.2-3.1
		c-0.8-2.5-0.5-4.5,1.4-6.3c1.5-1.5,1.9-3.4,0.9-5.3c-0.9-1.8-1.9-3.7-3.1-5.3c-3.6-4.5-6-9.4-7.1-15c-1-5.4-0.6-10.8,0.4-16.2
		C292.2,556,292.1,549.4,288.1,542.8z M114.3,187.1c-0.1,0.5-0.2,0.8-0.2,1.1c-0.2,3.3,0.7,4.4,4.1,4.2c2.6-0.2,5.2-0.6,7.8-1.2
		c3.6-0.8,7.2-1.4,10.9-1c5.3,0.5,8.8,3.3,10.8,8.2c0.7,1.8,1.6,3.5,2.6,5.1c0.6,1,1.6,2.1,2.6,2.3c4.7,1.3,9.5,2.3,14.2,3.3
		c0.5,0.1,1,0,1.4,0c2.7-0.3,3.8-1.6,3-4.2c-0.7-2-1.8-3.9-2.7-5.8c-0.8-1.6-1.7-3.1-2.4-4.7c-0.9-2-1.3-2.3-3.5-2.1
		c-0.6,0.1-1.3,0.2-1.9,0.2c-1.9,0.1-3.7-0.1-5.1-1.5c-2.1-2.1-4.5-2.7-7.5-2.1c-3.4,0.7-4.4,0.1-6.3-3c-0.8-1.3-1.6-2.7-2.5-4.2
		c-2.5,2.7-5.3,2.8-8.3,1.6c-1.3-0.5-2.5-1.3-3.8-2c-1.2-0.6-2.4-1.3-3.6-1.8c-0.5-0.2-1.1,0-2.2,0.1c1,1.2,1.7,2,2.3,2.8
		c0.5,0.7,1.2,1.3,1.6,2.1c0.7,1.2,0.5,2-0.6,2.9c-1,0.8-2.1,1.3-3.3,1c-1.1-0.2-2.2-0.5-3.2-0.9
		C117.3,186.8,115.9,186.6,114.3,187.1z M143.1,200.8c-0.7,0.4-1.3,0.5-1.6,0.9c-1.9,2.7-4.5,4.5-7.2,6.3c-2.7,1.8-2.9,4.1-0.5,6.3
		c0.6,0.6,1.4,1.1,2,1.7c0.7,0.7,1.5,1.5,2,2.4c1.6,2.9-0.1,6.3-3.4,6.6c-2.8,0.2-5.8,0.2-8.6-0.1c-2.3-0.2-3.8-1.8-4.3-4.2
		c-0.6-2.8,0.2-5.2,2.3-7.1c1.3-1.2,2.7-2.3,3.9-3.6c1.5-1.6,1-3.3-0.9-4.2c-1.5-0.7-2.7-0.5-3.6,0.9c-1,1.5-1.9,3.1-2.5,4.8
		c-0.6,1.8-0.8,3.7-1.2,5.6c-0.5,2.1-0.3,4.1,0.9,6c0.9,1.4,1.4,3.1,1,4.8c-0.4,1.8,0.1,3.3,0.9,5.1c1.3-0.6,2.5-1.2,3.7-1.7
		c2.1-1,3.4-0.5,3.7,1.9c0.4,2.4,0.6,4.9,0.9,7.4c0.2,2.4-0.7,4.2-2.6,5.5c-0.7,0.5-1.4,0.8-2,1.4c-2.5,2.1-2.3,6.6,0.4,8.4
		c1.4,0.9,2.3,0.5,2.5-1.1c0.1-0.8,0-1.6,0-2.4c0.1-2,1.2-3.6,2.6-3.9c1.4-0.2,2.9,0.8,3.7,2.5c0.8,1.7,0.8,3.4,0.1,5.1
		c-0.4,1-0.9,2.1-1.1,3.2c-0.3,1.3,0.1,2,1.4,2.3c1.5,0.4,3,0.7,4.4,1c0.9-1.3,0.5-2.3,0-3.3c-0.5-1.2-1-2.3-1.3-3.6
		c-0.2-0.8-0.3-1.8,0.1-2.5c1.2-2.4,0.4-4.3-1.3-6.1c-1-1-2-2.1-2.8-3.2c-1.7-2.5-1.9-5.1,0-7.6c2.3-3.1,3.8-6.4,4.6-10.2
		c0.4-1.9,1.3-3.4,2.8-4.6c1.5-1.2,3.1-2.3,4.5-3.5c0.8-0.6,1.4-1.4,2.3-2.2c-0.9-0.8-1.6-1.4-2.3-1.8c-2.9-1.8-3.9-4.4-3.5-7.8
		C143.3,204.4,143.1,202.8,143.1,200.8z M511.5,369.8c-1.2,0.3-2.3,0.3-3.4-0.5c-3.7-2.7-7.2-1.9-10.7,0.4c-1.7,1.1-2,2.1-1.2,3.9
		c1.2,2.9,2.5,5.7,4,8.5c0.7,1.3,2,2.5,3.3,3.4c1.7,1.2,3.6,0.6,4.8-1.2c0.4-0.5,0.6-1.1,0.9-1.7c2-4.2,4.5-8.1,7.5-11.7
		c0.5-0.5,1.2-0.9,2.1-1.5c0.8,3.9-1.6,6.8-1.6,10c5.6-1.6,7.7-18.2,2.9-22.1c-1.6,2.2-2.4,2.5-5.1,1.8c-0.5-0.1-1-0.2-1.4-0.4
		c-6.2-3-12.2-1.5-18.1,0.8c-1.6,0.6-1.9,1.4-1.6,3c0.2,1,0.5,2,0.8,3c0.5,1.4,1,1.6,2.4,1c1.4-0.6,2.7-1.4,4.1-2.1
		c2.2-1.1,4.6-1.4,7-0.7C510.9,364.6,512.1,366.6,511.5,369.8z M272.5,157.8c-0.7,1.7-1.3,3.3-1.9,4.9c-0.4,1-1.1,1.5-2,1.2
		c-0.6-0.2-1.2-1.1-1.3-1.8c-0.1-0.8,0.3-1.7,0.7-2.5c1.6-3.1,1.2-5.9-1.1-8.4c-2.8-2.9-5.7-5.8-8.7-8.6c-1.4-1.3-3.2-1.7-5.1-1.9
		c-1.2-0.1-1.6,0.4-1.6,1.5c0.1,1.4,0,2.9,0.2,4.3c0.1,0.9,0.4,2.1,1,2.6c1.3,1,1.9,2.3,2.5,3.7c1.6,3.2,1.6,3.2,5.1,2.5
		c0,1.3,0.2,2.7,0,4c-0.8,3.8-1.6,7.7-2.7,11.4c-1.2,4.2-2.7,8.4-4.1,12.5c-0.4,1.2-0.7,2.4,0.1,3.9c0.8-0.8,1.5-1.4,2.1-2.1
		c0.7-0.8,1.2-1.7,1.8-2.6c4.4-6.8,10.2-12.5,16.1-18c0.3-0.3,0.6-0.5,0.9-0.8c5-4.1,8.9-4.2,14.1-0.4c0.6,0.4,1.2,0.8,1.8,1.3
		c1.1,0.7,1.9,0.4,2.6-0.5c-0.7-1.1-1.7-1.9-2-2.9c-0.7-2.8-2.8-3.4-5.1-4c-0.7-0.2-1.4-0.2-2.1-0.3c-2.5-0.6-4.9-1.2-7.4-1.8
		C275.1,156,274.7,158.1,272.5,157.8z M242.8,587.6c-1.6,0.9-2.2,1.9-2.9,3c-3,5.1-6,10.1-9.5,14.9c-2.7,3.6-2.6,7.7-0.4,11.5
		c2.8,4.9,10.3,8,15.8,6.7c1.7-0.4,2.8-1.4,3.4-3c0.8-2.5,0.5-4.7-1.4-6.6c-2-1.9-2.2-3.1-1.1-5.3c1.6-3.2,1.3-6.2-0.6-9.1
		C243.7,596.2,241.8,592.5,242.8,587.6z M96.9,221.7c-2.9,0.9-5.8,1.6-8.4,2.8c-6.5,3.2-10.4,8.6-11.7,15.7
		c-0.3,1.6-0.4,3.2,0.7,4.6c2.3,2.9,2.7,6.2,2,9.8c-0.2,0.9-0.3,1.9-0.2,2.8c0.2,1.5,1,2.7,2.5,3.2c1.2,0.4,2.8-0.3,3.7-1.6
		c1.5-2,1.4-4.2-0.2-6.1c-0.5-0.5-1.1-1-1.5-1.6c-1-1.3-0.6-2.7,1-3.2c1.4-0.4,2.8-0.2,4.2,0.5c2.1,1,2.6,0.9,4.2-0.7
		c3.3-3.3,6.9-6.2,11.2-8.1c1.4-0.6,1.7-1.6,0.6-2.6c-1.7-1.6-3.5-3.3-5.5-4.5c-2-1.2-4.2-0.1-4.9,2.1c-0.2,0.6-0.2,1.3-0.3,1.9
		c-0.1,1.1-0.2,2.2-0.3,3.3c-0.6,3.5-3.9,5.7-7,4.7c-2.1-0.7-3.3-3-2.9-5.7c0.2-1.8,0.7-2,3.5-2.2c0.2,0,0.5,0,0.7,0
		c1.9-0.2,2.8-1,3.3-2.9c0.2-0.8,0.3-1.6,0.6-2.3c0.6-1.3,1.6-2.2,3.1-2.4c0.4,0,0.8,0,1.2-0.1c2.1-0.2,3.1-1.5,2.9-3.6
		C99.1,223.9,98.4,222.5,96.9,221.7z M288.2,146c0.5,0,0.7,0,0.8-0.1c0.6-0.3,1.2-0.5,1.7-0.8c6.3-3.1,12.8-5.4,19.6-7.1
		c11.2-2.8,22.7-2.6,34.1-2.6c3.5,0,7,0,10.6,0.1c0.4,0,0.9-0.1,1.7-0.3c-5.8-3.8-12.2-5.1-18-7.9c9.6,1.7,19,4.1,28.5,7.7
		c-1.9-3.4-2.5-6.5-2.9-9.6c-0.2-1.3-0.7-2.4-2.2-3c0.2,0.8,0.4,1.3,0.4,1.8c0,1.3,0.1,2.7,0,4c-0.1,1-0.5,2.2-1.9,2.1
		c-1.2,0-1.5-1.1-1.7-2c-0.2-1.1-0.4-2.2-0.4-3.3c0-1.2-0.1-2.1-1.3-2.5c-0.9-0.3-1.4-1-1.3-2c0-0.2-0.2-0.5-0.3-0.7
		c-0.3,0.3-0.3,0.6-0.3,0.9c-0.1,1.8,0,3.7-0.4,5.4c-0.3,1.7-1.3,2-2.8,1.2c-1-0.5-2-1.1-3-1.5c-4.3-1.5-8.8-1.6-13.3-1.3
		c-0.8,0.1-1.7,0.8-2.4,1.4c-1.2,1.1-2.4,1.8-4,1.8c-0.5,0-1,0.1-1.2,0.1c0,2.1,0.1,4,0,5.9c-0.1,1.2-1.1,1.7-2.1,1.2
		c-1.8-1.1-4.2-1.2-5.6-3c-0.3-0.3-0.8-0.4-1.3-0.7c-1.7,3.7-4.7,5.2-8.4,5.7c-4.2,0.6-8.1-0.3-11.7-2.4c-2-1.1-3.8-2.4-4.3-4.8
		c-0.2-0.9-0.8-1.7-2-1.8c-0.9,1.2-0.4,2.1,0.3,3.1c1.5,2,1.6,4.2,0.7,6.4c-0.5,1.3-1.3,2.6-2.1,3.8
		C290.7,142.7,289.5,144.2,288.2,146z M231.9,243.2c-0.2,2,0.3,3.3,1.3,4.3c1.3,1.3,2.7,2.5,4.1,3.6c2.6,2.1,3.8,4.6,3.1,8
		c-0.9,4.5-2.2,8.8-4.3,12.9c-1.7,3.2-2.2,6.5-0.6,9.9c0.3,0.6,0.3,1.2,0.4,1.9c0.3,1.8,0.7,3.6,1.8,5.1c0.9,1.2,0.8,2.5,0.1,3.8
		c-1.3,2.3-1,2.8,1.6,3.7c1.6,0.5,3.1,1.2,4.7,1.8c1.4,0.6,2.4,1.6,3,3c0.4,0.9,0.7,1.8,1.2,2.6c0.6,0.8,1.3,1.7,2.1,2.3
		c0.9,0.7,2,0,1.9-1.2c-0.1-0.7-0.4-1.4-0.8-1.9c-3.8-5.9-6.2-12.4-8.4-19c-0.4-1.3-0.5-2.4,0.3-3.5c1.6,0,2.4,0.8,3.1,2
		c0.6,1.2,1.3,2.4,1.9,3.6c1.1,2.1,2.1,4.1,3.2,6.2c0.5,0.9,1,1.7,2.4,0.9c-0.2-0.9-0.3-1.8-0.6-2.7c-1.1-3.3-2.5-6.6-3.5-9.9
		c-0.8-2.7-2-4.7-4.7-6c-2.4-1.2-3-3-2.2-5.6c0.5-1.5,1.1-3,1.6-4.5c0.7-2.1,0.7-4.2-0.5-6c-2.4-3.8-4.8-7.5-7.4-11.2
		C235.7,245.6,233.9,244.5,231.9,243.2z M242.7,525.5c-0.2-0.1-0.4-0.1-0.7-0.2c-3.3,3.6-6.5,7.2-9.2,11.3c-0.7,1-1,2.3-1.3,3.6
		c-0.6,3.2,0.5,6,2.7,8.3c3.1,3.3,4.3,7.2,4.1,11.6c-0.1,1.5-0.1,3-0.1,4.6c0,2.7,0.9,5.3,1.8,7.8c1.4-0.1,1.6-1.2,2-2
		c1.5-3.2,2.8-6.5,4.4-9.6c2-3.8,2-7.2-0.8-10.7c-1.6-1.9-2.2-4.2-1.7-6.8c0.6-3.3,0.3-6.3-1.5-9.2c-1.1-1.9-1.2-3.9-0.3-6
		C242.5,527.3,242.6,526.4,242.7,525.5z M228.3,582.2c-0.2-0.2-0.4-0.4-0.6-0.5c-0.6,0.3-1.2,0.5-1.8,0.9c-4.7,3.3-9.4,6.6-14.2,9.9
		c-2.3,1.6-3.3,3.8-3.3,6.6c0.1,3.9,0.1,7.8,0.1,11.8c0,1.9,0.4,3.5,2.2,4.4c1.9,1,3.9,0.8,5.4-0.6c2.5-2.3,4.9-4.8,7.2-7.3
		c1.1-1.3,1.2-2.9,0.6-4.5c-0.6-1.6-1.2-3.2-1.4-4.8c-0.2-1.5-0.1-3.2,0.3-4.7c0.3-1.3,1.1-2.5,1.8-3.6
		C226.2,587.3,227.3,584.8,228.3,582.2z M306.5,567.8c-1.3,1.2-1.5,2.4-1.2,4c0.8,3.9,1.4,7.9,2.2,11.8c1.2,6.3,2.5,12.5,3.8,18.8
		c1.4,6.5,5.5,10.8,11.5,14.1c0.5-1.2,1.2-2.2,1.4-3.4c0.3-1.5,0.3-3.2,0.5-4.8c0.2-1.4-0.3-2.3-1.3-3.1c-4.1-3.4-6.3-7.8-6.2-13.2
		c0-3.5-1.3-6.6-3.1-9.5c-0.8-1.3-1.6-2.6-2.4-3.9c-1.5-2.4-2.5-5-2.3-7.9c0.1-0.9-0.3-1.5-1.1-1.9
		C307.7,568.4,307.1,568.1,306.5,567.8z M73.2,298.1c2,0,3.6,0,5.2,0c6.2-0.2,11-2.7,13.8-8.3c1.4-2.7,2.2-4.1-2-4.5
		c-2.1-0.2-2.8-1.5-2.5-3.6c0-0.3,0.2-0.6,0.2-0.9c0.8-3.5-0.2-6.3-3-8.5c-1.5-1.1-3-2.2-4.5-3.2c-1.7-1.2-3.4-1.4-5.2-0.3
		c-1.7,1-3.6,1.3-5.5,1.3c-1.5,0-3-0.1-4.6-0.2c-3.5-0.1-6.3,1.5-7.6,4.4c-0.2,0.5-0.2,1.2-0.3,1.9c2.9,0.4,5.3,0.2,7.7-0.9
		c3.7-1.8,7.7-2.4,11.9-2.4c4.1,0,7,5.6,5.2,8.6c-1.2,1.9-1.6,4-1.9,6.1c-0.3,2.1-1.1,3.7-2.9,5C75.5,293.7,74.1,295.5,73.2,298.1z
		 M268.9,554.8c-0.2,0-0.4-0.1-0.6-0.1c-0.5,1.3-1.3,2.5-1.6,3.9c-0.4,1.8-0.5,3.6-0.5,5.5c0,3.4-1.1,6.1-3.9,8
		c-2,1.3-2.6,3.1-2.3,5.4c0.1,0.4,0.1,0.8,0.2,1.2c0.6,3.6,0.9,7.1-2,10.1c-1,1-1.1,2.5-0.4,3.8c0.8,1.4,1.7,2.6,2.8,4.2
		c1.7-1.9,3.2-3.5,4.7-5.2c1.7-2,3.5-3.9,6.3-4.4c0.5-0.1,1.1-0.6,1.4-1.1c0.9-1.4,1.7-2.9,2.4-4.4c0.9-2,0.6-3.9-1-5.5
		c-0.6-0.6-1.3-1.2-2-1.7c-2.6-1.9-3.5-4.4-3-7.6c0.2-1.3,0.6-2.7,0.8-4C270.8,560,270.5,557.3,268.9,554.8z M150,252.6
		c-1.2,0.9-1.9,2.2-1.9,3.7c0,1.6,0.1,3.2,0.3,4.8c0.2,1.3,0.6,2.5,0.8,3.7c0.3,2.5-0.9,4-3.4,4.3c-0.9,0.1-1.8,0.1-2.6,0.1
		c-4.3,0.1-8.6,0.1-12.9,0.2c-0.6,0-1.1,0.1-1.7,0.2c-1.2,0.4-2.2,2.1-2,3.2c0.2,1.1,0.9,1.5,2.5,1.7c3.5,0.3,7,0.6,10.5,0.9
		c1.4,0.1,2.4,0.6,3.3,1.7c1.3,1.5,3,2.6,5,2.6c2.6,0,5.3-0.1,7.8-0.6c2.9-0.6,3.5-2.6,1.7-5c-0.1-0.2-0.3-0.4-0.5-0.5
		c-1.5-1.6-2-3.6-1.7-5.8c0.1-1,0.4-2,0.5-3.1c0.2-1.5,0-2.8-1.4-3.8c-1.8-1.3-2.6-3.2-2.9-5.4C151.4,254.4,151.2,253.3,150,252.6z
		 M397.7,592.1c0.2-0.1,0.3-0.2,0.5-0.3c0-0.6,0-1.3-0.2-1.8c-0.8-2.3-1.5-4.5-2.5-6.7c-1.3-3-2.5-6.1-2.6-9.4
		c0-1.9-0.9-2.9-2.6-3.5c-1.2-0.4-2.5-0.7-3.6-1.3c-1.4-0.7-2.8-1.5-3.9-2.6c-3.1-3.2-6.8-5.5-10.8-7.4c-2.3-1.1-3.6-0.2-3.2,2.3
		c0.1,0.8,0.6,1.6,1.2,2.3c0.6,0.7,1.4,1.3,2.2,1.8c5.1,3.3,8.6,7.8,10.6,13.5c0.8,2.3,2.2,4.2,4,5.9
		C390.1,587.7,394.2,589.6,397.7,592.1z M131,566.9c0.3,1,0.4,2.3,1.1,3.1c1.4,1.8,4.9,2.4,7.2,1.6c3.2-1.1,5.9-3.1,7.7-5.8
		c2.3-3.4,4.4-6.9,6.2-10.5c0.8-1.6,0.9-3.5,1.1-5.3c0.2-1.6-0.7-2.2-2.2-1.5c-1.2,0.6-2.4,1.2-3.6,1.8c-2.4,1.2-4.8,2.4-6.3,4.6
		c-1.8,2.5-4.1,4.2-6.5,5.9c-0.8,0.6-1.6,1.1-2.3,1.7C131.8,563.6,131.1,565,131,566.9z M434,184.6c1.1,0.2,1.7,0.2,2.3,0.4
		c2.3,0.5,4.9,0.6,6.9,1.6c4.5,2.2,8.4,1.8,12.3-1.1c1.1-0.8,2.7-1.1,4.2-1.7c-0.1-1,0.7-2.3-0.7-3.5c-3.2-2.8-5.8-6.2-8.1-9.7
		c-0.8-1.2-1.6-2.3-3.2-3.1c-1.4,4.3-3.8,8-3.7,12.6c0,1.3-1,2.4-2.3,2.8c-1.7,0.5-3.5,1.4-5.1-0.2
		C435.9,183.3,435.1,183.8,434,184.6z M127.9,529.1c-2.4,2.4-4.9,3.4-8,2.5c-1.4-0.4-2.5,0.1-3.3,1.3c-0.8,1.1-1.6,2.2-2.4,3.3
		c-1.7,2.3-3.8,4-6.8,4.5c-1.6,0.3-1.9,1-1,2.4c1,1.7,2.2,3.4,3.3,5c1.3,1.9,2.4,2.2,4.5,1.4c3.6-1.3,6.3-3.6,7.7-7.3
		c1.4-3.6,3.3-6.9,6.3-9.5c0.6-0.5,1-1.2,1.5-1.9C129.1,530.2,128.6,529.7,127.9,529.1z M103.3,248.2c0.5,0.8,0.8,1.6,1.3,2.3
		c3,3.6,6,7.1,8.9,10.6c1.2,1.4,2.7,2.5,4.4,3.2c1.6,0.7,2.7,0.5,3.8-0.8c0.8-1,0.7-1.7-0.4-3.2c-1.3-1.9-2.7-3.7-4-5.7
		c-1.3-2.1-2.4-4.4-2.5-6.9c-0.1-1.5,0-3,0.3-4.5c0.2-1,0.3-1.9-0.6-2.6c-0.9-0.7-1.7-0.1-2.5,0.2c-1.4,0.7-3,1.2-4.3,2.1
		c-1.3,0.8-2.4,1.9-3.4,3C103.9,246.4,103.7,247.3,103.3,248.2z M158.2,219.2c-0.3,0-0.4-0.1-0.5,0c-1.7,1-3.4,2.1-5.6,1.9
		c-1.1-0.1-1.6,0.9-2,1.8c-0.4,0.9-0.8,1.9-1.5,2.7c-2.4,2.9-4.2,9.1-3.6,13.3c0.9,0,1.8,0.2,2.7,0.1c1.7,0,3.1,0.3,4,1.9
		c1,1.7,3.1,1.7,4.4,0.2c0.4-0.5,0.8-1.2,1-1.9c0.8-2.8,1.6-5.5,2.3-8.3c0.2-0.8,0.1-1.8,0.2-3c-1.4,1.1-1.4,1.1-1.8,2.5
		c-0.6,2.1-2.7,2.8-4.5,1.6c-1-0.7-1.5-1.8-1.5-3.1c0-1.9,0.8-3.4,2.1-4.7c0.9-0.9,2-1.6,3-2.4C157.8,221.1,158.5,220.4,158.2,219.2
		z M516.9,353.7c2.1-1.9,4-3.7,5.9-5.5c0.9-0.9,2-1.7,2.8-2.6c1.4-1.5,1.2-2.4-0.6-3.9c-0.3,0.3-0.7,0.6-0.9,1
		c-1.4,1.7-3.1,2.5-5.2,2.3c-1.8-0.1-3.5-0.2-5.3-0.3c-2.8-0.2-5-1.5-6.3-4.1c-0.5-1-1.2-1.7-2.2-2c-2.2-0.7-3.1-2.3-3.1-4.6
		c0-1.2-0.2-2.4-0.4-3.5c-0.1-0.4-0.6-0.7-1.1-1.4c-1.8,6.2,0,11.8,0.4,17.6c0.6-0.1,0.9-0.1,1.2-0.2c4.3-1.8,7.7-0.6,10.6,2.8
		C513.8,350.9,515.4,352.2,516.9,353.7z M430.2,543.3c-0.6,0-0.9-0.1-1.1-0.1c-2.4,0-3.2,1-2.5,3.3c0.2,0.7,0.6,1.3,1,1.9
		c1,1.3,2.4,2,3.9,2.6c2.7,0.9,5.1,2.3,6.8,4.7c2.1,3.1,4.5,2.7,7.3,1.2c2.1-1.1,2.3-3.9,0.3-5.4c-0.8-0.6-1.8-0.9-2.7-1.5
		c-0.8-0.5-1.8-0.9-2.3-1.6C438.1,544.7,434.2,543.4,430.2,543.3z M222.5,555.8c-6.4,3.7-10.5,13.4-9.8,23.8
		c2.6-2.5,5.2-4.7,7.6-7.1C225.1,567.5,225.8,562.2,222.5,555.8z M456.1,548.1c0.1-0.2,0.2-0.4,0.3-0.5c-0.3-0.5-0.5-1.2-0.9-1.6
		c-2.5-2.8-4.9-5.7-7.6-8.3c-3.3-3.2-7.3-4.9-11.9-4.6c-1,0.1-1.9-0.1-2.9-0.1c-0.7,0-1.5,0.1-2.1,0.3c-1.2,0.4-2.1,2-1.8,3
		c0.4,1.3,1.4,1.6,2.6,1.6c0.8,0,1.6,0,2.4,0.1c3.2,0.3,6.2,1.1,8.6,3.2c3.3,2.9,7.2,4.7,11.2,6.5
		C454.6,547.9,455.4,547.9,456.1,548.1z M360.5,578.9c-0.2,0-0.3,0-0.5,0c-0.6,2-1.2,4-1.9,6c-2.6,7.7-0.2,14.4,3.7,20.9
		c1,1.6,3.6,2.1,4.8,1c1.5-1.4,1.9-3.9,0.8-5.7c-0.4-0.7-0.9-1.3-1.5-1.9c-2.2-2.2-3.4-5-3.8-8.1c-0.3-2.8-0.7-5.5-1.1-8.3
		C361,581.5,360.7,580.2,360.5,578.9z M206.6,298.6c0.7-0.6,1.2-0.9,1.6-1.2c0.4-0.4,0.8-0.8,1.3-1.1c1.5-1.1,2.1-1,3.1,0.5
		c0.4,0.6,0.6,1.5,1.8,1.5c1.5-2.1,3.4-4.2,6.1-4.6c2.5-0.4,5.1-0.2,7.9-0.2c-0.8-1-1.8-1.5-2.9-1.9c-2.4-0.8-4.8-1.7-7.2-2.5
		c-6.3-2.4-5.3-2.2-11,1c-0.1,0.1-0.3,0.1-0.4,0.2c-0.8,0.5-1.1,1.3-0.7,2c0.6,1.2,0.5,2.4,0.4,3.7
		C206.3,296.8,206.5,297.6,206.6,298.6z M515.3,432.1c0.1,0.1,0.3,0.3,0.4,0.4c0.7-0.4,1.4-0.6,2-1.1c2.3-1.8,4.6-3.6,6.9-5.5
		c0.9-0.8,1.8-1.6,2.6-2.5c1.9-2.4,1.6-5.4-0.9-7.1c-1-0.7-2-1.2-3.1-1.7c-1.4-0.5-2.1-0.3-2.8,1c-0.6,1.1-1.1,2.3-1.5,3.5
		c-1.2,3.9-2.3,7.8-3.4,11.7C515.4,431.2,515.4,431.6,515.3,432.1z M414.1,527.1c-0.5-0.3-1.1-0.7-1.7-1c-2.8-1.3-5.7-2.6-8.5-3.8
		c-0.7-0.3-1.5-0.5-2.3-0.7c-2.8-0.6-5.3-1.7-7.6-3.4c-0.6-0.5-1.4-0.8-2.1-1c-3.2-0.8-6.4-1.5-9.6-2.2c-2-0.4-2.7,0.1-3,2.6
		c2.4,0.2,4.7,0.4,7.1,0.7c3.3,0.4,6.5,1.2,8.5,4.2c1,1.4,2.2,2.3,3.8,2.8c3.5,1.1,7,2.3,10.5,3.4c1,0.3,2.2,0.3,3.3,0.3
		C413.5,528.8,414,528.3,414.1,527.1z M277.2,131.6c0.9-3.1,0-4.9-2.9-5.6c-2-0.5-3.6-1.3-5-2.9c-2.2-2.6-6.5-2.3-8.6,0.4
		c-0.3,0.3-0.5,1-0.3,1.3c0.9,1.7,0.6,3.4,0.4,5.2c-0.1,0.7,0.2,1.3,0.4,2.3c1.1-0.6,2-1,2.8-1.5c2.6-1.6,5.3-2.1,8.2-1
		C273.7,130.4,275.4,130.9,277.2,131.6z M448.8,199c-0.1-0.7-0.2-1.3-0.3-1.9c-0.2-0.9-0.7-1.3-1.6-1.5c-3-0.3-6-0.8-9-1.1
		c-0.5,0-1.1,0.1-1.5,0.4c-1.6,1.5-1.8,3.1-0.6,4.9c1.6,2.3,2.7,4.7,3,7.5c0,0.2,0.2,0.3,0.3,0.4c1.5-1.2,3-2.3,4.4-3.4
		c0.3-0.3,0.6-0.8,0.7-1.2c0.4-1.5,1.2-2.5,2.7-3.1C447.6,199.9,448.2,199.4,448.8,199z M339.6,115.9c-2.4-1.4-4.5-2.1-6.8-2
		c-2.8,0.1-5.6,0.4-8.3,0.8c-2.1,0.3-3.4,2-3.5,4.2c-0.1,1.2,0.2,2.2,1.2,3c1,0.7,2,0.5,3.1-0.2c2.9-1.7,6.1-2.7,9.6-2.3
		c0.5,0,1.2-0.1,1.5-0.4C337.4,118.1,338.4,117,339.6,115.9z M275.3,152.2c3.6,0.2,6.7-1.3,10.4-4.7c-0.5-1.3-1-2.5-1.2-3.7
		c-0.3-1.4-0.3-2.9-0.5-4.3c-0.2-1.4-0.8-2.4-2.1-3c-1.7-0.9-2.7-0.3-2.8,1.7c-0.2,4-1.1,7.7-2.7,11.4
		C276.1,150.4,275.8,151.2,275.3,152.2z M246.8,135.6c0.9-1,0.7-2,0.4-3c-0.4-1.7-0.4-3.3,0.5-4.9c0.4-0.7,0.5-1.7,0.4-2.5
		c-0.2-1.5,0.2-2.4,1.4-3.3c0.8-0.6,1.5-1.4,2.3-2c-0.3-0.9-0.5-1.7-0.9-2.4c-0.4-0.8-1.4-1.3-1.9-0.5c-1.3,1.7-3.2,2.3-4.9,3.3
		c-1.4,0.8-2,1.8-1.4,2.9c0.9,1.9,1.1,3.8,1,5.8c0,0.5,0.3,1.1,0.5,1.6c0.5,1.2,1.1,2.5,1.7,3.7
		C246.1,134.7,246.5,135.1,246.8,135.6z M266.7,610.6c-1.1,2.4-2.1,4.5-3,6.6c-0.6,1.5-1.3,3.1-1.7,4.7c-0.5,2.1,0.7,3.4,2.8,3.5
		c1.4,0,2.2-0.9,2.6-2.1c0.7-2.1,1.5-4.2,2-6.4C270,614.5,269.1,612.5,266.7,610.6z M103.8,217.8c-0.5,3.6-0.2,7,0.7,10.3
		c0.4,1.5,1.3,2.8,2.9,3.3c2,0.6,4.1,0.6,6.1,0.1c0.6-1.9-0.6-2.6-1.7-3.4c-2.8-1.9-4.9-4.3-5-8C106.7,218.6,106,218.2,103.8,217.8z
		 M313.3,128.4c-5.3-2.8-11.2-1.2-12.3,3.5c4,2,8,2.6,12.3,1.1C313.3,131.4,313.3,130,313.3,128.4z M529.7,413.3c0-2.7-0.1-4.8,0-7
		c0-1.2-0.4-2.1-1.4-2.8c-1.9-1.4-3.8-2.9-5.7-4.4c-0.4-0.3-0.9-0.5-1.4-0.8c0.6,6.6,0.6,6.6,4.6,11.3c0.8,0.9,1.5,1.8,2.4,2.7
		C528.5,412.6,528.9,412.8,529.7,413.3z M139.5,177.8c0.1-0.2,0.3-0.4,0.4-0.6c0.8-3.2,1.7-6.3,2.4-9.5c0.2-0.7,0.2-1.6-0.1-2.3
		c-0.6-1.7-1.9-1.9-3.1-0.6C135.7,168.5,136.2,175.1,139.5,177.8z M430,560.9c0,0.9-0.1,1.7,0,2.3c0.6,2.6,1.3,5.3,2,7.9
		c0.2,0.6,0.8,1.4,1.3,1.4c0.5,0.1,1.3-0.5,1.7-1.1c0.9-1.4,1.6-2.9,2.3-4.4c0.7-1.6,0.2-2.7-1.5-3c-1.9-0.4-3.4-1.2-4.8-2.5
		C430.7,561.3,430.5,561.2,430,560.9z M284.5,135.4c2,0,3.7-1.7,3.8-3.9c0-2.3-1.7-4.2-3.7-4.2c-1.9,0-3.4,1.9-3.4,4.1
		C281.1,133.6,282.7,135.4,284.5,135.4z M94.3,515.9c-2.6,1-3.2,3.1-3.6,5.2c-0.2,1,0.2,1.5,1.1,1.8c2.1,0.7,4.1,0.8,6.3-0.5
		C96.8,520.2,95.6,518.1,94.3,515.9z M401.5,578c2.2,3.7,5,5.4,8.7,5.9c0.3,0,0.6,0,1,0c1.5-0.3,2-1.4,1-2.6c-0.8-1.1-2-1.6-3.3-1.7
		c-1.9-0.2-3.8-0.4-5.5-1.6C403.1,577.8,402.5,578,401.5,578z M367.7,124.2c1,3,1.2,5.6,2.7,7.9c0.9-1.5,1.8-2.7,2.5-4
		c0.7-1.2,0.5-1.7-0.7-2.3C370.9,125.3,369.6,124.9,367.7,124.2z M475.6,233.2c0.1,0.1,0.3,0.2,0.4,0.3c0.8-0.5,1.6-1,2.3-1.6
		c2.2-1.7,2.2-3-0.1-5.2C477.4,228.8,476.5,231,475.6,233.2z M56.2,453.2c-2.6,2.4-2.9,4.2-1.2,6.7
		C55.4,457.5,55.8,455.3,56.2,453.2z"/>
</g>
<text transform="matrix(1 0 0 1 614 315.4045)" class="st2 st3">Gaia Evolution</text>
<text transform="matrix(1 0 0 1 825.3333 423.3757)" class="st2 st4">Salon</text>
</svg>
